<svg xmlns="http://www.w3.org/2000/svg" viewBox="0 0 512 512"><path d="M407.4 200.3c-11.3-2.4-22.1-5.7-32.1-9.7-12-5.3-23.3-11.9-33.6-19.6-10.3-8.2-19.7-17.7-28.1-28.2-9.6-12.8-17.9-27.1-24.6-42.5-2.1-5.2-4.1-10.5-5.7-15.6l-5.8-17.5-3.4 18.1c-4 21.6-10.1 41.9-18.2 60.4l-1 2.2 1.2 2.1c6.4 10.9 14 21.5 22.4 31.6 15.7 18.9 35.4 35.2 57 47l3.2 1.7 2.1-.9c14.9-6.5 27.4-11 39.3-14.2 8.5-2.3 17.5-4.2 26.9-5.8l24.5-4.1z" style="fill:#ab82f9"/><path d="M32.8 290c7.5.6 15.2.4 22.7.1 21-1 42.2-4.1 62.5-9.5 13.6-3.7 26.7-8.7 39.7-14.4 11.4-5 22.4-11.1 32.7-18.2 27.8-19.3 51.2-44.3 67.3-74.2C278.1 135.3 287 92.4 289 49.2c.3-5.8.4-11.6.4-17.3 0-8.2-3.6-16.7-9.3-22.5-5.5-5.5-14.6-9.7-22.5-9.3-8.2.4-16.8 3.1-22.5 9.3s-9.3 13.9-9.3 22.5c0 15.4-.9 30.7-2.9 46 .4-2.8.8-5.6 1.1-8.5-2.9 21.7-8.2 43-16.6 63.2 1.1-2.5 2.1-5.1 3.2-7.6-6.3 15-14.4 29.1-24.3 42 1.7-2.1 3.3-4.3 5-6.4-9.2 11.9-19.9 22.6-31.8 31.8 2.1-1.7 4.3-3.3 6.4-5-13.2 10.2-27.8 18.5-43.1 24.9 2.5-1.1 5.1-2.1 7.6-3.2-15.7 6.6-32.1 11.3-48.9 14.4-4.1.8-8.2 1.4-12.4 2 2.8-.4 5.6-.8 8.5-1.1-14 1.9-28.2 2.8-42.3 2.1-.8 0-1.7-.1-2.5-.2-7.7-.7-17.2 4-22.5 9.3-5.5 5.5-9.7 14.6-9.3 22.5.4 8.2 3.1 16.8 9.3 22.5 2.1 1.7 4.3 3.3 6.4 5 5 2.9 10.3 4.3 16.1 4.4" style="fill:#a063fc"/><path d="M257 354.6c-5.5-8.6-11.7-17.1-18.4-25.2-15.7-18.9-35.4-35.2-57-47-1.6-.9-3.1-1.7-4.7-2.5l-2-1-3.2 1.5c-.4.2-.8.4-1.2.5-15.2 6.7-28 11.3-40.2 14.6-7.7 2.1-15.9 3.9-24.3 5.3l-25.1 4.4 25 4.9c12.6 2.5 24.7 6 35.9 10.5 12 5.3 23.3 11.9 33.6 19.6 10.3 8.2 19.7 17.7 28.1 28.2 9.6 12.8 17.9 27.1 24.6 42.5.5 1.3 1 2.6 1.6 3.9l5.6 14.4 3.4-15.1c4.4-19.6 10.6-38 18.5-54.9l1.1-2.3z" style="fill:#8c69e0"/><path d="M479.2 222c-7.5-.6-15.2-.4-22.7-.1-21 1-42.2 4.1-62.5 9.5-13.6 3.7-26.7 8.7-39.7 14.4-11.4 5-22.4 11.1-32.7 18.2-27.8 19.3-51.2 44.3-67.3 74.2-20.5 38.3-29.4 81.3-31.4 124.5-.3 5.8-.4 11.6-.4 17.3 0 8.2 3.6 16.7 9.3 22.5 5.5 5.5 14.6 9.7 22.5 9.3 8.2-.4 16.8-3.1 22.5-9.3s9.3-13.9 9.3-22.5c0-15.4.9-30.7 2.9-46-.4 2.8-.8 5.6-1.1 8.5 2.9-21.7 8.2-43 16.6-63.2-1.1 2.5-2.1 5.1-3.2 7.6 6.3-15 14.4-29.1 24.3-42-1.7 2.1-3.3 4.3-5 6.4 9.2-11.9 19.9-22.6 31.8-31.8-2.1 1.7-4.3 3.3-6.4 5 13.2-10.2 27.8-18.5 43.1-24.9-2.5 1.1-5.1 2.1-7.6 3.2 15.7-6.6 32.1-11.3 48.9-14.4 4.1-.8 8.2-1.4 12.4-2-2.8.4-5.6.8-8.5 1.1 14-1.9 28.2-2.8 42.3-2.1.8 0 1.7.1 2.5.2 7.7.7 17.2-4 22.5-9.3 5.5-5.5 9.7-14.6 9.3-22.5-.4-8.2-3.1-16.8-9.3-22.5-2.1-1.7-4.3-3.3-6.4-5-4.9-2.8-10.2-4.2-16-4.3" style="fill:#723bde"/></svg>