
<svg
  width="0.5em"
  height="0.5em"
  fill="currentColor"
  xmlns="http://www.w3.org/2000/svg"
  viewBox="0 0 130 130"
>
  <path
    d="M1.1,73.9c0-8.2,0-16.4,0-24.6c0-4.7,2.8-7.5,7.5-7.5c3.1,0,3,0,3.1-3c0.1-4.3-0.2-8.7,0.2-13C13.1,13.9,22.7,3.5,34.5,1.5
    c15.7-2.8,30.1,7.2,32.9,23c0.3,1.4,0.4,2.9,0.4,4.3c0,1.5-0.8,2.3-2.2,2.3c-3.9,0-7.7,0-11.6,0c-1.5,0-2.1-0.7-2.2-2.4
    c-0.4-5.7-3.9-10-9.2-11.3c-6.9-1.7-14.1,3.3-14.7,10.4c-0.4,4.4-0.1,8.8-0.1,13.2c0,1,0.6,0.9,1.2,0.9c5.7,0,11.4,0,17.1,0
    c8.3,0,16.5,0,24.8,0c4.7,0,7.5,2.8,7.5,7.5c0,1.8,0,3.5,0,5.3c0,1.5,0,1.5,1.4,1.1c15.1-4.3,28.3-1,39,10.4
    C128.8,77,131.4,90,126.4,104c-4.9,13.8-15.1,22.1-29.6,24.5c-16.5,2.7-32.7-6.1-39.7-21.3c-0.4-0.9-0.9-1.2-1.9-1.2
    c-15.6,0-31.1,0-46.7,0c-3.8,0-6.6-2.1-7.2-5.6c-0.1-0.6-0.1-1.3-0.1-1.9C1.1,90.3,1.1,82.1,1.1,73.9z M39.8,46
    c-10.3,0-20.7,0-31,0c-2.7,0-3.6,0.9-3.6,3.5c0,16.3,0,32.6,0,48.8c0,2.6,0.9,3.5,3.5,3.5c15,0,30,0,45,0c1.1,0,1.3-0.2,1-1.3
    c-1.2-4.7-1.5-9.6-0.8-14.4c2-12.4,8.5-21.7,19.4-27.8c0.6-0.3,0.8-0.7,0.8-1.4c0-2.3,0-4.6,0-6.9c0-3.4-0.7-4.1-4-4.1
    C60,46,49.9,46,39.8,46z M91.3,58C72.9,58,57.8,72.9,57.7,91.3c-0.1,18.4,14.9,33.5,33.3,33.6c18.4,0.1,33.4-14.8,33.5-33.2
    C124.7,73.2,109.7,58.1,91.3,58z M15.8,34.2c0,2.2,0,4.4,0,6.6c0,0.9,0.3,1.2,1.2,1.1c1.8-0.1,3.5-0.1,5.3,0c1,0.1,1.4-0.2,1.4-1.3
    c-0.1-3.8-0.1-7.6,0-11.4c0.1-10,8.5-17.3,18.3-16.1c6.7,0.8,12.2,6,13.7,12.9c0.2,0.9,0.5,1.1,1.3,1.1c1.6-0.1,3.3,0,4.9,0
    c1.9,0,1.9,0,1.6-1.9C61.5,14.1,52.2,5.8,41.1,5.1c-11-0.7-21.2,6.6-24.3,17.2C15.7,26.2,15.8,30.2,15.8,34.2z"
  />
  <path
    d="M32.8,81c0-0.9-0.1-1.9,0-2.8c0.2-2.4-0.3-4.3-2-6.3c-3.9-4.7-2.9-11.7,1.8-15.5c4.8-3.9,11.7-3.3,15.7,1.4
    c4,4.6,3.6,11.5-0.9,15.6c-0.6,0.5-0.8,1-0.8,1.8c0,3.9,0,7.7,0,11.6c0,4.1-3,7.3-6.9,7.3c-3.9,0-6.9-3.1-7-7.2
    C32.8,84.9,32.8,83,32.8,81z M36.9,80.1c0,2.2,0,4.4,0,6.5c0,2,1.1,3.3,2.8,3.3c1.7,0,2.8-1.3,2.8-3.3c0-4.1,0.1-8.1,0-12.2
    c0-1.6,0.4-2.7,1.7-3.7c2.8-2.1,3.5-6,1.8-9c-1.7-3-5.3-4.4-8.5-3.3c-2.7,0.9-4.4,2.9-4.8,5.8c-0.4,2.8,0.6,5.1,2.8,6.7
    c1.1,0.8,1.5,1.7,1.5,3C36.9,75.9,36.9,78,36.9,80.1z"
  />
  <path
    d="M83.1,90.8c-7-6.4-5.3-14.9-1-19.2c4.8-4.8,12.5-5.1,17.6-0.6c2.9,2.6,4.4,6,4.4,9.9c-0.1,3.9-1.8,7.1-4.8,9.8
    c3.5,1.4,6.5,3.3,9,6c3.4,3.7,5.5,8,6.1,13c0.2,2-0.5,2.8-2.5,2.8c-13.8,0-27.5,0-41.3,0c-2.1,0-2.8-0.8-2.5-2.9
    c1.3-8.7,6.1-14.8,14-18.4C82.3,91.1,82.7,91,83.1,90.8z M109.8,108.4c-1.2-6.9-8.4-15.1-19.2-14.8c-8.6,0.2-17.2,7.3-18,14.8
    C84.9,108.4,97.3,108.4,109.8,108.4z M99.9,80.7c0-4.7-3.9-8.7-8.6-8.8c-4.8-0.1-8.8,3.9-8.8,8.7c0,4.7,3.9,8.7,8.6,8.7
    C95.8,89.4,99.8,85.5,99.9,80.7z"
  />
</svg>