<svg
  width="0.5em"
  height="0.5em"
  fill="currentColor"
  viewBox="0 0 130 130"
  xmlns="http://www.w3.org/2000/svg"
    >
      <path
        d="M71.4,33.8c1.2-0.8,2.2-1.5,3.3-2.3c0.8,1.1,1.5,2.1,2.2,3.1c7.2,9.9,21.1,10,28.3,0c4.3-5.9,8.4-11.9,12.7-17.8
		c2.7-3.8,8.1-3.5,10.4,0.4c1.3,2.3,1.1,4.6-0.4,6.8c-4,5.9-8,11.7-11.9,17.6c-2.4,3.6-4.9,7.2-7,11.1c-3.9,7.1-5.7,14.9-5.8,23
		c0,1.4,0,2.8,0,4.3c-1.3,0-2.6,0-4,0c-0.3-6.3,0.2-12.4,2-18.6c-0.3,0.2-0.4,0.3-0.5,0.4c-5.3,7.9-10.8,15.7-16,23.7
		c-5.3,8.3-7.7,17.5-7.6,27.3c0,1,0,2.1,0,3.2c-1.3,0-2.6,0-3.9,0c0-2.4-0.1-4.9,0-7.3c0.6-10.3,4-19.6,9.8-28
		c5.1-7.4,10.1-15,15.2-22.5c0.2-0.3,0.5-0.7,0.7-1.1c0.5-1,0.2-2-0.7-2.7c-0.9-0.6-1.9-0.5-2.7,0.3c-0.3,0.3-0.5,0.7-0.8,1
		c-4,5.6-8,11.3-12,16.9c-8.9,12.5-26.2,12.6-35.2,0c-4-5.7-8-11.3-12.1-17c-0.2-0.3-0.4-0.6-0.7-0.9c-0.8-0.8-1.8-1-2.7-0.4
		c-0.9,0.6-1.2,1.7-0.7,2.8c0.2,0.4,0.4,0.7,0.7,1.1c5.5,8.1,11,16.2,16.4,24.4c6.6,10.1,9.2,21.2,8.7,33.2c0,0.1-0.1,0.1-0.1,0.3
		c-1.2,0-2.4,0-3.9,0c0-0.6,0-1.2,0-1.8c0.3-10.2-1.9-19.7-7.4-28.3c-5.2-8.2-10.8-16.1-16.2-24.2c-0.1-0.1-0.2-0.2-0.4-0.4
		c1.7,6.2,2.3,12.4,2,18.7c-1.3,0-2.5,0-4,0c0-1.2,0-2.4,0-3.6c0-10.6-3-20.3-8.9-29c-4.8-7.1-9.6-14.1-14.3-21.2
		c-0.6-0.9-1.2-1.7-1.7-2.6c-1.8-3-1.1-6.6,1.7-8.5c2.8-1.9,6.4-1.2,8.4,1.6c4.3,6,8.5,12,12.7,17.9c3.4,4.7,8,7.3,13.8,7.4
		c5.8,0.1,10.5-2.2,14.1-6.8c1.5-1.9,2.8-3.9,4.2-5.9c0.2-0.3,0.2-1,0-1.4c-0.8-1.4-1.8-2.7-2.7-4.1c-2-3.1-1.3-6.8,1.5-8.7
		c2.8-1.9,6.4-1.2,8.6,1.7c0.2,0.3,0.4,0.6,0.7,0.9c0.3-0.4,0.6-0.7,0.8-1c2.1-2.8,5.7-3.5,8.5-1.5c2.8,1.9,3.5,5.6,1.6,8.5
		c-3,4.5-6.1,9-9.2,13.6c-3,4.5-6.1,9-9.2,13.7c-1.1-0.6-2.2-1.2-3.4-1.9c0.5-0.8,0.9-1.6,1.4-2.4c5.5-8.2,11-16.4,16.6-24.5
		c0.3-0.4,0.6-0.8,0.7-1.3c0.3-1,0-1.8-0.8-2.4c-0.8-0.6-1.7-0.5-2.4,0.1c-0.4,0.3-0.7,0.7-1,1.1c-4,5.7-8,11.4-12.1,17
		c-8.9,12.5-26.2,12.5-35.2,0c-4-5.7-8-11.3-12.1-17c-0.3-0.4-0.5-0.8-0.9-1.1c-0.8-0.7-1.7-0.8-2.5-0.2c-0.9,0.6-1.2,1.5-0.8,2.5
		c0.2,0.4,0.4,0.8,0.7,1.2c5,7.5,10.1,14.9,15.1,22.4c2.2,3.4,4.1,7,6.1,10.4c0,0,0.1-0.2,0.1-0.4c0.8-2.5,2.4-4.1,5-4.5
		c2.5-0.4,4.5,0.6,6,2.7c3.4,4.8,6.8,9.7,10.3,14.5c0.9,1.2,1.7,2.5,2.6,3.7c7.1,9.5,20.9,9.4,27.8-0.2c4.3-5.9,8.5-12,12.7-17.9
		c1.8-2.6,4.8-3.5,7.5-2.3c2,0.9,3.2,2.4,3.8,4.8c0.3-0.5,0.4-0.8,0.6-1.2c1.7-3.1,3.3-6.3,5.2-9.2c5-7.7,10.2-15.2,15.4-22.8
		c0.3-0.4,0.6-0.8,0.8-1.3c0.4-1,0-1.8-0.8-2.4c-0.8-0.6-1.7-0.6-2.5,0.1c-0.4,0.3-0.7,0.7-0.9,1.2c-4,5.6-8,11.3-12,16.9
		c-8.9,12.6-26.3,12.6-35.2,0C72.7,35.7,72.1,34.8,71.4,33.8z M62.5,21.3c-0.6-0.8-1.1-1.6-1.7-2.4c-0.8-1-1.9-1.2-2.9-0.6
		c-1,0.7-1.3,1.9-0.6,3c0.8,1.2,1.6,2.4,2.5,3.7C60.8,23.8,61.6,22.6,62.5,21.3z"
      />
      <path
        d="M27,27c-0.3-7.3,4.7-11.6,9-12.6c7.4-1.9,14.7,3.6,15,11.2c0.1,2.9-0.1,5.7-1.6,8.3c-2.7,4.7-8.2,7-13.4,5.7
		c-5.3-1.4-9-6-9.1-11.5C27,27.8,27,27.4,27,27z M31,27c0,0.3,0,0.7,0,1c0.1,4.3,3.2,7.7,7.4,8c4.2,0.3,7.8-2.6,8.5-6.8
		c0.2-1.2,0.2-2.5,0.1-3.7c-0.3-4.8-4.9-8.2-9.6-7.2C33.3,19.1,31,22.3,31,27z"
      />
      <path
        d="M79,27.1c-0.4-7.6,5.1-12.1,10.2-13c6.9-1.1,13.5,4.2,13.8,11.1c0.1,2.6,0.1,5.2-1.1,7.7c-2.4,5.1-7.9,7.9-13.4,6.7
		c-5.4-1.1-9.4-6-9.5-11.5C79,27.8,79,27.4,79,27.1z M99,27c0-0.3,0-0.7,0-1c-0.1-4.2-3.2-7.6-7.3-8c-4.2-0.4-7.9,2.5-8.6,6.7
		C82.9,26,83,27.4,83,28.7c0.3,4.7,4.9,8.2,9.5,7.2C96.7,35,99,31.8,99,27z"
      />
      <path
        d="M77,63.2c0,6.2-3.3,10.9-8.8,12.4c-7.4,2.1-14.9-3.4-15.2-11.2c-0.1-3.7,0.3-7.1,2.8-10.1c3.3-3.9,8.5-5.3,13.2-3.6
		c4.7,1.7,7.9,6.1,8,11.2C77,62.3,77,62.7,77,63.2z M73,63.1c0-0.3,0-0.7,0-1c-0.1-4.3-3.2-7.7-7.4-8c-4.2-0.3-7.9,2.6-8.5,6.8
		c-0.2,1.2-0.2,2.5-0.1,3.7c0.3,4.8,4.9,8.2,9.6,7.2C70.7,71,73,67.8,73,63.1z"
      />
      <path d="M65.9,41.2c1.1-0.8,2.2-1.5,3.3-2.2c1.8,2.7,3.6,5.4,5.5,8.1c-1.2,0.7-2.2,1.4-3.4,2.1C69.5,46.5,67.7,43.9,65.9,41.2z" />
    </svg>
