<svg
	width="0.5em"
	height="0.5em"
	fill="currentColor"
	viewBox="0 0 130 130"
	xmlns="http://www.w3.org/2000/svg"
>
	<path
	d="M78.9,79.1c0.4,0.3,0.8,0.1,1.2,0.1c4.3,0,8.7,0,13,0c2.8,0,4.2,1.4,4.2,4.2c0,13.5,0,27,0,40.6c0,2.7-1.5,4.2-4.2,4.2
	c-18.9,0-37.8,0-56.7,0c-2.8,0-4.3-1.5-4.3-4.3c0-13.5,0-27,0-40.4c0-2.8,1.4-4.2,4.2-4.2c4.7,0,9.4,0,14.3,0
	c-0.3-0.6-0.9-0.7-1.3-1c-13-7.6-26-15.3-39-22.8c-1.9-1.1-2.6-2.5-2.5-4.7c0.7-16.4,8.4-29,21.4-38.4c11.9-8.6,25.5-12,40.1-11
	c14.1,1,26.6,6,37,15.8c9.6,9,14.9,20.1,15.4,33.4c0.1,2-0.7,3.4-2.4,4.4C106.1,62.7,93,70.5,79.8,78.3
	C79.5,78.5,79,78.6,78.9,79.1z M64.8,120.7c8,0,16,0,23.9,0c0.7,0,1.2,0,1.2-1c0-10.7,0-21.3,0-32c0-0.8-0.2-1.1-1-1
	c-3.9,0-7.8,0.1-11.7,0c-1,0-1.3,0.2-1.3,1.3c0.1,4.7,0,9.4,0,14.1c0,1.6-0.5,3-2,3.9c-1.5,0.8-2.9,0.5-4.3-0.5
	c-1.3-0.9-2.7-1.8-4-2.7c-0.6-0.4-1-0.5-1.6,0c-1.2,0.9-2.6,1.7-3.8,2.6c-1.4,1-2.9,1.5-4.6,0.6c-1.7-0.9-2-2.5-2-4.2
	c0-4.5,0-9.1,0-13.6c0-1.2-0.4-1.4-1.5-1.4c-3.8,0.1-7.5,0.1-11.3,0c-1.1,0-1.3,0.3-1.3,1.3c0,10.5,0,20.9,0,31.4
	c0,1,0.2,1.4,1.3,1.4C48.9,120.7,56.8,120.7,64.8,120.7z M78.2,40.4c-0.1-1-0.2-1.7-0.3-2.5c-0.9-7-2.4-13.9-5.2-20.5
	c-1.2-2.7-2.5-5.2-4.6-7.3c-2.3-2.2-4.2-2.2-6.5,0c-1.5,1.4-2.6,3.1-3.5,4.9c-2.4,4.6-3.9,9.6-5,14.6c-0.8,3.5-1.3,7-1.6,10.7
	C60.4,35.8,69.2,35.7,78.2,40.4z M112.3,39.8c-4.8-15.7-20.6-27-35-29.7c1.2,2.2,2.2,4.3,3.1,6.5c2.9,7.5,4.4,15.2,5.2,23.1
	c0.2,1.5,0.1,1.5,1.4,0.7c2.3-1.4,4.8-2.4,7.5-2.9C100.6,36.3,106.6,37,112.3,39.8z M52.3,10.1c-13.7,1.4-33.7,18.4-34.8,29.6
	c4.2-2.1,8.7-3,13.3-2.7c4.7,0.2,9,1.6,13.1,4.2C45,30.3,47,19.8,52.3,10.1z M64.8,75.3c4.5-8.1,9-15.9,13.4-23.7
	c0.3-0.5,0.1-0.8-0.2-1.2c-1-1.5-2.3-2.7-3.9-3.6c-3.8-2.2-7.8-2.8-12.1-2.2c-4,0.6-7.5,2.1-10.1,5.4c-0.6,0.7-0.6,1.3-0.1,2.1
	C55.7,59,59.6,66,63.5,72.9C63.9,73.6,64.3,74.3,64.8,75.3z M54.7,72.7c-0.4-0.7-0.5-1-0.7-1.4c-2.9-5.2-5.8-10.4-8.8-15.7
	c-0.6-1-1.2-2-1.6-3.1c-1.1-3-3.2-5-6-6.3C34,44.4,30,44,26,44.7c-3.4,0.6-6.5,2-8.9,4.5c-0.6,0.7-0.8,1,0.2,1.6
	c3.2,1.8,6.4,3.7,9.5,5.5C36,61.7,45.2,67.1,54.7,72.7z M75.2,72.4c0.3-0.2,0.6-0.3,0.8-0.4c7.6-4.5,15.3-9.1,22.9-13.6
	c4.5-2.7,8.9-5.3,13.4-8c0.7-0.4,0.7-0.7,0.2-1.3c-0.9-0.9-1.8-1.7-2.9-2.3c-3.8-2.2-7.9-2.9-12.2-2.2c-5.2,0.8-9.6,3-11.6,8.4
	c-0.1,0.4-0.4,0.7-0.6,1.1c-3.2,5.6-6.3,11.2-9.5,16.8C75.6,71.3,75.2,71.7,75.2,72.4z M68.5,95.8c0-3.1,0-5.8,0-8.4
	c0-0.7-0.4-0.7-0.9-0.7c-1.9,0-3.7,0-5.6,0c-0.8,0-1,0.3-0.9,1c0,2,0,4,0,6.1c0,0.6-0.1,1.2,0.2,2C63.6,93.6,65.9,93.4,68.5,95.8z"
	/>
</svg>
