<svg
  width="0.4em"
  height="0.4em"
  fill="currentColor"
  viewBox="0 0 130 130"
  xmlns="http://www.w3.org/2000/svg"
>
  <path
    d="M80.3,68.7c3.2-1.2,6.3-2.3,9.5-3.4c-0.1-1.2,0.4-2.4,1.3-3.4c0.2-0.3,0.2-0.7,0.3-1.1c0.3-2.1,1.7-3.4,3.7-3.7
    c0.4-0.1,0.9-0.3,1.3-0.5c1.8-1.4,3.6-1.4,5.4,0c0.4,0.3,0.8,0.5,1.3,0.5c2.1,0.3,3.4,1.6,3.8,3.7c0.1,0.6,0.4,1.2,0.7,1.6
    c1.1,1.6,1.1,3.6-0.1,5.1c-0.3,0.4-0.5,0.9-0.6,1.3c-0.3,2.2-1.7,3.6-3.9,3.9c-0.4,0.1-0.8,0.3-1.2,0.5c-1.7,1.3-3.6,1.3-5.3,0
    c-0.3-0.2-0.7-0.5-1.1-0.5c-2.4-0.4-3.5-1.4-4-3.8c0-0.2-0.1-0.3-0.1-0.5c-4.3,0.7-8.1,2.3-11.8,4.6c-6.5,4-11.4,9.6-15,16.3
    c-0.3,0.5-0.5,1-0.8,1.5c-0.5,0.9-1.3,1.2-2.1,0.8c-0.8-0.4-1.1-1.3-0.5-2.2c1.5-2.6,3-5.2,4.7-7.7c2.7-3.9,6.1-7.1,9.9-9.9
    c0.4-0.3,0.8-0.7,0.9-1.2c0.5-2.3,1-4.6,1.4-7c0.1-0.5,0.1-1,0.1-1.4c0.1-1,0.7-1.5,1.6-1.5c0.9,0.1,1.5,0.7,1.4,1.7
    c-0.1,1.8-0.4,3.5-0.6,5.3C80.4,68,80.4,68.4,80.3,68.7z M105.4,64.9c-0.1-0.3-0.2-0.6-0.4-0.8c-0.8-0.8-1.2-1.8-1.2-3
    c0-0.7-0.5-0.9-1.1-1.1c-0.9-0.2-1.8-0.6-2.7-1.1c-0.7-0.4-1.1-0.4-1.8,0c-0.8,0.5-1.7,0.9-2.6,1.1c-0.8,0.2-1.1,0.5-1.3,1.3
    c-0.2,0.9-0.6,1.8-1.1,2.6c-0.4,0.7-0.4,1.1,0,1.8c0.5,0.8,0.9,1.7,1.1,2.7c0.2,0.8,0.5,1.1,1.3,1.3c0.9,0.2,1.7,0.5,2.5,1
    c0.7,0.5,1.2,0.5,1.9,0c0.7-0.5,1.6-0.9,2.5-1c0.9-0.2,1.2-0.5,1.3-1.4c0.2-0.9,0.6-1.7,1-2.5C105,65.5,105.2,65.2,105.4,64.9z"
  />
  <path
    d="M87.2,93.8c-2.2-1-4.4-1.9-6.5-3.1c-0.6-0.3-0.8-1.4-1.2-2.2c-0.3-0.6-0.4-1.3-0.8-1.9c-1-1.5-1-3.5,0.1-5
    c0.3-0.5,0.6-1.1,0.7-1.6c0.3-1.9,1.7-3.3,3.6-3.6c0.5-0.1,1.1-0.3,1.5-0.6c1.6-1.2,3.5-1.2,5.2,0c0.5,0.3,1.1,0.6,1.6,0.7
    c1.8,0.3,3.2,1.7,3.5,3.5c0.1,0.6,0.3,1.2,0.7,1.7c1.1,1.6,1.1,3.5,0,5.1c-0.3,0.4-0.6,1-0.7,1.5c-0.3,2-1.7,3.4-3.6,3.7
    c-0.5,0.1-1,0.4-1.5,0.6C89,93,88.2,93.4,87.2,93.8z M87.3,90.6c0.3-0.1,0.5-0.2,0.7-0.3c0.9-0.8,1.9-1.2,3-1.3c0.4,0,0.8-0.6,1-1.1
    c0.5-0.9,0.7-1.9,1.2-2.8c0.3-0.6,0.3-1,0-1.6c-0.5-0.9-0.9-1.9-1.2-2.9c-0.2-0.7-0.5-0.9-1.1-1.1c-1-0.3-1.9-0.7-2.8-1.2
    c-0.5-0.3-0.9-0.3-1.5,0c-0.9,0.5-1.9,0.9-2.9,1.2c-0.6,0.2-0.9,0.5-1.1,1.1c-0.3,0.9-0.6,1.9-1.1,2.7c-0.4,0.7-0.4,1.1,0,1.8
    c0.5,0.8,0.8,1.7,1,2.6c0.2,0.8,0.5,1.1,1.3,1.3c0.9,0.2,1.7,0.6,2.5,1C86.7,90.2,87,90.4,87.3,90.6z"
  />
  <path
    d="M90,23.3c-0.2,2.2-0.5,2.7-1.5,2.7c-1.1,0-1.4-0.6-1.7-2.7c-1.1-0.2-2.8,0.2-2.7-1.7c0.1-1.7,1.6-1.3,2.7-1.5
    c0.2-1.1-0.2-2.6,1.6-2.7c1-0.1,1.3,0.4,1.6,2.7c1.1,0.1,2.7-0.2,2.7,1.6C92.7,23.5,91.1,23.1,90,23.3z"
  />
  <path d="M97.6,16.3c-0.8,0-1.5-0.7-1.5-1.5c0-0.9,0.6-1.6,1.5-1.6c0.9,0,1.6,0.7,1.5,1.6C99.1,15.6,98.4,16.3,97.6,16.3z" />
  <path
    d="M65.8,34.4c-3,0-5.5-2.6-5.5-5.6c0-3.1,2.5-5.6,5.6-5.5c3.1,0,5.5,2.5,5.5,5.6C71.4,31.9,68.9,34.4,65.8,34.4z M65.8,26.3
    c-1.3,0-2.4,1.1-2.4,2.5c0,1.4,1.2,2.5,2.5,2.5c1.3,0,2.4-1.1,2.4-2.5C68.4,27.4,67.2,26.3,65.8,26.3z"
  />
  <path d="M100.6,64.8c0,0.8-0.6,1.5-1.4,1.5c-0.9,0-1.6-0.6-1.6-1.5c0-0.8,0.7-1.5,1.5-1.5C99.9,63.3,100.6,63.9,100.6,64.8z" />
  <path d="M87.3,85.8c-0.8,0-1.5-0.6-1.5-1.5c0-0.9,0.7-1.6,1.5-1.6c0.8,0,1.5,0.7,1.5,1.5C88.8,85.1,88.1,85.8,87.3,85.8z" />
  <g>
    <path
      d="M56.6,90.3c1,4.5-1.1,9.1-5.2,11.2c-0.3,0.2-0.5,0.3-0.4,0.7c0.1,1.1,0.1,2.2,0.1,3.3c0.1,1.8-0.5,3.2-1.8,4.5
      c-2.8,2.7-5.6,5.4-8.5,8c-3.3,3.1-6.6,6.2-9.9,9.3c-2,1.9-4.7,2.1-6.9,0.7c-0.4-0.3-0.8-0.6-1.1-1c-3.9-4.1-7.8-8.2-11.7-12.3
      c-2.4-2.5-2.3-5.8,0.2-8.2c6-5.7,12.1-11.5,18.1-17.2c1.3-1.2,2.8-1.8,4.6-1.6c1.1,0.1,2.1,0.2,3.2,0.3c0.4,0,0.6-0.1,0.8-0.4
      c3.8-6.6,13.3-6.5,17.1,0.1C55.9,88.6,56.2,89.5,56.6,90.3z M40.6,92.1c-0.2,1.5,0.2,2.9,1,4.1c0.6,1,0.4,2-0.5,2.6
      c-0.9,0.6-2,0.3-2.6-0.7c-1-1.5-1.5-3.2-1.5-5c0-0.4,0-0.9,0-1.3c-1-0.1-1.9-0.1-2.8-0.3c-0.8-0.1-1.4,0.1-2,0.7
      c-6,5.7-12.1,11.5-18.1,17.2c-1,0.9-1,1.9-0.1,2.9c1.2,1.2,2.3,2.4,3.5,3.7c2.8,2.9,5.5,5.8,8.3,8.7c0.9,0.9,1.9,0.9,2.8,0.1
      c0.3-0.3,0.6-0.6,0.9-0.9c5.7-5.5,11.5-10.9,17.2-16.4c0.5-0.5,0.8-1,0.8-1.7c-0.1-3.8-0.3-7.7-0.4-11.5c0-1-0.7-1.7-1.6-1.8
      C43.8,92.3,42.2,92.2,40.6,92.1z M50.8,97.6c1.9-1.4,2.8-4.1,2.2-6.4c-0.6-2.4-2.7-4.3-5.2-4.6c-2.2-0.3-4,0.4-5.6,2
      c1.3,0.1,2.6,0.2,3.8,0.4c2.6,0.3,4.5,2.4,4.7,5C50.7,95.1,50.7,96.3,50.8,97.6z"
    />
  </g>
  <path
    d="M120.4,86.3c0-0.4,0-0.8-0.1-1.2c-0.2-0.7-0.7-1.1-1.4-1.1c-0.7,0-1.2,0.4-1.4,1.1c-0.1,0.4-0.1,0.8-0.1,1.2
    c0,3.2,0,6.5,0,9.7c0,1.4,0,2.8,0,4.4c-0.9-0.8-1.5-1.5-2.2-2.1c-0.7-0.6-0.8-1.2-0.8-2.1c0-6.2,0-12.3,0-18.5c0-22.4,0-44.8,0-67.2
    c0-0.5,0-1.1,0.2-1.4c0.8-0.9,1.7-1.8,2.8-2.9c0,0.8,0,1.2,0,1.6c0,23.1,0,46.2,0,69.4c0,0.5,0,1,0.1,1.4c0.1,0.7,0.7,1.1,1.4,1.1
    c0.8,0,1.3-0.3,1.5-1.1c0.1-0.4,0.1-0.7,0.1-1.1c0-24,0-48.1,0-72.1c0-3-1.5-4.5-4.5-4.5C91.3,1,66.6,1,42,1c-3.1,0-4.5,1.5-4.5,4.6
    c0,27.2,0,54.4,0,81.6c0.1-0.1,0.2-0.2,0.3-0.3c0.8-1.3,1.8-2.4,2.9-3.2c0-25.8,0-51.5,0-77.1c0.9,0.9,1.9,1.7,2.8,2.6
    c0.2,0.2,0.2,0.6,0.2,1c0,24,0,48,0,72c1-0.3,2.1-0.5,3.1-0.6c0-23.7,0-47.5,0-71.3c1,0,1.9,0,2.9,0c1.6,0,3.2,0,4.8,0
    c1.1,0,1.8-0.6,1.7-1.6c0-0.9-0.7-1.5-1.8-1.5c-2.6,0-5.1,0-7.7,0c-0.5,0-1.1-0.3-1.5-0.6c-0.8-0.6-1.6-1.4-2.3-2.1
    C42.9,4.3,43,4.2,43,4.1c24,0,48,0,71.7,0c-0.8,0.9-1.6,1.9-2.6,2.9c-0.2,0.2-0.6,0.1-1,0.1c-16.2,0-32.3,0-48.5,0c-0.3,0-0.7,0-1,0
    c-0.9,0.1-1.5,0.7-1.5,1.5c0,0.8,0.6,1.5,1.4,1.5c0.3,0,0.7,0,1,0c15.7,0,31.5,0,47.2,0c0.4,0,0.8,0,1.3,0c0,28.8,0,57.5,0,86.3
    c-18.1,0-36.1,0-54.2,0c-0.5,1.1-1.2,2.2-2,3.1c18.1,0,36.3,0,54.4-0.1c2,0,3.6,0.3,4.8,2c0.2,0.3,0.6,0.5,1,0.7
    c-0.1,0.1-0.2,0.2-0.2,0.3c-21.1,0-42.1,0-63.3,0c0,0,0,0,0,0c0.1,1,0.1,2.1,0.1,3.1c21.4,0,42.8,0,64.2,0c3.1,0,4.6-1.5,4.6-4.6
    C120.4,96.2,120.4,91.3,120.4,86.3z"
  />
  <path
    d="M107.3,42.7c-3.8-4.1-8.5-5.7-13.9-4.9c-1.8,0.3-3.6,0.9-5.1,1.2c1.6-1.7,3.3-3.7,5.3-5.5c4-3.6,8-7,12.1-10.4
    c0.7-0.6,1.1-1.2,0.6-2.1c-0.4-0.8-1.2-1-2.2-0.5c-0.6,0.3-1.1,0.7-1.6,1.1c-8.2,6.9-15.9,14.3-23.1,22.2c-1.3,1.5-2.6,3-3.9,4.6
    c-0.2-2.2-0.5-4.4-0.7-6.6c2.7-1.2,4.1-3.2,4.2-6.2c0-0.8,0.6-1.7,1.1-2.3c2.3-2.7,2.2-6.1,0-8.8c-0.6-0.7-1-1.7-1.1-2.6
    c-0.3-3.6-2.7-5.9-6.2-6.2c-0.8-0.1-1.8-0.5-2.4-1c-2.9-2.4-6.1-2.4-9,0c-0.6,0.5-1.5,0.9-2.4,1c-3.6,0.3-6,2.6-6.3,6.2
    c-0.1,0.9-0.5,1.9-1.1,2.6c-2.3,2.8-2.3,6.1,0,8.9c0.6,0.7,1,1.7,1.1,2.6c0.4,3.6,2.6,6,6.2,6.2c1.1,0.1,1.9,0.5,2.7,1.2
    c2.6,2.3,5.9,2.3,8.6,0c0.4-0.4,0.9-0.7,1.4-1c0.1,0.3,0.2,0.5,0.2,0.6c0.7,3.2,0.6,6.4,0.4,9.7c0,0.2-0.1,0.5-0.3,0.6
    c-2.4,3.4-4.7,6.8-7,10.1c-0.5-1.9-0.9-4.1-1.6-6c-1.5-3.8-4.3-6.3-8.3-7.3c-1.6-0.4-2.2-0.1-2.7,1.4c-1.1,2.8-1.2,5.6-0.2,8.5
    c1.2,3.5,3.7,6,6.5,8.2c0.8,0.7,1.7,1.3,2.5,1.9c-1.5,3.2-3.1,6.3-4.5,9.5c-0.7,1.7-1.4,3.4-2.1,5.2c0.7,0.7,1.4,1.5,1.9,2.4
    c0.1,0.1,0.2,0.3,0.2,0.4c0.4-1.2,0.9-2.4,1.4-3.6c4.8-11.9,11.5-22.6,19.5-32.6c1.1-1.4,2.2-2.7,3.3-4.1c3.6,1.9,7.1,3.4,11,4.1
    c6.3,1.1,11.6-0.5,15.6-5.6C108.3,44.3,108.3,43.7,107.3,42.7z M61.8,66.3c-5.2-2.4-8.4-8.6-6.9-13.2C59.2,53.9,62.1,59.5,61.8,66.3
    z M68,41c-1.2,1.2-3,1.2-4.2,0c-1.4-1.3-2.9-2-4.8-2.1c-1.9-0.1-3-1.3-3.1-3.2c-0.1-1.8-0.7-3.3-1.9-4.7c-0.5-0.6-0.8-1.5-1.2-2.3
    c0.4-0.8,0.7-1.7,1.2-2.3c1.1-1.3,1.7-2.8,1.9-4.5c0.1-2.1,1.3-3.2,3.4-3.3c1.6-0.1,2.9-0.6,4.1-1.7c1.8-1.6,3.3-1.6,5,0
    c1.2,1.1,2.6,1.6,4.2,1.7c2,0.1,3.2,1.3,3.3,3.3c0.1,1.7,0.7,3.2,1.9,4.5c1.4,1.5,1.4,3.2,0,4.7c-1.2,1.3-1.8,2.8-1.9,4.6
    c-0.1,1.9-1.2,3.1-3.1,3.2C70.9,39.1,69.4,39.7,68,41z M95.7,48.3c-4.3,0.1-8.2-1.5-12.3-3.4c5.1-2.7,10.1-5.3,16-3.8
    c2,0.5,3.6,1.6,5.2,3.1C102.1,46.8,99.2,48.2,95.7,48.3z"
  />
</svg>