<svg
  width="0.5em"
  height="0.5em"
  fill="currentColor"
  viewBox="0 0 130 130"
  xmlns="http://www.w3.org/2000/svg"
    >
      <path
        d="M35.3,109.3c-3.5-0.5-5.8-2.1-6.7-5.4c-0.5-1.7-0.3-3.4,0.5-4.9c0.3-0.7,0.2-1-0.2-1.5c-1.7-2-3.6-3.7-6.1-4.8
		c-2.7-1.2-5.3-2.7-7.9-4c-0.5-0.2-1.1,0-1.7,0c-1.2,0.1-2.5,0.4-3.5,0.1c-1.8-0.5-3.5-1.4-5.2-2.1c-1.6-0.7-2.5-2-2.9-3.7
		c-1.4-7.5,0.1-14.6,3.3-21.4c2.3-5,5.6-9.3,9.7-12.9c2.8-2.4,4.4-2.6,7.5-0.8c1.8,1,3.5,2,5.3,2.9c1.2,0.6,1.9,1.6,2.3,2.9
		c0.1,0.5,0.6,1,1,1.3c5,3.1,10.4,4,16.2,3.4c3.6-0.4,7.3-0.8,10.9,0.1c1.7,0.4,3.3,1.1,4.8,1.8c0.9,0.4,1.4,0.4,2.2-0.1
		c3.5-2.1,7.2-3.6,11.3-3.7c2.4,0,4.9,0.2,7.1,0.9c6.1,1.9,11.6,0.7,16.8-2.7c0.3-0.2,0.4-0.7,0.7-1.1c0.7-0.9,1.2-2.1,2.1-2.7
		c2-1.3,4.1-2.4,6.2-3.5c2.1-1.1,4.1-1,5.8,0.6c10.2,8.9,15.3,19.9,14.1,33.6c-0.2,2.8-1.5,4.7-4.2,5.6c-1.4,0.5-2.7,1.1-4,1.7
		c-1.4,0.5-2.6,0.4-3.9-0.4c-0.4-0.2-1-0.3-1.4-0.2c-3.7,1.7-7.4,3.4-11,5.1c-0.4,0.2-0.8,0.6-0.9,1c-0.8,4.3-2.5,5.9-6.9,6.9
		c0.1,2-0.3,3.9-1.7,5.6c-1.4,1.6-3.1,2.5-5.3,2.6c0,2.2-0.6,4.2-2.2,5.7c-1.6,1.5-3.6,2.1-5.8,1.9c-0.4,2.9-1.8,5.1-4.7,6
		c-2.8,0.9-5.2-0.4-7.6-1.7c-3.8,5.3-10.3,4.3-12.9-0.5c-1.9,0.9-3.8,1.4-5.9,0.7c-2.1-0.6-3.5-2-4.6-4c-2.8,1.2-5.5,1.3-8-0.7
		C35.3,115.1,34.7,112.4,35.3,109.3z M59.9,63.2c-1-0.4-1.7-0.6-2.5-0.9c-3.3-1-6.6-0.5-9.9-0.2c-6.6,0.7-12.9-0.3-18.7-3.8
		c-0.8-0.5-1.2-0.4-1.9,0.2c-7.3,6.7-11.2,15-11.8,24.9c0,0.8,0.2,1.2,0.9,1.5c2,1,3.9,2,5.8,3c3.4,1.7,7.1,3.2,9.5,6.5
		c0,0,0.1,0,0.3,0.1c1.4-3,3.2-5.9,7.1-6.1c3.9-0.2,6.3,1.8,7.6,5.4c5.3-0.3,7,0.7,9.2,5.3c4.4-0.7,7.5,0.9,9,5.2
		c0.2,0,0.2,0.1,0.3,0c3.1-0.6,5.7,0.2,7.6,2.9c1.9,2.7,1.7,5.5,0.1,8.2c-0.5,0.8-1,1.7-1.5,2.6c0.9,0.4,1.6,0.9,2.3,1.2
		c1.7,0.7,3.1,0.3,3.8-1c0.7-1.3,0.3-2.5-1.1-3.6c-1-0.8-1.2-1.8-0.7-2.7c0.6-0.9,1.6-1.1,2.8-0.5c1,0.5,2,1.2,3,1.7
		c1.5,0.7,3.1,0.2,3.9-1.2c0.8-1.4,0.5-3-0.9-4c-0.6-0.4-1.3-0.7-1.9-1.1c-1.2-0.7-1.5-1.8-0.9-2.8c0.6-0.9,1.6-1.2,2.8-0.6
		c1,0.5,1.9,1.1,2.8,1.6c2,1.1,4,0.7,5-1c1-1.7,0.4-3.7-1.6-4.9c-1-0.6-2.1-1.2-3.1-1.8c-1.4-0.8-1.8-1.8-1.2-2.9
		c0.6-1.1,1.7-1.2,3.1-0.5c1.7,1,3.4,2,5.1,2.9c2.2,1.2,4.6,0,5-2.4c0.3-1.4-0.5-2.8-2.3-3.8c-5.7-3.3-11.4-6.4-17-9.9
		c-5.4-3.3-10.7-3.5-16.2-0.6c-2.2,1.1-4.4,2.1-6.8,3c-3.7,1.3-7.1,0.7-10.3-1.6c-3.4-2.5-4.5-7.8,0.4-10.6
		C51.4,68.6,55.4,66,59.9,63.2z M102.5,90c3.7-1.7,7.8-3.6,11.7-5.5c0.4-0.2,0.7-0.9,0.6-1.4c-0.5-9.1-4-16.8-10.4-23.3
		c-2.1-2.1-2.1-2.1-4.7-0.7c-5.2,3-10.8,4-16.6,2.1c-6-1.9-11.4-0.9-16.6,2.2c-5.9,3.6-11.7,7.2-17.5,10.9c-1.7,1.1-1.8,2.5-0.3,3.8
		c2.1,1.8,4.5,2.3,7.1,1.3c2.4-1,4.8-2,7.1-3.1c6.2-3,12.3-2.8,18.3,0.8c5.5,3.3,11.1,6.4,16.7,9.6C99.5,87.7,100.8,88.8,102.5,90z
		M118.9,85.5c1.6-0.7,2.9-1.3,4.3-1.8c1.3-0.4,1.7-1.3,1.9-2.5c0.5-3.6,0.3-7.2-0.6-10.7c-1.9-7.7-5.8-14.1-11.8-19.2
		c-0.4-0.3-1.2-0.7-1.5-0.5c-2.3,1.1-4.4,2.4-6.8,3.7C113.8,62.6,118.6,72.9,118.9,85.5z M25.8,54.4c-2.1-1.2-4-2.2-5.9-3.3
		c-1.1-0.7-1.8-0.5-2.7,0.3c-3.8,3.3-6.8,7.1-8.9,11.6c-2.8,5.7-4.1,11.8-3.2,18.2c0.1,0.7,0.3,1.7,0.7,1.9c1.6,0.9,3.4,1.6,5.3,2.4
		C11.5,72.9,16.3,62.6,25.8,54.4z M51.6,101.2c0-1.9-1-3.2-2.4-3.6c-1.5-0.4-3,0.1-3.9,1.6c-2,3.3-3.9,6.7-5.8,10.1c-1.2,2-0.7,4,1,5
		c1.7,1,3.6,0.3,4.7-1.6c1.9-3.3,3.8-6.5,5.7-9.8C51.3,102.3,51.5,101.5,51.6,101.2z M49.1,114.4c0,1.9,0.9,3.1,2.4,3.6
		c1.5,0.4,2.9-0.1,3.8-1.6c1.7-2.8,3.3-5.6,4.8-8.4c1.1-1.9,0.6-3.8-1.1-4.8c-1.7-1-3.6-0.4-4.7,1.5c-1.6,2.7-3.1,5.3-4.6,8
		C49.4,113.4,49.2,114.1,49.1,114.4z M69.8,111.7c0-1.9-1-3.1-2.4-3.5c-1.4-0.4-2.9,0.1-3.8,1.5c-1.3,2.1-2.4,4.2-3.6,6.3
		c-1,1.9-0.6,3.8,1,4.8c1.7,1,3.6,0.5,4.8-1.4c1.2-2,2.3-4,3.5-6C69.6,112.6,69.7,112,69.8,111.7z M35.6,105.7c0.8-0.5,2-0.9,2.5-1.6
		c1.5-2.3,2.9-4.7,4.2-7.2c0.8-1.5,0.1-3.3-1.3-4.1c-1.4-0.9-3.4-0.6-4.3,0.8c-1.5,2.4-3,4.8-4.2,7.3C31.4,103,33.1,105.4,35.6,105.7
		z"
      />
      <path
        d="M99.4,12.9c-0.5-0.5-1.3-0.7-2.2-0.5c-0.7,0.2-1.3,0.5-1.8,0.8c-2.3,1.6-4.1,2.9-6,4.4c-1,0.8-2,1.6-3,2.5
		c-0.3,0.2-0.6,0.5-0.8,0.7l0,0C80.4,8.4,66.3,1.6,54.1,5.6c-4.2,1.4-7.3,3.2-9.6,5.7c-2.6,2.8-3.5,5.9-2.8,9.3
		c0.4,2.2,1.7,3.9,3.9,5.6l0.3,0.2c0.7,0.5,1.3,1,2,1.6c0.8,0.7,1.3,1.6,1.2,2.8c0,1.2-0.6,2.2-1.8,3.2c-0.3,0.2-0.6,0.4-0.9,0.7
		c-0.6,0.5-1.3,1-1.9,1.6c-2.7,2.4-3.6,5.5-2.7,9.3c0.6,2.5,2.2,4.7,4.7,6.5c4.8,3.4,9.8,5.2,14.8,5.2c3.3,0,6.7-0.7,10.1-2.2
		c10.1-4.4,15.6-12.3,16.2-23.5c0-0.1,0.1-0.3,0.2-0.4c0.5-0.6,1-1.2,1.5-1.7c0.4-0.5,0.8-1,1.2-1.5c2.7-3.2,5.5-6.5,7.9-10.1
		c0.6-1,1.1-1.9,1.4-2.8C100,14.2,99.9,13.4,99.4,12.9z M73,36.5c6.9-6.6,13.7-13,21.2-18.5c-5.5,7.6-11.8,14.4-18.3,21.3L73,36.5z
		M51.8,28.6c-0.4-1.2-1.2-2.3-2.5-3.4c-0.7-0.6-1.5-1.2-2.2-1.7c-3.2-2.3-3.1-6.4-1.2-8.9c1.4-1.9,3.3-3.4,5.9-4.6
		c3.3-1.5,6.4-2.3,9.6-2.3c0.1,0,0.2,0,0.4,0C71.1,7.8,80,14.2,83.1,23c0,0,0,0-0.1,0.1l-2.6,2.4c0.2-0.5,0.3-1,0.3-1.6
		c0-1.4-0.5-2.7-1.5-3.7c-1-1-2.3-1.5-3.6-1.5c0,0,0,0,0,0c-2.8,0-5.2,2.3-5.2,5.1c0,1.3,0.5,2.6,1.5,3.6c1,1,2.3,1.5,3.7,1.6
		c0,0,0,0,0,0c0.4,0,0.9-0.1,1.3-0.2c-2.2,2-4.4,4.1-6.6,6.1c-0.1,0.1-0.2,0.2-0.3,0.2c-4.6,0.9-6.6,2.9-7.5,7.5
		c-0.2,1-0.4,2-0.7,2.8c-0.3,0.9-0.8,1.4-1.8,1.5c-0.8,0.1-1.3,0.5-1.5,1.3c-0.1,0.8,0.2,1.4,0.9,1.7c4,1.5,7.4,1.8,10.6,0.8
		c3.4-1,5.6-3.3,6.8-6.8c0.4-1.1,0.9-2,1.8-3c1.5-1.5,2.9-3,4.3-4.5l1.1-1.1c-0.2,1.1-0.4,2.1-0.8,3.2c-3.2,8.3-9.2,13.4-17.9,15.1
		c-6.2,1.2-12-0.2-17.3-4.3c-1.8-1.4-2.9-2.9-3.3-4.7c-0.5-2.5,0.1-4.6,2-6.1c0.5-0.4,1-0.8,1.4-1.1c0.4-0.3,0.8-0.6,1.3-1
		C51.9,34.2,52.8,31.4,51.8,28.6z M65.4,48.1c-0.5,0-0.9-0.1-1.4-0.2c0.8-1.3,1.1-2.6,1.4-3.9c0.1-0.3,0.1-0.6,0.2-0.9
		c0.1-0.4,0.2-0.7,0.3-1.1c0.6-2.2,2.1-3.4,4.5-3.7c1.3,1.3,2.5,2.5,3.8,3.8c0,0,0,0.1,0,0.1C72.9,46.4,70,48.4,65.4,48.1z
		M77.6,23.9c0,0.5-0.2,1-0.6,1.4c-0.4,0.4-0.9,0.6-1.4,0.6c-0.6,0-1.1-0.3-1.5-0.7c-0.4-0.4-0.6-0.9-0.5-1.4c0-1.1,0.9-1.9,2-1.9
		c0,0,0,0,0,0c0.5,0,1.1,0.2,1.4,0.6C77.4,22.9,77.6,23.4,77.6,23.9z"
      />
      <path
        d="M65,21.6C65.1,21.6,65.1,21.6,65,21.6c1.4,0,2.7-0.5,3.7-1.5c1-1,1.5-2.3,1.5-3.6c0-2.8-2.3-5.1-5.2-5.1
		c-1.4,0-2.6,0.5-3.6,1.5c-1,1-1.5,2.3-1.5,3.7c0,1.4,0.5,2.7,1.5,3.6C62.4,21.1,63.7,21.6,65,21.6z M63.6,17.9
		C63.2,17.5,63,17,63,16.5c0-1.1,0.9-2,2-2c0,0,0,0,0,0c0.5,0,1.1,0.2,1.5,0.6c0.4,0.4,0.6,0.9,0.6,1.4c0,1.1-0.9,2-2,2
		C64.5,18.5,64,18.3,63.6,17.9z"
      />
      <path
        d="M53.9,48.1C54,48.1,54,48.1,53.9,48.1c2.9,0,5.2-2.3,5.2-5.1c0-1.4-0.5-2.7-1.5-3.7c-1-1-2.3-1.5-3.6-1.5c0,0,0,0,0,0
		c-2.8,0-5.2,2.3-5.2,5.1c0,1.4,0.5,2.6,1.5,3.6C51.3,47.6,52.6,48.1,53.9,48.1z M54,41C54,41,54,41,54,41c1.1,0,2,0.9,2,2
		c0,0.5-0.2,1-0.6,1.4C55,44.8,54.5,45,54,45c-1.1,0-2-0.9-2-2c0-0.5,0.2-1,0.6-1.4C52.9,41.2,53.4,41,54,41z"
      />
      <path
        d="M52.7,25.1c1.4,0,2.7-0.5,3.6-1.5c1-1,1.5-2.3,1.5-3.6c0-2.9-2.3-5.1-5.1-5.1c0,0,0,0,0,0c-1.4,0-2.7,0.5-3.6,1.5
		c-1,1-1.5,2.3-1.5,3.6C47.5,22.8,49.8,25.1,52.7,25.1C52.7,25.1,52.7,25.1,52.7,25.1z M52.6,18C52.6,18,52.6,18,52.6,18
		c0.6,0,1.1,0.2,1.5,0.6c0.4,0.4,0.6,0.9,0.6,1.4c0,1.1-0.9,2-2,2c0,0,0,0,0,0c-0.6,0-1.1-0.2-1.5-0.6c-0.4-0.4-0.6-0.9-0.6-1.4
		C50.6,18.9,51.5,18,52.6,18z"
      />
    </svg>