<svg
  width="0.5em"
  height="0.5em"
  fill="currentColor"
  viewBox="0 0 130 130"
  xmlns="http://www.w3.org/2000/svg"
    >
      <path
        d="M95.9,82c2.4,0,4.6,0,6.7,0c4.3,0,7.6,1.8,10,5.4c5,7.6,10,15.1,15,22.7c1,1.4,1.4,3,1.4,4.7c-0.1,2.5,0,5.1,0,7.6
        c0,3.8-2.8,6.5-6.6,6.5c-38.3,0-76.5,0-114.8,0c-3.8,0-6.5-2.8-6.6-6.6c0-2.7-0.1-5.4,0-8.1c0.1-1.3,0.5-2.8,1.2-3.8
        c5-7.8,10.2-15.5,15.3-23.2c2.3-3.4,5.5-5.1,9.6-5.2c2.2,0,4.5,0,7,0c-0.3-0.6-0.6-1-0.8-1.4C25.8,69,18.2,57.5,10.7,45.9
        c-0.2-0.2-0.3-0.5-0.5-0.7c-0.9-1.4-0.8-2.6,0.4-3.4c1.1-0.7,2.3-0.4,3.2,1.1c11.5,17.6,23,35.1,34.4,52.7c0.7,1,1.4,1.4,2.6,1.4
        c9.6-0.1,19.2,0,28.9,0c0.9,0,1.5-0.3,2-1.1c11.4-17.6,22.9-35.1,34.4-52.7c0.2-0.4,0.5-0.8,0.8-1.1c0.8-0.7,1.7-0.9,2.6-0.3
        c0.9,0.6,1.2,1.6,0.8,2.6c-0.2,0.4-0.5,0.8-0.7,1.2c-7.6,11.7-15.3,23.4-22.9,35.1C96.4,81.1,96.2,81.4,95.9,82z M99.7,90.9
        c-0.2-0.5-0.5-0.9-0.6-1.4c-0.6-2.8-2.3-3.7-5-3.3c-0.8,0.1-1.3,0.3-1.8,1c-2.7,4.1-5.4,8.2-8,12.3c-0.7,1.1-1.6,1.7-3,1.6
        c-10.9,0-21.8,0-32.7,0c-1.3,0-2.2-0.5-2.9-1.6c-2.7-4.2-5.5-8.3-8.2-12.6c-0.7-1.1-1.6-0.8-2.5-0.8c-0.4,0-0.9,0.6-1.1,1.1
        c-4,9.2-8.1,18.3-12.1,27.5c-0.2,0.4-0.3,0.7-0.4,1.2c29.8,0,59.5,0,89.3,0c-0.7-1.6-1.3-3.1-2-4.5c-0.1-0.3-0.6-0.5-1-0.6
        c-1.4-0.3-2.8-0.5-4.2-0.7c-2.7-0.4-4.6-1.9-5.5-4.5c-0.7-2.2-1.5-4.4-2.2-6.6c-0.3-0.9-0.4-2-0.3-2.9C95.9,93.6,97.5,92,99.7,90.9
        z M5.3,120.2c0,0.7-0.1,1.5,0,2.3c0.1,1.5,1,2.1,3,2.1c37.5,0,74.9,0,112.4,0c3.9,0,4.3-1.1,3.9-4.4
        C84.9,120.2,45.2,120.2,5.3,120.2z M102.4,86.3c0.7,1.7,1.4,3.1,2,4.6c0.6,1.5,0.2,2.5-1.3,3.1c-0.6,0.3-1.3,0.6-1.9,0.9
        c-1.2,0.6-1.6,1.5-1.2,2.8c0.7,2.2,1.5,4.4,2.2,6.6c0.3,0.9,0.9,1.4,1.9,1.6c1.9,0.3,3.8,0.7,5.7,0.9c1.3,0.2,2,0.8,2.5,1.9
        c0.9,2.2,1.9,4.4,2.9,6.5c0.2,0.4,0.7,0.8,1.1,0.8c2,0.1,3.9,0,5.9,0c1,0,1.8-0.3,2.3-1.2c0.5-0.9,0.2-1.7-0.3-2.4
        c-1.8-2.7-3.6-5.4-5.4-8.1c-3.2-4.9-6.5-9.8-9.7-14.7C107.5,87.4,105.4,86.2,102.4,86.3z M29.7,86.4c-4.3-0.6-6.8,0.5-9,3.8
        C15.8,97.6,10.9,105,6,112.3c-0.5,0.8-1,1.6-0.5,2.5c0.6,1,1.5,1.3,2.5,1.3c2.4,0,4.8-0.1,7.2,0c1,0,1.5-0.3,1.9-1.2
        c2.7-6.3,5.4-12.5,8.2-18.7C26.8,93,28.2,89.7,29.7,86.4z"
      />
      <path
        d="M35.2,32.8c0-4.7,0-9.3,0-14c0-1.5,0.5-2.4,1.8-3.1c8.8-4.7,17.6-9.4,26.4-14.2c1.2-0.7,2.2-0.6,3.4,0
        c8.8,4.8,17.6,9.5,26.4,14.2c1.3,0.7,1.8,1.6,1.8,3.1c0,9.5,0,18.9,0,28.4c0,1.4-0.5,2.2-1.7,2.9c-8.8,4.7-17.7,9.5-26.5,14.3
        c-1.2,0.6-2.2,0.6-3.4,0c-8.8-4.8-17.6-9.5-26.5-14.2c-1.2-0.7-1.7-1.5-1.7-2.9C35.2,42.4,35.2,37.6,35.2,32.8z M88.1,18.1
        c-0.3-0.2-0.4-0.3-0.6-0.4C80.3,13.8,73.1,9.9,65.8,6c-0.7-0.4-1.2-0.2-1.8,0.1C57,9.9,50,13.6,42.9,17.4c-0.3,0.2-0.6,0.4-1,0.6
        c1.7,0.9,3.3,1.8,4.8,2.6c0.9,0.5,1.5,1.3,1.1,2.3c-0.3,0.7-0.9,1.4-1.6,1.7c-0.5,0.2-1.3-0.1-1.9-0.4c-1.6-0.8-3.2-1.7-4.9-2.6
        c-0.1,0.3-0.1,0.4-0.1,0.5c0,7.9,0,15.7,0,23.6c0,0.4,0.5,1,0.9,1.2c7,3.8,14.1,7.6,21.2,11.4c0.4,0.2,0.7,0.4,1.3,0.6
        c0-0.6,0-1,0-1.4c0-1.7-0.1-3.5,0-5.2c0-0.7,0.3-1.6,0.8-1.9c0.5-0.4,1.6-0.6,2.1-0.3c0.6,0.4,1.2,1.3,1.2,2.1
        c0.2,2.2,0.1,4.4,0.1,6.8c0.5-0.2,0.8-0.4,1.2-0.5c7.1-3.8,14.3-7.7,21.4-11.5c0.7-0.4,0.8-0.9,0.8-1.6c0-7.5,0-15.1,0-22.6
        c0-0.4,0-0.7-0.1-1.2c-1.6,0.9-3.1,1.7-4.6,2.5c-1.7,0.9-2.9,0.7-3.6-0.6c-0.6-1.2-0.1-2.3,1.5-3.2C85.2,19.7,86.6,18.9,88.1,18.1z"
      />
      <path
        d="M75.7,28.8c-0.3,0.4-0.7,1.2-1.4,1.6c-2,1.2-4.1,2.3-6.1,3.3c-0.7,0.4-1.1,0.8-1,1.6c0.1,1.3,0.1,2.6,0,3.9
        c-0.1,1.4-0.9,2.3-2.1,2.3c-1.2,0-2.1-0.9-2.1-2.3c-0.1-1.3-0.1-2.7,0-4c0-0.7-0.2-1.1-0.9-1.5c-2.1-1.1-4.3-2.3-6.4-3.4
        c-0.9-0.5-1.4-1.2-1.2-2.2c0.1-1,0.7-1.7,1.7-1.8c0.6-0.1,1.3,0.1,1.9,0.4c2.1,1.1,4.2,2.3,6.3,3.3c0.4,0.2,1.1,0.2,1.6,0
        c2.2-1.1,4.4-2.4,6.6-3.5C74,25.8,75.6,26.7,75.7,28.8z"
      />
    </svg>
