<svg
  width="0.5em"
  height="0.5em"
  fill="currentColor"
  viewBox="0 0 130 130"
  xmlns="http://www.w3.org/2000/svg"
    >
      <path
        d="M129,65c0,35.4-28.8,64.1-64.1,64C29.6,128.9,1,100.3,1,65C1,29.6,29.7,0.9,65.1,1C100.4,1.1,129,29.7,129,65z M65,123.4
		    c32.2,0,58.4-26.2,58.4-58.4c0-32.2-26.2-58.5-58.5-58.5C32.8,6.6,6.6,32.7,6.6,65C6.5,97.2,32.8,123.5,65,123.4z"
      />
      <path
        d="M39.9,48.2c0-13.8,11.3-25,25.1-25c13.8,0,25,11.3,25,25.1c0,13.8-11.3,25-25.1,25C51.1,73.3,39.9,62,39.9,48.2z
		    M65.1,67.8c10.7-0.1,19.5-8.9,19.4-19.6C84.4,37.5,75.7,28.8,65,28.8c-10.7,0-19.5,8.8-19.5,19.5C45.5,59.1,54.4,67.9,65.1,67.8z"
      />
      <path
        d="M65.1,79.1c6.4,0,12.9-0.3,19.3,0.1c9.5,0.5,18.6,8.1,21.2,17.3c0.5,1.7-0.1,3.2-1.6,3.8c-1.6,0.6-3.1-0.3-3.7-2.1
        c-2.7-7.6-8-12-15.8-13.4c-1.1-0.2-2.3-0.2-3.5-0.2c-10.6,0-21.2,0-31.8,0c-9.4,0-16.2,4.8-19.4,13.6c-0.7,1.8-2.1,2.7-3.7,2.1
        c-1.5-0.5-2.1-2.1-1.6-3.9C27.6,86.1,37.3,79,48.4,78.9c5.6,0,11.1,0,16.7,0C65.1,78.9,65.1,79,65.1,79.1z"
      />
    </svg>