<svg
  width="0.5em"
  height="0.5em"
  fill="currentColor"
  xmlns="http://www.w3.org/2000/svg"
  viewBox="0 0 130 130"
    >
      <path
        d="M105.7,96c-11.6,6.5-23.2,6.5-34.8,0c-0.4,0.3-0.2,0.7-0.2,1c0,5.2,0,10.5,0,15.7c0,0.8,0.2,1.1,0.9,1.5
		c1.9,1,2.9,2.6,3,4.7c0.1,1.3,0.1,2.7,0,4c-0.1,1.4-0.7,2.1-2.1,2.1c-5,0-10,0-15,0c-1.5,0-2.1-0.7-2.2-2.2c0-1.2,0-2.5,0-3.7
		c0.1-2.3,1.1-4,3.2-5c0.4-0.2,0.7-0.3,0.7-0.9c0-5.7,0-11.5,0-17.5c-5.5,3.3-11.3,5-17.5,5c-6.2,0-12-1.7-17.5-5c0,1.6,0,2.9,0,4.3
		c0,0.5,0,1,0,1.5c-0.1,1.2-0.9,1.9-1.9,1.9c-1.1,0-1.8-0.8-1.8-2c0-2.1,0-4.3,0-6.4c0-0.8-0.2-1.2-1.1-1.2c-2.9,0-2.9,0-2.9,2.9
		c0,5.1,0,10.3,0,15.4c0,1,0.2,1.3,1.2,1.3c2.7,0,2.7,0,2.8-2.7c0-1.5,0.7-2.3,1.8-2.4c1.2,0,1.9,0.9,1.9,2.4c0,0.3,0,0.6,0,0.9
		c-0.2,1.3,0.1,2.2,1.4,2.9c1.6,0.9,2.3,2.5,2.4,4.3c0,1.4,0,2.8,0,4.1c0,1.3-0.7,2-1.9,2c-5.1,0-10.2,0-15.4,0
		c-1.3,0-1.9-0.8-2-2.1c0-1.2,0-2.5,0-3.7c0.1-2.2,1-3.9,3-5c0.7-0.4,0.9-0.8,0.9-1.5c0-5.2,0-10.4,0-15.6c0-1-0.1-1.3-1.1-0.7
		c-2.4,1.4-4.9,2.5-7.6,3.2c-0.6,0.2-1.3,0.4-1.9,0C1.4,99.3,1,98.7,1,98c0-0.9,0.5-1.5,1.4-1.7c2-0.6,4-1.3,5.9-2.3
		c0.6-0.3,0.9-0.5,0.6-1.3c-0.4-1,0.3-2.1,1.4-2.3c0.4-0.1,0.8-0.1,1.4-0.1c-0.9-1.9-1.2-3.8-0.7-5.8c0.5-2,1.7-3.5,3.4-4.6
		c2.7-1.7,6.3-1.5,8.8,0.5c2.9,2.3,3.6,5.4,2.1,9.8c0.4,0.3,0.9,0.1,1.3,0.2c1.1,0.3,1.8,1.3,1.4,2.4c-0.3,0.7,0,0.9,0.5,1.2
		c8.9,4.4,17.8,4.3,26.7-0.1c0.3-0.1,0.6-0.1,0.6-0.7c-0.3-2.4,0-2.8,2.5-3c-1.8-4.3-1.1-7.9,3-10.5c2.7-1.7,6.4-1.3,8.8,0.8
		c2.7,2.3,3.3,5.5,1.8,9.6c0.3,0.3,0.8,0.1,1.2,0.2c1.2,0.2,1.9,1.2,1.5,2.4c-0.2,0.6-0.1,0.9,0.5,1.2c8.9,4.4,17.8,4.3,26.7,0
		c0.3-0.2,0.7-0.2,0.5-0.9c-0.5-1.7,0.2-2.6,2-2.7c0.2,0,0.4,0,0.6-0.1c-1.5-4.8-0.8-8,2.4-10.2c2.7-1.9,6.5-1.8,9.1,0.3
		c2.9,2.3,3.6,5.7,2.1,9.8c0.3,0.3,0.8,0.1,1.2,0.2c1.3,0.2,2,1.3,1.5,2.5c-0.3,0.7,0,0.9,0.5,1.1c1.7,0.9,3.5,1.6,5.3,2.1
		c1.7,0.5,2.4,1.4,2,2.6c-0.4,1.2-1.4,1.5-3.1,1c-2.9-0.8-5.6-2.1-8.2-3.6c-0.4,0.4-0.2,0.8-0.2,1.2c0,5.1,0,10.2,0,15.4
		c0,0.8,0.1,1.3,1,1.7c1.8,0.9,2.8,2.5,2.9,4.5c0.1,1.4,0.1,2.8,0,4.2c0,1.2-0.7,2-1.9,2c-5.1,0-10.2,0-15.4,0c-1.3,0-1.9-0.7-1.9-2
		c0-1.4-0.1-2.8,0-4.2c0.1-2.1,1.1-3.6,3-4.6c0.7-0.3,0.9-0.7,0.8-1.4c0-2.2,0-4.3,0-6.5c0-1.5,0.7-2.4,2-2.4c1.2,0,1.8,0.8,1.8,2.4
		c0,2,0,4.1,0,6.1c0,0.8,0.2,1.1,1,1.1c3,0,3,0.1,3-2.9c0-5.1,0-10.2,0-15.2c0-1.1-0.2-1.5-1.4-1.5c-2.6,0.1-2.6,0-2.6,2.5
		c0,1.6-0.7,2.4-1.9,2.5c-1.1,0-1.8-0.8-1.9-2.3C105.8,96.5,105.7,96.3,105.7,96z M63,103.9c0,2.3,0,4.6,0,6.9c0,2.9,0,2.8,2.9,2.9
		c1,0,1.2-0.3,1.2-1.2c0-5.2,0-10.3,0-15.5c0-3,0-3-3-2.9c-0.8,0-1,0.3-1,1C63,98,63,100.9,63,103.9z M65,90.3c2.2,0,4-1.8,4-4
		c0-2.1-1.8-3.9-3.9-3.9c-2.2,0-4,1.8-4,3.9C61.1,88.5,62.8,90.3,65,90.3z M18.4,90.3c2.2,0,3.9-1.7,4-3.8c0-2.2-1.7-4-3.9-4
		c-2.2,0-3.9,1.7-4,3.8C14.4,88.5,16.2,90.3,18.4,90.3z M115.5,86.4c0-2.2-1.7-3.9-3.9-3.9c-2.2,0-4,1.7-4,3.9
		c0,2.2,1.7,3.9,3.8,3.9C113.7,90.3,115.5,88.6,115.5,86.4z M64.9,121.4c1.7,0,3.3,0,5,0c0,0,0.1,0,0.1,0c0.4,0,0.7,0.1,0.9-0.4
		c0.6-2-0.4-3.5-2.5-3.6c-2.1,0-4.2,0-6.4,0c-2.4,0-3,0.6-2.9,3.1c0,0.8,0.3,1,1,1C61.7,121.3,63.3,121.4,64.9,121.4z M111.5,121.4
		c1.7,0,3.3,0,5,0c0.3,0,0.8,0.1,1-0.3c0.8-1.7-0.4-3.6-2.3-3.7c-2.2,0-4.3,0-6.5,0c-2.6,0-3.1,0.5-3,3.1c0,0.7,0.2,0.9,0.9,0.9
		C108.2,121.3,109.9,121.4,111.5,121.4z M18.4,121.4c1.7,0,3.3,0,5,0c0.3,0,0.7,0.1,0.9-0.3c0.8-1.7-0.3-3.7-2.2-3.7
		c-2.2,0-4.4,0-6.6,0c-2.4,0-2.9,0.5-2.9,2.9c0,0.9,0.3,1.1,1.2,1.1C15.2,121.3,16.8,121.4,18.4,121.4z"
      />
      <path
        d="M105.3,36.4c0,2.4-0.9,4.4-2.7,6c-3.6,3.4-7.1,6.8-10.8,10c-1.7,1.5-2.2,3.3-1.8,5.5c1,5.1,1.9,10.2,2.7,15.2
		c0.6,3.2-0.5,5.9-3.1,7.8c-2.7,1.9-5.6,2.1-8.5,0.6c-4.5-2.4-9-4.9-13.4-7.5c-1.9-1.1-3.7-1.1-5.6,0c-4.4,2.5-8.8,5-13.3,7.4
		c-5.1,2.7-10.9-0.2-11.8-5.8c-0.2-1.1,0-2.1,0.2-3.1c0.9-4.9,1.7-9.8,2.7-14.6c0.4-2.2-0.1-3.9-1.8-5.5c-3.6-3.2-7.1-6.6-10.6-9.9
		C25,40.2,24,37.3,25,34c1-3.3,3.4-5.1,6.8-5.6c0.5-0.1,1.1-0.2,1.6-0.2c1.1,0,1.9,0.7,2,1.7c0.1,1.1-0.5,1.7-1.5,2
		c-0.6,0.2-1.2,0.2-1.8,0.3c-1.8,0.2-3,1.2-3.5,2.9c-0.5,1.7-0.1,3.1,1.2,4.3c3.6,3.3,7.1,6.7,10.7,10c2.8,2.5,3.8,5.5,3.1,9.2
		c-1,4.9-1.8,9.9-2.7,14.9c-0.3,1.8,0.1,3.2,1.6,4.3c1.5,1.1,3.1,1.1,4.7,0.2c4.4-2.4,8.8-4.8,13.2-7.4c3.2-1.8,6.2-1.8,9.3,0
		c4.2,2.4,8.5,4.7,12.7,7.1c1.7,1,3.4,1.2,5,0c1.6-1.2,2-2.7,1.6-4.6c-0.9-5-1.8-10-2.7-15c-0.6-3.3,0.2-6.1,2.7-8.4
		c3.6-3.3,7.2-6.7,10.8-10c1.4-1.3,2.1-2.8,1.5-4.7c-0.6-1.8-1.9-2.7-3.8-2.9c-5.2-0.8-10.4-1.6-15.6-2.4c-3-0.4-5-2-6.3-4.7
		c-2.2-4.6-4.5-9.2-6.8-13.8c-1-2-2.4-2.8-4.4-2.6c-1.7,0.2-2.8,1.2-3.5,2.7c-2.1,4.4-4.3,8.7-6.4,13.1c-1.5,3.2-3.8,5-7.3,5.5
		c-1.5,0.2-3,0.5-4.6,0.6c-1.2,0.1-2.1-0.5-2.2-1.5c-0.2-1.1,0.5-2,1.7-2.2c1.7-0.3,3.4-0.6,5.2-0.8c1.7-0.2,2.9-1.2,3.6-2.7
		c2.2-4.6,4.5-9.3,6.8-13.9c2.1-4.2,6.8-5.8,10.8-3.7c1.7,0.8,2.8,2.1,3.6,3.8c2.2,4.5,4.4,8.9,6.6,13.5c0.9,1.9,2.3,2.9,4.4,3.2
		c5.1,0.7,10.2,1.5,15.3,2.3C102.5,29.1,105.3,32.4,105.3,36.4z"
      />
      <path
        d="M10.7,42c1.2,0,2.5,0,3.7,0c1.2,0,1.9,0.8,2,1.8c0,1-0.7,1.9-1.8,1.9c-2.6,0.1-5.2,0.1-7.9,0c-1.2,0-1.9-0.9-1.8-2
		C5,42.7,5.7,42,6.8,42C8.1,41.9,9.4,42,10.7,42z"
      />
      <path
        d="M119.3,42c1.2,0,2.5,0,3.7,0c1.2,0,1.9,0.7,2,1.8c0,1.1-0.7,1.9-1.8,1.9c-2.6,0.1-5.2,0.1-7.7,0c-1.2,0-1.9-0.9-1.9-1.9
		c0-1,0.8-1.8,2-1.8C116.8,41.9,118.1,42,119.3,42z"
      />
      <path
        d="M20.3,58.2c0,0.7-0.3,1.3-0.9,1.6c-2.3,1.1-4.6,2.3-7,3.3c-1,0.4-2,0-2.4-0.9c-0.4-0.9-0.1-1.9,0.9-2.4
		c2.2-1.1,4.5-2.2,6.8-3.2C18.9,56,20.2,56.8,20.3,58.2z"
      />
      <path
        d="M120.2,61.3c0,1.5-1.3,2.4-2.6,1.8c-2.3-1-4.6-2.1-6.9-3.3c-1-0.5-1.3-1.5-0.9-2.4c0.4-0.9,1.4-1.4,2.4-0.9
		c2.4,1.1,4.7,2.2,7,3.3C119.9,60.2,120.2,60.8,120.2,61.3z"
      />
      <path
        d="M120.2,26.3c-0.1,0.7-0.4,1.2-1.1,1.6c-2.2,1.1-4.4,2.1-6.7,3.1c-1.1,0.5-2.1,0.1-2.5-0.9c-0.5-1-0.1-2,1-2.5
		c2.2-1.1,4.4-2.2,6.6-3.2C118.9,23.9,120.3,24.8,120.2,26.3z"
      />
      <path
        d="M20.2,29.1c0,1.6-1.3,2.5-2.5,2c-2.4-1-4.7-2.2-7-3.3c-1-0.5-1.2-1.5-0.8-2.5c0.5-0.9,1.4-1.3,2.4-0.8
		c2.3,1,4.5,2.1,6.8,3.2C19.9,28,20.2,28.6,20.2,29.1z"
      />
    </svg>