
    <svg
      width={"0.5em"}
      height={"0.5em"}
      fill="currentColor"
      xmlns="http://www.w3.org/2000/svg"
      viewBox="0 0 130 130"
    >
      <path
        d="M65,97.7c3-7.2,8.2-12,14.5-15.9c5.6-3.4,11.2-7.1,16.7-10.7c2.5-1.6,5.2-2.1,8-0.9c0.9,0.4,1.2,0.1,1.5-0.7
		c2.2-6,4.5-12.1,6.7-18.1c1.2-3.1,3.3-5.3,6.6-6c5.5-1.2,11.1,4,9.8,9.4c-2.7,11.4-5.3,22.9-8.6,34.2c-2.6,8.7-8,15.5-15.3,20.9
		c-3.6,2.7-7.4,5.3-11.1,7.9c-0.7,0.5-1,1-0.9,1.8c0.1,1.1,0,2.2,0,3.4c-0.1,2.8-2.2,4.9-5,4.9c-15.3,0-30.7,0-46,0
		c-2.9,0-4.9-2.1-5-5c0-0.2,0-0.5,0-0.7c0.6-2.8-0.7-4.5-3.1-6c-3.8-2.5-7.6-5.1-11.1-8c-7.6-6.5-12.4-14.6-14.6-24.4
		C6.1,74.5,3.6,65.3,1.3,56c-1.1-4.5,0.9-8.6,5-10.2c4.1-1.6,8.6,0.1,10.6,4.3c1.5,3.2,2.6,6.5,3.8,9.8c1.2,3.3,2.5,6.5,3.6,9.8
		c0.2,0.7,0.5,0.9,1.2,0.6c2.7-1.2,5.4-0.9,7.9,0.7c6.7,4.3,13.4,8.5,20.1,12.9c4.8,3.2,8.5,7.4,11,12.7
		C64.6,96.8,64.7,97.1,65,97.7z M77.6,123.1c3.1,0,6.2,0,9.2,0c0.8,0,1.1-0.2,1.1-1.1c-0.1-1.2,0.1-2.4,0-3.6
		c-0.1-1.7,0.5-2.8,1.9-3.8c4-2.8,8-5.6,11.9-8.5c7.3-5.5,12.3-12.5,14.6-21.4c0.5-2.1,1-4.1,1.5-6.2c2-8,4-16.1,6-24.1
		c0.4-1.6-0.2-3-1.5-3.7c-1.4-0.8-3-0.5-4.1,0.7c-0.6,0.6-0.9,1.3-1.2,2c-2.6,6.9-5.2,13.9-7.8,20.8c-0.2,0.6-0.2,1.2-0.1,1.9
		c0.5,3.1-0.2,5.9-2.8,7.9c-2.2,1.7-4.4,3.5-6.6,5.2c-1.9,1.5-3.7,3-5.6,4.4c-1.1,0.8-2.3,0.7-3.2-0.1c-0.8-0.7-1.1-2-0.6-3
		c0.3-0.6,0.8-1,1.3-1.3c3.7-2.9,7.4-5.8,11.1-8.7c0.7-0.6,1.4-1.2,1.5-2.2c0.2-1.4-0.3-2.5-1.4-3.2c-1.3-0.8-2.5-0.6-3.7,0.2
		c-6.5,4.2-13.1,8.3-19.6,12.6c-6.9,4.5-10.8,11-11.7,19.2c-0.6,5.1-0.1,10.2-0.2,15.2c0,0.9,0.5,0.8,1.1,0.8
		C71.6,123.1,74.6,123.1,77.6,123.1z M52.2,123.1c3,0,6.1,0,9.1,0c1,0,1.2-0.3,1.2-1.2c0-3.8,0-7.6,0-11.4
		C62.3,101,58.6,93.4,50.7,88c-6.5-4.4-13.2-8.5-19.8-12.8c-1.7-1.1-3.6-0.8-4.6,0.7c-1,1.5-0.6,3.3,1,4.6c3.7,2.9,7.4,5.8,11.1,8.7
		c0.6,0.5,1.2,0.9,1.4,1.7c0.3,1.1,0,2.1-0.9,2.8c-1,0.7-2.1,0.6-3.2-0.3c-4-3.1-7.9-6.3-11.9-9.4c-2.6-2.1-3.4-4.8-2.9-8
		c0.1-0.7,0.1-1.3-0.1-1.9c-2.6-6.9-5.1-13.8-7.7-20.7c-0.2-0.4-0.3-0.9-0.6-1.2c-1-1.8-2.6-2.4-4.3-1.7c-1.7,0.7-2.4,2.2-1.9,4.2
		c2.4,9.7,4.9,19.4,7.2,29.2c2.3,9.5,7.5,17,15.4,22.7c3.8,2.8,7.7,5.5,11.6,8.3c1.1,0.8,1.6,1.7,1.6,3c-0.1,1.2,0.1,2.4,0,3.6
		c-0.2,1.3,0.4,1.6,1.6,1.5C46.4,123,49.3,123.1,52.2,123.1z"
      />
      <path
        d="M108.5,27.5c-0.1,4.7-2.2,10.2-6.7,14.9c-2.8,2.9-5.6,5.7-8.5,8.5c-1.2,1.2-2.7,1.3-3.8,0.3c-1.1-1.1-1-2.6,0.2-3.9
		c2.8-2.8,5.6-5.5,8.3-8.3c5-5.3,6.6-11.6,4.6-18.6C100.6,13.4,95.8,9,88.7,7.4C82.4,6,76.7,7.6,71.8,12c-1.7,1.5-3.2,3.2-4.8,4.7
		c-1.5,1.4-2.7,1.4-4.2,0c-1.5-1.5-3-3-4.5-4.5c-7.4-7.1-19.1-7-26.4,0.2c-7.3,7.3-7.5,19-0.3,26.3C42,49.3,52.5,59.7,63,70.2
		c1.3,1.3,2.6,1.3,3.9,0c2.1-2.1,4.2-4.2,6.4-6.4c1.3-1.3,2.8-1.4,3.9-0.3c1.1,1.1,1,2.5-0.3,3.8c-2.2,2.2-4.3,4.4-6.5,6.5
		c-3.2,3.1-7.6,3.1-10.7,0C49.1,63.4,38.7,53.1,28.3,42.5c-6.6-6.7-8.6-14.9-5.8-23.9c2.8-8.9,9.1-14.4,18.2-16.3
		c7.7-1.5,14.6,0.5,20.5,5.7c0.9,0.8,1.8,1.6,2.6,2.6c0.9,1.1,1.4,0.9,2.3,0C68.4,8.2,70.9,6,74,4.5C89.8-3.4,108.4,8,108.5,27.5z"
      />
      <path d="M83.4,59.8c-1.4,0-2.5-1.1-2.5-2.5c0-1.3,1.1-2.4,2.5-2.5c1.4,0,2.5,1.2,2.5,2.6C85.9,58.7,84.7,59.8,83.4,59.8z" />
    </svg>