    <svg
      width="0.5em"
      height="0.5em"
      fill="currentColor"
      xmlns="http://www.w3.org/2000/svg"
      viewBox="0 0 130 130"
    >
      <path
        d="M61.2,43.6c0,11.2,0,22.4,0,33.6c0,5.8-3.2,8.9-8.9,8.9c-14.1,0-28.3,0-42.4,0c-5.6,0-8.9-3.2-8.9-8.8
        c0-22.5,0-45.1,0-67.6C1.1,4.2,4.3,1,10,1c14.1,0,28.3,0,42.4,0c5.7,0,8.9,3.2,8.9,8.9C61.2,21.2,61.2,32.4,61.2,43.6z M6.1,43.4
        c0,11.3,0,22.5,0,33.8c0,3,0.9,3.9,3.9,3.9c14.1,0,28.2,0,42.2,0c3,0,3.9-0.9,3.9-3.9c0-22.4,0-44.8,0-67.3c0-3-0.9-3.9-3.9-3.9
        C38.2,6,24.1,6,10.1,6C7.1,6,6.1,7,6.1,9.9C6.1,21.1,6.1,32.3,6.1,43.4z"
      />
      <path
        d="M99.9,29.6c-0.3,1.1-0.7,2.9-1.1,4.7C93,55.7,87.3,76.9,81.6,98.2c-1.5,5.6-5.5,7.9-11.2,6.4c-11.4-3.1-22.8-6.1-34.2-9.2
        c-0.4-0.1-0.7-0.2-1.1-0.3c-1.4-0.5-2.1-1.8-1.7-3.1c0.4-1.3,1.7-2,3.1-1.7c4.7,1.2,9.4,2.5,14,3.7c7.1,1.9,14.2,3.8,21.3,5.7
        c2.7,0.7,4.1-0.1,4.9-2.8c6-22.2,11.9-44.4,17.8-66.6c0.7-2.5-0.2-4-2.7-4.7c-7.6-2.1-15.2-4.2-22.7-6.3c-0.3-0.1-0.6-0.2-0.9-0.3
        c-1.7-0.5-2.5-1.7-2.1-3.1c0.4-1.5,1.7-2.2,3.4-1.7c6.3,1.7,12.7,3.5,19,5.2c2,0.5,3.9,1,5.9,1.7C97.7,22.4,99.8,25.4,99.9,29.6z"
      />
      <path
        d="M128.9,61.2c-0.5,1.4-0.8,2.9-1.5,4.2c-11.4,19.8-22.8,39.6-34.2,59.3c-2.6,4.4-7.1,5.6-11.6,3
        c-10.5-6.1-21-12.1-31.5-18.2c-1.7-1-2.3-2.3-1.5-3.7c0.8-1.4,2.3-1.6,4.1-0.6c10.2,5.9,20.5,11.8,30.7,17.7
        c3.1,1.8,4.2,1.5,5.9-1.5c11.1-19.2,22.2-38.5,33.3-57.7c1.7-2.9,1.4-4.1-1.5-5.8c-6.1-3.5-12.3-7.1-18.4-10.6
        c-1.1-0.6-2-1.4-1.8-2.8c0.2-1.9,2.2-2.7,4.1-1.6c5.1,2.9,10.2,5.9,15.3,8.8c1.5,0.9,3.1,1.7,4.6,2.7
        C127.2,55.8,128.6,58.2,128.9,61.2z"
      />
    </svg>