<svg
  width="0.5em"
  height="0.5em"
  fill="currentColor"
  viewBox="0 0 130 130"
  xmlns="http://www.w3.org/2000/svg"
    >
      <path
        d="M74,88.6c6.1,2,11,5.5,14.7,10.5c0.3,0.4,0.6,0.5,0.9,0.1c2.4-2.8,5.3-4.9,8.7-6.3c1.1-0.5,0.2-0.8-0.1-1.1
		c-5.3-5.2-5.2-13.5,0.2-18.3c5.1-4.6,12.8-4.3,17.4,0.7c4.7,4.9,4.5,12.7-0.3,17.5c-0.3,0.3-0.5,0.5-0.8,0.8
		c0.1,0.5,0.5,0.4,0.8,0.6c6.4,2.8,10.7,7.4,12.9,14c1.6,4.6-1.6,9.1-6.4,9.1c-8.7,0-17.4,0-26.1,0c-1.1,0-1.5,0.3-1.4,1.4
		c0.1,1.5,0.1,3-0.3,4.5c-1.1,4.1-4.6,7.1-8.9,7.1c-13.6,0-27.2,0-40.7,0c-5,0-9-4-9.2-9c0-0.9-0.1-1.8,0-2.7c0.1-1-0.3-1.3-1.2-1.2
		c-8.7,0-17.3,0-26,0c-1.8,0-3.5-0.4-4.8-1.7c-2.1-1.9-2.9-4.6-1.9-7.4c2.2-6.6,6.6-11.3,13-14c0.2-0.1,0.5-0.2,0.8-0.4
		c-3.6-3.3-5.3-7.3-4.4-12.2c0.6-3.1,2.1-5.6,4.6-7.5c5.1-3.9,12.3-3.4,16.7,1.2c3.8,3.9,5.7,12.1-1.1,18.5c1,0.5,1.9,0.9,2.8,1.3
		c2.4,1.3,4.6,3,6.4,5.1c0.4,0.5,0.6,0.7,1.1,0c3.7-4.9,8.5-8.4,14.4-10.3c0.1,0,0.1-0.1,0.3-0.2c-4.8-3.6-7.3-8.4-6.9-14.5
		c0.3-4.3,2.1-7.8,5.3-10.7c6.4-5.8,16.2-5.4,22.2,0.8C82.5,70.2,83.2,81.7,74,88.6z M64.9,125c6.7,0,13.4,0,20.1,0
		c2.9,0,5.3-1.9,5.5-4.6c0.2-2.4,0.3-4.9,0-7.4c-1.5-10.4-9.6-19-19.9-21.2c-10.7-2.3-21.6,2.3-27.3,11.5c-3.1,4.9-4,10.2-3.8,15.9
		c0.2,3.7,2.2,5.9,6,5.9C51.9,125,58.4,125,64.9,125z M65.1,63.2c-6.6,0-12,5.3-12.1,11.9c0,6.6,5.3,12,11.9,12.1
		C71.5,87.3,77,81.9,77,75.3C77.1,68.6,71.7,63.2,65.1,63.2z M21.3,112c4.4,0,8.8,0,13.2,0c0.8,0,1.2-0.2,1.4-1.1
		c0.4-2.3,1.1-4.5,2.2-6.6c0.4-0.8,0.3-1.3-0.2-1.9c-4.8-5.8-10.9-8.2-18.2-6.9c-7.1,1.3-11.8,5.5-14.3,12.3
		c-0.9,2.5,0.3,4.1,2.9,4.1C12.6,112,16.9,112,21.3,112z M108.6,112c4.5,0,8.9,0,13.4,0c2.3,0,3.5-1.7,2.8-3.8
		c-2.4-7-7.2-11.3-14.4-12.6c-7.4-1.3-13.6,1.2-18.3,7.1c-0.4,0.5-0.5,0.9-0.2,1.4c1.1,2.2,1.9,4.5,2.3,6.9c0.2,0.8,0.5,1,1.2,1
		C99.8,111.9,104.2,112,108.6,112z M107,74.2c-4.7,0-8.5,3.7-8.5,8.5c0,4.7,3.8,8.5,8.5,8.5c4.6,0,8.4-3.8,8.5-8.4
		C115.5,78.1,111.6,74.2,107,74.2z M31.5,82.8c0-4.7-3.7-8.5-8.4-8.5c-4.7,0-8.5,3.8-8.5,8.5c0,4.6,3.8,8.4,8.4,8.5
		C27.6,91.3,31.5,87.4,31.5,82.8z"
      />
      <path
        d="M75.2,54.6c-0.6,0-1.2-0.3-1.8-0.7c-2.4-1.6-4.9-3.1-7.3-4.8c-0.9-0.6-1.5-0.5-2.3,0c-2.4,1.6-4.8,3.2-7.2,4.7
		c-1.5,0.9-2.6,1-3.7,0.3c-1.1-0.8-1.4-1.9-1-3.6c0.8-2.9,1.5-5.8,2.4-8.7c0.2-0.8,0.1-1.2-0.5-1.7c-2.4-1.9-4.7-3.8-7.1-5.7
		c-1.3-1.1-1.7-2.1-1.3-3.4c0.5-1.4,1.6-2,3-2c3-0.1,6-0.3,9-0.4c0.9,0,1.3-0.3,1.6-1.2c1-2.8,2.1-5.6,3.2-8.4
		c0.6-1.5,1.5-2.3,2.8-2.2c1.5,0.1,2.3,0.9,2.8,2.3c1,2.8,2.1,5.6,3.2,8.4c0.3,0.8,0.7,1.1,1.5,1.1c3,0.1,6.1,0.2,9.1,0.4
		c2.5,0.1,3.8,2.2,2.8,4.2c-0.3,0.5-0.7,0.9-1.2,1.3c-2.3,1.9-4.7,3.8-7,5.6c-0.6,0.5-0.7,0.9-0.5,1.6c0.9,3,1.7,6.1,2.5,9.1
		C78.6,52.9,77.3,54.6,75.2,54.6z M73.1,48.8c0.1-0.1,0.2-0.2,0.3-0.2c-0.6-2.4-1.2-4.7-1.9-7.1c-0.4-1.5-0.1-2.7,1.2-3.6
		c1.6-1.2,3.1-2.5,4.7-3.8c0.4-0.3,0.9-0.5,1.1-1.2c-2.4-0.1-4.7-0.4-6.9-0.3c-2.1,0-3.3-0.9-3.9-2.9c-0.7-2.2-1.6-4.2-2.5-6.7
		c-1,2.6-1.9,4.9-2.7,7.2c-0.6,1.6-1.6,2.4-3.4,2.4c-2.4,0.1-4.9,0.2-7.6,0.4c2.3,1.8,4.2,3.4,6.2,5c1.1,0.9,1.5,2,1.1,3.4
		c-0.4,1.6-0.9,3.1-1.3,4.7c-0.2,0.9-0.6,1.7-0.6,2.8c2.1-1.3,4-2.6,5.9-3.9c1.6-1.1,3-1.1,4.6,0C69.2,46.3,71.1,47.5,73.1,48.8z"
      />
      <path
        d="M119.5,54.6c-0.6,0-1.2-0.3-1.8-0.7c-2.5-1.6-5-3.2-7.4-4.9c-0.7-0.5-1.2-0.5-2,0c-2.5,1.7-5,3.3-7.5,4.9
		c-1.4,0.9-2.6,0.9-3.6,0.2c-1.1-0.8-1.4-1.9-1-3.5c0.8-2.9,1.6-5.9,2.4-8.8c0.2-0.8,0.1-1.2-0.5-1.7c-2.4-1.9-4.8-3.8-7.1-5.7
		c-1.3-1-1.7-2.1-1.3-3.4c0.4-1.2,1.4-1.9,3-2c3-0.2,6.1-0.3,9.1-0.4c0.8,0,1.2-0.3,1.4-1.1c1-2.8,2.1-5.6,3.2-8.4
		c0.6-1.6,1.5-2.4,2.9-2.3c1.5,0.1,2.4,1,2.9,2.4c1,2.8,2.1,5.6,3.2,8.4c0.3,0.7,0.6,1,1.3,1c3,0.1,6,0.3,9,0.4
		c0.9,0,1.8,0.2,2.5,0.9c1.2,1.3,1.1,3.1-0.4,4.4c-2.4,1.9-4.8,3.9-7.2,5.8c-0.7,0.5-0.8,1-0.6,1.8c0.9,3,1.7,5.9,2.4,8.9
		C122.9,52.8,121.7,54.6,119.5,54.6z M109.3,23.1c-0.3,0.6-0.4,0.9-0.6,1.3c-0.8,2-1.5,4-2.3,5.9c-0.5,1.5-1.5,2.2-3.1,2.2
		c-2.2,0.1-4.4,0.2-6.6,0.3c-0.3,0-0.6-0.1-0.9,0.3c1.8,1.4,3.4,2.9,5.2,4.1c1.9,1.3,2.3,2.8,1.6,5c-0.7,2.1-1.2,4.3-1.9,6.8
		c2.2-1.5,4.2-2.6,6.1-4c1.7-1.2,3.1-1.2,4.8,0c1.9,1.4,3.9,2.6,6.1,4c-0.7-2.7-1.4-5.2-2.1-7.7c-0.4-1.4,0-2.5,1.1-3.4
		c1.8-1.4,3.5-2.8,5.2-4.2c0.2-0.2,0.6-0.3,0.5-0.8c-2.4-0.1-4.8-0.3-7.2-0.4c-1.7,0-2.8-0.8-3.3-2.4
		C111.2,27.8,110.3,25.6,109.3,23.1z"
      />
      <path
        d="M30.9,54.6c-0.6,0-1.2-0.3-1.8-0.7c-2.4-1.6-4.9-3.1-7.3-4.8c-0.9-0.6-1.5-0.5-2.3,0c-2.4,1.6-4.9,3.2-7.3,4.8
		c-1.4,0.9-2.6,0.9-3.6,0.2c-1.1-0.8-1.4-1.9-1-3.5c0.8-2.9,1.5-5.9,2.4-8.8c0.2-0.8,0.1-1.2-0.5-1.7c-2.4-1.9-4.7-3.8-7.1-5.7
		c-1.3-1-1.7-2.1-1.3-3.4c0.5-1.4,1.6-2,3-2c3-0.1,6.1-0.3,9.1-0.4c0.8,0,1.2-0.3,1.4-1.1c1-2.8,2.1-5.6,3.2-8.4
		c0.6-1.6,1.5-2.4,2.9-2.3c1.5,0.1,2.3,1,2.9,2.4c1,2.8,2.1,5.6,3.2,8.4c0.2,0.7,0.6,1,1.3,1c3.1,0.1,6.2,0.2,9.2,0.4
		c2.3,0.1,3.6,1.8,2.9,3.8C40,33.5,39.5,34,39,34.5c-2.4,1.9-4.7,3.8-7.1,5.7c-0.6,0.5-0.7,0.9-0.5,1.6c0.9,3.1,1.7,6.2,2.5,9.3
		C34.3,52.9,33,54.6,30.9,54.6z M29.2,49.1c-0.7-2.7-1.3-5-2-7.3c-0.5-1.7-0.1-3,1.3-4c1.9-1.4,3.7-3,5.9-4.7
		c-2.9-0.2-5.4-0.3-7.9-0.4c-1.5-0.1-2.5-0.8-3-2.2c-0.7-2-1.5-4-2.3-6.1c-0.1-0.3-0.1-0.8-0.6-1c-0.9,2.4-1.8,4.7-2.7,7.1
		c-0.5,1.4-1.5,2.1-2.9,2.1c-1.9,0.1-3.7,0.2-5.6,0.3c-0.7,0-1.3,0.1-2.3,0.2c2.1,1.7,3.9,3.2,5.7,4.6c1.6,1.2,2,2.5,1.4,4.3
		c-0.7,2.3-1.3,4.6-2,7.1c2.2-1.5,4.3-2.7,6.3-4.1c1.5-1.1,2.9-1.1,4.5,0C24.9,46.3,26.9,47.6,29.2,49.1z"
      />
      <path
        d="M55.3,20.8c0,0.8-0.4,1.5-1.1,1.8c-0.8,0.4-1.6,0.2-2.3-0.4c-2-1.8-4-3.6-5.9-5.4c-0.7-0.6-1.4-1.3-2.1-1.9
		c-0.8-0.8-0.8-2-0.1-2.8c0.7-0.8,1.8-0.9,2.7-0.2c2.8,2.5,5.6,5,8.4,7.5C55.1,19.8,55.3,20.3,55.3,20.8z"
      />
      <path
        d="M86.8,13.6c0,0.6-0.3,1.1-0.8,1.6c-2.6,2.3-5.2,4.7-7.8,7c-1,0.9-2.2,0.8-3,0c-0.7-0.8-0.7-2,0.3-2.9
		c2.6-2.4,5.3-4.7,7.9-7.1c0.7-0.6,1.4-0.9,2.3-0.5C86.4,12,86.8,12.6,86.8,13.6z"
      />
      <path
        d="M67,6.6c0,1.2,0,2.3,0,3.5c0,1.4-0.8,2.2-2,2.2c-1.2,0-2-0.8-2-2.1c0-2.4,0-4.7,0-7.1C63,1.8,63.9,1,65,1
		c1.1,0,1.9,0.9,2,2.1C67,4.3,67,5.5,67,6.6z"
      />
    </svg>