<svg
  width="0.5em"
  height="0.5em"
  fill="currentColor"
  viewBox="0 0 130 130"
  xmlns="http://www.w3.org/2000/svg"
    >
      <path
        d="M38.8,76.8c-2.1,2.1-3.5,2.3-6,1c-1.4-0.7-2.8-1.5-4.2-2.2c-2.2-1.2-2.7-3.3-1.5-5.4c3.4-5.6,6.8-11.3,10.3-16.9
		c1.3-2.1,3.3-2.6,5.5-1.5c1.4,0.7,2.8,1.5,4.2,2.2c2.3,1.2,2.8,2.2,2.6,5.1c1.7,0.3,3.4,0.6,5.1,0.9c0.5,0.1,1.1,0,1.6,0.1
		c2.1,0.7,3.9,0.1,5.8-0.9c4-2.3,8.3-2.3,12.7-0.8c1.5,0.5,2.9,0.5,4.4-0.4c-0.7-2.5,0.7-4,2.8-5.1c1.2-0.7,2.3-1.4,3.5-2.1
		c2.1-1.3,4.2-0.9,5.6,1.1c3.9,5.4,7.7,10.8,11.5,16.2c1.5,2.1,1,4.2-1.2,5.6c-1.5,1-3,1.9-4.5,2.8c-1.1,0.7-2.2,0.9-3.4,0.4
		c-0.7-0.3-1.2-0.2-1.6,0.4c-0.1,0.1-0.2,0.2-0.3,0.3c-1.1,0.6-1.8,1.3-2,2.7c-0.2,1-1.5,1.7-2.3,2.5c-0.3,0.4-0.8,0.7-0.9,1.2
		c-0.6,1.7-1.8,2.8-3.5,3.3c-0.7,0.2-1,0.4-1.2,1.2c-0.5,1.9-1.9,3-3.7,3.6c-0.4,0.1-0.8,0.4-1,0.7c-1.6,3.1-4.8,4.2-7.9,2.6
		c-1.1-0.5-2.1-1.3-3.3-2c-1.4,1.4-3.1,2-5,1.4c-1-0.3-1.8-1.4-2.8-1.6c-1-0.2-2.2,0.5-3.2,0.3c-1-0.2-1.9-1-2.8-1.5
		c-0.5-0.3-1-0.7-1.5-0.6c-2.2,0.1-3.9-0.7-4.9-2.7c-0.2-0.3-0.5-0.6-0.8-0.7c-4.5-0.7-5.9-3.6-3.7-7.6c0.1-0.2,0.2-0.3,0.3-0.5
		C40.5,78.8,39.7,77.8,38.8,76.8z M69.3,86.9c1.6-1.1,2.9-0.3,4.2,0.6c0.5,0.4,1.1,0.7,1.7,1c0.9,0.5,1.9,0.5,2.8-0.2
		c1-0.7,1-1.3,0-1.9c-1.5-0.9-2.9-1.8-4.4-2.7c-1.2-0.7-1.5-1.6-0.9-2.5c0.7-1,1.6-0.8,2.6-0.3c1.4,0.9,2.8,1.8,4.3,2.6
		c0.8,0.4,1.8,0.4,2.6,0.4c0.4,0,0.9-0.6,1-1c0.1-0.2-0.4-0.8-0.8-1c-1.7-1-3.4-1.9-5.1-2.8c-1.2-0.7-1.6-1.5-1.1-2.4
		c0.5-0.9,1.4-1.1,2.6-0.4c1.9,1,3.8,2,5.7,3.1c0.8,0.4,1.6,0.6,2.3-0.4c-0.5-0.3-0.9-0.7-1.4-1c-5.2-3.1-10.4-6.2-15.6-9.4
		c-1.1-0.6-2-1.2-3.2-0.5c-0.4,0.2-0.9,0.3-1.3,0.2c-1-0.2-1.6,0.2-2.2,0.9c-1.4,1.4-3.1,2.2-5.1,2.3c-1.7,0-3.1-0.6-4-2.2
		c-0.8-1.5-0.6-3,0.4-4.3c0.4-0.6,0.9-1.2,1.2-1.6c-2.6-0.6-5.3-1.1-8-1.7c-2.3,3.7-4.6,7.5-6.9,11.4c-0.1,0.2-0.2,0.7,0,0.9
		c0.7,0.9,1.4,1.7,2.1,2.7c3.8-6.1,5.8-6.6,10.1-3c2.1-0.6,4.1-0.4,5.5,1.4c0.5,0.6,0.9,0.7,1.7,0.6c2.3-0.3,4.5,1.3,5,3.4
		c0.1,0.5,0.1,0.9,0.2,1.4C69.1,81.4,70.8,84.2,69.3,86.9c-0.6,1.2-1.1,2.3-1.7,3.5c2.3,1.9,4.8,3.4,6.3,1.2
		c-0.8-0.5-1.5-1.1-2.3-1.5C70.3,89.4,69.3,88.5,69.3,86.9z M81.3,60.8c-0.5,0.1-0.9,0.2-1.3,0.4c-1.9,0.8-3.8,0.9-5.8,0.2
		c-0.7-0.2-1.5-0.3-2.2-0.5c-2.2-0.6-4.3-0.5-6.4,0.3c-3.2,1.2-6.2,2.8-8.3,5.7c-0.2,0.3-0.4,0.9-0.2,1.2c0.2,0.3,0.8,0.5,1.1,0.4
		c0.8-0.2,1.7-0.6,2.4-1c0.6-0.4,1.1-1,1.6-1.6c0.7-0.8,1.5-1,2.5-0.8c0.6,0.1,1.5,0.1,2-0.3c1.1-0.8,2-0.6,3,0.1
		c5.6,3.4,11.2,6.7,16.8,10.1c0.3,0.2,0.6,0.4,0.9,0.5c1.2,0.4,2-0.3,2.8-1c0.7-0.7-0.1-1.2-0.4-1.7c-1.8-2.6-3.7-5.3-5.6-7.9
		C83.2,63.6,82.2,62.2,81.3,60.8z M46.8,57.4c-1.9-1-3.7-2-5.4-2.8c-0.3-0.1-1.1,0.2-1.3,0.5c-3.4,5.5-6.7,11-10.1,16.5
		c-0.4,0.6-0.3,1,0.4,1.3c1.2,0.6,2.4,1.3,3.6,1.9c1.7,0.9,1.7,0.9,2.7-0.7c2.7-4.4,5.4-8.8,8.1-13.2C45.3,59.8,46,58.7,46.8,57.4z
		M82.2,56.6c4.1,5.7,8,11.3,12,16.8c0.2,0.3,1.1,0.3,1.4,0.1c1.4-0.7,2.7-1.7,4.1-2.5c0.6-0.4,0.8-0.7,0.3-1.4
		c-3.8-5.3-7.5-10.6-11.3-15.9c-0.2-0.3-1-0.6-1.3-0.4C85.7,54.3,84,55.4,82.2,56.6z M50.3,88c0.2-0.2,0.9-0.5,1.2-1
		c1.6-2.7,3.1-5.4,4.7-8.1c0.4-0.7,0.6-1.5-0.2-1.8c-0.6-0.2-1.8-0.2-2.1,0.2c-1.9,2.9-3.6,5.9-5.2,9C48.1,87.1,48.8,87.9,50.3,88z
		M56,90.3c0.3-0.2,0.9-0.5,1.2-1c1.6-2.6,3.1-5.3,4.6-8c0.4-0.7,0.6-1.5-0.2-2c-0.8-0.6-1.7-0.4-2.2,0.4c-1.7,2.9-3.4,5.8-5,8.7
		C53.9,89.3,54.6,90.3,56,90.3z M45,84.6c0.3-0.2,0.9-0.6,1.2-1.1c1.3-2.1,2.4-4.2,3.6-6.3c0.4-0.8,0.7-1.5-0.2-2.1
		c-0.9-0.5-1.8-0.3-2.3,0.6c-1.4,2.3-2.7,4.6-4,7C42.9,83.6,43.6,84.6,45,84.6z M62.5,91.7c0.2-0.2,0.8-0.5,1.1-1
		c0.9-1.5,1.7-3,2.6-4.5c0.4-0.7,0.7-1.6-0.1-2c-0.6-0.3-2-0.2-2.2,0.2c-1.2,1.8-2.2,3.7-3.1,5.6C60.4,91,61.1,91.6,62.5,91.7z"
      />
      <path
        d="M29.9,25.4c-1.1-2-2.3-3.9-3.3-5.8c-0.3-0.6-0.4-1.6-0.1-2.2c0.4-0.8,1.3-0.7,2.1-0.5c4.9,1.4,9.9,2.7,14.8,4.1
		c1.5,0.4,1.9,1,1.5,2.5c-1.3,4.9-2.7,9.9-4.1,14.8c-0.2,0.6-0.9,1.5-1.5,1.6c-0.6,0.1-1.4-0.6-1.8-1.2c-1-1.4-1.8-3-2.7-4.7
		c-2.8,2.4-5.1,5.1-7,8c-3.7,5.4-5.8,11.5-7.1,17.9c-0.5,2.4-0.9,2.7-3.2,2.2c-1.6-0.3-3.2-0.7-4.8-1c-1.5-0.3-1.9-0.9-1.6-2.5
		c2.4-13,8.1-24.1,18.3-32.7C29.5,25.8,29.7,25.6,29.9,25.4z M31,20.9c0.8,1.4,1.4,2.5,2,3.6c0.8,1.5,0.7,2-0.6,3
		C23.4,34.8,17.7,44.2,15,55.5c-0.2,0.9-0.4,1.8-0.6,2.7c1.2,0.2,2.1,0.4,3.2,0.6c0.2-1.1,0.4-2,0.7-2.8c2.4-9.9,7.4-18.4,15.2-25
		c1.7-1.4,2.4-1.3,3.5,0.6c0.5,0.8,1,1.7,1.6,2.7c1-3.6,1.9-7,2.9-10.5C38,22.8,34.7,21.9,31,20.9z"
      />
      <path
        d="M107.9,54c-1-3.6-2.4-6.7-4.2-9.6c-3.2-5.4-7.5-9.8-12.5-13.5c-0.6-0.4-1.1-0.8-1.7-1.3c-0.8-0.6-0.9-1.4-0.3-2.2
		c1.2-1.7,2.5-3.4,3.8-5.1c0.7-0.9,1.5-0.9,2.4-0.3c10.6,7.6,18.4,17.2,21.9,30c0.3,1,0.7,1.3,1.7,1.2c1.8-0.2,3.6-0.4,5.4-0.4
		c0.7,0,1.7,0.3,2,0.8c0.3,0.5,0,1.6-0.5,2.1c-3.3,4-6.6,7.9-9.9,11.8c-1,1.2-1.7,1.2-2.9,0.2c-3.9-3.3-7.9-6.6-11.7-10
		c-0.5-0.4-0.9-1.5-0.8-2c0.2-0.5,1.1-1,1.8-1.1C104.2,54.2,106,54.2,107.9,54z M92.7,27.9c0.2,0.2,0.2,0.3,0.3,0.3
		c0.3,0.2,0.6,0.5,0.9,0.7c8.6,6.6,14.6,14.9,17.4,25.4c0.5,1.8-0.1,2.6-1.9,2.7c-1,0.1-2,0.2-3.3,0.3c2.9,2.5,5.6,4.7,8.3,7
		c2.3-2.8,4.6-5.4,7-8.3c-1.5,0.1-2.6,0.2-3.7,0.3c-2.2,0.2-2.5,0-3.1-2.1c-1.8-7.4-5.2-13.9-10.1-19.7c-2.9-3.5-6.2-6.5-10-9.2
		C94,26.2,93.4,27,92.7,27.9z"
      />
      <path
        d="M54.5,111c4.7,1.2,9.3,1.5,13.9,1.1c5.3-0.4,10.3-1.9,15.2-3.9c2.7-1.2,2.9-1.1,4.1,1.8c0.6,1.4,1.2,2.8,1.7,4.2
		c0.5,1.4,0.2,2-1.1,2.6c-8.6,3.8-17.5,5.8-26.9,5c-3.3-0.3-6.6-1-9.9-1.7c-1-0.2-1.4,0-1.8,0.9c-0.7,1.7-1.5,3.4-2.5,5
		c-0.3,0.6-1.1,1.3-1.6,1.2c-0.6-0.1-1.4-0.8-1.6-1.4c-1.7-4.8-3.4-9.7-5-14.5c-0.5-1.5-0.2-2.2,1.3-2.7c4.8-1.7,9.6-3.3,14.4-4.9
		c0.6-0.2,1.6-0.1,2.2,0.3c0.8,0.6,0.5,1.5,0.1,2.3C56.1,107.7,55.3,109.3,54.5,111z M85.9,114.2c-0.5-1.1-0.9-2-1.3-3
		c-0.7,0.3-1.2,0.5-1.8,0.7c-9.8,3.8-19.8,4.7-30,2c-2.5-0.7-2.8-1.3-1.6-3.7c0.4-0.8,0.7-1.5,1.2-2.5c-3.6,1.2-6.9,2.4-10.2,3.5
		c1.2,3.4,2.3,6.7,3.5,10.3c0.7-1.5,1.4-2.6,1.9-3.8c0.6-1.3,1.4-1.6,2.7-1.2c6.8,2.2,13.7,2.7,20.8,1.8
		C76.2,117.8,81,116.4,85.9,114.2z"
      />
      <path
        d="M5.6,89c-3-5.9-2.3-10.8,1.9-14.3c4.2-3.5,10.4-3.6,14.7-0.3c4.4,3.4,5.2,8.1,2.4,14.4c3.8,2.2,5.1,5.6,5,9.8
		c-0.1,1.9,0,3.8,0,5.7c0,1.5-0.6,2.1-2.1,2.1c-8.2,0-16.4,0-24.5,0c-1.4,0-2-0.6-2-2c0-2.1,0.1-4.2,0-6.2C0.9,94.3,2.3,91.2,5.6,89
		z M26.3,103.2c0-2.5,0.2-5-0.1-7.4c-0.2-1.9-1.3-3.4-3.1-4.2c-0.5-0.2-1.2-0.2-1.7,0.1c-4.2,2.4-8.4,2.4-12.6,0
		c-0.4-0.2-1-0.2-1.4,0c-1.8,0.9-2.9,2.5-3,4.4c-0.2,2.3,0,4.7,0,7C11.6,103.2,18.9,103.2,26.3,103.2z M15.1,90.3
		c4.9,0,8.8-4,8.2-8.4c-0.5-3.7-3.7-6.5-7.7-6.7c-3.8-0.2-7.4,2.2-8.4,5.6C5.7,85.6,9.6,90.3,15.1,90.3z"
      />
      <path
        d="M55.9,19.7c-3.8-5.9-1.5-11.3,1.5-14c4.3-3.8,10.6-4,15.1-0.5c4.4,3.4,5.2,8.4,2.3,14.3c3.9,2.2,5.2,5.8,5,10.1
		c-0.1,1.9,0,3.7,0,5.6c0,1.4-0.6,2-2,2c-8.2,0-16.4,0-24.5,0c-1.1,0-2-0.4-2-1.6c0-3-0.1-5.9,0.1-8.9
		C51.6,23.7,53.2,21.4,55.9,19.7z M76.6,33.9c0-2.3,0.1-4.5,0-6.7c-0.1-2-1.1-3.6-2.9-4.7c-0.8-0.5-1.4-0.5-2.3,0
		c-3.8,2.2-7.7,2.3-11.6,0.3c-1.6-0.8-2.2-0.8-3.4,0.6c-0.7,0.8-1.5,1.8-1.6,2.8c-0.3,2.5-0.3,5.1-0.4,7.7
		C61.9,33.9,69.1,33.9,76.6,33.9z M65.2,21c3.8,0,7-2.3,8-5.6c1.1-4-1.4-8.1-5.7-9.2c-4.4-1.2-9.2,1.3-10.3,5.4
		C56,16.5,59.9,21,65.2,21z"
      />
      <path
        d="M105,88.7c-3.6-5.3-2-10.8,1.5-13.9c4.2-3.8,10.7-4,15.1-0.5c4.4,3.4,5.3,8.5,2.3,14.3c3.9,2.2,5.2,5.8,5,10.1
		c-0.1,1.9,0,3.7,0,5.6c0,1.5-0.6,2-2,2c-8.2,0-16.4,0-24.5,0c-1.2,0-2-0.5-2-1.7c0-2.8-0.1-5.6,0.1-8.4
		C100.6,92.9,102.3,90.5,105,88.7z M125.7,103c0-2.3,0.1-4.5,0-6.7c-0.1-2-1.1-3.6-2.9-4.7c-0.8-0.5-1.4-0.5-2.3,0
		c-3.8,2.2-7.7,2.3-11.6,0.3c-1.6-0.8-2.2-0.9-3.4,0.5c-0.7,0.8-1.5,1.9-1.6,2.9c-0.2,2.5-0.1,5-0.1,7.6
		C111,103,118.3,103,125.7,103z M114.4,90.1c3.5,0,6.6-2,7.7-5c1-2.7,0.3-5.8-2-7.9c-3.3-3-8.5-2.9-11.7,0.1
		c-3,2.9-3.1,7.5-0.1,10.4C110.1,89.3,112.1,90.1,114.4,90.1z"
      />
    </svg>
