<svg
  width="0.5em"
  height="0.5em"
  fill="currentColor"
  xmlns="http://www.w3.org/2000/svg"
  viewBox="0 0 130 130"
    >
      <path
        d="M97.9,44.4c2.8-2.3,5.5-4.6,8.3-6.8c4.4-3.6,8.8-7.1,13.6-10.1c1.5-1,3.1-1.9,4.9-2.4c2.8-0.7,4.8,1.3,4.1,4.1
        c-0.6,2.3-1.9,4.3-3.1,6.2c-5.3,7.9-11.3,15.1-17.4,22.4c-2,2.4-4.1,4.7-6.1,7.1c-0.4,0.5-0.6,0.9-0.6,1.6
        c-1.2,23.1-12.1,40.1-32.8,50.2c-19.7,9.6-39,7.5-57-5.3c-4.8-3.4-8.6-8-10-13.9c-1.9-7.5-0.2-14.2,5.6-19.6
        c1.9-1.8,4.1-3.2,6.1-4.8c1.9-1.5,3.7-3.2,4.3-5.7c0.9-3.6,0-6.8-2.7-9.3c-1.6-1.5-3.5-2.8-5.3-4.2C6,51.1,3,47.8,1.8,43.1
        c-2.1-8.1,0.2-15,5.8-20.9c5.8-6.1,13.1-9.8,21-12.3C54.2,1.4,85.6,15,97.3,43.2C97.5,43.6,97.5,44.1,97.9,44.4z M96.2,71.6
        c-0.4,0.4-0.8,0.8-1.2,1.3c-4.2,4.7-8.4,9.3-12.9,13.8c-2.1,2.1-3.5,4.3-4.5,7.1c-2.3,7.3-7.1,12.4-14.6,14.5
        c-7.7,2.2-15.3,0.9-22.6-1.8c-1.2-0.4-1.7-1.4-1.4-2.6c0.2-1.2,1-1.8,2.2-1.9c2.8-0.2,4.5-1.8,5.2-4.4c0.5-2,1-3.9,1.4-5.9
        c1.6-9,6.6-14.7,16-16c0.5-0.1,0.9-0.3,1.3-0.7c9.1-9.1,18.6-17.8,28.3-26.3c0.5-0.5,0.7-0.8,0.4-1.6c-7.1-20-27-34.4-48.2-34.8
        c-9.6-0.2-18.3,2.4-26.6,7.1c-3.9,2.2-7.3,5-10,8.7c-4.7,6.4-4.6,16.1,2.9,21.6c1.7,1.2,3.3,2.5,4.9,3.8c2.1,1.7,4,3.7,5,6.3
        c2.4,5.9,0.7,12.2-4.8,16.6c-2,1.6-4.1,3.1-6.1,4.8c-4.6,3.9-6,9-4.7,14.8c1,4.7,3.9,8.3,7.6,11.1c11.1,8.6,23.7,12.3,37.7,10.2
        c15.6-2.4,27.8-10.3,36.6-23.3C92.7,87.1,95.4,79.7,96.2,71.6z M122.3,31.5c-0.5,0.3-0.9,0.6-1.4,0.9c-7.5,5.1-14.4,11-21.2,16.8
        c-10.3,8.9-20.3,18.1-30,27.6c-0.8,0.8-0.7,1.2,0,1.9c2.1,2,4.1,4.1,6.2,6.2c0.5,0.5,0.8,0.6,1.4,0c14.3-14.9,28.1-30.2,40.6-46.6
        C119.6,36.1,121.1,33.9,122.3,31.5z M48.1,103.8c4.3,0.9,8.5,1.2,12.7,0.2c7.4-1.7,11.2-6.9,13.1-13.8c0.1-0.5-0.1-0.8-0.4-1.1
        c-2.8-2.8-5.6-5.6-8.4-8.4c-0.3-0.3-0.6-0.5-1.2-0.4c-5.7,0.9-9.5,3.9-11,9.6c-0.2,0.8-0.4,1.5-0.6,2.3
        C51.5,96.2,51.1,100.3,48.1,103.8z"
      />
      <path
        d="M42.2,33c0-5.7,4.6-10.4,10.3-10.3c5.8,0,10.5,4.7,10.4,10.4c0,5.7-4.7,10.3-10.4,10.3C46.8,43.3,42.2,38.7,42.2,33z
        M52.6,27.4c-3.1,0-5.6,2.4-5.6,5.5c0,3.1,2.5,5.6,5.6,5.7c3,0,5.6-2.5,5.7-5.5C58.3,30.1,55.7,27.5,52.6,27.4z"
      />
      <path
        d="M38.3,92.1c0,5.7-4.7,10.3-10.4,10.3c-5.7,0-10.4-4.7-10.3-10.4c0-5.6,4.7-10.3,10.4-10.3C33.7,81.7,38.3,86.4,38.3,92.1z
        M33.6,92.1c0-3.1-2.4-5.6-5.5-5.6c-3.1-0.1-5.7,2.5-5.8,5.5c0,3.1,2.6,5.7,5.7,5.6C31.1,97.6,33.6,95.1,33.6,92.1z"
      />
      <path
        d="M35.4,40.7c0.1,5.6-4.4,10.4-10,10.5c-5.9,0.1-10.6-4.3-10.7-10.1c-0.1-5.6,4.4-10.4,10-10.5
        C30.6,30.5,35.2,34.9,35.4,40.7z M25,46.4c3.1,0,5.6-2.4,5.6-5.5c0.1-3.1-2.5-5.6-5.6-5.6c-3.1,0-5.6,2.4-5.6,5.5
        C19.3,43.9,21.9,46.4,25,46.4z"
      />
      <path
        d="M75.9,59.8c-5.7,0-10.4-4.7-10.4-10.3c0-5.7,4.7-10.3,10.4-10.3c5.7,0,10.3,4.7,10.3,10.3C86.3,55.2,81.7,59.7,75.9,59.8z
        M81.6,49.5c0-3.1-2.5-5.6-5.6-5.6c-3.1,0-5.6,2.4-5.7,5.5c-0.1,3,2.5,5.6,5.6,5.6C79,55.1,81.5,52.6,81.6,49.5z"
      />
    </svg>