<svg
  width="0.5em"
  height="0.5em"
  fill="currentColor"
  xmlns="http://www.w3.org/2000/svg"
  viewBox="0 0 130 130"
    >
      <path
        d="M20.6,78.5c-1.5-2.8-1.8-5.6-0.5-8.3c0.3-0.6-0.2-0.7-0.5-0.9c-3.9-3-6.3-6.9-7.2-11.7C10.6,47.4,18.7,37.4,29,37
		c4-0.1,7.7,0.8,11,3.1c0.4,0.3,0.7,0.5,1.2,0.3c5.6-2,10.5-0.4,14.9,3c0.8,0.7,1.2,0.8,1.8-0.2c0.9-1.4,2.1-2.6,3.6-3.2
		c0.9-0.4,1.1-0.8,0.9-1.7C61,31,62.5,24.6,67.1,18.9c1.7-2.1,3.5-2.2,5.5-0.3c2.4,2.4,4.8,4.7,7.1,7.2c0.7,0.7,1.1,0.9,2,0.1
		c5.4-4.8,13.2-5.9,19.6-2.7c0.6,0.3,1.3,0.7,1.4,1.4c0.2,0.8,0,1.4-0.6,1.9c-0.7,0.6-1.5,0.5-2.3,0.1c-3.3-1.6-6.7-1.9-10.2-0.9
		c-2.1,0.6-3.9,1.7-5.5,3.1c-0.6,0.5-0.5,0.8,0,1.4c0.8,1,1.4,1,2.4,0.2c6.6-5.3,16.2-1.8,18.2,6.5c0.1,0.3-0.1,0.9,0.4,0.9
		c0.7,0.1,1.5,0,2.2-0.1c0.3-0.1,0.1-0.5,0.1-0.8c-0.3-1.6-0.8-3-1.6-4.5c-0.7-1.2-0.4-2.3,0.5-2.8c1-0.6,2.1-0.2,2.8,1.1
		c1.2,2.2,2,4.6,2.1,7.1c0,0.6,0.1,1,0.7,1.3c4.5,2.3,6.5,7.4,5.4,12.7c-0.6,2.9-1.9,5.5-3.8,7.8c-0.5,0.6-0.5,0.9,0.2,1.4
		c2.3,1.5,3.9,3.5,4.2,6.3c0.2,2.4-0.7,4.4-2.3,6.1c-1.9,2-4.3,3.1-6.9,3.9c-0.4,0.1-1.1-0.1-1,0.6c0.1,0.7,0.8,0.5,1.2,0.5
		c0.8,0,1.6,0,2.4,0c3,0,4.8,2,4.6,4.9c-0.5,9.2-3.3,17.7-8.4,25.4c-5.8,8.8-13.5,15.3-23.2,19.5c-1.1,0.5-2.1,0.7-3.3,0.7
		c-11.2,0-22.3,0-33.5,0c-1.9,0-3.6-0.4-5.3-1.2c-17.2-8.4-27.2-22-30.1-40.9c-0.2-1.2-0.3-2.4-0.3-3.6c-0.1-2.9,1.7-4.8,4.6-4.8
		C17.9,78.5,19.1,78.5,20.6,78.5z M64,82.2c-11.3,0-22.7,0-34,0c-4.3,0-8.6,0-12.9,0c-1.2,0-1.6,0.4-1.4,1.5
		c0.2,1.7,0.5,3.4,0.6,5.1c0.1,1.2,0.6,1.5,1.7,1.4c21.8,0,43.6,0,65.3,0c0.4,0,0.8,0,1.1,0c1.2,0.1,2,0.8,2,1.9
		c0,1.1-0.8,1.8-2,1.8c-0.4,0-0.7,0-1.1,0c-21.4,0-42.9,0-64.3,0c-1.5,0-1.6,0-1.1,1.4c4.8,13.8,13.8,23.6,27.1,29.5
		c0.6,0.2,1.1,0.3,1.7,0.3c11.4,0,22.8,0,34.2,0c0.6,0,1.2,0,1.7-0.3c13.5-6,22.6-16,27.3-30c0.3-0.9,0.1-1-0.8-1
		c-4.1,0-8.2,0-12.4,0c-1.1,0-2.3,0-3.4,0c-0.9,0-1.5-0.5-1.7-1.4c-0.2-0.9,0.1-1.6,0.8-2c0.5-0.3,1-0.3,1.6-0.3
		c5.3,0,10.6,0,15.9,0c0.9,0,1.3-0.3,1.4-1.2c0.2-1.7,0.5-3.4,0.6-5.1c0.1-1.7,0.1-1.7-1.6-1.7C95.1,82.2,79.6,82.2,64,82.2z
		M71.7,61.6c1-2,2-3.8,3.2-5.3c1.9-2.4,3.7-2.5,5.9-0.4c2.4,2.4,4.8,4.7,7.1,7.2c0.7,0.7,1.1,0.8,1.8,0c2.2-2.3,4.5-4.6,6.8-6.8
		c1-1,1.9-2,2.9-2.9c0.9-0.8,1.9-0.8,2.7,0c0.7,0.8,0.7,1.8-0.1,2.7c-0.2,0.3-0.5,0.5-0.7,0.7c-3.1,3.1-6.1,6.1-9.2,9.2
		c-0.5,0.5-0.6,0.8,0,1.4c3.6,3.5,7.1,7.1,10.6,10.6c0.3,0.3,0.6,0.8,1.2,0.4c-0.2-0.3-0.3-0.7-0.5-1c-0.7-1.6-0.1-2.8,1.6-3.1
		c0.6-0.1,1.2-0.2,1.7-0.3c2.2-0.5,4.2-1.3,5.9-2.9c2.1-1.9,2.1-4.2,0-6.2c-0.9-0.8-1.9-1.4-3-1.9c-2.3-1-2.5-2.3-0.7-4
		c2.3-2,3.9-4.5,4.6-7.4c1.6-6.6-3.1-11.3-9.7-9.7c-3,0.7-5.4,2.3-7.4,4.6c-1.7,1.9-3,1.7-4-0.7c-0.6-1.4-1.4-2.6-2.6-3.6
		c-1.5-1.2-3.1-1.2-4.7-0.1c-1.1,0.8-1.8,1.9-2.4,3c-0.8,1.6-1.3,3.4-1.6,5.2c-0.3,1.9-1.5,2.4-3.1,1.7c-0.5-0.2-1.1-0.5-1.6-0.7
		c-2.9-0.9-4.8,0.2-5.5,3.2C70.4,56.8,70.8,59.1,71.7,61.6z M68.5,64.4c-0.4-1.4-0.9-2.6-1.1-3.9c-0.9-4.2-0.9-8.3,2.5-11.6
		c0.3-0.2,0.3-0.5,0.2-0.8c-0.7-1.7-1.5-3.3-3.1-4.5c-1.5-1.1-3.1-1.1-4.6,0.1c-1.3,1-2.1,2.3-2.7,3.7c-1.1,2.4-2.3,2.5-4.1,0.6
		c-2.2-2.4-4.7-4-7.9-4.7c-5.7-1.1-9.9,2.6-9.4,8.3c0.4,3.7,2.3,6.6,5,9.1c1.7,1.5,1.5,2.9-0.6,3.8c-1.5,0.6-2.8,1.4-3.8,2.7
		c-1.3,1.6-1.3,3.2,0,4.8c0.9,1.1,2.1,1.9,3.4,2.5c0.8,0.4,1,0.2,1.3-0.6c2.1-5.3,5.8-8.8,11.2-10.7c0.2-0.1,0.5-0.1,0.6-0.5
		c-1.5-1.5-3.1-3.1-4.7-4.7c-1.1-1.1-1.2-2.2-0.4-3c0.8-0.8,2-0.7,3.1,0.4c2.1,2.1,4.2,4.2,6.3,6.3c0.3,0.3,0.6,0.7,1.1,0.7
		C63.3,62.4,65.9,63.1,68.5,64.4z M86,37.6c-0.1-0.2-0.1-0.3-0.2-0.4C80.7,32.1,75.6,27,70.5,21.9c-0.5-0.5-0.8-0.3-1.1,0.2
		c-3.6,5-4.5,10.5-3,16.5c0.1,0.4,0.2,0.8,0.7,0.9c2.9,1,4.7,3.1,5.9,5.8c0.6,1.4,1.3,2.3,2.9,2.1c0.3,0,0.7,0.1,1,0.2
		c0.9,0.4,1.1,0,1.3-0.8C79.4,42.5,81.4,39,86,37.6z M41.8,78.5c-1.1-0.6-1.8-0.9-2.6-1.4c-6.4-3.8-6.6-10.2-0.6-14.6
		c0.6-0.4,0.6-0.7,0.1-1.2c-1.6-1.9-2.9-4.1-3.5-6.5C35,54,34.6,53.9,34,54c-2.1,0.4-3.5,1.6-4.2,3.6c-0.7,2.3-0.3,4.6,0.7,6.8
		c0.9,1.9,0.5,2.8-1.6,3.4c-1.1,0.3-2.2,0.7-3.2,1.3c-3.2,2.2-3.6,5.8-1,8.7c0.4,0.5,0.9,0.7,1.5,0.7c2.3,0,4.6,0,6.9,0
		C35.9,78.5,38.7,78.5,41.8,78.5z M25.1,65.1c-0.4-0.3-0.8-0.5-1.1-0.7c-5.1-3.2-6.8-9.7-4-15c2.8-5.3,9.3-7.6,14.7-5
		c1.1,0.5,1.5,0.4,2.2-0.6c0.6-0.9,0.4-1.1-0.4-1.6c-5-2.5-11.1-1.8-15.4,1.8c-7,5.8-6.6,16.7,0.7,22.1c0.6,0.5,1.1,0.7,1.8,0.1
		C23.9,65.8,24.5,65.5,25.1,65.1z M60.4,66.2c-2.2,0-4.2,0.4-6.2,1.3c-4.1,2-6.6,5.2-7.7,9.6c-0.1,0.4-0.5,1,0.1,1.3
		c0.9,0.5,2.4-0.1,2.6-1.2c1.3-4.9,5.8-8.4,10.9-8.5c5-0.1,9.7,3.3,11,8.2c0.4,1.4,1,1.6,2.2,1.5c0.7,0,0.9-0.1,0.8-0.9
		C72.9,71.1,67.2,66.2,60.4,66.2z M82.4,78.5c-3.4-5.1-3.7-10.1-0.5-15.2c0.3-0.5,0.2-0.7-0.2-1c-1-1-2.1-2-3.1-3.1
		c-0.6-0.7-1-0.4-1.4,0.2c-1.8,2.6-3,5.4-3.4,8.6c-0.1,0.4,0,0.7,0.2,1c2.1,2.6,3.4,5.6,3.9,8.9c0.1,0.4,0.2,0.6,0.6,0.6
		C79.8,78.5,81,78.5,82.4,78.5z M92.5,78.5c1.3,0,2.6,0,3.9,0c0.4,0,0.8,0,1-0.4c0.1-0.3-0.3-0.5-0.5-0.7
		c-3.8-3.8-7.5-7.5-11.3-11.3c-0.6-0.6-0.8-0.5-1.1,0.2c-1.1,2.3-1.3,4.6-0.5,7c1.2,3.5,3.4,5.1,7,5.1C91.5,78.5,92,78.5,92.5,78.5z
		M93.5,31.7c-1.9,0-3.5,0.6-4.9,1.8c-0.5,0.4-0.6,0.6-0.1,1.2c2.3,2.2,4.5,4.4,6.7,6.7c0.5,0.5,0.8,0.5,1.3,0
		c1.1-0.9,2.4-1.7,3.8-2.2c0.8-0.3,0.8-0.7,0.7-1.4C100.4,34.3,97.2,31.7,93.5,31.7z M25.8,60.9c0-0.8,0-1.5,0-2.1
		c0.3-4.4,3.4-7.9,7.7-8.5c0.5-0.1,1.1,0.1,1.2-0.7c0.1-0.7-0.3-1-0.8-1.4c-4.4-2.6-10.2-0.1-11.3,4.9
		C21.9,56.1,23.2,59.5,25.8,60.9z M67.6,78.5c-0.6-3.1-3.1-5.4-6.4-5.9c-3-0.5-6.2,1.2-7.7,4c-1,1.8-0.9,1.9,1.1,1.9
		c1.3,0,2.7,0,4,0C61.6,78.5,64.6,78.5,67.6,78.5z"
      />
      <path
        d="M62.8,17C62.5,23.7,59,30,51.6,33.7c-7.4,3.7-14.7,2.9-21.5-1.8c-0.3-0.2-0.7-0.5-1-0.8c-1.6-1.4-1.7-3.3-0.2-4.8
		c4.1-4.1,8.2-8.2,12.3-12.3c1-1,2.1-1,2.9-0.2c0.8,0.8,0.7,1.9-0.3,3c-3.6,3.7-7.3,7.3-11,10.9c-0.8,0.8-0.7,1.1,0.2,1.7
		c5.5,3.5,11.3,3.9,17.1,0.9c5.7-3,8.7-7.8,9-14.3c0.2-3.6-0.8-6.9-2.8-9.9c-0.5-0.8-0.9-1-1.6-0.2c-1.3,1.4-2.6,2.7-4,4
		c-1.1,1-2.1,1.1-3,0.3c-0.8-0.8-0.7-1.9,0.3-3c1.7-1.7,3.3-3.4,5-5c1.7-1.7,3.6-1.6,5.2,0.3C61.2,6,62.8,10.7,62.8,17z"
      />
      <path
        d="M83,19.5c-2,0-3.6-1.7-3.1-3.6c1.1-4.3,2.2-8.6,3.4-12.9c0.4-1.5,1.9-2.2,3.5-2c5.9,0.7,10.9,5.8,11.5,11.7
		c0.2,1.5-0.5,2.9-1.9,3.3c-4.3,1.2-8.7,2.4-13,3.5C83.3,19.6,83.1,19.5,83,19.5z M83.9,15.6c3.5-0.9,6.7-1.8,10-2.7
		c0.4-0.1,0.7-0.3,0.6-0.8c-0.5-2.9-3.9-6.4-6.9-7c-0.4-0.1-0.8-0.1-0.9,0.4C85.7,8.7,84.8,12,83.9,15.6z"
      />
      <path
        d="M44.2,25.7c0,0.5,0,1.1-0.2,1.6c-0.2,1-0.9,1.5-1.9,1.4c-1-0.1-1.7-0.7-1.7-1.8c0-0.9,0-1.7,0-2.6c0.1-1.1,0.8-1.8,1.8-1.8
		c1,0,1.8,0.6,1.9,1.7C44.2,24.7,44.2,25.2,44.2,25.7C44.2,25.7,44.2,25.7,44.2,25.7z"
      />
      <path
        d="M52.4,17.8c-0.4,0-0.8,0-1.2,0c-1.1-0.1-1.8-0.8-1.9-1.8c0-1,0.7-1.8,1.8-1.9c0.9-0.1,1.7-0.1,2.6,0
		c1.2,0.1,1.9,0.8,1.9,1.9c0,1.1-0.7,1.8-1.9,1.8C53.2,17.8,52.8,17.8,52.4,17.8C52.4,17.8,52.4,17.8,52.4,17.8z"
      />
      <path
        d="M52.1,23.7c0,0.7-0.3,1.3-1,1.6c-0.6,0.3-1.3,0.4-1.9-0.1c-0.8-0.7-1.6-1.5-2.4-2.4c-0.5-0.5-0.4-1.2-0.1-1.9
		c0.3-0.6,0.9-1,1.6-1C49.6,20.1,52.1,22.6,52.1,23.7z"
      />
      <path
        d="M79.2,40.4c0,0.4-0.2,0.8-0.6,1.2c-0.7,0.7-1.3,1.4-2,2c-0.8,0.7-1.9,0.7-2.6,0c-0.7-0.7-0.8-1.7-0.1-2.6
		c0.7-0.8,1.4-1.5,2.2-2.2c0.6-0.6,1.4-0.6,2.1-0.2C78.9,38.9,79.2,39.5,79.2,40.4z"
      />
      <path
        d="M73.3,31.5c0.5,0,1.1,0,1.6,0c1,0.1,1.6,0.7,1.7,1.7c0.1,1.1-0.5,1.8-1.5,1.9c-1.1,0.1-2.3,0.1-3.5,0
		c-1-0.1-1.6-0.9-1.6-1.9c0.1-1,0.7-1.7,1.8-1.7C72.3,31.4,72.8,31.5,73.3,31.5C73.3,31.5,73.3,31.5,73.3,31.5z"
      />
    </svg>