<svg
	width="0.5em"
	height="0.5em"
	fill="currentColor"
	xmlns="http://www.w3.org/2000/svg"
	viewBox="0 0 130 130"
>
	<path
	d="M67.2,129c-1-0.7-1.3-1.7-1.2-2.9c0.1-1,0-2.1,0-3.3c-0.5,0-0.9,0-1.4,0c-3.2,0-6.4,0-9.6,0c-5.5,0-9.1-3.6-9.2-9
	c0-6.3,0-12.7,0-19c0-0.4,0-0.9,0-1.6c-0.6,0.4-0.9,0.6-1.2,0.9c-2.6,2-5.2,4-7.7,6c-0.8,0.6-1.5,1-2.5,0.5c-0.9-0.5-1-1.3-1-2.2
	c0-2,0-4.1,0-6.3c-0.6,0-1.1,0-1.6,0c-5,0-10,0-15,0c-6-0.1-10.6-3.7-11.7-9.4C5,81.8,5,81.2,5,80.5c0-6.2,0-12.4,0-18.6
	c0-1.1,0.3-1.9,1.5-2.1c1.3-0.2,2.2,0.5,2.3,2c0,1.8,0,3.7,0,5.5c0,4.2,0,8.5,0,12.7c0,4.9,3.2,8.1,8.1,8.2c5.8,0,11.6,0,17.4,0
	c2.5,0,3,0.4,3,3c0,1.2,0,2.3,0,3.6c0.4-0.2,0.6-0.3,0.8-0.5c2.5-1.9,5-3.9,7.5-5.8c0.3-0.3,0.6-0.7,0.7-1.1
	c1.2-3.7,4.1-6.1,8-6.2c1.4-0.1,2.7,0,4.3,0c0-0.6,0-1.1,0-1.5c0-11,0-21.9,0-32.9c0-5.1-3.2-8.3-8.3-8.3c-11.1,0-22.2,0-33.2,0
	c-5.1,0-8.2,3.2-8.3,8.3c0,1.1,0,2.3,0,3.4C8.6,51.4,7.9,52,6.8,52c-1.2,0-1.8-0.6-1.8-1.9c0-2.1-0.1-4.3,0.3-6.3
	c1-5.1,5.5-9,10.7-9c11.7-0.1,23.5,0,35.2,0c0.7,0,1.4,0.1,2.2,0.2c0-0.5,0-1,0-1.4c0-6,0-11.9,0-17.9C53.5,7,59.4,1,68.1,1
	c8.4,0,16.7,0,25.1,0c1.5,0,2.1,0.5,2.3,1.6c0.2,1.4-0.6,2.1-2.2,2.2c-8.4,0-16.7,0-25.1,0c-0.9,0-1.8,0-2.6,0.2
	c-4.8,0.9-8.3,4.9-8.3,9.7c-0.1,7.1,0,14.2,0,21.2c0,0.4,0.3,1,0.7,1.3c2.9,2.5,4.4,5.6,4.3,9.4c0,6.5,0,13,0,19.5
	c0,0.9,0.2,1.5,1.1,1.7c1.5,0.3,3.1,0.9,4.6,0.9c7.2,0.1,14.4,0,21.6,0c2.1,0,2.6,0.6,2.7,2.7c0,2,0,4.1,0,6.4
	c0.5-0.4,0.9-0.6,1.2-0.9c3.2-2.5,6.5-5,9.7-7.4c0.6-0.4,1.4-0.7,2.1-0.7c2.4-0.1,4.8,0.1,7.2-0.2c4.9-0.6,8.7-4.8,8.7-9.7
	c0.1-14.7,0.1-29.4,0-44.1c0-5.4-4.5-9.8-9.9-9.9c-1.8,0-3.7,0-5.5,0c-1.4,0-2.1-0.7-2.1-1.9c0-1.2,0.7-1.9,2.1-1.8
	c2.9,0.1,6-0.1,8.8,0.5c6,1.3,10.4,6.9,10.4,13c0.1,14.7,0.1,29.5,0,44.2c0,7.5-6.2,13.4-13.9,13.6c-1.5,0-3.1-0.1-4.6,0
	c-0.7,0-1.5,0.3-2,0.7c-4.2,3.1-8.4,6.3-12.5,9.5c-0.8,0.6-1.5,1-2.5,0.5c-0.9-0.5-1-1.3-1-2.2c0-2.8,0-5.6,0-8.4
	C79.7,72,71,73.3,62.3,71.7c0,3,0,6.1,0,9.4c0.4,0,0.9,0,1.3,0c4.8,0,9.7,0,14.5,0c5.9,0,9.5,3.5,9.5,9.5c0,2.7,0,5.4,0,8.1
	c0,1.5-0.9,2.2-2.2,2c-1.2-0.2-1.5-1-1.5-2.1c0-2.7,0-5.3,0-8c0-4-1.9-5.8-5.8-5.8c-7.5,0-15.1,0-22.6,0c-4,0-5.8,1.8-5.8,5.8
	c0,7.5,0,15,0,22.5c0,4,1.8,5.8,5.8,5.8c3.8,0,7.7,0,11.5,0c2.4,0,2.8,0.5,2.9,2.8c0,0.4,0,0.7,0,1.3c0.3-0.2,0.6-0.2,0.8-0.4
	c0.7-0.5,1.5-1.1,2.2-1.7c1.7-1.6,3.5-2.2,5.9-2.1c3.1,0.2,5.1-1.9,5.2-5.1c0-1,0-2.1,0-3.1c0.1-1.2,0.7-1.8,1.8-1.8
	c1.1,0,1.9,0.6,1.8,1.7c0,1.9,0.1,3.8-0.3,5.6c-0.9,3.8-4.3,6.5-8.2,6.4c-1.7,0-3.1,0.5-4.4,1.6c-1.9,1.6-4,3.1-5.9,4.7
	C68.2,129,67.7,129,67.2,129z"
	/>
	<path
	d="M81.4,56.6c-0.8,0.2-1.6,0.6-2.4,0.6c-3,0.1-6,0-9,0c-1.7,0-2.3-0.6-2.3-2.3c0-7.2,0-14.5,0-21.7c0-1.7,0.6-2.3,2.3-2.3
	c3,0,6.1,0,9.1,0c0.7,0,1.4,0.3,2.4,0.5c1.9-2.2,4.1-4.5,5.8-7.1c0.9-1.4,1.2-3.2,1.7-4.9c0.2-0.7,0.1-1.5,0.4-2.2
	c0.5-1.5,1.7-2.4,3.3-2.5c1.6-0.1,2.9,0.5,3.6,1.9c2.2,3.9,2.5,8,1,12.2c-0.2,0.5-0.3,0.9-0.5,1.4c0,0,0,0.1,0.1,0.2
	c2.8,0,5.7,0,8.6,0c3.3,0,5.3,1.9,5.3,5.3c0,5.7,0,11.5,0,17.2c0,2.9-1.8,5.1-4.7,5.1c-6.3,0.1-12.7,0.1-19-0.1
	C85.2,58,83.3,57.1,81.4,56.6z M93,18.5c-0.1,0.5-0.2,0.6-0.2,0.8c-0.2,3.9-1.8,7.2-4.5,10c-2.1,2.3-4.2,4.7-6.2,7
	c-0.3,0.4-0.6,1-0.6,1.5c0,4.3,0,8.7,0,13c0,0.5,0.3,1,0.6,1.3c1.8,1.5,3.9,2.2,6.2,2.2c5.7,0,11.3,0,17,0c1.4,0,1.7-0.3,1.7-1.7
	c0-5.5,0-11.1,0-16.6c0-1.6-0.2-1.8-1.8-1.8c-3.7,0-7.3,0-11,0c-1.9,0-2.6-1.2-2-2.9c0.5-1.3,1.1-2.6,1.6-3.9
	C94.9,24.4,94.6,21.6,93,18.5z M77.6,53.5c0-6.2,0-12.5,0-18.8c-2.1,0-4.1,0-6.1,0c0,6.3,0,12.5,0,18.8
	C73.6,53.5,75.6,53.5,77.6,53.5z"
	/>
	<path
	d="M32.3,57.7c1.6,0,3,0,4.5,0c0.3-1.8,0.6-3.6,0.9-5.4c0.1-0.5,0.1-0.9,0.2-1.4c0.3-1.1,1.1-1.7,2.2-1.5
	c1,0.2,1.7,1.1,1.5,2.2c-0.3,2-0.6,3.9-1,6.1c1.8,0,3.4-0.1,5,0c0.6,0,1.4,0.2,1.8,0.6c0.4,0.5,0.6,1.4,0.3,1.9
	c-0.3,0.5-1.1,1.1-1.7,1.1c-2,0.1-4,0.1-6.1,0.1c-0.3,1.5-0.5,2.9-0.8,4.6c1.4,0,2.7,0,4,0c1,0,1.9,0,2.9,0
	c1.2,0.1,1.8,0.7,1.9,1.8c0,1.1-0.7,1.9-1.9,1.9c-2.1,0.1-4.2,0.1-6.4,0c-0.9,0-1.2,0.2-1.3,1.1c-0.2,1.8-0.6,3.6-0.9,5.4
	c-0.2,1.4-1.1,2-2.2,1.8c-1.1-0.2-1.7-1.1-1.5-2.5c0.3-1.9,0.6-3.8,1-5.8c-1.5,0-2.9,0-4.5,0c-0.3,2-0.7,4.1-1.1,6.2
	c-0.3,1.5-1.1,2.3-2.3,2.1c-1.2-0.2-1.7-1.2-1.4-2.7c0.3-1.8,0.6-3.6,0.9-5.6c-1.3,0-2.5,0-3.8,0c-0.6,0-1.2,0-1.7,0
	c-1.2-0.1-1.9-0.9-1.9-1.9c0-1,0.7-1.7,1.9-1.8c1.6-0.1,3.2-0.1,4.7,0c1,0,1.5-0.2,1.6-1.3c0.1-1.1,0.3-2.1,0.5-3.3
	c-2.3,0-4.5,0-6.6,0c-1.3,0-2.1-0.7-2.1-1.8c0-1.1,0.8-1.9,2.1-1.9c2.4,0,4.7,0,7.2,0c0.3-2,0.7-4,1-5.9c0.1-0.3,0.1-0.7,0.2-1
	c0.3-1.1,1.1-1.6,2.1-1.4c1.1,0.2,1.6,0.9,1.5,2c-0.2,1.5-0.4,3-0.7,4.4C32.5,56.5,32.5,57,32.3,57.7z M31.7,61.6
	c-0.2,1.5-0.5,2.9-0.7,4.5c1.6,0,3,0,4.5,0c0.2-1.5,0.5-3,0.7-4.5C34.6,61.6,33.2,61.6,31.7,61.6z"
	/>
	<path
	d="M77.5,100.5c0,2.5-0.9,4.8-2.7,6.3c-2.2,1.9-4.7,3.4-7.1,5c-0.4,0.3-1.3,0.3-1.8,0c-2.8-1.4-5.5-3-7.6-5.4
	c-2-2.4-2.8-5.1-2.1-8.1c1.1-4.4,5.9-6.5,9.9-4.2c0.3,0.2,0.9,0.2,1.2,0.1C72.2,91.5,77.5,94.8,77.5,100.5z M73.8,100.5
	c0-1.7-0.7-2.9-2.1-3.4c-1.3-0.5-2.2-0.1-3.3,1.4c-1,1.3-2.3,1.2-3.3-0.3c-0.7-1-1.6-1.5-2.8-1.3c-1.2,0.2-1.9,0.9-2.3,2.1
	c-0.6,1.8-0.2,3.6,1.1,4.9c1.6,1.5,3.5,2.7,5.3,3.9c0.2,0.1,0.7,0.1,0.9,0c1.6-1.1,3.3-2.2,4.8-3.5
	C73.2,103.3,73.7,102,73.8,100.5z"
	/>
</svg>
