<svg
  width="0.5em"
  height="0.5em"
  fill="currentColor"
  viewBox="0 0 130 130"
  xmlns="http://www.w3.org/2000/svg"
    >
      <path
        d="M62.1,123c0-3.6,0-7-0.1-10.3c0-0.4-0.6-1-1.1-1.2c-11.4-5.9-22.8-11.7-34.2-17.6c-4.9-2.5-9.9-5.1-15.1-7.8
        c0,0.7-0.1,1.2-0.1,1.6c0,3.5,0,7,0,10.4c0,1.5-0.7,2.4-1.9,2.6c-1.4,0.2-2.6-0.7-2.6-2.2c-0.1-5.4,0-10.9,0-16.3
        c0-1.3,0.9-1.9,1.9-2.4c8.2-3.7,16.4-7.5,24.5-11.2c6.3-2.9,12.6-5.8,18.9-8.7c0.4-0.2,0.9-0.4,1.3-0.5c1.2-0.2,2.1,0.2,2.5,1.3
        c0.4,1.1,0.2,2.1-0.8,2.8c-0.5,0.4-1.2,0.6-2,1c1.2,0.6,2.2,1.1,3.2,1.7c2.4,1.2,4.8,2.5,7.2,3.7c0.4,0.2,1.1,0.4,1.4,0.3
        c3.5-1.7,6.9-3.5,10.6-5.4c-0.8-0.4-1.4-0.6-1.9-1c-1-0.7-1.4-1.7-0.8-2.9c0.5-1.1,1.5-1.5,2.7-1.2c0.3,0.1,0.5,0.2,0.8,0.3
        c14.7,6.6,29.4,13.2,44.2,19.8c1.4,0.6,2,1.5,2,3.1c0,5,0,9.9,0,14.9c0,1.5-0.7,2.4-2,3.1c-18.3,9.1-36.5,18.3-54.7,27.5
        c-1.3,0.6-2.3,0.7-3.6,0c-9.6-5-19.2-9.9-28.8-14.9c-0.6-0.3-1.5-0.9-1.6-1.5c-0.2-0.8,0-1.8,0.5-2.4c0.7-1,1.8-0.8,2.9-0.3
        c4.4,2.3,8.8,4.5,13.2,6.8c4,2.1,8,4.1,12.1,6.2C61.1,122.6,61.5,122.7,62.1,123z M66.7,123c0.5-0.2,0.8-0.3,1.2-0.5
        c16.5-8.3,33-16.6,49.5-24.8c0.8-0.4,1-0.8,1-1.7c0-2.9,0-5.8,0-8.7c0-0.3-0.1-0.7-0.1-1.1c-0.6,0.3-1,0.5-1.4,0.7
        c-7.3,3.7-14.6,7.4-21.9,11c-9,4.5-18,9-26.9,13.5c-0.5,0.2-1.2,0.8-1.2,1.2C66.6,116,66.7,119.4,66.7,123z M42,82.4
        c-4.2-2.2-8.1-4.2-12.1-6.2c-0.5-0.2-1.2-0.1-1.7,0.1c-4.1,1.8-8.2,3.7-12.3,5.6c-0.3,0.1-0.6,0.3-1.1,0.6c3.3,1.7,6.5,3,9.4,4.9
        c2.9,1.9,5.4,1.8,8.3,0C35.3,85.5,38.6,84.2,42,82.4z M33.3,92.1c4.3,2.2,8.5,4.4,12.6,6.5c0.3,0.2,1-0.1,1.4-0.3
        c3.9-2,7.7-3.9,11.6-5.9c0.3-0.2,0.6-0.4,1-0.6c-4.2-2.2-8.3-4.3-12.4-6.3c-0.4-0.2-1-0.1-1.4,0.1c-1.8,0.9-3.6,1.8-5.5,2.8
        C38.3,89.5,35.9,90.7,33.3,92.1z M51.4,101.4c4.4,2.2,8.4,4.3,12.5,6.4c0.4,0.2,1,0,1.4-0.2c4-2,7.9-3.9,11.8-5.9
        c0.3-0.1,0.5-0.4,0.8-0.6c-4.2-2.2-8.2-4.3-12.3-6.3c-0.3-0.2-0.9-0.2-1.2,0C60.2,96.8,55.9,99,51.4,101.4z M88.2,82.5
        c4.3,2.2,8.4,4.3,12.3,6.4c0.8,0.4,1.3,0.4,2.1,0c3.8-2,7.6-3.9,11.5-5.8c0.3-0.2,0.6-0.4,1.1-0.7c-4.7-2.1-9.3-4.2-13.8-6.2
        c-0.3-0.1-0.8-0.1-1.1,0C96.3,78.3,92.4,80.3,88.2,82.5z M96.5,91.9c-4.5-2.3-8.7-4.5-12.9-6.6c-0.3-0.2-0.9,0.1-1.3,0.2
        c-2.7,1.3-5.3,2.7-8,4.1c-1.3,0.7-2.7,1.4-4.1,2.1c4.3,2.2,8.4,4.4,12.5,6.4c0.4,0.2,1.1,0.1,1.5-0.1c3.3-1.6,6.6-3.3,10-5
        C94.8,92.7,95.5,92.4,96.5,91.9z M78.1,82.5c-4.4-2.3-8.5-4.4-12.7-6.5c-0.2-0.1-0.7-0.1-0.9,0c-4.1,2.1-8.2,4.2-12.4,6.4
        c0.6,0.3,1,0.6,1.4,0.8c3.4,1.8,6.8,3.4,10.1,5.3c1.1,0.6,2,0.5,3-0.1c2-1.1,4.1-2.1,6.1-3.1C74.4,84.4,76.1,83.5,78.1,82.5z
        M34.5,73.4c4.1,2.1,7.9,4.1,11.8,6.1c0.4,0.2,1,0.2,1.3,0.1c4.1-2,8.1-4.2,12.4-6.3c-3.9-2-7.6-3.9-11.3-5.8
        c-0.3-0.1-0.7-0.1-0.9,0C43.4,69.3,39.1,71.3,34.5,73.4z M70,73.2c2.7,1.4,5.2,2.7,7.7,3.9c1.8,0.9,3.6,2.5,5.3,2.5
        c1.8,0,3.7-1.6,5.5-2.5c2.2-1.1,4.4-2.2,6.6-3.4c-0.2-0.2-0.3-0.3-0.4-0.4c-4.2-1.9-8.5-3.8-12.7-5.7c-0.3-0.1-0.9-0.1-1.2,0
        C77.3,69.4,73.8,71.2,70,73.2z"
      />
      <path
        d="M41.8,21.7c0.1-4.8,2-11.2,7.9-15.6c10-7.5,25.1-6.9,33.8,3c4.2,4.8,5.2,10.6,4.5,16.7c-0.7,7-3.6,13.2-7.8,18.7
        c-4.4,5.7-8.9,11.3-13.4,16.9c-1.3,1.6-2.8,1.6-4,0.1C56.5,53.8,50.2,45.8,45.1,37C42.8,32.9,41.8,28.6,41.8,21.7z M64.8,56.9
        c1.7-2.1,3.3-3.9,4.8-5.9c3-4,5.9-7.9,8.8-12c2.9-4.1,4.4-8.7,5-13.6c1.1-8.2-2.6-14.7-10.2-18.1c-6.1-2.7-12.1-2-17.9,0.7
        c-4,1.8-6.6,4.9-7.9,9.1c-1.8,5.7-1.6,11.3,1.2,16.6C53,42,59,49.3,64.8,56.9z"
      />
      <path d="M25.5,109.9c-1.5,0-2.7-1.3-2.6-2.8c0-1.5,1.2-2.7,2.8-2.6c1.5,0,2.7,1.3,2.7,2.8C28.3,108.7,27,110,25.5,109.9z" />
      <path d="M19.2,102.5c0,1.5-1.2,2.7-2.7,2.8c-1.5,0-2.7-1.2-2.8-2.7c0-1.5,1.2-2.7,2.7-2.7C18,99.8,19.2,101,19.2,102.5z" />
      <path
        d="M74.5,24.6c0,5.3-4.3,9.6-9.5,9.6c-5.3,0-9.5-4.3-9.5-9.6c0-5.3,4.3-9.6,9.5-9.5C70.3,15,74.5,19.3,74.5,24.6z M60.1,24.5
        c0,2.8,2.2,5,5,5c2.7,0,4.9-2.2,4.9-4.9c0-2.8-2.2-5-5-5C62.2,19.6,60.1,21.8,60.1,24.5z"
      />
    </svg>
