<svg
  width="0.5em"
  height="0.5em"
  fill="currentColor"
  viewBox="0 0 130 130"
  xmlns="http://www.w3.org/2000/svg"
    >
      <path
        d="M35.6,11.2c2.6,0.4,6.2,0.8,9.8,1.4c1.9,0.3,3.3-0.1,4.6-1.5c2.3-2.3,4.6-4.5,6.9-6.7c4.8-4.6,11.3-4.6,16.1,0
        c2.4,2.3,4.8,4.5,7.1,6.9c1.2,1.2,2.6,1.6,4.3,1.3c3.2-0.5,6.3-1,9.5-1.4c7.1-0.8,12.1,3.1,13.3,10.1c0.5,3,1.1,6.1,1.6,9.1
        c0.3,1.6,1.1,2.7,2.5,3.5c2.9,1.5,5.8,3,8.7,4.6c5.9,3.2,7.9,9.3,5,15.4c-1.4,2.9-2.8,5.8-4.2,8.6c-0.8,1.6-0.8,3.1,0,4.8
        c1.4,2.8,2.8,5.6,4.1,8.4c3.1,6.3,1,12.4-5.2,15.7c-2.8,1.5-5.5,3-8.3,4.4c-1.6,0.8-2.5,2.1-2.8,3.9c-0.5,3.2-1,6.4-1.7,9.6
        c-1.4,6.8-6.7,10.4-13.5,9.3c-3.2-0.5-6.3-0.9-9.5-1.4c-1.5-0.2-2.8,0.3-3.8,1.3c-2.3,2.3-4.7,4.6-7.1,6.9
        c-4.9,4.7-11.3,4.7-16.2,0c-2.4-2.2-4.7-4.5-7-6.8c-1.3-1.3-2.7-1.7-4.4-1.4c-3.2,0.5-6.3,1-9.5,1.4c-7,0.8-12-3-13.2-9.9
        c-0.5-3.1-1.1-6.1-1.6-9.2c-0.3-1.6-1.1-2.8-2.6-3.6c-2.9-1.5-5.8-3-8.7-4.6C4,88.2,2.1,82.1,4.9,76c1.4-2.9,2.8-5.9,4.3-8.7
        c0.8-1.6,0.8-3.1,0-4.6c-1.4-2.8-2.8-5.6-4.1-8.4C2,47.9,4,41.8,10.2,38.5c2.8-1.5,5.6-3,8.4-4.4c1.6-0.8,2.4-2,2.7-3.8
        c0.6-3.6,1.2-7.3,2-10.9C24.5,14.2,29.2,10.9,35.6,11.2z M95.7,111.5c2.2,0,3.7-1.1,4.1-3.2c0.5-2.8,1.1-5.6,1.5-8.5
        c0.6-5.2,3.1-8.8,7.9-11c2.5-1.2,4.9-2.6,7.4-3.9c2.5-1.4,3.1-3.2,1.9-5.8c-1.3-2.8-2.7-5.6-4.1-8.3c-2-3.9-2-7.7,0-11.6
        c1.4-2.7,2.7-5.4,4-8.2c1.4-2.8,0.8-4.6-2-6.1c-2.8-1.5-5.6-3-8.4-4.4c-3.7-1.9-5.8-4.9-6.4-9.1c-0.5-3.2-1.1-6.4-1.7-9.6
        c-0.5-2.4-2.2-3.7-4.6-3.3c-3.2,0.4-6.4,0.9-9.5,1.4c-4.2,0.7-7.8-0.4-10.8-3.5c-2.1-2.2-4.4-4.2-6.6-6.4c-2.4-2.3-4.2-2.3-6.6,0
        c-2.3,2.2-4.6,4.5-6.9,6.7c-2.6,2.5-5.8,3.7-9.4,3.3c-3.5-0.5-6.9-1-10.4-1.5c-2.6-0.4-4.3,0.8-4.8,3.4c-0.6,3.2-1.2,6.4-1.7,9.6
        c-0.6,4.1-2.7,7.1-6.4,9c-2.9,1.5-5.7,3-8.6,4.6c-2.5,1.4-3.1,3.2-1.9,5.8c1.4,2.9,2.8,5.8,4.2,8.6c1.9,3.7,1.9,7.3,0,11
        c-1.4,2.8-2.7,5.6-4.1,8.4c-1.4,2.8-0.8,4.6,2,6.1c2.8,1.5,5.7,3,8.5,4.5c3.6,1.9,5.7,4.9,6.3,8.9c0.5,3.2,1.1,6.4,1.7,9.6
        c0.5,2.7,2.2,3.8,4.9,3.4c3.2-0.5,6.3-0.9,9.5-1.4c4.2-0.6,7.7,0.6,10.7,3.6c2.2,2.2,4.5,4.4,6.7,6.5c2,2,4,2,6,0
        c2.2-2.1,4.5-4.2,6.6-6.4c3.2-3.3,7-4.4,11.5-3.6C89.4,110.7,92.6,111.1,95.7,111.5z"
      />
      <path
        d="M93.2,40.7c-0.3,0.7-0.6,1.4-0.9,2.1c-0.1,0.3-0.4,0.5-0.6,0.7c-16,16.1-32.1,32.1-48.2,48.1c-0.7,0.7-1.8,1.2-2.8,1.3
        c-1.5,0.2-2.6-0.6-3.3-1.9c-0.7-1.3-0.5-2.7,0.3-3.9c0.1-0.2,0.3-0.4,0.5-0.6c16.1-16.1,32.2-32.2,48.4-48.3
        c0.7-0.7,1.8-1.1,2.7-1.2C91.4,36.8,93,38.6,93.2,40.7z"
      />
      <path
        d="M50.2,58.8c-7.5,0-13.5-6.1-13.5-13.6c0-7.4,6.2-13.5,13.6-13.4c7.4,0.1,13.5,6.2,13.4,13.6C63.7,52.8,57.6,58.9,50.2,58.8
        z M50.3,39.2c-3.4,0-6.1,2.7-6.2,6.1c0,3.4,2.8,6.2,6.2,6.2c3.3,0,6.1-2.8,6.1-6.2C56.4,41.9,53.6,39.2,50.3,39.2z"
      />
      <path
        d="M93.3,84.7c0,7.4-6.1,13.5-13.5,13.5c-7.4,0-13.5-6.1-13.5-13.5c0-7.5,6.1-13.6,13.6-13.5C87.3,71.2,93.3,77.2,93.3,84.7z
        M79.8,90.8c3.4,0,6.1-2.7,6.1-6.1c0-3.4-2.8-6.2-6.2-6.2c-3.4,0-6.1,2.8-6.1,6.2C73.7,88.1,76.4,90.8,79.8,90.8z"
      />
    </svg>