<svg
  width="0.5em"
  height="0.5em"
  fill="currentColor"
  viewBox="0 0 130 130"
  xmlns="http://www.w3.org/2000/svg"
    >
      <path
        d="M20.9,85.4c1.3-2.5,2.5-4.7,3.6-7c0.8-1.5,1.9-2.4,3.6-2.4c1.7,0,2.9,0.9,3.6,2.4c1.9,3.7,3.8,7.4,5.7,11.1
		c0.4,0.7,0.8,1.1,1.6,1.1c0.9,0.1,1.9,0.3,2.8,0.5c1.2,0.3,1.8,1.1,1.6,2.2c-0.2,1-1,1.7-2.2,1.5c-1.4-0.2-2.9-0.4-4.3-0.8
		c-1.2-0.3-2-1.1-2.5-2.2c-1.9-3.6-3.8-7.2-5.6-10.8c-0.2-0.4-0.4-0.7-0.6-1.1c-0.5,0.2-0.5,0.7-0.7,1c-1.9,3.6-3.8,7.1-5.6,10.7
		c-0.8,1.6-2.1,2.4-3.9,2.7c-4.4,0.7-8.7,1.5-13,2.3c0,0.6,0.5,0.8,0.8,1.1c2.9,2.8,5.7,5.6,8.6,8.4c1.2,1.2,1.7,2.5,1.5,4.3
		c-0.7,4.1-1.3,8.2-1.9,12.3c-0.1,0.4-0.2,0.9,0,1.4c2.9-1.5,5.8-3.1,8.7-4.6c1-0.5,2.1-1.1,3.1-1.7c1.7-1,3.3-0.9,4.9,0
		c3.5,1.9,7,3.8,10.6,5.6c0.4,0.2,0.8,0.5,1.4,0.5c-0.4-2.6-0.8-5.1-1.2-7.6c-0.3-2.2-0.7-4.4-1-6.5c-0.2-1.4,0.3-2.5,1.3-3.5
		c2.9-2.8,5.9-5.7,8.8-8.5c0.3-0.3,0.7-0.5,0.9-1.1c-0.6-0.1-1.1-0.2-1.7-0.4c-0.8-0.3-1.2-1-1.2-1.9c0.1-0.9,0.5-1.5,1.4-1.7
		c1.7-0.4,4,0.6,4.9,2.1c0.9,1.7,0.6,3.4-0.9,4.9c-2.9,2.9-5.8,5.7-8.8,8.5c-0.6,0.6-0.6,0.8,0.2,1.2c9.8,4.3,20,5.2,30.4,3
		c0.8-0.2,1.1-0.3,0.8-1.3c-5.8-16.2,4.4-33.4,21.4-36c4.5-0.7,8.9-0.3,13.1,1.3c1.1,0.4,1.3,0.1,1.5-0.9c0.7-3.6,1.2-7.3,1.1-11
		c0-0.4,0-0.8,0-1.1c0.1-1.1,0.9-1.9,2-1.8c1,0,1.7,0.8,1.8,1.9c0.1,2.8,0,5.6-0.4,8.4c-0.3,1.9-0.6,3.9-1.1,5.8
		c-0.2,0.7,0,1.1,0.6,1.5c6.8,4.4,10.8,10.7,12.2,18.6c2.5,14-7.5,28.4-21.6,30.8c-11.9,2-21.2-2.2-28-12.1
		c-0.4-0.6-0.7-0.8-1.4-0.6c-11,2.6-21.7,1.9-32.2-2.3c-0.2-0.1-0.3-0.1-0.7-0.2c0.4,2.5,0.8,5,1.1,7.4c0.1,0.9,0.3,1.7,0.4,2.6
		c0.2,1.6-0.3,2.9-1.6,3.8c-1.3,0.9-2.7,0.9-4.1,0.1c-3.5-1.9-7.1-3.7-10.6-5.6c-1.3-0.7-2.3-0.8-3.6,0c-3.3,1.9-6.8,3.6-10.1,5.4
		c-1.6,0.9-3.1,1.2-4.7,0.1c-1.5-1.1-1.8-2.6-1.5-4.3c0.6-3.9,1.2-7.9,1.9-11.8c0.2-1.2,0.1-2.1-0.9-3.1c-2.9-2.6-5.6-5.4-8.4-8.2
		c-1.2-1.2-1.9-2.5-1.3-4.3c0.6-1.7,1.9-2.4,3.5-2.7c4.2-0.7,8.4-1.5,12.5-2.2c1.4-0.3,1.6-0.7,1-1.9c-5.1-10.3-6.7-21.1-4.9-32.4
		c0.1-0.8,0-1-0.8-1c-1.7,0-3.3,0.2-5-0.2c-3.8-0.8-6.6-4-6.6-7.9C1,34.5,1,21.8,1,9c0-4.3,3.5-7.9,7.9-7.9c12.8-0.1,25.6,0,38.4,0
		c4.3,0,7.8,3.5,8,7.9c0,1.2,0,2.5,0,3.7c0,0.8,0.2,0.9,0.9,0.8c8.8-1.5,17.4-0.8,25.9,2.1c2,0.7,4,1.5,5.9,2.5
		c0.8,0.5,1.2,0.2,1.6-0.5c1.8-3.2,3.6-6.4,5.5-9.5c3.4-5.8,10.4-5.8,13.8,0c6.3,11,12.6,21.9,18.9,32.9c2.1,3.7,1.5,7.5-1.4,10.1
		c-1.5,1.3-3.3,1.8-5.3,1.9c-1.4,0-2.7,0-4.1,0c-0.8,0-1,0.3-0.8,1c0.1,0.4,0.2,0.8,0.1,1.2c-0.1,0.8-0.6,1.3-1.3,1.5
		c-0.7,0.2-1.4,0-1.9-0.6c-0.2-0.2-0.3-0.5-0.4-0.8c-0.3-0.8-0.1-1.9-0.8-2.3c-0.7-0.4-1.8-0.2-2.7-0.2c-8.7,0-17.4,0-26.1,0
		c-4.4,0-7.4-2.4-8.1-6.4c-0.4-1.9,0.1-3.7,1.1-5.4c3.5-6,6.9-12.1,10.4-18c0.6-1,0.3-1.3-0.6-1.8c-9.5-4.4-19.3-5.6-29.6-3.9
		c-0.8,0.1-1,0.5-1,1.2c0,3.2,0,6.4,0,9.6c0,0.4,0,0.8-0.1,1.1c-0.2,1-0.9,1.5-1.9,1.5c-1,0-1.7-0.6-1.8-1.7c-0.1-1.3,0-2.6,0-3.9
		c0-5.1,0-10.2,0-15.4c0-3.2-1.8-4.9-5-4.9c-12.3,0-24.6,0-36.9,0c-3.1,0-4.9,1.7-4.9,4.9c0,12.3,0,24.7,0,37c0,3.1,1.8,4.9,4.9,4.9
		c12.3,0,24.6,0,36.9,0c3.2,0,5-1.8,5-4.9c0-2.9,0-5.7,0-8.6c0-1.4,0.7-2.2,1.8-2.2c1.2,0,1.9,0.8,1.9,2.2c0,2.8,0,5.7,0,8.5
		c0,5.4-3.4,8.8-8.8,8.8c-9.2,0-18.4,0-27.6,0c-1.1,0-1.5,0.2-1.7,1.4C15.5,66.5,16.7,76,20.9,85.4z M101.8,125.2
		c12.9,0,23.4-10.5,23.4-23.3c0-12.8-10.4-23.3-23.2-23.4C89.1,78.5,78.5,89,78.5,101.8C78.5,114.7,88.9,125.2,101.8,125.2z
		M101.9,49c6.3,0,12.6,0,18.9,0c3.8,0,5.5-3,3.7-6.3c-0.9-1.6-1.8-3.1-2.7-4.6c-5.4-9.4-10.8-18.8-16.2-28.2
		c-1.9-3.3-5.3-3.3-7.3,0c-0.7,1.2-1.4,2.4-2.1,3.7C90.5,23.2,84.9,33,79.3,42.7c-0.9,1.6-1.1,3.2,0.1,4.8c0.9,1.2,2.2,1.5,3.7,1.5
		C89.3,49,95.6,49,101.9,49z"
      />
    </svg>