<svg
  width="0.5em"
  height="0.5em"
  fill="currentColor"
  viewBox="0 0 130 130"
  xmlns="http://www.w3.org/2000/svg"
    >
      <path
        d="M50.7,129c-0.7-0.6-1.4-1.1-2-1.8c-2.5-2.9-5-5.8-7.4-8.8c-0.8-1.1-1.7-1.3-3-1.1c-4,0.5-7.9,1-11.9,1.4
		c-2.8,0.3-4-1.3-3-4c3.1-8.1,6.3-16.1,9.5-24.2c0.4-0.9,0.4-1.6,0-2.6c-0.8-2.2-1.5-4.4-2.1-6.7c-0.8-2.9-2.5-5.2-5-6.9
		c-1.9-1.2-3.7-2.5-5.5-3.9c-3-2.2-3.9-5.2-2.8-8.7c0.7-2.2,1.5-4.4,2.2-6.6c0.9-2.7,0.9-5.4,0-8.1c-0.9-2.6-1.8-5.2-2.5-7.8
		c-0.8-3.1,0.5-5.6,2.9-7.4c1.8-1.4,3.7-2.7,5.6-4c2.6-1.7,4.2-4,5.1-7c0.6-2.1,1.2-4.2,2-6.3c1.3-3.7,3.6-5.3,7.4-5.4
		c2.3-0.1,4.6,0,6.9,0.1c3,0.1,5.6-0.8,8-2.7c1.7-1.4,3.5-2.7,5.3-4c3.2-2.2,6.2-2.2,9.4,0c1.8,1.2,3.6,2.6,5.3,4
		c2.3,1.9,5,2.8,8,2.7c2.3-0.1,4.7-0.1,7-0.1c3.7,0.1,6,1.8,7.2,5.3c0.8,2.2,1.4,4.3,2,6.5c0.8,2.9,2.4,5.2,4.9,6.8
		c1.9,1.2,3.7,2.5,5.5,3.9c3.1,2.4,4,5.1,2.8,8.8c-0.6,2.2-1.4,4.3-2.2,6.5c-1,2.8-1,5.5,0,8.3c0.9,2.6,1.8,5.2,2.5,7.8
		c0.7,2.6-0.2,4.9-2.2,6.6c-1.8,1.5-3.7,2.9-5.6,4.1c-3.1,2-5.1,4.7-6,8.2c-0.6,2.2-1.4,4.3-2.1,6.5c-0.1,0.5,0,1.1,0.2,1.6
		c3.2,8.1,6.3,16.3,9.5,24.4c1,2.7-0.1,4.3-3,4c-3.9-0.4-7.8-0.9-11.7-1.4c-1.4-0.2-2.4,0-3.3,1.2c-2.4,3.1-5,6-7.6,9
		c-0.5,0.6-1.2,1-1.8,1.5c-0.4,0-0.8,0-1.2,0c-1.1-0.5-1.7-1.4-2.1-2.5c-3.1-8.1-6.3-16.1-9.4-24.2c-0.3-0.7-0.5-1.1-1.5-1.1
		c-0.9,0-1.2,0.3-1.5,1.1c-3.1,7.9-6.2,15.8-9.2,23.7c-0.5,1.2-0.9,2.3-2,3C51.7,129,51.2,129,50.7,129z M44.5,14.3
		c-1.1,0-2.7,0-4.2,0c-1.3,0-2.2,0.6-2.7,1.8c-0.5,1.6-1.2,3.2-1.5,4.9c-1.2,5.2-4.1,9.2-8.7,12c-1.5,0.9-2.8,1.9-4.2,3
		c-1,0.7-1.4,1.7-1,3c0.6,1.7,1.1,3.4,1.7,5.1c2,4.9,1.9,9.7,0,14.6c-0.7,1.6-1.1,3.3-1.7,4.9c-0.4,1.2-0.1,2.2,0.9,3
		c1.4,1,2.8,2.1,4.3,3c4.5,2.7,7.3,6.6,8.6,11.8c0.4,1.7,1,3.4,1.6,5.1C38,87.4,38.8,88,40,88c1.9,0,3.7,0.1,5.6,0
		c5.2-0.3,9.7,1.2,13.7,4.6c1.3,1.1,2.7,2,4,3c1.1,0.8,2.3,0.8,3.5,0c1.3-0.9,2.6-1.8,3.8-2.8c4.1-3.6,8.7-5.2,14.1-4.8
		c1.7,0.1,3.5,0,5.2,0.1c1.3,0,2.1-0.7,2.5-1.9c0.5-1.7,1.1-3.3,1.5-5c1.2-5.1,4-9,8.5-11.7c1.5-0.9,2.9-2,4.3-3
		c1-0.8,1.5-1.8,1-3.1c-0.6-1.8-1.2-3.6-1.9-5.4c-1.8-4.6-1.8-9.2,0-13.8c0.7-1.8,1.2-3.6,1.8-5.4c0.4-1.2,0.1-2.2-0.9-2.9
		c-1.5-1.1-3.1-2.3-4.7-3.3c-4.1-2.6-6.8-6.1-8-10.9c-0.5-1.8-1.1-3.6-1.6-5.4c-0.5-1.5-1.5-2.2-3.1-2.2c-1.8,0.1-3.6,0-5.4,0.1
		c-3.8,0.2-7.5-0.4-10.7-2.7c-1.5-1-2.9-2.1-4.3-3.2c-4-3.1-4.2-3.1-8.2,0c-2,1.5-4.1,3.1-6.2,4.3C51.6,14.5,48.2,14.4,44.5,14.3z
		M29.4,113.2c0.5,0,0.9,0,1.2,0c3.1-0.4,6.2-0.7,9.3-1.2c1.5-0.2,2.7,0.2,3.7,1.4c2,2.5,4.1,4.8,6.1,7.2c0.2,0.3,0.3,0.7,0.5,1
		c3.2-7.5,6-14.7,8.8-21.8c0.3-0.7,0.1-1-0.4-1.3c-1.2-0.9-2.5-1.8-3.7-2.8c-2.3-1.9-4.9-2.7-7.8-2.7c-3.2,0-6.5,0-9.8,0
		C34.8,99.6,32.1,106.4,29.4,113.2z M79.4,121.6c2.4-2.8,4.7-5.5,6.9-8.2c1-1.3,2.2-1.6,3.7-1.4c1.7,0.3,3.4,0.5,5.1,0.7
		c1.8,0.2,3.5,0.4,5.4,0.6c-2.7-7-5.4-13.7-7.9-20.2c-3.3,0-6.5,0-9.6,0c-1.2,0-2.4,0.1-3.6,0.4c-2.6,0.5-4.4,2.3-6.4,3.8
		c-2.5,1.9-2.5,1.9-1.3,4.8C74.3,108.5,76.8,114.9,79.4,121.6z"
      />
      <path
        d="M97.9,51.2c-0.1,18.2-14.9,32.9-33,32.9C46.8,84,32,69.4,32.1,51.1c0.1-18.3,14.9-32.9,33-32.8
		C83.3,18.4,98,33.2,97.9,51.2z M37.2,51.1C37,66.3,49.4,78.8,64.7,79c15.3,0.2,27.9-12.1,28.1-27.7c0.2-15.2-12.3-27.9-27.8-28
		C49.8,23.2,37.3,35.6,37.2,51.1z"
      />
      <path
        d="M52.2,66c0.5-3,1-6.1,1.6-9.2c0.1-0.7,0-1.2-0.5-1.6c-2.1-2-4.1-4-6.2-6c-0.9-0.9-1.5-1.8-1.1-3.1
		c0.4-1.3,1.5-1.6,2.7-1.8c2.9-0.4,5.8-0.8,8.6-1.3c0.4-0.1,0.9-0.5,1.2-0.9c1.3-2.6,2.6-5.2,3.9-7.8c0.5-1.1,1.3-2,2.6-2
		c1.3,0,2,0.9,2.5,1.9c1.2,2.6,2.6,5.1,3.8,7.7c0.3,0.7,0.7,1,1.5,1.1c2.8,0.4,5.7,0.8,8.5,1.2c1.2,0.2,2.2,0.6,2.6,1.8
		c0.4,1.2-0.1,2.2-1,3c-2.1,2-4.2,4-6.3,6.1c-0.4,0.4-0.6,1.1-0.5,1.6c0.4,2.8,0.9,5.7,1.4,8.5c0.3,1.9-0.3,3.3-1.8,3.5
		c-0.7,0.1-1.6-0.1-2.2-0.4c-2.6-1.3-5.2-2.7-7.8-4c-0.5-0.2-1.2-0.2-1.7,0c-2.7,1.3-5.4,2.8-8.1,4.2C54.1,69.6,52.2,68.3,52.2,66z
		M54.2,48.6c1.3,1.4,2.6,2.9,3.9,4.2c0.9,0.9,1.3,1.9,1,3.1c-0.4,1.9-0.6,3.7-1,5.9c1.8-0.9,3.3-1.7,4.8-2.6
		c1.4-0.9,2.8-0.9,4.2,0c1.5,0.9,3,1.6,4.8,2.5c-0.3-2.1-0.6-4-1-5.8c-0.3-1.3,0.1-2.4,1.1-3.2c0.8-0.7,1.6-1.5,2.3-2.3
		c0.6-0.6,1.1-1.1,1.8-1.8c-1.4-0.2-2.6-0.6-3.8-0.5c-3,0.1-4.7-1.4-5.6-4.1c-0.4-1.1-1.1-2.2-1.7-3.4c-1,2-1.9,3.8-2.7,5.5
		c-0.5,1-1.3,1.6-2.4,1.7C57.9,48,56,48.3,54.2,48.6z"
      />
    </svg>
