<svg
  width="0.5em"
  height="0.5em"
  fill="currentColor"
  viewBox="0 0 130 130"
  xmlns="http://www.w3.org/2000/svg"
    >
      <path
        d="M70.4,62.8c0.5-1,0.8-1.9,1.3-2.8c0.2-0.4,0-0.6-0.1-0.9c-1.7-5-2.1-10-0.4-15.1c2-5.7,6.3-8.9,11.9-10.6
		c4.6-1.4,9.4-1.6,14.2-1.3c1.3,0.1,2.2,0.8,2.2,2.1c0.1,7.1-0.5,14.2-3.9,20.6c-3.8,7.2-10.2,9.8-18,7.3c-0.3-0.1-0.6-0.2-0.9-0.3
		c-0.7-0.3-1.1-0.2-1.4,0.6c-3.2,7.2-4.9,14.7-5.4,22.6c-0.1,0.9,0.5,0.7,0.9,0.7c4.5,0,9,0.1,13.5,0c4.1-0.1,7.6,0.8,10,4.5
		c2.9-3.3,5.6-6.5,8.4-9.7c3.1-3.6,6.2-7.3,9.4-10.9c3.8-4.3,8.7-6.2,14.5-6.1c1.9,0,2.9,1.4,2.1,3.1c-5.1,11.7-10.2,23.5-15.5,35.2
		c-3.4,7.5-9.3,12.5-17.3,14.8c-4.9,1.4-9.5,3.5-14.3,5.3c-2.9,1.1-5.7,2.4-8.7,3.2c-7.7,2-15.1,1.2-22.3-1.9
		c-7.6-3.3-15.2-6.8-22.9-9.8c-6.1-2.3-12.5-3.7-19-4.3c-1.8-0.2-3.6-0.3-5.5-0.5c-1.5-0.2-2.2-0.9-2.2-2.5c0-6.5,0-13.1,0-19.6
		c0-0.7,0.2-1.4,0.7-1.9c5.7-6.6,12.5-11.1,21.4-12.1c4.2-0.4,8.2,0.4,12.2,1.6c6.4,1.8,12.5,4.6,18.2,8c3.4,2,6.9,3.4,10.9,3.7
		c0.9,0.1,1.1-0.1,1.2-1c1.3-13.2,0.9-26.4-2.6-39.3c-0.9-3.3-2.2-6.4-3.6-9.4c-0.4-0.9-0.9-1.1-1.9-0.9c-4.2,1-8.4,1.1-12.5-0.1
		c-6.7-2-10.5-6.9-12.5-13.3c-1.5-5-1.7-10.1-1.5-15.2C31,4.9,31.7,4,33,4c7.7-0.2,15.3,0.3,22.3,3.8c8.1,4,10.8,10.3,8.6,19.1
		c-0.4,1.5-0.8,2.9-1.5,4.2c-0.3,0.6-0.3,1,0,1.6c4.7,8.7,6.7,18.2,7.6,28C70.1,61.4,70,62.1,70.4,62.8z M123.6,67.8
		c-3.5,0.6-6.2,2.1-8.4,4.5c-5.6,6.4-11.2,12.9-16.8,19.4c-1.5,1.7-3.2,3.2-3.1,5.7c0,0,0,0.1,0,0.1c-1.3,4.4-4.9,7-9.7,7.1
		c-8.8,0-17.6,0-26.4,0c-3.1,0-6.2,0.4-9.3,1.2c-2.1,0.6-1.6,0.9-2.5-1.3c-0.8-2.1-0.8-2.1,1.3-2.8c0.5-0.1,1-0.3,1.6-0.4
		c3.3-0.8,6.6-1,9.9-1c8.5,0,17,0,25.5,0c2.6,0,4.5-1.2,5.3-3.3c1.3-3.5-1.1-7.1-4.9-7.2c-6.3-0.1-12.7,0-19,0c-1.7,0-3.3-0.1-5-0.3
		c-4-0.6-7.7-2.1-11.1-4.2c-5.4-3.2-11.1-5.7-17.1-7.5c-4.6-1.3-9.3-2-14-0.8C14.5,78.5,10,81.6,6,85.7c-0.6,0.6-0.8,1.2-0.8,2.1
		c0,4.5,0,8.9,0,13.4c0,3.3,0,3.2,3.2,3.5c7.2,0.7,14.2,2.1,21,4.7c7.8,3,15.5,6.6,23.2,9.9c5,2.1,10.2,3,15.6,2.4
		c3.6-0.5,7-1.8,10.4-3.1c5.4-2.1,10.7-4.5,16.3-6.1c7-2,11.9-6.6,14.9-13.2c3-6.8,6-13.6,9-20.4C120.4,75.2,122,71.6,123.6,67.8z
		M59.2,27.6c2.7-6.6,1.3-12.6-5.3-15.9C48.2,8.9,42,8.2,35.8,8.1C35,8.1,35,8.5,35,9.1c0,2.8,0.2,5.7,0.7,8.4
		c1.7,8.4,6.3,13.8,15.2,14c1.7,0,3.5,0,5.3-0.6c-3-4.2-6.7-7.3-11.3-9.4c-1.4-0.6-1.8-1.8-1.3-2.9c0.6-1.1,1.7-1.4,3.1-0.8
		c2.6,1.2,4.9,2.7,7.1,4.5C55.9,23.8,57.5,25.7,59.2,27.6z M74.6,54.5c1.6-2.1,2.8-4.1,4.4-5.8c1.8-1.9,3.7-3.7,5.9-5.2
		c0.8-0.5,1.7-0.7,2.6,0c0.8,0.6,1,1.3,0.7,2.2c-0.2,0.7-0.7,1.1-1.3,1.5c-3.6,2.6-6.4,5.9-8.8,9.7c-0.3,0.4-0.7,0.8,0.2,1.1
		c5.7,1.8,10.7,0.8,13.6-5.4c2.3-4.9,3-10.2,3.2-15.5c0-0.7-0.2-0.9-0.9-0.9c-3.5,0-6.9,0.3-10.2,1.3c-3.3,1-6.2,2.8-8.1,5.9
		C74.1,46.8,74,50.4,74.6,54.5z"
      />
    </svg>