<svg
  width="0.5em"
  height="0.5em"
  fill="currentColor"
  xmlns="http://www.w3.org/2000/svg"
  viewBox="0 0 130 130"
    >
      <path
        d="M110.4,47.6c-2.9,1-5.7,2-8.4,3.1c-0.3,0.1-0.6,0.8-0.6,1.3c0,5.5,0,11,0,16.5c0,2-0.1,4,0,6c0.1,1.8-0.6,3.1-1.8,4.3
        c-3.7,3.6-8.2,5.8-13,7.4C78,89,69.2,89.7,60.3,89.5c-8.3-0.2-16.4-1.4-24.1-4.7c-3.3-1.5-6.4-3.3-9-5.9c-1.3-1.3-1.9-2.7-1.9-4.6
        c0.1-7.4,0-14.8,0.1-22.2c0-1.1-0.4-1.6-1.4-1.9c-6.6-2.4-13.3-4.9-19.9-7.4c-2-0.7-3-1.9-3-3.7c0-1.8,1-3,3-3.8
        c19.4-7,38.8-14,58.2-21.1c1.3-0.5,2.6-0.3,3.9,0.1c14.9,5.4,29.8,10.8,44.7,16.2c4.5,1.6,9,3.2,13.5,4.9c2.2,0.8,3.1,2.8,2.5,4.8
        c-0.4,1.2-1.3,2-2.5,2.4c-1.8,0.7-3.6,1.3-5.4,2c-0.4,0.2-0.8,0.7-0.8,1.1c0,10.8,0,21.7,0,32.5c0,0.5,0.3,1,0.7,1.3
        c2.9,2.9,5.8,5.8,8.6,8.7c2.2,2.2,2.2,4.2,0,6.5c-2.9,2.9-5.7,5.7-8.5,8.6c-0.4,0.4-0.7,1.2-0.7,1.8c-0.1,2.3,0,4.6,0,6.9
        c0,2.4-1.6,4.1-3.8,4.1c-2.2,0-3.7-1.7-3.7-4.1c0-2.2,0-4.5,0-6.7c0-0.8-0.2-1.4-0.8-2c-2.9-2.9-5.8-5.8-8.7-8.6
        c-2.1-2.1-2.1-4.1,0-6.3c2.9-2.9,5.8-5.8,8.7-8.8c0.3-0.3,0.7-0.9,0.7-1.4c0-10,0-20,0-30C110.5,48.1,110.4,47.9,110.4,47.6z
        M112,39.1c-0.5-0.2-0.9-0.4-1.2-0.5C95.6,33,80.3,27.5,65.1,22c-0.7-0.3-1.7-0.2-2.4,0c-12.4,4.5-24.9,9-37.3,13.5
        c-3.2,1.1-6.3,2.3-9.7,3.5c0.5,0.2,0.9,0.4,1.2,0.5c15,5.5,29.9,11.1,44.9,16.7c1,0.4,1.8,0.3,2.7,0C76.3,52,88,47.7,99.6,43.5
        C103.7,42.1,107.7,40.6,112,39.1z M32.8,53.4c0,6.8,0,13.3,0,19.9c0,0.4,0.4,1,0.8,1.3c2.3,1.9,4.9,3.2,7.8,4.1
        c13,4.1,26.1,4.3,39.3,1.3c4.2-1,8.2-2.5,11.7-5c0.9-0.7,1.4-1.4,1.4-2.6c-0.1-5.7,0-11.5,0-17.2c0-0.4,0-0.9,0-1.5
        c-0.6,0.2-1.1,0.4-1.5,0.5c-9,3.2-18,6.5-27,9.7c-1.4,0.5-2.7,0.7-4.1,0.1c-6.8-2.6-13.7-5.1-20.6-7.6
        C38.1,55.4,35.5,54.4,32.8,53.4z M114.3,86.2c-1.8,1.8-3.6,3.6-5.3,5.3c1.7,1.7,3.5,3.6,5.2,5.2c1.7-1.7,3.6-3.6,5.3-5.3
        C117.8,89.7,116,87.9,114.3,86.2z"
      />
    </svg>