<svg
  width="0.5em"
  height="0.5em"
  fill="currentColor"
  viewBox="0 0 130 130"
  xmlns="http://www.w3.org/2000/svg"
    >
      <path
        d="M82,20.2l-2.2-0.3c-1.8-0.3-3.7-0.6-5.5-0.8c-0.9-0.1-1.5-0.5-1.8-1.3c-0.7-1.5-1.5-3-2.2-4.5c-0.4-0.8-0.7-1.5-1.1-2.3
        c-0.5-1-1.2-1.7-2.1-2.2c-1.1-0.6-2.3-0.6-3.4-0.3c-1.2,0.4-2.1,1.2-2.7,2.4c-1.2,2.3-2.3,4.7-3.4,7c-0.3,0.7-0.8,1-1.4,1.1
        c-0.9,0.1-1.8,0.3-2.6,0.4c-0.4,0.1-0.8,0.3-1,0.6c-0.2,0.3-0.3,0.7-0.2,1.1c0.1,0.8,0.8,1.2,1.7,1.1c0.4,0,0.8-0.1,1.1-0.2
        c0.4-0.1,0.8-0.1,1.2-0.2c1.9-0.2,3.2-1.2,4.1-3c0.7-1.5,1.4-2.9,2.1-4.4c0.4-0.8,0.7-1.5,1.1-2.3c0.3-0.7,0.8-1,1.4-1.1
        c0.8-0.1,1.3,0.2,1.7,1.1c1,2.1,2.1,4.2,3.1,6.3l0.3,0.6c0.7,1.5,1.9,2.4,3.6,2.6c1.1,0.2,2.1,0.3,3.2,0.5
        c1.6,0.2,3.1,0.5,4.7,0.7c0.8,0.1,1.3,0.5,1.5,1.1c0.2,0.7,0,1.3-0.6,1.9c-0.9,0.8-1.8,1.6-2.6,2.5c-0.9,0.9-1.9,1.8-2.8,2.6
        c-1.4,1.2-1.9,2.8-1.5,4.7c0.2,1.2,0.4,2.4,0.7,3.7c0.2,1.3,0.5,2.6,0.7,3.9c0.2,0.9,0,1.4-0.6,1.9c-0.6,0.4-1.2,0.4-2,0
        c-0.9-0.5-1.9-1-2.8-1.6c-1.2-0.7-2.4-1.3-3.7-2c-1.8-1-3.5-1-5.2,0c-1.5,0.9-3.1,1.8-4.7,2.6l-2,1.1c-0.7,0.4-1.3,0.4-1.8-0.1
        c-0.5-0.4-0.7-0.9-0.6-1.7c0.2-0.9,0.3-1.9,0.5-2.8c0.3-1.5,0.5-3.1,0.9-4.7c0.4-2-0.1-3.7-1.7-5.1c-1.3-1.1-2.5-2.3-3.7-3.4
        c-0.6-0.5-1.1-1.1-1.7-1.6c-0.5-0.5-0.7-1-0.5-1.7c0.2-0.7,0.6-1,1.4-1.1l0.2,0c0.3,0,0.6-0.1,0.8-0.1c0.8-0.2,1.2-0.8,1.1-1.5
        c0-0.8-0.7-1.3-1.5-1.3c-0.2,0-0.4,0-0.6,0.1c-0.1,0-0.2,0-0.3,0c-2,0.3-3.3,1.3-3.9,3.2c-0.6,1.8-0.1,3.5,1.4,4.8
        c0.7,0.6,1.4,1.3,2.1,2c1.1,1,2.2,2,3.3,3c0.7,0.6,0.9,1.3,0.7,2.3c-0.4,1.9-0.7,3.7-1,5.6l-0.3,1.8c-0.1,0.6-0.2,1.1-0.1,1.7
        c0.2,1.5,1.2,2.8,2.5,3.4c1.3,0.6,2.9,0.6,4.2-0.1c2.7-1.5,4.8-2.6,6.7-3.8c0.8-0.5,1.5-0.5,2.3,0c2.1,1.2,4.3,2.4,6.8,3.8
        c0.7,0.4,1.5,0.6,2.2,0.6c0.9,0,1.8-0.3,2.6-0.9c1.5-1.1,2.1-2.6,1.8-4.4l-0.2-0.9c-0.4-2.3-0.8-4.6-1.2-6.8c-0.2-1,0-1.7,0.7-2.3
        c1.3-1.2,2.6-2.4,3.8-3.5c0.5-0.5,1.1-1,1.6-1.5c1-0.9,1.5-2.1,1.5-3.4C85.9,22.4,84.3,20.6,82,20.2z"
      />
      <path
        d="M39.5,29.9c0.8,0,1.4-0.7,1.4-1.5c0-0.8-0.6-1.4-1.5-1.4c-0.4,0-0.9,0-1.3,0l-0.6,0l-0.6,0c-0.5,0-0.9,0-1.4,0
        c-0.8,0-1.4,0.6-1.4,1.4c0,0.4,0.1,0.8,0.4,1.1c0.3,0.3,0.6,0.4,1,0.4c0.7,0,1.3,0,2,0C38.1,29.9,38.8,29.9,39.5,29.9z"
      />
      <path
        d="M94.4,27c-0.4,0-0.9,0-1.3,0l-0.6,0l-0.6,0c-0.4,0-0.9,0-1.3,0c-0.9,0-1.5,0.6-1.5,1.4c0,0.4,0.1,0.8,0.4,1
        c0.3,0.3,0.6,0.4,1,0.5c0.7,0,1.3,0,2,0c0.7,0,1.3,0,2,0c0.4,0,0.8-0.2,1-0.4c0.3-0.3,0.4-0.7,0.4-1.1
        C95.8,27.6,95.3,27.1,94.4,27z"
      />
      <path
        d="M42.2,34.5c-0.4-0.3-0.9-0.3-1.4-0.1c-1,0.5-2.1,1-3.4,1.6c-0.7,0.4-1,1.2-0.7,1.9c0.3,0.5,0.8,0.8,1.3,0.8
        c0.2,0,0.4,0,0.6-0.1c1.2-0.5,2.4-1.1,3.5-1.7c0.5-0.2,0.8-0.7,0.7-1.3v0C42.8,35.2,42.6,34.8,42.2,34.5z"
      />
      <path
        d="M92.7,36.1c-1.1-0.6-2.3-1.1-3.5-1.7c-0.7-0.3-1.5,0-1.9,0.7c-0.3,0.7-0.1,1.5,0.7,1.9c0.9,0.5,2.2,1.1,3.5,1.7
        c0.2,0.1,0.4,0.1,0.6,0.1c0.3,0,0.5-0.1,0.7-0.2c0.4-0.3,0.7-0.7,0.7-1.3l0,0C93.4,36.8,93.1,36.3,92.7,36.1z"
      />
      <path
        d="M88.5,22.6c0.2,0,0.4,0,0.7-0.1c1.1-0.5,2.1-1,3.1-1.5l0.2-0.1c0.5-0.2,0.8-0.7,0.9-1.2l0,0c0-0.5-0.2-1-0.6-1.3
        c-0.4-0.3-1-0.3-1.4-0.1c-1,0.5-2.1,1-3.4,1.6c-0.8,0.4-1.1,1.2-0.7,1.9C87.5,22.3,88,22.6,88.5,22.6z"
      />
      <path
        d="M37.3,20.8c1.3,0.7,2.5,1.2,3.6,1.7c0.2,0.1,0.4,0.1,0.6,0.1c0.3,0,0.5-0.1,0.7-0.2c0.4-0.3,0.7-0.8,0.7-1.4l0,0
        c0-0.5-0.3-0.9-0.8-1.2l-0.6-0.3c-0.9-0.4-1.9-0.9-2.8-1.3c-0.7-0.3-1.5-0.1-1.9,0.7c-0.2,0.4-0.2,0.7-0.1,1.1
        C36.7,20.3,37,20.6,37.3,20.8z"
      />
      <path
        d="M35.3,106.1c-3.5-0.5-5.8-2.1-6.7-5.4c-0.5-1.7-0.3-3.4,0.5-4.9c0.3-0.7,0.2-1-0.2-1.5c-1.7-2-3.6-3.7-6.1-4.8
        c-2.7-1.2-5.3-2.7-7.9-4c-0.5-0.2-1.1,0-1.7,0c-1.2,0.1-2.5,0.4-3.5,0.1c-1.8-0.5-3.5-1.4-5.2-2.1c-1.6-0.7-2.5-2-2.9-3.7
        c-1.4-7.5,0.1-14.6,3.3-21.4c2.3-5,5.6-9.3,9.7-12.9c2.8-2.4,4.4-2.6,7.5-0.8c1.8,1,3.5,2,5.3,2.9c1.2,0.6,1.9,1.6,2.3,2.9
        c0.1,0.5,0.6,1,1,1.3c5,3.1,10.4,4,16.2,3.4c3.6-0.4,7.3-0.8,10.9,0.1c1.7,0.4,3.3,1.1,4.8,1.8c0.9,0.4,1.4,0.4,2.2-0.1
        c3.5-2.1,7.2-3.6,11.3-3.7c2.4,0,4.9,0.2,7.1,0.9c6.1,1.9,11.6,0.7,16.8-2.7c0.3-0.2,0.4-0.7,0.7-1.1c0.7-0.9,1.2-2.1,2.1-2.7
        c2-1.3,4.1-2.4,6.2-3.5c2.1-1.1,4.1-1,5.8,0.6c10.2,8.9,15.3,19.9,14.1,33.6c-0.2,2.8-1.5,4.7-4.2,5.6c-1.4,0.5-2.7,1.1-4,1.7
        c-1.4,0.5-2.6,0.4-3.9-0.4c-0.4-0.2-1-0.3-1.4-0.2c-3.7,1.7-7.4,3.4-11,5.1c-0.4,0.2-0.8,0.6-0.9,1c-0.8,4.3-2.5,5.9-6.9,6.9
        c0.1,2-0.3,3.9-1.7,5.6c-1.4,1.6-3.1,2.5-5.3,2.6c0,2.2-0.6,4.2-2.2,5.7c-1.6,1.5-3.6,2.1-5.8,1.9c-0.4,2.9-1.8,5.1-4.7,6
        c-2.8,0.9-5.2-0.4-7.6-1.7c-3.8,5.3-10.3,4.3-12.9-0.5c-1.9,0.9-3.8,1.4-5.9,0.7c-2.1-0.6-3.5-2-4.6-4c-2.8,1.2-5.5,1.3-8-0.7
        C35.3,111.8,34.7,109.2,35.3,106.1z M59.9,59.9c-1-0.4-1.7-0.6-2.5-0.9c-3.3-1-6.6-0.5-9.9-0.2c-6.6,0.7-12.9-0.3-18.7-3.8
        c-0.8-0.5-1.2-0.4-1.9,0.2c-7.3,6.7-11.2,15-11.8,24.9c0,0.8,0.2,1.2,0.9,1.5c2,1,3.9,2,5.8,3c3.4,1.7,7.1,3.2,9.5,6.5
        c0,0,0.1,0,0.3,0.1c1.4-3,3.2-5.9,7.1-6.1c3.9-0.2,6.3,1.8,7.6,5.4c5.3-0.3,7,0.7,9.2,5.3c4.4-0.7,7.5,0.9,9,5.2
        c0.2,0,0.2,0.1,0.3,0c3.1-0.6,5.7,0.2,7.6,2.9c1.9,2.7,1.7,5.5,0.1,8.2c-0.5,0.8-1,1.7-1.5,2.6c0.9,0.4,1.6,0.9,2.3,1.2
        c1.7,0.7,3.1,0.3,3.8-1c0.7-1.3,0.3-2.5-1.1-3.6c-1-0.8-1.2-1.8-0.7-2.7c0.6-0.9,1.6-1.1,2.8-0.5c1,0.5,2,1.2,3,1.7
        c1.5,0.7,3.1,0.2,3.9-1.2c0.8-1.4,0.5-3-0.9-4c-0.6-0.4-1.3-0.7-1.9-1.1c-1.2-0.7-1.5-1.8-0.9-2.8c0.6-0.9,1.6-1.2,2.8-0.6
        c1,0.5,1.9,1.1,2.8,1.6c2,1.1,4,0.7,5-1c1-1.7,0.4-3.7-1.6-4.9c-1-0.6-2.1-1.2-3.1-1.8c-1.4-0.8-1.8-1.8-1.2-2.9
        c0.6-1.1,1.7-1.2,3.1-0.5c1.7,1,3.4,2,5.1,2.9c2.2,1.2,4.6,0,5-2.4c0.3-1.4-0.5-2.8-2.3-3.8c-5.7-3.3-11.4-6.4-17-9.9
        c-5.4-3.3-10.7-3.5-16.2-0.6c-2.2,1.1-4.4,2.1-6.8,3c-3.7,1.3-7.1,0.7-10.3-1.6c-3.4-2.5-4.5-7.8,0.4-10.6
        C51.4,65.4,55.4,62.7,59.9,59.9z M102.5,86.7c3.7-1.7,7.8-3.6,11.7-5.5c0.4-0.2,0.7-0.9,0.6-1.4c-0.5-9.1-4-16.8-10.4-23.3
        c-2.1-2.1-2.1-2.1-4.7-0.7c-5.2,3-10.8,4-16.6,2.1c-6-1.9-11.4-0.9-16.6,2.2c-5.9,3.6-11.7,7.2-17.5,10.9c-1.7,1.1-1.8,2.5-0.3,3.8
        c2.1,1.8,4.5,2.3,7.1,1.3c2.4-1,4.8-2,7.1-3.1c6.2-3,12.3-2.8,18.3,0.8c5.5,3.3,11.1,6.4,16.7,9.6C99.5,84.4,100.8,85.5,102.5,86.7
        z M118.9,82.2c1.6-0.7,2.9-1.3,4.3-1.8c1.3-0.4,1.7-1.3,1.9-2.5c0.5-3.6,0.3-7.2-0.6-10.7c-1.9-7.7-5.8-14.1-11.8-19.2
        c-0.4-0.3-1.2-0.7-1.5-0.5c-2.3,1.1-4.4,2.4-6.8,3.7C113.8,59.3,118.6,69.6,118.9,82.2z M25.8,51.1c-2.1-1.2-4-2.2-5.9-3.3
        c-1.1-0.7-1.8-0.5-2.7,0.3c-3.8,3.3-6.8,7.1-8.9,11.6c-2.8,5.7-4.1,11.8-3.2,18.2c0.1,0.7,0.3,1.7,0.7,1.9c1.6,0.9,3.4,1.6,5.3,2.4
        C11.5,69.6,16.3,59.3,25.8,51.1z M51.6,97.9c0-1.9-1-3.2-2.4-3.6c-1.5-0.4-3,0.1-3.9,1.6c-2,3.3-3.9,6.7-5.8,10.1c-1.2,2-0.7,4,1,5
        c1.7,1,3.6,0.3,4.7-1.6c1.9-3.3,3.8-6.5,5.7-9.8C51.3,99,51.5,98.3,51.6,97.9z M49.1,111.2c0,1.9,0.9,3.1,2.4,3.6
        c1.5,0.4,2.9-0.1,3.8-1.6c1.7-2.8,3.3-5.6,4.8-8.4c1.1-1.9,0.6-3.8-1.1-4.8c-1.7-1-3.6-0.4-4.7,1.5c-1.6,2.7-3.1,5.3-4.6,8
        C49.4,110.1,49.2,110.9,49.1,111.2z M69.8,108.4c0-1.9-1-3.1-2.4-3.5c-1.4-0.4-2.9,0.1-3.8,1.5c-1.3,2.1-2.4,4.2-3.6,6.3
        c-1,1.9-0.6,3.8,1,4.8c1.7,1,3.6,0.5,4.8-1.4c1.2-2,2.3-4,3.5-6C69.6,109.4,69.7,108.7,69.8,108.4z M35.6,102.4
        c0.8-0.5,2-0.9,2.5-1.6c1.5-2.3,2.9-4.7,4.2-7.2c0.8-1.5,0.1-3.3-1.3-4.1c-1.4-0.9-3.4-0.6-4.3,0.8c-1.5,2.4-3,4.8-4.2,7.3
        C31.4,99.7,33.1,102.1,35.6,102.4z"
      />
    </svg>