<svg
  width="0.5em"
  height="0.5em"
  fill="currentColor"
  viewBox="0 0 130 130"
  xmlns="http://www.w3.org/2000/svg"
    >
      <path
        d="M1,115.5c0-0.7,0-1.5,0-2.2c0.5-1.6,1.4-3,2.7-4.1c1.7-1.4,3.4-3,5.1-4.4c0.7-0.5,0.8-1.1,0.8-1.9c0-3.2,0-6.4,0-9.6
		c0.1-9.6,6.6-17.1,16.1-18.5c1.3-0.2,2.6-0.2,3.9-0.3c0-8.6,0-17.1,0-25.8c-2.3,2.3-4.5,4.5-6.7,6.7c-1.7,1.7-2.9,1.7-4.7,0
		C13.2,50.2,8.2,45.1,3.1,40c-0.7-0.7-1.4-1.5-2.1-2.3c0-0.6,0-1.2,0-1.7c0.4-0.4,0.7-0.9,1.1-1.3C8.8,28,15.5,21.3,22.3,14.6
		C28,8.9,35,6,43.1,6c14.6,0,29.2,0,43.9,0c8,0,14.9,2.8,20.6,8.4c6.8,6.7,13.6,13.5,20.3,20.3c1.5,1.5,1.5,2.8,0,4.3
		c-5.4,5.5-10.9,10.9-16.3,16.3c-1.5,1.5-2.8,1.5-4.4-0.1c-2-2-3.9-3.9-5.9-5.9c-0.2-0.2-0.5-0.5-0.9-0.8c0,4.5,0,8.7,0,13
		c0,0.2,0,0.4,0.1,0.7c4-0.7,7.6,0,10.8,2.5c3.2,2.5,4.7,5.8,5,9.8c0.8,0,1.4,0,2,0c4.5-0.2,4.8,1.1,5.1,4.8
		c0.7,8.2,1.4,16.3,2.1,24.5c0.5,5.4,1,10.7,1.4,16.1c0.2,2.1-1,3.3-3.1,3.3c-13.6,0-27.2,0-40.9,0c-2.1,0-3.3-1.4-3.1-3.5
		c0.1-1.3,0.2-2.6,0.3-4.1c-2.3,0-4.4,0-6.6,0c-0.2,0-0.6,0.4-0.7,0.7c-0.9,2.4-2.6,3.8-5.1,4.3c-7.2,1.5-14.5,2.6-21.9,3
		c-12.8,0.8-25.5-0.2-38.1-2.7C4.3,120.4,1.9,118.9,1,115.5z M88.5,9.8C87.8,15.9,85.4,21,81,25.1c-4.4,4.1-9.7,6.2-15.7,6.3
		c-5,0.1-9.5-1.3-13.6-4.2c-6-4.2-9.3-10.1-10.1-17.3c-0.2-0.1-0.3-0.1-0.4-0.1c-0.2,0-0.3,0-0.5,0c-6.2,0.6-11.4,3.1-15.8,7.4
		C18.6,23.6,12.3,29.8,6,36.1c-0.2,0.2-0.5,0.5-0.5,0.6c5.2,5.2,10.2,10.2,15.4,15.4c2.6-2.6,5.4-5.4,8.1-8.1
		c0.6-0.5,0.8-1.1,0.8-1.8c0-5.6,0-11.2,0-16.9c0-1.4,0.8-2.2,1.9-2.2c1.1,0,1.8,0.8,1.9,2.1c0,0.3,0,0.7,0,1c0,13.5,0,27.1,0,40.6
		c0,0.5,0,1,0,1.4c1.3,0,2.5,0,3.6,0c5.3,0,6.5,1,7.3,6.3c0.6,0,1.2,0,1.8,0c9.2,0.1,17.2,7.3,18,16.5c0.3,3.8,0.2,7.7,0.2,11.5
		c0,1.1,0.3,1.7,1.1,2.5c2.3,2.2,4.6,4.4,6.9,6.7c0.1,0.1,0.3,0.3,0.5,0.3c2.4,0,4.9,0,7.4,0c0.1-0.7,0.1-1.3,0.2-1.9
		c0.4-4.4,0.7-8.7,1.2-13.1c0.1-1.3,1-2,2-1.9c1.1,0.1,1.8,1,1.7,2.3c-0.4,4.9-0.9,9.7-1.3,14.6c-0.2,2.5-0.4,4.9-0.6,7.5
		c13.3,0,26.4,0,39.5,0c-1.2-13.8-2.4-27.4-3.6-41.1c-10.9,0-21.6,0-32.4,0c-0.3,3.2-0.5,6.2-0.8,9.3c-0.1,1.3-0.9,2-2,1.9
		c-1.1-0.1-1.8-0.8-1.7-2.1c0.3-3.4,0.5-6.8,0.9-10.2c0.2-1.8,1.3-2.7,3.1-2.7c1.2,0,2.5,0,3.7,0c0.3-4.2,2-7.6,5.4-10
		c0.7-0.5,0.9-1,0.9-1.8c0-12.2,0-24.5,0-36.7c0-0.5,0-0.9,0.1-1.4c0.3-1,0.9-1.5,1.9-1.4c1,0.1,1.6,0.7,1.7,1.7c0,0.4,0,0.7,0,1.1
		c0,5.4,0,10.8,0,16.2c0,0.5,0.1,1.1,0.5,1.4c2,2.1,4.1,4.1,6.2,6.2c0.8,0.8,1.6,1.7,2.2,2.3c5.3-5.3,10.4-10.3,15.3-15.3
		c-6.8-6.8-13.5-13.9-20.5-20.6C99.7,12.1,94.5,10.2,88.5,9.8z M20.2,104.2c1.4,0.2,2.8,0.3,4.2,0.5c1.4,0.2,2,1,1.9,2.1
		c-0.1,1.1-1.1,1.7-2.4,1.6c-3.6-0.5-7.3-1-10.9-1.4c-0.5-0.1-1.2,0.1-1.5,0.4c-1.9,1.6-3.7,3.2-5.5,4.9c-0.9,0.8-1.4,1.7-1.1,2.9
		c0.3,1.2,1.1,1.7,2.3,2c6.4,1.4,12.9,2.3,19.5,2.8c13.5,1,26.9,0,40.2-2.8c1.1-0.2,1.9-0.8,2.2-1.9c0.3-1.2-0.1-2.1-1-2.9
		c-1.8-1.6-3.7-3.3-5.5-4.9c-0.4-0.3-1-0.5-1.5-0.4c-9,1.5-18.1,2.3-27.2,2.1c-1.6,0-2.4-0.7-2.4-1.9c0-1.2,0.8-1.8,2.5-1.8
		c2.3,0,4.7,0.1,7,0c4.3-0.2,8.6-0.6,12.8-0.9c0-4.3,0.1-8.4,0-12.5c-0.1-3.1-1.2-6-3-8.6c-2.2-3.3-5.2-5.2-9.3-5
		c-3.3,0.1-6.6-0.1-9.9,0.1c-1.3,0-2.6,0.3-3.7,0.9C24,81,22.1,84.5,21,88.4c-0.4,1.4-0.7,2.8-0.8,4.3
		C20.1,96.5,20.2,100.3,20.2,104.2z M51.7,9.8c0.1,0.6,0.2,1.1,0.3,1.6c0.2,1.2-0.3,2.2-1.4,2.4c-1,0.2-2-0.4-2.3-1.6
		c-0.2-0.8-0.3-1.6-0.5-2.4c-0.9,0-1.6,0-2.4,0c0.6,10,10.1,18.3,20.2,17.8c10.1-0.5,19.2-9.1,18.9-17.8c-0.7,0-1.5,0-2.3,0
		c-0.1,0.2-0.2,0.5-0.2,0.7C80.3,20,72.3,26.1,62.7,25c-3.5-0.4-6.5-1.9-9.2-4.2c-0.9-0.8-1-1.8-0.4-2.7c0.7-0.9,1.8-0.9,2.8-0.2
		c0.2,0.1,0.3,0.3,0.5,0.4c4.8,3.9,11.5,4.1,16.5,0.5c3-2.2,4.9-5.2,5.4-9C69.4,9.8,60.6,9.8,51.7,9.8z M112.2,74.5
		c0-5.6-6.1-10.1-11.3-8.4c-0.3,0.1-0.6,0.4-0.6,0.6c0,2.6,0,5.2,0,7.8C104.4,74.5,108.3,74.5,112.2,74.5z M53.6,80.6
		c1.7,2.6,3,5.4,3.5,8.5c0.4,2.4,0.5,4.8,0.6,7.2c0.1,2.4,0,4.8,0,7.3c1.1-0.2,2-0.3,2.8-0.4c0-4.3,0.3-8.5-0.1-12.6
		C60,86.2,57.4,82.9,53.6,80.6z M16.3,103.6c0.1-8-0.9-16.1,4.1-23c-3.5,2.1-5.8,5.1-6.6,9c-0.4,2-0.4,4.1-0.5,6.2
		c-0.1,2.4,0,4.9,0,7.4C14.4,103.3,15.3,103.5,16.3,103.6z M33.5,74.4c2.4,0,4.7,0,7,0c0.1-2-0.2-2.4-2.1-2.4c-0.9,0-1.8,0-2.7,0
		C33.8,72,33.4,72.4,33.5,74.4z M93.6,74.4c1.2,0,2,0,2.7,0c0-1.9,0-3.7,0-5.5c-0.1,0-0.3-0.1-0.4-0.1
		C95.2,70.6,94.5,72.4,93.6,74.4z"
      />
      <path
        d="M65,66.7c-2,1.4-3.9,2.8-5.8,4.2c-1.8,1.3-3.5,1.4-5.1,0.3c-1.5-1.1-2-2.8-1.3-4.9c0.6-2,1.2-4,1.9-5.9
		c0.2-0.7,0.1-1-0.5-1.4c-1.7-1.2-3.5-2.5-5.2-3.7c-1.7-1.3-2.3-2.9-1.7-4.7c0.6-1.8,2-2.7,4.1-2.8c2,0,4.1-0.1,6.1,0
		c0.9,0,1.3-0.3,1.5-1.2c0.6-1.9,1.2-3.8,1.8-5.7c0.7-2.1,2.1-3.2,4-3.2c1.8,0,3.2,1.1,3.9,3.2c0.6,1.9,1.3,3.9,1.9,5.8
		c0.2,0.8,0.6,1.1,1.5,1.1c2-0.1,4.1,0,6.1,0c2.2,0,3.5,0.9,4.2,2.7c0.6,1.8,0,3.4-1.7,4.7c-1.7,1.2-3.3,2.5-5.1,3.7
		c-0.7,0.4-0.8,0.8-0.6,1.6c0.7,2,1.3,3.9,2,5.9c0.6,2,0.2,3.7-1.3,4.8c-1.5,1.1-3.2,1-5-0.2C68.9,69.6,67,68.2,65,66.7z
		M56.2,68.1c0.1,0.1,0.1,0.1,0.2,0.2c0.4-0.2,0.7-0.5,1.1-0.7c1.8-1.3,3.6-2.6,5.4-3.9c1.6-1.1,2.6-1.1,4.2,0
		c1.6,1.2,3.2,2.3,4.9,3.5c0.5,0.4,1,0.7,1.9,1.3c-0.2-0.8-0.3-1.2-0.4-1.6c-0.7-2.1-1.3-4.1-2-6.2c-0.7-2.1-0.4-3,1.4-4.3
		c1.8-1.4,3.7-2.7,5.6-4c0.2-0.2,0.5-0.3,0.8-0.4c-0.1-0.1-0.2-0.3-0.3-0.4c-0.4,0-0.8-0.1-1.2-0.1c-2.2,0-4.3,0-6.5,0
		c-2.2,0-3-0.6-3.6-2.7c-0.6-1.7-1.1-3.4-1.6-5.1c-0.2-0.7-0.5-1.4-0.7-2.2c-0.4,0.4-0.6,0.8-0.7,1.1c-0.7,2.2-1.4,4.3-2.1,6.5
		c-0.6,1.6-1.4,2.3-3.1,2.3c-2.4,0-4.7,0-7.1,0c-0.3,0-0.7,0.1-1.3,0.1c0.6,0.5,0.9,0.7,1.3,1c1.8,1.3,3.6,2.6,5.4,4
		c1.4,1.1,1.8,2.1,1.2,3.8c-0.5,1.5-1,3-1.5,4.5C56.9,66,56.6,67,56.2,68.1z"
      />
      <path
        d="M107.7,92.5c1.5,0,3,0,4.4,0c1.6,0,2.7,0.8,3.2,2.1c0.5,1.4,0.1,2.8-1.2,3.8c-1,0.7-1.9,1.5-2.9,2.1
		c-0.6,0.4-0.7,0.8-0.5,1.4c0.4,1.1,0.8,2.2,1.1,3.3c0.5,1.6,0.1,2.9-1.1,3.8c-1.2,0.9-2.6,0.9-4.1-0.1c-1.2-0.8-2.3-1.7-3.5-2.5
		c-1.1,0.8-2.2,1.6-3.2,2.3c-1.7,1.2-3.1,1.3-4.4,0.3c-1.3-0.9-1.6-2.3-0.9-4.3c0.3-1,0.6-1.9,0.9-2.8c0.3-0.7,0.1-1.1-0.5-1.5
		c-0.9-0.6-1.8-1.3-2.7-2c-1.4-1.1-1.9-2.3-1.4-3.8c0.5-1.4,1.7-2.2,3.4-2.3c1.4,0,2.8,0,4.3,0c0.5-1.4,0.9-2.7,1.3-4
		c0.6-1.7,1.7-2.6,3.3-2.6c1.5,0,2.6,0.9,3.2,2.6C106.9,89.8,107.3,91.1,107.7,92.5z M95.6,96.3c1.2,0.9,2,1.5,2.9,2.1
		c1.3,1,1.6,1.9,1.1,3.5c-0.3,1-0.6,2-0.9,3c0.2,0,0.3,0,0.3,0c0.8-0.6,1.7-1.2,2.5-1.8c1.2-0.9,2.2-0.9,3.4,0
		c0.9,0.6,1.8,1.3,2.7,1.9c0.1-0.1,0.1-0.2,0.1-0.2c-0.3-1-0.6-2.1-0.9-3.1c-0.4-1.4-0.1-2.3,1.1-3.3c0.9-0.7,1.8-1.3,2.9-2.2
		c-1.3,0-2.3,0-3.3,0c-1.9,0-2.6-0.5-3.2-2.3c-0.3-1-0.6-1.9-1.1-3.2c-0.5,1.4-0.8,2.5-1.2,3.6c-0.4,1.3-1.4,1.9-2.7,1.9
		C98.2,96.3,97.1,96.3,95.6,96.3z"
      />
      <path
        d="M48.5,90.1c-0.5,0.8-1,1.6-1.6,2.2c-0.7,0.7-1.6,1.2-2.4,1.8c-0.6,0.4-0.7,0.8-0.5,1.5c0.4,1,0.7,2,1,3.1
		c0.3,1.3-0.1,2.6-1.2,3.3c-1.1,0.8-2.3,0.8-3.4,0.1c-1-0.6-1.9-1.3-2.7-2c-0.5-0.4-0.9-0.4-1.4,0c-0.8,0.7-1.7,1.3-2.5,1.8
		c-1.2,0.8-2.6,0.8-3.7,0c-1-0.8-1.4-2.1-1.1-3.5c0.3-1.3,1.2-2.7,0.9-3.8c-0.3-1-1.9-1.6-2.9-2.4c-1.2-0.9-1.6-2.3-1.1-3.6
		c0.5-1.3,1.5-2,3-2c1,0,2.1,0.1,3.1,0c0.4,0,0.9-0.4,1-0.7c0.4-0.9,0.7-2,1-2.9c0.5-1.4,1.6-2.2,3-2.2c1.4,0,2.5,0.8,3,2.2
		c0.5,1.2,0.6,2.9,1.5,3.6c0.8,0.6,2.5,0.1,3.8,0.2C47.1,86.8,48.3,88.1,48.5,90.1z M43,90.5c-3.6,0.7-5.4-1-5.8-4.2
		c-0.8,1.3-1.2,2.9-2.1,3.6c-1,0.7-2.5,0.6-3.6,0.8c0.8,0.9,2.2,1.8,2.5,2.9c0.3,1.2-0.3,2.6-0.5,4.2c2.4-2.8,4.8-2.8,7.4-0.1
		C39,94.4,39.8,92.2,43,90.5z"
      />
    </svg>