<svg
  width="0.5em"
  height="0.5em"
  fill="currentColor"
  viewBox="0 0 130 130"
  xmlns="http://www.w3.org/2000/svg"
    >
      <path
        d="M117.7,69.8c0,17.7,0,35.4,0,53c0,3.2-1.5,5.3-4.2,6c-0.6,0.1-1.1,0.2-1.7,0.2c-27.6,0-55.2,0-82.8,0
        c-3.7,0-5.9-2.2-5.9-5.9c0-1.1,0.5-2.5-0.2-3.2c-0.7-0.8-2.2-0.2-3.3-0.3c-0.6,0-1.2,0-1.9,0c-3.1-0.1-5.2-2.2-5.4-5.3
        c0-0.4,0-0.9,0-1.3c0-30.7,0-61.5,0-92.2c0-1.4,0.4-2.5,1.3-3.6c4.1-4.9,8.2-9.9,12.3-14.9C26.6,1.4,27.4,1,28.5,1
        c24.2,0,48.4,0,72.6,0c3.5,0,5.7,2.2,5.7,5.8c0,1.1-0.5,2.6,0.2,3.3c0.8,0.8,2.3,0.2,3.5,0.2c0.6,0,1.2,0,1.9,0
        c2.9,0.2,4.9,2.1,5.2,4.9c0.1,0.6,0.1,1.2,0.1,1.7C117.7,34.6,117.7,52.2,117.7,69.8z M103,60.3c0-17.7,0-35.4,0-53
        c0-2-0.3-2.4-2.2-2.4c-23.1,0-46.3,0-69.4,0c-0.9,0-1.2,0.3-1.2,1.2c0,3.2,0.1,6.5,0,9.7c-0.1,3.3-2.2,5.5-5.6,5.5
        c-2.2,0-4.4,0-6.7,0c-2,0-1.7-0.2-1.7,1.7c0,30,0,60.1,0,90.1c0,2.4,0.2,2.6,2.6,2.6c27.1,0,54.3,0,81.4,0c2.6,0,2.7-0.2,2.7-2.7
        C103,95.4,103,77.9,103,60.3z M113.8,69.7c0-17.5,0-35,0-52.5c0-0.4,0-0.8,0-1.2c0-1.1-0.6-1.6-1.7-1.6c-1.2,0-2.3,0-3.5,0
        c-2.1,0-1.8-0.2-1.8,1.7c0,32.4,0,64.8,0,97.2c0,0.8,0,1.5-0.1,2.3c-0.7,2.7-2.8,4.2-6,4.2c-23.6,0-47.2,0-70.8,0
        c-2.9,0-2.9,0-2.9,2.9c0,2.3,0.3,2.5,2.5,2.5c27.2,0,54.5,0,81.7,0c2.3,0,2.5-0.3,2.5-2.5C113.8,104.9,113.8,87.3,113.8,69.7z
        M18.4,17.5c2.4,0,4.4,0,6.3,0c0.9,0,1.6-0.5,1.6-1.5c0-2.6,0-5.2,0-8.1C23.6,11.2,21.1,14.2,18.4,17.5z"
      />
      <path
        d="M67.5,59c1.7,0.7,3.4-0.1,5-1.2c1.8-1.1,3.6-0.9,5.3,0.2c1.4,1,2.8,1.3,4.5,1c2.2-0.3,3.8,0.6,4.9,2.5
        c0.7,1.3,1.7,2.1,3.2,2.6c2.1,0.6,3.4,2.1,3.5,4.3c0.1,1.6,0.7,2.8,1.8,3.8c1.7,1.5,2.2,3.4,1.3,5.6c-0.6,1.5-0.6,3,0,4.5
        c0.9,2.2,0.4,4.1-1.4,5.7c-1.1,1-1.7,2.1-1.7,3.6c-0.1,1.7-0.8,3.2-2.4,4c-0.7,0.4-0.3,0.8-0.1,1.2c1.7,2.9,3.3,5.9,5,8.8
        c0.5,0.9,0.9,1.8,0.2,2.7c-0.7,0.9-1.6,0.9-2.5,0.6c-1.1-0.3-2.2-0.4-3.2-0.7c-1-0.3-1.4,0-1.7,1c-0.3,1.2-0.8,2.3-1.1,3.4
        c-0.3,0.9-0.8,1.5-1.8,1.6c-1,0.1-1.6-0.5-2-1.3c-1.8-3.2-3.7-6.5-5.5-9.7c-0.4-0.8-0.8-1.1-1.7-0.6c-1.3,0.7-2.7,0.7-4,0
        c-1-0.6-1.3-0.1-1.8,0.6c-1.8,3.1-3.6,6.2-5.3,9.4c-0.5,0.9-1.1,1.7-2.3,1.5c-1.1-0.1-1.5-1-1.8-1.9c-0.3-1.1-0.8-2.2-1.1-3.3
        c-0.2-0.8-0.6-1.1-1.4-0.8c-1.1,0.3-2.2,0.5-3.2,0.7c-1,0.2-2,0.4-2.8-0.7c-0.7-1-0.2-1.8,0.3-2.7c1.6-2.8,3.2-5.7,4.9-8.5
        c0.4-0.7,0.5-1.1-0.3-1.5c-1.7-0.9-2.1-2.6-2.2-4.3c0-1.1-0.4-2-1.3-2.6c-2.2-1.8-2.7-4.1-1.6-6.7c0.5-1.1,0.5-2.2,0-3.3
        c-1.1-2.6-0.6-4.8,1.6-6.6C55.6,71,56,70.1,56,69c0.1-2.6,1.3-4.4,3.9-5c1.3-0.3,2.1-1,2.7-2.2C63.6,60,65,58.9,67.5,59z M80.6,97
        c0.6,0.1,1.2,0.1,1.7,0.2c0.8,0.2,1.3-0.1,1.6-0.8c1-2.1,2.7-3.5,5-4c0.8-0.2,1.1-0.6,1.1-1.4c0-2.3,0.9-4.1,2.7-5.6
        c0.7-0.6,1-1.2,0.6-2.1c-1-2.2-0.9-4.4,0-6.6c0.3-0.8,0.2-1.4-0.4-1.9c-1.8-1.5-2.8-3.4-2.8-5.8c0-0.7-0.3-1.2-1-1.3
        c-2.3-0.5-4-1.8-5-4c-0.3-0.7-0.9-1-1.6-0.8c-2.4,0.5-4.6-0.1-6.5-1.6c-0.6-0.5-1.2-0.4-1.8,0c-1.9,1.4-4,2-6.4,1.5
        c-0.8-0.2-1.4,0.1-1.7,0.9c-1,2.1-2.6,3.3-4.8,3.9c-0.8,0.2-1.2,0.6-1.2,1.5c0,2.3-0.9,4.2-2.8,5.7c-0.7,0.5-0.8,1.2-0.5,2
        c0.9,2.1,1,4.3,0,6.5c-0.4,0.9-0.2,1.5,0.5,2.1c1.8,1.4,2.6,3.3,2.7,5.6c0,0.9,0.4,1.3,1.2,1.5c2.3,0.5,3.9,1.9,4.9,4
        c0.4,0.8,0.9,1,1.8,0.8c2.2-0.4,4.2-0.1,5.9,1.3c1,0.8,1.8,0.6,2.8,0C77.7,97.5,79,96.8,80.6,97z M85.5,107.2
        c0.8-1.3,0.6-2.8,1.9-3.4c1.2-0.6,2.4,0.3,3.7,0.2c-1.2-2.1-2.3-4-3.6-6.2c-1.2,2.4-2.9,3.5-5.6,3.2
        C83.2,103.2,84.3,105.1,85.5,107.2z M68,101c-2.8,0.4-4.5-0.9-5.6-3.1c-1.3,2.2-2.4,4.2-3.7,6.5c3.4-1.5,5.2-0.5,5.6,3.2
        C65.6,105.2,66.7,103.2,68,101z"
      />
      <path
        d="M60.6,34.9c10.3,0,20.5,0,30.8,0c0.5,0,1,0,1.5,0.1c1,0.2,1.5,0.9,1.5,1.9c0,1-0.6,1.7-1.6,1.9c-0.4,0.1-0.9,0.1-1.3,0.1
        c-20.7,0-41.3,0-62,0c-0.4,0-0.9,0-1.3-0.1c-1-0.2-1.6-0.9-1.6-1.9c0-1,0.6-1.7,1.6-1.9c0.5-0.1,1-0.1,1.5-0.1
        C40,34.9,50.3,34.9,60.6,34.9z"
      />
      <path
        d="M59.7,54.9c-10.6,0-21.2,0-31.9,0c-0.5,0-1,0-1.5-0.1c-1-0.2-1.6-0.9-1.6-1.9c0-1,0.6-1.7,1.6-1.9c0.4-0.1,0.9-0.1,1.3-0.1
        c21.3,0,42.6,0,63.8,0c0.4,0,0.9,0,1.3,0c1,0.2,1.6,0.8,1.6,1.9c0,1-0.5,1.7-1.5,1.9c-0.5,0.1-1,0.1-1.5,0.1
        C80.8,54.9,70.3,54.9,59.7,54.9z"
      />
      <path
        d="M76.6,22.7c-5.2,0-10.4,0-15.6,0c-1.6,0-2.5-1-2.3-2.3c0.2-1.1,1-1.6,2.1-1.6c2.7,0,5.4,0,8.1,0c7.6,0,15.3,0,22.9,0
		    c0.9,0,1.8,0.1,2.3,1c0.7,1.3-0.2,2.8-1.8,2.8c-2.4,0.1-4.7,0-7.1,0C82.5,22.7,79.5,22.7,76.6,22.7z"
      />
      <path
        d="M37.6,103.4c-3.5,0-6.9,0-10.4,0c-1.5,0-2.5-0.8-2.4-2c0-1.2,0.9-1.9,2.4-1.9c6.9,0,13.8,0,20.8,0c1.6,0,2.5,0.7,2.4,2
		    c0,1.2-0.9,1.9-2.4,1.9C44.5,103.4,41,103.4,37.6,103.4z"
      />
      <path
        d="M37.4,71.1c-3.4,0-6.7,0-10.1,0c-1.6,0-2.5-0.7-2.5-1.9c0-1.2,0.9-2,2.5-2c6.8,0,13.7,0,20.5,0c1.6,0,2.5,0.8,2.5,1.9
		    c0,1.2-0.9,2-2.5,2C44.3,71.1,40.9,71.1,37.4,71.1z"
      />
      <path
        d="M36.2,83.4c3,0,6,0,9.1,0c1.5,0,2.4,0.7,2.4,1.9c0,1.2-0.8,2-2.3,2c-6.1,0-12.2,0-18.3,0c-1.5,0-2.4-0.8-2.3-2
		    c0-1.2,0.9-1.9,2.4-1.9C30.2,83.4,33.2,83.4,36.2,83.4z"
      />
      <path
        d="M60.4,80c0-8.1,6.5-14.6,14.6-14.5c8.1,0,14.6,6.6,14.6,14.7c0,8-6.6,14.5-14.7,14.5C66.9,94.6,60.4,88,60.4,80z
		    M74.8,90.7c5.9,0.1,10.8-4.6,10.9-10.6c0.1-5.8-4.6-10.7-10.4-10.8c-5.9-0.1-10.9,4.6-11,10.5C64.1,85.7,68.8,90.6,74.8,90.7z"
      />
      <path
        d="M70.6,78.3c0.9,0,1.6,0.8,2.3,1.4c0.7,0.7,1.2,0.6,1.8-0.2c0.9-1.2,2-2.4,3-3.5c1-1.1,2.1-1.3,3-0.5
        c0.9,0.8,0.9,1.9-0.1,3.1c-1.6,1.9-3.2,3.7-4.8,5.5c-1,1.2-1.9,1.3-3.1,0.3c-1.2-0.9-2.4-1.8-3.5-2.8c-0.7-0.6-0.9-1.3-0.5-2.2
        C69,78.7,69.6,78.3,70.6,78.3z"
      />
    </svg>
