<svg
  width="0.5em"
  height="0.5em"
  fill="currentColor"
  viewBox="0 0 130 130"
  xmlns="http://www.w3.org/2000/svg"
    >
      <path
        d="M93.1,86.8c-2,1.5-3.7,2.8-5.5,4.1c-1,0.8-2.1,1.4-3.5,1.5c-0.4,0-0.7,0.2-1,0.4c-2.3,1.7-4.6,3.3-6.8,5
        c-2.3,1.7-2.7,4.1-1.5,7.1c2.1,5.2,4.2,10.3,6.3,15.4c1.2,3.1-0.3,5.6-3.6,5.8c-2.3,0.1-4.2-0.7-5.5-2.7c-1.9-2.9-3.9-5.7-5.8-8.6
        c-0.5-0.8-0.8-0.8-1.3,0c-2,3-4,6-6.1,9c-1.5,2.2-4.6,3-7,1.9c-2.1-1-2.9-2.7-2-4.9c2.1-5.2,4.2-10.3,6.3-15.4
        c1.2-2.9,0.6-5.3-1.5-7.6c-4-4.4-9.1-7.5-14.2-11.2c0.4,4.7-0.5,9.2,1,13.6c2.1,6.1,3.8,12.2,5.7,18.4c0.1,0.3,0.2,0.6,0.3,1
        c0.8,3.1-0.3,5.6-3,6.3c-3.1,0.9-6-0.6-6.9-3.6c-1.9-6.1-3.7-12.2-5.6-18.3c-0.2-0.5-0.1-1.3-0.9-1.3c-0.8,0-0.7,0.8-0.9,1.3
        c-1.9,6.1-3.8,12.3-5.6,18.4c-0.6,1.9-1.8,3.1-3.7,3.5c-4.3,1-7.4-2-6.1-6.3c1.9-6.5,3.9-12.9,5.9-19.3c0.7-2.1,1.1-4.2,1-6.4
        c-0.1-2.4-0.1-4.8,0-7.1c0-1.8-0.6-3.2-1.9-4.5c-4.4-4.4-8.9-8.8-13.3-13.2c-1.7-1.6-2.2-3.5-1.4-5.7c0.7-2.1,2.9-3.5,5-3.2
        c1.1,0.1,1.3-0.3,1.4-1.1c1.4-7.1,2.9-14.2,4.4-21.4c0.6-2.7,1.1-5.4,1.7-8.1c0.2-0.7,0.1-1.3-0.6-1.8c-2.4-2-2.9-5.1-1.6-7.8
        c1.3-2.6,4.3-4,7.2-3.3c2.8,0.6,4.8,3.2,4.9,6.1c0.1,2.9-1.9,5.5-4.8,6.3c-0.9,0.2-1.1,0.6-1.3,1.4c-2.1,10.4-4.3,20.9-6.4,31.3
        c-0.2,0.8,0,1.3,0.6,1.9c2,1.9,4,3.8,5.9,5.8c1.3,1.3,2.8,1.9,4.6,1.9c2.9,0,5.9,0,8.9,0c2.1,0,3.9,0.5,5.6,1.8
        c4.4,3.5,9.2,6.7,13.2,10.7c2.7,2.7,5.7,5,8.7,7.4c1.8,1.4,3.7,1.5,5.7,0.5c3.4-1.8,6.8-3.7,10.2-5.5c1.1-0.6,1.4-1.9,2.3-2.6
        c1.9-1.4,3.7-3,5.5-4.5c2.2-1.8,4.4-3.6,6.6-5.4c1.9-1.6,4-2.4,6.5-2.3c2.8,0.1,5.6,0,8.4,0c1.9,0,3.5-0.6,4.8-2
        c2.4-2.5,4.6-5.2,7.4-7.2c3.7-2.6,2.8-5.8,1.9-9.1c-0.7-2.4-2.5-4.2-4.4-5.9c-3.8-3.2-6.5-7-7.3-12c-0.2-1.1,0.2-2.5-0.4-3.2
        c-0.6-0.7-2-0.5-3.1-0.8c-6.6-1.9-10.9-8.4-9.9-15.1c1-7.1,6.7-12.2,13.8-12.2c7,0,12.8,5,13.8,12c0.9,6.5-2.8,12.7-9.1,15
        c-1.1,0.4-1.4,1-1.4,2.1c0.1,4.6,2.4,8.2,5.8,11c5,4.1,7.5,9.1,6.6,15.6c-0.1,0.6,0.1,1,0.6,1.4c2.9,2.2,3.1,5.5,0.5,8.1
        c-4.3,4.3-8.5,8.6-12.9,12.7c-2.6,2.5-2.8,5.5-1.8,8.5c1.5,4.7,3.5,9.3,5.2,13.9c1,2.5,0.2,3.6-2.5,3.6c-1.1,0-2.2,0.1-3.3,0
        c-1.2-0.1-1.6,0.2-1.6,1.5c0.1,4.2,0,8.5,0,12.7c0,4.2-3.2,6.4-7.1,4.7c-0.5-0.2-0.8-0.1-1.2,0.1c-3.7,1.6-7-0.6-7.1-4.6
        c0-4.3,0-8.7,0-13c0-1.1-0.3-1.5-1.4-1.4c-1,0.1-2,0-3,0c-2.1-0.1-2.9-1.1-2.2-3c1.5-4.8,3-9.6,4.5-14.4
        C93.2,89.2,93.3,88.1,93.1,86.8z M92.7,103.8c6.8,0,13.3,0,19.9,0c1.1,0,0.6-0.7,0.4-1.1c-1.4-3.8-3.1-7.5-4.2-11.3
        c-1.3-4.4-1-8.6,2.6-12.1c4.3-4.2,8.6-8.5,12.9-12.7c0.7-0.7,1.3-1.4,0.4-2.3c-0.9-0.8-1.5-0.1-2.2,0.5c-2.5,2.5-5,4.9-7.5,7.4
        c-2,1.9-4.3,2.9-7,2.9c-2.9,0-5.7,0.1-8.6,0c-1.7-0.1-3,0.5-4.3,1.5c-3.8,3.2-7.6,6.3-11.5,9.4c-0.7,0.6-1.7,1.1-0.8,2.2
        c0.8,1,1.6,0.3,2.4-0.2c0.3-0.2,0.5-0.4,0.8-0.6c2.6-2,5.2-4,7.9-5.9c1.4-1,3.1-0.5,3.2,1.1c0.1,2.9,0.5,5.9-0.4,8.8
        C95.3,95.4,94,99.5,92.7,103.8z M36.6,90.9c0-3.3,0-5.5,0-7.7c0.1-2.1,1.6-2.8,3.3-1.7c0.7,0.5,1.4,1,2.1,1.5
        c2.4,1.8,4.9,3.5,7.3,5.2c0.7,0.5,1.4,0.7,2-0.1c0.6-0.8,0.2-1.4-0.5-1.9c-4.1-3.3-8.3-6.6-12.4-9.9C37.2,75.4,36,75,34.4,75
        c-2.8,0.1-5.5,0-8.3,0c-3.1,0.1-5.6-1-7.8-3.2c-2.1-2.2-4.4-4.4-6.6-6.5c-0.4-0.4-0.8-0.8-1.2-1.2C10,63.7,9.5,63.8,9,64.2
        c-0.5,0.5-0.5,1-0.2,1.6c0.2,0.4,0.6,0.6,0.9,0.9c4.1,4.1,8.1,8.2,12.3,12.1c2.5,2.4,3.6,5.1,3.5,8.5c-0.1,2.4-0.1,4.8,0,7.1
        c0,2-0.3,4-0.9,5.9c-2.1,6.6-4.1,13.2-6.1,19.9c-0.2,0.6-0.7,1.5,0.4,1.8c0.9,0.2,1.7,0,2-1.1c0-0.2,0.1-0.4,0.2-0.5
        c1.9-6.1,3.7-12.3,5.6-18.4c0.7-2.1,2.1-3.2,4.1-3.3c2.3-0.1,3.9,1,4.6,3.3c1.9,6.3,3.8,12.5,5.7,18.8c0.3,1.1,1,1.5,2,1.3
        c1.2-0.3,0.6-1.2,0.4-1.9c-1-3.2-2-6.4-3-9.7C38.6,103.7,35.4,97.2,36.6,90.9z M65.4,109.8c1.4,0,2.4,0.6,3.1,1.7
        c2.1,3.1,4.2,6.2,6.3,9.3c0.2,0.3,0.4,0.6,0.7,0.9c0.5,0.5,1.2,0.7,1.7,0.5c0.7-0.3,0-0.9-0.1-1.3c-1.9-4.8-4-9.7-5.9-14.5
        c-2-4.9-0.8-9,3.4-12.1c1.3-1,2.7-2,4-3c0.3-0.3,1.2-0.4,0.7-1.1c-0.4-0.6-0.8,0.1-1.2,0.2c-2.9,1.5-5.8,3.1-8.7,4.6
        c-3.3,1.7-6.4,1.4-9.4-0.8c-1.4-1.1-2.8-2.1-4.3-3.1c-0.5-0.4-1.1-1.2-1.8-0.2c-0.8,1.1,0.4,1.2,0.7,1.6c0.8,1,1.9,1.8,2.7,2.7
        c3.1,3.3,4,7.1,2.2,11.4c-2,4.7-3.9,9.5-5.8,14.2c-0.2,0.4-0.7,0.9-0.2,1.3c0.5,0.3,1.1,0.1,1.6-0.3c0.3-0.3,0.5-0.6,0.7-0.9
        c2.1-3.1,4.3-6.3,6.4-9.4C63.1,110.4,64.1,109.7,65.4,109.8z M120.4,17.7c0-5.5-4.5-10-10-10c-5.5,0-10.1,4.5-10.1,10.1
        c0,5.5,4.4,10,10,10C115.9,27.8,120.4,23.3,120.4,17.7z M104.6,115.4c0,2.2,0,4.5,0,6.7c0,0.6,0.1,1.2,0.8,1.2c0.9,0,1-0.6,1-1.2
        c0-4.5,0-8.9,0-13.4c0-0.7-0.3-1-1-1c-0.8,0-0.8,0.4-0.8,1C104.7,110.9,104.6,113.2,104.6,115.4z M100.7,115.5c0-2.2,0-4.5,0-6.7
        c0-0.6,0-1.1-0.8-1.1c-0.9,0-1,0.4-1,1.1c0,4.4,0,8.7,0,13.1c0,0.6,0,1.4,0.8,1.4c0.9,0,1-0.7,1-1.4
        C100.7,119.8,100.7,117.7,100.7,115.5z M21.1,25.3c1.4,0,2.5-1.3,2.5-2.6c-0.1-1.3-1.2-2.4-2.5-2.4c-1.4,0-2.5,1.2-2.5,2.6
        C18.6,24.2,19.8,25.3,21.1,25.3z"
      />
      <path
        d="M81.7,50.7c-0.1,2.6-1,4.9-2.8,6.7c-3.8,3.8-7.6,7.6-11.4,11.4c-1.4,1.4-2.7,1.3-4.1,0C59.6,65,55.8,61.2,52,57.3
        c-2.9-3-3.5-7.3-1.7-11c1.8-3.7,5.5-5.8,9.4-5.4c1.7,0.2,3.3,0.8,4.7,1.9c0.8,0.6,1.4,0.5,2.2,0c5.9-4,13.2-1.3,14.8,5.6
        C81.6,49.2,81.6,49.9,81.7,50.7z M53.2,50.9c0,1.1,0.3,2.4,1.2,3.3c3.5,3.6,7,7.1,10.5,10.6c0.3,0.3,0.6,0.4,0.9,0
        c3.6-3.6,7.2-7.1,10.7-10.9c1.8-2,1.5-5.1-0.3-7.2c-1.9-2.2-4.5-2.6-7.1-1.1c-0.6,0.3-1.1,0.7-1.6,1.2c-2,1.7-2.3,1.7-4.3,0
        c-0.5-0.5-1.1-0.9-1.7-1.2C57.7,43.5,53.2,46.2,53.2,50.9z"
      />
      <path
        d="M80.9,17.9c1,0.1,1.7,0.6,1.9,1.5c0.8,3.7,3,6.2,6.7,7.2c0.9,0.2,1.5,0.9,1.5,1.9c0,0.9-0.5,1.6-1.4,1.9
        c-3.7,1-5.9,3.4-6.7,7.2c-0.2,1-0.9,1.6-1.9,1.5c-0.9,0-1.6-0.5-1.8-1.5c-0.8-3.8-3-6.2-6.7-7.2c-0.9-0.3-1.5-0.9-1.5-1.9
        c0-1,0.5-1.6,1.4-1.9c3.7-1,5.9-3.4,6.7-7.1C79.2,18.4,79.9,17.9,80.9,17.9z M80.8,31.7c0.9-1.1,1.8-2.1,2.9-2.9
        c0.3-0.2,0.4-0.4,0-0.7c-1.1-0.8-2-1.9-2.9-3c-0.8,1.1-1.6,2-2.6,2.8c-0.5,0.4-0.7,0.6-0.1,1C79.2,29.7,79.9,30.7,80.8,31.7z"
      />
      <path
        d="M102.6,54.9c4.1,0,7.4,3.4,7.4,7.4c0,4.1-3.4,7.4-7.4,7.5c-4.1,0-7.6-3.5-7.5-7.6C95.1,58.2,98.5,54.9,102.6,54.9z
        M106.1,62.3c0-1.9-1.6-3.5-3.6-3.5c-2,0-3.6,1.7-3.6,3.7c0.1,1.9,1.7,3.5,3.6,3.4C104.5,65.8,106.1,64.2,106.1,62.3z"
      />
      <path
        d="M31.2,54.9c4.1,0,7.4,3.4,7.4,7.4c0,4.1-3.4,7.5-7.4,7.5c-4.1,0-7.6-3.5-7.5-7.6C23.7,58.2,27.1,54.9,31.2,54.9z
        M34.7,62.3c0-1.9-1.7-3.5-3.6-3.5c-2,0-3.6,1.7-3.5,3.7c0.1,1.9,1.7,3.5,3.7,3.4C33.2,65.8,34.7,64.2,34.7,62.3z"
      />
      <path
        d="M58.7,83.3c0-3.8,3-6.8,6.8-6.8c3.8,0,6.9,3.1,6.9,6.9c0,3.7-3.1,6.8-6.8,6.8C61.7,90.2,58.7,87.1,58.7,83.3z M65.5,86.2
        c1.6,0,2.9-1.3,2.9-2.9c0-1.7-1.3-3-3-2.9c-1.6,0-2.9,1.3-2.9,2.9C62.5,84.9,63.9,86.2,65.5,86.2z"
      />
      <path
        d="M12.2,18.3c0,1.3-1.1,2.4-2.3,1.9c-2.6-0.9-5.2-2-7.8-3.1c-0.9-0.4-1.2-1.3-0.9-2.3c0.4-1,1.2-1.6,2.3-1.2
        c2.7,1,5.3,2.1,7.9,3.2C11.9,17.1,12.2,17.7,12.2,18.3z"
      />
      <path
        d="M29.9,27c0.1-1.3,1.3-2.2,2.4-1.8c2.6,0.9,5.1,2,7.7,3c1,0.4,1.3,1.4,0.9,2.4c-0.4,1.1-1.3,1.5-2.3,1.2
        c-2.6-1-5.2-2-7.8-3.1C30.2,28.4,29.9,27.7,29.9,27z"
      />
      <path
        d="M30.2,4.8c0,0.2-0.1,0.5-0.2,0.8c-0.9,2.2-1.8,4.5-2.7,6.7c-0.5,1.3-1.5,1.8-2.5,1.4c-1.1-0.4-1.6-1.5-1.1-2.8
        c0.9-2.3,1.9-4.7,2.8-7c0.4-1,1.2-1.4,2.3-1.2C29.7,3,30.2,3.7,30.2,4.8z"
      />
      <path
        d="M12.3,27.1c0,1.4-0.7,1.9-1.7,2.2c-1.5,0.4-2.9,2-4.6,0.7c-1.1-0.8-0.9-2.4,0.4-3.1c1.1-0.6,2.3-1.1,3.5-1.5
        C11.1,25.1,12.3,26,12.3,27.1z"
      />
      <path
        d="M28.9,36.4c-0.1,1.1-0.5,1.7-1.3,2c-0.8,0.3-1.6,0.1-2-0.6c-0.8-1.3-1.4-2.7-1.8-4.1c-0.2-0.8,0.2-1.5,1-1.9
        c0.8-0.4,1.7-0.4,2.2,0.3C27.9,33.3,28.4,34.9,28.9,36.4z"
      />
      <path
        d="M36.7,17.1c-0.2,1.8-2.1,1.8-3.4,2.5c-1,0.5-2,0.9-3,0c-0.9-0.9-0.8-2.4,0.4-3c1.1-0.6,2.3-1.1,3.5-1.5
        C35.6,14.6,36.7,15.5,36.7,17.1z"
      />
      <path
        d="M15.1,7C16.4,7,17,7.9,17.3,9c0.4,1.4,2,2.8,0.6,4.4c-0.8,1-2.5,0.7-3.1-0.5c-0.5-1-1-2.1-1.4-3.3
        C12.9,8.3,13.8,7.1,15.1,7z"
      />
      <path d="M64.6,24.7c0,1.5-1.6,2.5-2.8,1.8c-1.2-0.7-2.2-1.7-2.9-2.9c-0.8-1.2,0.2-2.8,1.6-2.8C61.7,20.7,64.6,23.5,64.6,24.7z" />
      <path
        d="M55.7,22.5c0,0.5-0.2,1-0.6,1.4c-0.7,0.7-1.4,1.4-2.1,2.1c-0.9,0.8-1.8,0.8-2.7,0c-0.8-0.8-0.8-1.8-0.1-2.7
        c0.7-0.8,1.5-1.6,2.3-2.3c0.6-0.6,1.4-0.6,2.1-0.2C55.4,21.2,55.7,21.8,55.7,22.5z"
      />
      <path d="M55.7,15.9c0,1.4-1.5,2.4-2.7,1.7c-1.2-0.7-2.2-1.8-3-3c-0.8-1.2,0.2-2.7,1.6-2.8C52.8,11.8,55.7,14.6,55.7,15.9z" />
      <path
        d="M60.6,17.8c-0.8-0.1-1.4-0.3-1.7-1c-0.4-0.7-0.4-1.4,0.1-2c0.8-0.9,1.7-1.8,2.6-2.6c0.7-0.6,1.5-0.5,2.2,0
        c0.7,0.5,1.1,1.3,0.6,2.1c-0.8,1.4-1.9,2.4-3.3,3.3C61,17.8,60.7,17.7,60.6,17.8z"
      />
      <path
        d="M118.4,18.2c-0.1,4-3.8,7.6-7.8,7.6c-1.2,0-2.1-0.7-2.2-1.8c-0.1-1,0.7-1.9,1.9-2.1c2.7-0.4,3.8-1.5,4.2-4.1
        c0.2-1.4,1-2.1,2.1-1.9C117.9,16,118.4,16.8,118.4,18.2z"
      />
    </svg>