<svg
  width="0.5em"
  height="0.5em"
  fill="currentColor"
  viewBox="0 0 130 130"
  xmlns="http://www.w3.org/2000/svg"
    >
      <path
        d="M6.3,29.9c-0.1,3.2,0.1,6.3,0.2,9.4c0.4,9.1,1.3,18.2,3.5,27.1c0.9,3.5,2,7,3.9,10.2c0.6,1.1,1.4,2.1,2.3,3
        c1.5,1.5,3.3,2.3,5.6,2.3c13.9,0,27.9,0,41.8,0c2.1,0,3.1,0.7,3.2,2.1c0,1.5-1,2.2-3.2,2.2c-13.5,0-27.1-0.1-40.6,0.1
        c-5.6,0.1-9.3-2.3-12.1-6.8c-3-4.9-4.6-10.3-5.8-15.9c-2.3-11-2.9-22.2-3-33.5c0-3.5,2.8-5.5,6.2-4.2c4.4,1.6,8.9,2.9,13.5,4
        c0.9,0.2,1.2,0,1.4-0.9c2-7.8,5.4-14.9,11.2-20.6c3.9-3.8,8.4-6.5,13.9-7.2C55,0.3,60.9,2.5,66,6.8c6.5,5.4,10.2,12.6,12.6,20.6
        c0.8,2.8,0.8,2.8,3.7,2.1c4-0.9,7.8-2.1,11.6-3.5c3.5-1.3,6.3,0.7,6.2,4.4c-0.1,4.3-0.3,8.6-0.4,12.9c-0.1,1.6-1,2.6-2.3,2.5
        c-1.3-0.1-2.1-1.1-2-2.7c0.1-4,0.3-8,0.5-12.1c0-1-0.1-1.3-1.2-0.9c-9.6,3.4-19.4,5.6-29.5,6.4c-1,0.1-1.4,0.3-1.3,1.4
        c0.1,5.2,0,10.4,0,15.6c0,5.6-3.6,9.2-9.2,9.3c-2.5,0-4.9,0-7.4,0c-5.5,0-9.1-3.6-9.1-9.1c0-5.3,0-10.7,0-16c0-0.8-0.2-1.1-1-1.2
        c-10.4-0.8-20.5-3.1-30.3-6.5C6.7,30,6.5,30,6.3,29.9z M51,33c3.7,0,7.4-0.1,11.2-0.4c0.9-0.1,1-0.4,0.9-1.2
        c-0.7-5.8-1.9-11.6-4.1-17.1c-1.1-2.6-2.4-5.2-4.4-7.2c-2.4-2.4-4.8-2.4-7.2,0c-1.2,1.2-2.2,2.7-3,4.2c-3.3,6.3-4.6,13.2-5.5,20.2
        c-0.1,0.8,0.2,1,0.9,1.1C43.6,32.8,47.3,33,51,33z M42.5,46.1c0,2.6,0,5.2,0,7.7c0,0.1,0,0.2,0,0.3c0,2.6,1.8,4.4,4.4,4.4
        c2.8,0,5.5,0,8.3,0c2.6,0,4.4-1.8,4.4-4.4c0-5.4,0-10.8,0-16.1c0-0.7-0.1-1.1-1-1c-5,0.3-10.1,0.3-15.1,0c-0.8-0.1-1,0.2-1,1
        C42.6,40.7,42.5,43.4,42.5,46.1z M61,8.4c0.9,2,1.7,3.6,2.3,5.4c2.1,5.6,3.3,11.3,4,17.2c0.1,0.8,0.3,1.1,1.2,1
        c1.9-0.3,3.8-0.6,5.8-0.8c0.8-0.1,0.8-0.4,0.6-1.1c-1.2-4.5-2.9-8.8-5.4-12.8C67.3,13.8,64.7,10.8,61,8.4z M40.8,8.6
        c-0.3,0.2-0.6,0.3-0.8,0.5c-0.9,0.7-1.7,1.4-2.5,2.1c-5.4,5.2-8.4,11.7-10.3,18.9c-0.2,0.8,0.1,1,0.8,1.1c1.9,0.3,3.8,0.5,5.6,0.8
        c0.8,0.1,1.1,0,1.2-0.9C35.7,23.3,37.3,15.7,40.8,8.6z"
      />
      <path
        d="M106.5,113.9c0-5.5,0.2-11-1.2-16.4c-0.7-2.8-1.6-5.5-2.8-8.1c-0.4-0.9-0.6-1.1-1.5-0.4c-5.1,4.5-9.2,9.8-12.6,15.6
        c-2.6,4.4-5.1,8.7-7.7,13.1c-0.6,1-1.3,2-1.9,3c-3.6,5.7-8.7,8.3-15.4,8.2c-10.1-0.1-20.2,0-30.4,0c-3.6,0-7.2-0.5-10.6-1.5
        c-0.6-0.2-1.1-0.4-1.7-0.6c-3.8-1.4-5.7-5-4.6-9c0.9-3.3,2.9-5.9,5.1-8.4c4.4-5,9.8-8.6,16.2-10.4c1.8-0.5,3.4-0.3,5.1,0.7
        c4,2.4,8.2,3.6,12.9,2.4c3.6-0.9,6.4-3.1,8.5-6.1c4.8-6.7,9.5-13.5,14.4-20.1c9.4-12.9,19.8-24.9,31.9-35.4c3.5-3,7.3-2.7,10.2,0.9
        c4.3,5.4,6.5,11.7,7.3,18.5c0.4,3.4,0.5,6.8,0.2,10.3c-0.2,2.7-1.2,5.3-1.9,7.9c-1.3,5.2-3.1,10.4-4,15.7c-0.4,2.5-0.6,5-0.6,7.5
        c0,7.5,0,14.9,0,22.4c0,3.5-1.6,5.1-5.1,5.1c-1.8,0-3.6,0-5.3,0c-2.7,0-4.4-1.8-4.5-4.5C106.5,121,106.5,117.5,106.5,113.9z
        M47.7,124.7C47.7,124.7,47.7,124.7,47.7,124.7c5.2,0,10.4-0.1,15.6,0c5.3,0.2,9.2-2,12-6.4c1.9-3.1,3.7-6.3,5.5-9.4
        c3.9-6.6,7.7-13.2,13-18.8c8-8.5,17.6-14.8,28.2-19.5c1.2-0.5,1.7-1.2,1.7-2.5c0-2,0-4-0.2-6c-0.6-6.5-2.4-12.5-6.5-17.7
        c-1.5-1.9-2.4-2-4.3-0.4c-11.9,10.3-22.1,22.2-31.4,34.9c-4.9,6.7-9.6,13.6-14.6,20.3c-2.9,4-6.8,6.7-11.8,7.5
        c-5.2,0.9-10.1-0.4-14.6-3c-0.9-0.5-1.6-0.6-2.5-0.3c-1.9,0.5-3.7,1.3-5.3,2.3c-5.1,2.9-9.3,6.7-11.9,12c-1.5,2.9-0.7,4.5,2.3,5.5
        c3.1,1,6.3,1.5,9.6,1.5C37.7,124.7,42.7,124.7,47.7,124.7z M122.4,75.1c-6,2.8-11.4,6.1-16.4,9.8c-0.5,0.4-0.6,0.7-0.3,1.3
        c3.7,7.4,5.2,15.2,5,23.4c-0.1,4.6,0,9.2,0,13.8c0,1,0.3,1.3,1.3,1.2c1.3-0.1,2.6-0.1,3.9,0c1.1,0.1,1.2-0.3,1.2-1.3
        c0-6.9,0-13.8,0-20.7c-0.1-5.6,0.7-11.1,2.3-16.5C120.5,82.6,121.4,79,122.4,75.1z"
      />
      <path
        d="M24.4,77.8c-0.5,0-1.1-0.1-1.6,0c-2.3,0.3-3.8-0.8-4.9-2.7c-1.2-1.9-2-4-2.7-6.1c-0.4-1.2,0.2-2.3,1.3-2.7
        c1.1-0.4,2.3,0.1,2.7,1.4c0.6,1.6,1.2,3.2,2,4.8c0.4,0.8,1,1.2,1.9,1.1c1.4-0.1,2.8,0,4.2,0c1.5,0,2.3,0.9,2.4,2.1
        c0,1.3-0.9,2.1-2.4,2.2C26.3,77.8,25.3,77.8,24.4,77.8z"
      />
      <path
        d="M51.1,47.9c0.8,0,1.5-0.1,2.3,0c1.1,0.1,1.8,0.7,1.9,1.8c0.1,1.1-0.5,2.1-1.6,2.3c-1.7,0.3-3.5,0.3-5.3,0
        c-1.1-0.2-1.7-1.1-1.6-2.2c0.1-1.1,0.9-1.8,2-1.9C49.6,47.9,50.3,47.9,51.1,47.9C51.1,47.9,51.1,47.9,51.1,47.9z"
      />
      <path
        d="M28,120.1c-0.8-0.1-1.5-0.4-1.8-1.2c-0.4-0.7-0.4-1.5,0.1-2.2c2.7-3.5,6-6.4,10.2-8.2c1.1-0.5,2.2,0,2.7,0.9
        c0.5,1,0.2,2.3-0.9,2.8c-3.4,1.6-6.2,4-8.6,6.9C29.2,119.8,28.6,120,28,120.1z"
      />
    </svg>