<svg
  width="0.5em"
  height="0.5em"
  fill="currentColor"
  xmlns="http://www.w3.org/2000/svg"
  viewBox="0 0 130 130"
    >
      <path
        d="M94.9,8.4c4.1,0,8.3,0,12.4,0c16,0,26.3,15.9,19.8,30.5c-2,4.6-4.2,9.2-6.4,13.7c-0.4,0.8-0.3,1.4,0.2,2.1
        c9.9,14.8,5.2,35-10.1,44.1c-0.8,0.5-1.6,0.7-2.5,0.7c-4.2,0-8.4,0-12.6,0c-1.8,0-2.7-0.7-2.8-2c0-1.4,0.9-2,2.8-2
        c4,0,7.9,0,11.9,0c0.6,0,1.2-0.1,1.8-0.5c9.5-6,14.5-17.7,12-28.7c-2.6-11.5-11.7-19.9-23.2-21.4c-12.2-1.5-23.4,4.8-28.4,16
        c-0.1,0.2-0.2,0.5-0.3,0.7c-0.6,1.2-1.6,1.6-2.6,1.2c-1.1-0.5-1.5-1.6-1-2.8c0.8-2,1.9-4,3.2-5.8c0.4-0.6,0.4-1,0.1-1.6
        c-2.1-4.6-4.3-9.1-6.4-13.7C57,26.1,64.2,11.9,77.9,8.8c1.5-0.3,3-0.4,4.5-0.4C86.5,8.4,90.7,8.4,94.9,8.4z M72.3,50
        c1.1-0.9,2.1-1.9,3.1-2.7c0.6-0.5,0.8-0.8,0.4-1.6c-1.6-3.4-3.2-6.9-4.8-10.3c-4-8.8,1.9-18,11.6-18c5.3,0,10.5,0,15.8,0
        c0.3,0,0.7,0,1,0c0.9,0.1,1.5,0.7,1.6,1.6c0.2,1-0.3,1.7-1.2,2.1c-0.5,0.2-1.1,0.2-1.6,0.2c-5.2,0-10.4,0-15.6,0
        c-6.7,0-10.7,6.2-7.9,12.3c1.5,3.3,3.1,6.6,4.5,9.9c0.4,0.9,0.7,0.8,1.5,0.5c9.5-4.6,18.9-4.5,28.4,0.1c0.8,0.4,1.1,0.4,1.5-0.5
        c1.5-3.3,3.1-6.6,4.6-10c2.7-6.1-1.2-12.2-7.9-12.3c-0.8,0-1.7,0.1-2.5-0.1c-1.1-0.2-1.7-0.9-1.6-2c0.1-1.1,0.7-1.8,1.8-1.9
        c1.6-0.1,3.3-0.2,4.9,0.1c8.2,1.6,12.5,10,9.1,17.6c-1.6,3.6-3.3,7.2-5,10.8c-0.4,0.7-0.3,1.1,0.4,1.6c0.9,0.6,1.7,1.4,2.4,2.1
        c0.5,0.5,0.7,0.5,1-0.2c2-4.3,4.1-8.6,5.9-12.9c4.8-11.4-3.4-23.9-15.8-24.1c-8.7-0.1-17.3-0.2-26,0c-7.4,0.2-12.7,3.9-15.7,10.6
        c-1.7,3.8-2,7.9-0.6,11.8C67.4,40.1,70.1,44.9,72.3,50z"
      />
      <path
        d="M38.5,97.2c0.1-3.5,0.5-6.7,1.5-9.9c0.2-0.7,0.1-1-0.6-1.4c-2.6-1.4-5.2-3-7.9-4.3c-2.5-1.2-3.4-3.2-3.1-5.8
        c0.3-2.8,1.6-5.1,4-6.7c1.5-1,3.1-1.1,4.7-0.2c2.9,1.7,5.9,3.2,8.7,4.8c0.8,0.5,1.2,0.4,1.9-0.3c3.5-3.9,7.7-6.9,12.9-8.1
        c3.4-0.8,6.8-0.5,10,1c3.5,1.6,6.9,3.3,10.4,4.8c6,2.5,9,7.2,10.1,13.3c2.3,13-4.6,27.8-16,34.4c-5.2,3-10.7,3.7-16.3,0.9
        c-3.2-1.6-6.4-3.1-9.6-4.4c-6.1-2.5-9.1-7.3-10.3-13.5C38.7,100.2,38.6,98.6,38.5,97.2z M54.6,102.3c0.1,1.7,0.2,3.4,0.4,5
        c0.7,4.6,4.3,8.9,8.3,9.8c3.6,0.8,6.9,0.2,10.1-1.7c7-4.4,11.3-10.8,13.3-18.6c1.4-5.1,1.6-10.3-0.5-15.3c-2-4.7-6.2-7.4-10.8-6.9
        c-2.6,0.3-5.1,1.1-7.2,2.6C59.4,83.2,55.2,91.8,54.6,102.3z M71.2,71.2c-4.8-3.1-9.6-2.9-14.4-0.1c-4,2.3-7.1,5.6-9.5,9.6
        c-3.9,6.5-5.9,13.5-4.4,21.1c1,5.2,4,8.8,9.3,10.4c-2.9-8.3-2-16.2,1.6-24C57.5,80.3,63,74.4,71.2,71.2z M35,72.4
        c-0.2,0-0.3,0.1-0.4,0.1c-1.3,0.5-2.6,3.4-2.2,4.7c0.1,0.3,0.3,0.5,0.6,0.6c2.7,1.5,5.3,2.9,8,4.4c0.7,0.4,0.8,0.1,1.1-0.4
        c0.6-1.2,1.2-2.4,1.9-3.5c0.4-0.6,0.3-0.9-0.3-1.2c-2.7-1.4-5.4-2.9-8.1-4.4C35.5,72.6,35.2,72.5,35,72.4z"
      />
      <path
        d="M33.8,50.6c-4.9-2.8-9.8-3.1-14.7,0.1C9.8,56.9,5.2,65.8,5,76.9C5,78.9,5.2,81,5.8,83c1.3,4.1,4.1,6.8,9,8.7
        c-0.6-1.8-1.3-3.6-1.5-5.4c-0.1-1.2-0.3-2.5-0.3-3.7c0-1.4,0.8-2.2,2-2.2c1.2,0,1.9,0.8,2,2.1c0.1,2.8,0.6,5.5,1.8,8
        c2.7,5.7,8.7,8,14.5,5.6c0.3-0.1,0.6-0.3,0.9-0.4c1.1-0.4,2.2,0,2.6,1c0.5,1,0.1,2.2-1.1,2.7c-4,1.8-8.2,2.5-12.4,0.7
        c-4.7-2-9.4-4.1-13.9-6.4c-4.8-2.5-7-7-8-12.1C-1,68.1,6.4,52.9,18.4,46.4c4.8-2.6,9.7-2.7,14.7-0.6c3.8,1.7,7.6,3.4,11.3,5.2
        c5.6,2.8,8.7,7.6,9.5,13.8c0.1,1.2-0.6,2.2-1.7,2.3c-1.2,0.1-2.1-0.6-2.3-1.9c-0.5-3.9-2.2-7.1-5.4-9.5c-3.1-2.3-6.4-2.3-9.9-1.2
        c-4.6,1.5-8.1,4.6-11,8.4c-2.9,3.8-4.9,8.1-6,12.8c-0.3,1.5-1.2,2.2-2.4,2c-1.2-0.2-1.9-1.3-1.6-2.6c2.7-11.1,8.5-19.6,19.4-24.1
        c0.2-0.1,0.4-0.2,0.6-0.3C33.7,50.8,33.7,50.7,33.8,50.6z"
      />
      <path
        d="M94.8,57.4c7.6,0,14.1,6.1,14.4,13.5c0.4,8.1-5.3,14.8-13.2,15.6c-0.4,0-0.8,0.1-1.1,0c-1.1-0.1-1.9-0.9-1.9-1.9
        c0-1,0.7-1.9,1.8-2c1-0.1,2-0.2,2.9-0.5c4.7-1.4,7.6-5.6,7.5-10.6c-0.1-4.6-3.5-8.6-8.1-9.7c-4.6-1.1-9.4,1.1-11.7,5.2
        c-0.2,0.3-0.3,0.6-0.5,0.9c-0.6,1-1.7,1.4-2.7,0.9c-1-0.5-1.4-1.6-0.9-2.7c2-4.4,5.4-7.2,10.1-8.3C92.7,57.5,93.7,57.4,94.8,57.4z"
      />
    </svg>