  <svg
    width="0.5em"
    height="0.5em"
    fill="currentColor"
    viewBox="0 0 130 130"
    xmlns="http://www.w3.org/2000/svg"
  >
    <path
      d="M92.4,56.6c2,0,4.1,0,6.1,0c17.7,0.3,31.7,15.6,30.4,33.2c-1.1,16.3-14.3,29.1-30.6,29.2c-12.6,0.1-22-5.7-28.1-16.7
      c-0.5-1-1.1-1.4-2.2-1.3c-2.1,0.1-4.2,0.1-6.2,0c-0.9,0-1.4,0.3-1.8,1.1c-4.9,9.2-12.5,14.8-22.8,16.6C21,121.4,5,110.4,1.7,94.4
      C-2,76.8,9.3,60.1,27,57c1.9-0.3,4-0.3,5.9-0.4c1.5-0.1,3.1,0,4.6,0c0.1-1.1-0.3-1.6-1.3-1.7c-1.2-0.2-2.4-0.4-3.6-0.7
      c-2.4-0.5-3.6-1.9-3.6-4.4c0-2,0-4,0-6c0-2.2,1.2-3.6,3.3-4c1.5-0.3,3.4-0.2,4.5-1.1c1.1-0.8,1.2-2.7,2-4c0.6-1.1,0.6-2-0.2-3
      c-0.7-0.9-1.3-1.9-1.9-2.8c-1-1.7-0.9-3.4,0.5-4.9c1.5-1.6,3.1-3.2,4.7-4.7c1.4-1.4,3.1-1.5,4.9-0.4c1.2,0.8,2.4,1.6,3.7,2.3
      c0.4,0.2,1,0.2,1.4,0.1c1.4-0.5,2.7-1,4-1.7c0.5-0.2,1-0.8,1.1-1.3c0.4-1.3,0.5-2.7,0.8-4c0.5-2,1.8-3.2,3.8-3.2
      c2.2-0.1,4.3-0.1,6.5,0c2,0.1,3.4,1.2,3.9,3.2c0.4,1.6,0.3,3.6,1.2,4.8c0.9,1.1,2.9,1.3,4.3,2c0.9,0.5,1.5,0.5,2.3-0.1
      c1-0.8,2-1.4,3-2c1.9-1.2,3.6-1,5.2,0.5c1.5,1.4,3,2.9,4.4,4.4c1.5,1.6,1.7,3.3,0.5,5.2c-0.7,1.1-1.5,2.2-2.1,3.3
      c-0.2,0.5-0.3,1.2-0.1,1.7c0.4,1.3,1,2.6,1.6,3.9c0.2,0.5,0.8,1,1.3,1.1c1.3,0.4,2.7,0.5,4,0.9c2,0.5,3.2,1.9,3.2,4
      c0,2.1,0,4.3,0,6.4c0,2-1.1,3.3-3,3.8c-1.4,0.3-2.7,0.6-4.1,0.9C92.6,55.1,92.6,55.1,92.4,56.6z M65.1,60.4c-10.8,0-21.5,0-32.3,0
      c-1.2,0-2.4,0-3.5,0.1C14.2,62.3,3.8,75,4.9,90.2c1,14.1,13.6,25.5,27.7,25c11.3-0.4,19.5-5.9,24.5-16.1c0.7-1.4,1.5-2,3-1.9
      c3.3,0.1,6.5,0.1,9.8,0c1.4,0,2.2,0.5,2.8,1.8c5.5,11.8,17.3,18,30.1,15.8c14.3-2.5,24.5-16.9,22-31.2
      c-2.4-13.8-13.5-23.2-27.6-23.2C86.6,60.3,75.9,60.4,65.1,60.4z M97,43.6c-1.9-0.4-3.7-0.8-5.6-1.2c-1.2-0.2-1.8-0.9-2.3-2
      c-0.7-2-1.5-4-2.4-5.9c-0.6-1.2-0.6-2.1,0.2-3.1c1.1-1.5,2-3.1,3.1-4.7c-1.6-1.6-3.2-3.1-4.9-4.6c-1.5,0.9-3.1,2-4.6,3
      c-1,0.7-1.9,0.7-3,0.2c-1.9-0.9-4-1.8-6-2.5c-1.1-0.4-1.7-0.9-1.9-2c-0.3-1.6-0.6-3.3-1-4.9c-0.1-0.4-0.6-0.9-1-0.9
      c-1.9-0.1-3.8,0-5.8,0c-0.4,1.9-0.9,3.9-1.2,5.8c-0.2,1.1-0.8,1.7-1.9,2c-2.1,0.7-4.1,1.6-6.1,2.5c-1,0.5-1.9,0.5-2.8-0.1
      c-1.6-1.1-3.2-2.1-4.9-3.2c-1.6,1.6-3.1,3.2-4.7,4.9c1,1.5,2,3.2,3.1,4.8c0.6,0.9,0.6,1.8,0.1,2.8c-0.9,2-1.8,4.1-2.5,6.1
      c-0.4,1-0.9,1.7-2,1.9c-1.6,0.3-3.2,0.6-4.8,1c-0.4,0.1-1,0.5-1,0.8c-0.1,2,0,4.1,0,6.1c1.5,0.3,2.9,0.7,4.3,0.9
      c2.2,0.2,3.6,1.2,3.9,3.5c0,0.2,0.2,0.4,0.2,0.6c0.2,1,0.8,1.3,1.8,1.3c2.6-0.1,5.2,0,7.7,0c0.4,0,0.8,0,1.4,0
      c-5.8-8.8-2.5-17.2,1.9-21.3c5.4-4.9,13.2-5.7,19.3-1.7c3,1.9,5.1,4.6,6.3,7.9c1.9,5.3,1,10.3-2.3,15.1c2.6,0,5,0,7.3,0
      c3.3,0,3.3,0,4.3-3.1c0.4-1.2,1-1.8,2.3-2c1.9-0.3,3.7-0.7,5.6-1.1C97,48,97,45.9,97,43.6z M65,56.5c2,0,4.1,0,6.1,0
      c0.6,0,1.3-0.2,1.7-0.6c2.7-2.3,4.1-5.2,4.2-8.8c0.1-5.6-3.6-10.5-9-11.9c-5.3-1.4-11,1.1-13.6,5.9c-2.6,4.8-1.7,10.8,2.5,14.5
      c0.6,0.5,1.5,0.8,2.3,0.9C61.1,56.6,63.1,56.5,65,56.5z"
    />
    <path
      d="M54.2,87.8c0,12-9.8,21.7-21.8,21.7c-12,0-21.7-9.9-21.7-21.8c0-12,9.8-21.7,21.8-21.7C44.5,66.1,54.2,75.8,54.2,87.8z
      M32.4,69.8c-9.9,0-17.9,8.1-17.9,18c0,9.9,8.1,17.9,18,17.9c9.9,0,17.9-8.1,17.9-18C50.4,77.8,42.4,69.8,32.4,69.8z"
    />
    <path
      d="M97.8,109.5c-4.5,0-8.2-3.7-8.2-8.2c0-4.5,3.7-8.2,8.2-8.2c4.5,0,8.2,3.7,8.2,8.2C106,105.8,102.2,109.5,97.8,109.5z
      M102.2,101.4c0-2.4-2-4.4-4.4-4.4c-2.4,0-4.4,2-4.4,4.4c0,2.4,2,4.4,4.4,4.4C100.1,105.8,102.1,103.7,102.2,101.4z"
    />
    <path
      d="M84.2,79.6c4.5,0,8.2,3.7,8.2,8.2c0,4.5-3.7,8.2-8.2,8.2c-4.5,0-8.2-3.7-8.2-8.2C76,83.2,79.7,79.6,84.2,79.6z M84.1,83.4
      c-2.4,0-4.4,2-4.4,4.4c0,2.4,2.1,4.4,4.4,4.4c2.4,0,4.4-2.1,4.4-4.4C88.6,85.3,86.6,83.4,84.1,83.4z"
    />
    <path
      d="M97.7,66c4.5,0,8.2,3.6,8.2,8.1c0,4.5-3.7,8.2-8.2,8.2c-4.5,0-8.2-3.7-8.2-8.2C89.5,69.7,93.2,66.1,97.7,66z M97.7,69.9
      c-2.4,0-4.4,2-4.4,4.4c0,2.4,2,4.4,4.4,4.4c2.4,0,4.4-2,4.4-4.4C102.1,71.8,100.2,69.8,97.7,69.9z"
    />
    <path
      d="M111.3,79.6c4.5,0,8.2,3.6,8.2,8.2c0,4.5-3.7,8.2-8.2,8.2c-4.5,0-8.2-3.7-8.2-8.2C103.1,83.3,106.8,79.6,111.3,79.6z
      M111.3,83.4c-2.4,0-4.4,2-4.4,4.4c0,2.4,2,4.4,4.4,4.4c2.4,0,4.4-2,4.4-4.4C115.7,85.3,113.7,83.4,111.3,83.4z"
    />
    <path
      d="M34.3,89.7c0,2.6,0,5.1,0,7.6c0,1-0.4,1.8-1.4,2.1c-1.3,0.4-2.4-0.5-2.4-2.1c0-2.4,0-4.9,0-7.6c-1.6,0-3.2,0-4.7,0
      c-0.9,0-1.9,0-2.8,0c-1.3,0-2.2-0.8-2.2-1.9c0-1.1,0.9-1.9,2.2-1.9c2.5,0,4.9,0,7.6,0c0-2.4,0-4.7,0-7c0-0.5,0-1,0.2-1.5
      c0.3-0.9,1-1.4,2-1.2c1,0.1,1.6,0.8,1.6,1.8c0,2,0,4.1,0,6.1c0,0.5,0,1.1,0,1.8c2.3,0,4.6,0,6.8,0c2.1,0,3,0.6,2.9,1.9
      c0,1.3-0.9,1.9-3,1.9C38.9,89.7,36.7,89.7,34.3,89.7z"
    />
  </svg>