<svg
	width="0.5em"
	height="0.5em"
	fill="currentColor"
	viewBox="0 0 130 130"
	xmlns="http://www.w3.org/2000/svg"
>
	<path
	d="M91.7,62.2c1.8,2.4,3.5,4.7,5.7,7.6c0.8-1.1,1.3-2,2-2.8c4-3.8,9.5-3.9,13.5-0.1c1.6,1.5,3.1,3.1,4.6,4.6
	c1.8,1.9,1.8,3.4,0,5.3c-2.7,2.8-5.5,5.5-8.4,8.4c0.6,0.6,1.1,1.2,1.5,1.7c4.9,5,9.9,9.9,14.8,14.9c4.6,4.6,4.6,10.1,0,14.7
	c-1,1-1.9,2-2.9,2.9c-4.1,4-9.7,4-13.8,0c-5.1-5-10.1-10.1-15.1-15.1c-0.5-0.5-0.9-1.1-1.5-1.9c-2.9,2.9-5.4,5.5-8,8.1
	c-0.6,0.6-1.4,1.6-2.2,1.6c-1.2,0.1-2.6-0.2-3.5-0.9c-1.7-1.3-3.2-3-4.7-4.6c-4-4.2-3.9-9.7,0.1-13.8c0.7-0.7,1.6-1.2,2.6-1.9
	c-4.2-3.1-7.8-5.8-11.4-8.6c-3.6,2.7-7.2,5.4-11.6,8.7c1.1,0.7,2,1.1,2.7,1.7c4.1,4.2,4.1,9.8,0.1,14c-1.4,1.5-2.9,2.9-4.3,4.3
	c-2,1.9-3.5,1.9-5.5-0.1c-2.7-2.6-5.3-5.3-8-8c0,0-0.1-0.1-0.4-0.2c-0.5,0.4-1,0.9-1.5,1.4c-5,4.9-9.9,9.9-14.9,14.8
	c-4.7,4.7-10.1,4.6-14.8,0C5.9,118,5,117,4,116.1c-4.1-4.2-4.1-9.8,0-14c5.2-5.2,10.4-10.4,15.5-15.6c0.4-0.4,0.7-0.8,1.2-1.3
	c-2.7-2.7-5.4-5.3-8-8c-2.3-2.3-2.3-3.7,0-6c1.3-1.3,2.5-2.5,3.8-3.8c4.4-4.4,10-4.4,14.4-0.1c0.6,0.6,1,1.4,1.8,2.3
	c2.1-2.8,3.8-5,5.6-7.5c-0.7-0.5-1.2-1-1.8-1.4c-6.7-5-13.4-10.1-20.1-15.1c-1.5-1.1-2.2-2.4-2.2-4.3c0.1-9.8,0-19.7,0-29.5
	c0-3.2,1-4.3,4.3-4.3c9.8,0,19.7,0,29.5,0c1.9,0,3.2,0.6,4.3,2.2c3.7,5.1,7.5,10.1,11.3,15.1c0.4,0.5,0.8,1,1.3,1.7
	c0.5-0.5,0.9-1,1.2-1.4c3.9-5.2,7.8-10.3,11.6-15.5c1-1.3,2.2-2,3.9-1.9c10,0,20.1,0,30.1,0c2.8,0,4,1.1,4,4c0,10,0,20.1,0,30.1
	c0,1.8-0.7,3-2.1,4c-6.8,5-13.5,10.1-20.3,15.2C92.9,61.3,92.4,61.7,91.7,62.2z M45.8,39.3c0-8.5,0-16.8,0-25.1
	c-8.5,0-16.8,0-25.1,0c0,8.4,0,16.7,0,25.1C29.1,39.3,37.4,39.3,45.8,39.3z M109.3,14.1c-8.5,0-16.8,0-25.2,0c0,8.5,0,16.8,0,25.1
	c8.5,0,16.8,0,25.2,0C109.3,30.8,109.3,22.5,109.3,14.1z M41.3,77.5c0.2-0.2,0.4-0.3,0.6-0.5C53.6,65.3,65.2,53.7,76.8,42
	c0.5-0.5,0.8-1.5,0.8-2.2c0.1-5.9,0-11.8,0-17.6c0-0.4-0.1-0.8-0.2-1.5C64,38.6,50.8,56.2,37.6,73.8C38.8,75.1,40,76.2,41.3,77.5z
	M49.6,85.8c17.7-13.3,35.3-26.5,52.9-39.7c-6.3-0.4-12.4-0.3-18.4-0.4c-1.4,0-2.3,0.4-3.3,1.4C69.6,58.3,58.4,69.5,47.2,80.7
	c-0.5,0.5-0.9,0.9-1.3,1.4C47.1,83.3,48.3,84.5,49.6,85.8z M25.1,90.1c-5.5,5.5-11.2,11.1-16.7,16.7c-1.4,1.4-1.3,3.1,0,4.6
	c1,1.1,2.1,2.2,3.2,3.2c1.9,1.8,3.5,1.8,5.3,0c3.9-3.9,7.8-7.8,11.8-11.7c1.6-1.6,3.2-3.1,4.7-4.5C30.5,95.5,27.9,92.9,25.1,90.1z
	M96.7,98.3c5.5,5.5,11.1,11.1,16.6,16.6c1.6,1.5,3.2,1.5,4.9-0.1c1-0.9,2-1.9,2.9-2.9c2-2,2-3.6-0.1-5.6c-4.6-4.7-9.3-9.3-14-14
	c-0.8-0.8-1.4-1.8-1.9-2.5C102.1,92.8,99.5,95.5,96.7,98.3z M111,74.1c-0.3-0.3-0.7-0.7-1-1.1c-3.3-3.3-4.2-3.3-7.4,0
	c-7.4,7.4-14.8,14.8-22.2,22.2c-4.3,4.3-4.3,4.9,0.3,9.1c0.1,0.1,0.2,0.1,0.2,0.1C90.8,94.2,100.8,84.2,111,74.1z M49.7,104.6
	c0.4-0.6,0.9-1.4,1.5-2c2.2-2.3,2.2-3.7,0-5.9c-2.6-2.6-5.2-5.2-7.8-7.8c-5.6-5.6-11.3-11.3-16.9-16.9c-1.3-1.3-2.8-1.8-4.4-0.8
	c-1.2,0.8-2.3,1.9-3.2,2.7C29.3,84.2,39.3,94.2,49.7,104.6z M27.7,45.7c-0.1,0.1-0.1,0.3-0.2,0.4c4.9,3.6,9.7,7.3,14.7,11
	c2.5-3.4,4.9-6.5,7.5-9.9c-1-0.6-1.8-1.4-2.6-1.4C40.6,45.7,34.1,45.7,27.7,45.7z M61,32c-2.8-3.8-5.6-7.4-8.4-11.1
	c-0.2,0.3-0.3,0.4-0.3,0.5c0,6.3,0,12.7,0,19c0,0.6,0.4,1.2,0.8,2.2C55.9,38.7,58.4,35.4,61,32z M84.2,82.1c-2.5-2.5-5-5-7.6-7.5
	c-0.2-0.2-0.9-0.3-1.1-0.2c-1.7,1.2-3.3,2.5-5.1,3.9c3.5,2.7,6.9,5.1,10.1,7.5C81.7,84.5,82.9,83.3,84.2,82.1z M86.6,66
	c-1.8,1.4-3.6,2.7-5.1,3.8c2.5,2.6,5,5,7.3,7.4c1.1-1.1,2.3-2.3,3.5-3.5C90.5,71.2,88.6,68.7,86.6,66z"
	/>
</svg>
