<svg
    width="0.5em"
    height="0.5em"
    fill="currentColor"
    viewBox="0 0 130 130"
    xmlns="http://www.w3.org/2000/svg"
  >
    <path
      d="M27.1,129c0-13.7,0-27.4,0-41.1c24.7,0,49.4,0,74.1,0c0,13.7,0,27.3,0,41.1C76.6,129,51.9,129,27.1,129z M97.2,92
      c-8.3,0-16.5,0-24.6,0c0,11,0,21.9,0,32.8c8.3,0,16.4,0,24.6,0C97.2,113.9,97.2,103,97.2,92z M31.3,124.9c8.3,0,16.4,0,24.6,0
      c0-11,0-21.9,0-32.9c-8.3,0-16.4,0-24.6,0C31.3,103,31.3,113.9,31.3,124.9z M60.2,92c0,11,0,22,0,32.8c2.8,0,5.4,0,8.1,0
      c0-11,0-21.9,0-32.8C65.6,92,62.9,92,60.2,92z"
    />
    <path
      d="M1.9,32.5c7.1-1.9,14.1-3.8,21.3-5.7c-0.5-0.3-0.7-0.5-1-0.8c-3.3-2.4-4.6-5.6-4-9.5c0.6-3.5,3.5-6.5,7-7.3
      c3.9-0.9,7.2,0.4,9.7,3.5c1.3,1.7,2.5,3.5,3.9,5.5c0.2-2.3,0.4-4.3,0.5-6.3c0.3-3.9,2.7-7.1,6.3-8.3c3.7-1.2,7.6-0.1,10.1,2.8
      c2.5,2.9,3,6.9,1.2,10.4c-0.1,0.3-0.3,0.5-0.5,1c7.2-1.9,14.2-3.8,21.3-5.7c1.4,5.3,2.8,10.6,4.3,16C56.6,34.9,31.5,41.6,6.1,48.4
      C4.7,43.1,3.3,37.9,1.9,32.5z M9.1,43.3c22.7-6.1,45.1-12.1,67.8-18.2c-0.7-2.7-1.4-5.3-2.2-8C52,23.3,29.5,29.3,6.9,35.4
      C7.7,38,8.3,40.6,9.1,43.3z M36.6,22.6c-1.9-2.8-3.6-5.3-5.4-7.7c-1.5-2-4.1-2.4-6.3-1.4c-2.1,1-3.3,3.3-2.8,5.7
      c0.4,2.4,2.4,4.3,4.8,4.2C30.1,23.3,33.2,22.9,36.6,22.6z M42.6,21c3.1-1.4,5.9-2.6,8.6-4.1c2.1-1.1,3-3.6,2.3-5.9
      c-0.7-2.3-2.9-3.8-5.3-3.7c-2.3,0.1-4.5,1.9-4.8,4.1C43,14.5,42.9,17.6,42.6,21z"
    />
    <path
      d="M104.9,28.4c0.4-2.9,0.6-5.6,1-8.3c0.2-1,0-1.8-0.8-2.5c-1.9-1.9-3.7-3.9-5.7-6.1c2.3-0.5,4.3-1.1,6.4-1.2
      c2.4-0.2,3.8-1.3,4.8-3.5c0.8-1.9,2-3.7,3.1-5.8c0.4,0.8,0.8,1.4,1.1,2c0.5,1,1.2,1.9,1.6,2.9c1,3.1,3.2,4.3,6.3,4.5
      c1.7,0.1,3.4,0.6,5.3,1c-0.8,0.9-1.4,1.6-2.1,2.3c-1.3,1.4-2.5,2.8-3.9,4.1c-0.7,0.6-0.7,1.3-0.6,2.1c0.3,2.6,0.6,5.1,1,7.7
      c0,0.2,0,0.3,0,0.7c-2.3-1.1-4.5-2-6.6-3.1c-1.6-0.9-2.9-0.9-4.4,0C109.5,26.3,107.3,27.2,104.9,28.4z M109.9,21.4
      c2.6-1.8,5.1-2,7.7,0c-1.1-3.1-0.3-5.4,2.4-7.3c-3.3,0.1-5.2-1.4-6.3-4.5c-0.9,3.1-3,4.5-6.2,4.6C110.4,16,110.9,18.4,109.9,21.4z"
    />
    <path
      d="M111.6,40.4c0,1.4,0,2.6,0,4c-10.4-0.3-19.4,2.9-26.7,10.3c-7.4,7.3-10.6,16.3-10.4,26.8c-1.3,0-2.7,0-4,0
      C68.8,60.5,87,39.2,111.6,40.4z"
    />
    <path
      d="M76.5,47.9c-1.8,1.9-3.4,3.6-5,5.4c-0.4,0.4-0.7,1.2-0.6,1.8c0.2,2.3,0.5,4.7,0.9,7.3c-2.1-1-4.1-1.8-5.9-2.8
      c-1.2-0.6-2.2-0.6-3.3,0c-1.8,1-3.8,1.8-5.9,2.8c0.3-2.2,0.4-4.2,0.8-6.2c0.2-1.4,0.1-2.6-1.1-3.7c-1.5-1.4-2.8-3-4.4-4.6
      c2.5-0.5,4.7-1,6.9-1.3c0.9-0.2,1.5-0.6,1.9-1.4c1-2,2.2-4,3.4-6.2c1.1,2,2.2,3.9,3.2,5.8c0.6,1.2,1.3,1.8,2.7,2
      C72.2,46.9,74.2,47.4,76.5,47.9z M61.8,55.6c1.7-1.6,3.3-1.3,5-0.3c-0.8-2.1,0-3.5,1.5-4.8c-2.1,0.1-3.3-1-4.1-3.2
      c-0.7,2.3-1.9,3.3-3.9,3.2C61.8,53.1,61.8,53.1,61.8,55.6z"
    />
    <path
      d="M25.1,54.8c0-1.5,0-2.7,0-4c12.7-1.4,25.7,9.2,24.7,24.5c-1.3,0-2.6,0-4.1,0c0.3-5.8-1.3-10.9-5.5-15.1
      C36.1,56.1,31,54.5,25.1,54.8z"
    />
    <path
      d="M100.2,84.3c-1.3-0.6-2.4-1.2-3.5-1.8c3.5-8.5,12-16.7,27.3-15.3c0,1.3,0,2.6,0,4c-1.2,0-2.5,0-3.7,0
      c-8.9,0-15.4,3.9-19.5,11.9C100.7,83.6,100.5,83.9,100.2,84.3z"
    />
    <path
      d="M29.8,82.4c-1.1,0.7-2.2,1.4-3.5,2.1c-4.7-8.8-12.3-11.9-22-11c0-0.9,0-1.5,0-2.2c0-0.6,0-1.3,0-1.9
      C16.3,68.1,25.3,73.4,29.8,82.4z"
    />
    <path
      d="M99.3,30.1c-0.1,3.4-2.9,6.1-6.2,6.1c-3.4,0-6.2-2.9-6.1-6.3c0.1-3.4,2.9-6.2,6.4-6.1C96.7,23.9,99.4,26.8,99.3,30.1z
      M95.2,30c0-1.1-1-2-2.1-2c-1.1,0-2,1-2,2.1c0,1.1,1,2,2.1,2C94.3,32,95.2,31.1,95.2,30z"
    />
    <path
      d="M109.6,50.7c3.4,0,6.2,2.8,6.2,6.2c0,3.4-2.8,6.1-6.2,6.2c-3.4,0-6.2-2.8-6.2-6.2C103.5,53.5,106.2,50.7,109.6,50.7z
      M109.6,54.8c-1.1,0-2,1-2,2.1c0,1.1,1,2,2.1,2c1.1,0,2-1,2-2.1C111.7,55.7,110.7,54.8,109.6,54.8z"
    />
    <path
      d="M33.3,75.4c-3.4,0-6.2-2.8-6.2-6.2c0-3.4,2.8-6.1,6.2-6.2c3.4,0,6.2,2.8,6.2,6.2C39.5,72.6,36.7,75.4,33.3,75.4z
      M35.3,69.3c0-1.1-0.9-2.1-2-2.1c-1.1,0-2.1,0.9-2.1,2c0,1.1,0.9,2.1,2,2.1C34.3,71.3,35.3,70.4,35.3,69.3z"
    />
    <path
      d="M89,67.2c3.4,0,6.1,2.8,6.2,6.2c0,3.4-2.8,6.2-6.2,6.2c-3.4,0-6.2-2.9-6.2-6.3C82.9,69.9,85.7,67.2,89,67.2z M89,75.4
      c1.1,0,2.1-0.9,2.1-2c0-1.1-0.9-2.1-2-2.1c-1.1,0-2.1,0.9-2.1,2C86.9,74.5,87.9,75.4,89,75.4z"
    />
  </svg>
