
  <svg
    width="0.5em"
    height="0.5em"
    fill="currentColor"
    viewBox="0 0 130 130"
    xmlns="http://www.w3.org/2000/svg"
  >
    <path
      d="M66.2,129c-3.9-1.4-7.7-2.8-11.6-4.2c-8.2-2.9-16.4-5.8-24.6-8.8c-1.9-0.7-2.1-1-2.1-3c0-8.5,0-16.9,0-25.4
      c0-0.3,0-0.7,0-1c0.1-1.1,0.9-1.8,1.9-1.7c1.1,0.1,1.7,0.7,1.8,1.7c0.1,0.4,0,0.8,0,1.2c0,7.8,0,15.7,0,23.5c0,0.9,0.2,1.3,1.1,1.6
      c11,3.9,22,7.8,33,11.7c0.6,0.2,1.5,0.2,2.1,0c5.7-2,11.4-4.1,17.2-6.1c1.8-0.6,2.9-0.4,3.3,0.8c0.4,1.2-0.2,2.1-2,2.8
      c-6,2.1-11.9,4.2-17.9,6.4c-0.4,0.1-0.7,0.3-1.1,0.5C67.1,129,66.7,129,66.2,129z"
    />
    <path
      d="M63.5,76c-4.5-1.6-8.8-3.1-13-4.7c-6.3-2.2-12.5-4.5-18.8-6.7c-0.9-0.3-1.5-0.3-2.2,0.5c-2.9,3.1-5.9,6.2-9.1,9.4
      c0.5,0.2,0.9,0.4,1.3,0.5c5.9,2.1,11.8,4.2,17.6,6.3c0.2,0.1,0.5,0.2,0.7,0.3c1.2,0.5,1.7,1.5,1.3,2.6c-0.4,1-1.4,1.4-2.6,1
      c-7.3-2.6-14.7-5.2-22-7.8c-1.8-0.7-2.2-2.2-0.8-3.6c4-4.2,8.1-8.4,12.2-12.6c0.4-0.4,1-0.8,1.5-1c3.4-1.3,6.9-2.5,10.3-3.7
      c0.4-0.1,1-0.4,1.3-0.2c0.6,0.4,1.3,0.9,1.6,1.5c0.4,0.9-0.2,1.7-1.1,2.1c-1.6,0.6-3.2,1.2-4.8,1.8c-0.4,0.1-0.7,0.3-1.3,0.5
      c0.7,0.3,1.2,0.5,1.7,0.7c9.5,3.4,19,6.8,28.6,10.2c0.5,0.2,1.2,0.2,1.8,0.1c9.8-3.5,19.7-7,29.5-10.5c0.2-0.1,0.4-0.2,0.9-0.4
      c-1.9-0.7-3.5-1.3-5.2-1.9c-0.4-0.2-1-0.3-1.2-0.6c-0.4-0.6-0.8-1.5-0.6-2.1c0.2-0.6,1.1-0.9,1.8-1.2c0.3-0.1,0.7,0.1,1.1,0.2
      c3.4,1.2,6.8,2.4,10.1,3.6c0.6,0.2,1.2,0.7,1.7,1.2c4,4.1,7.9,8.2,11.9,12.3c1.5,1.6,1.2,3-0.9,3.8c-11.9,4.3-23.8,8.5-35.7,12.8
      c-1.3,0.5-2.2,0.3-3.1-0.7c-3.6-3.8-7.3-7.6-11-11.4c-0.6,0.6-1.1,1.1-1.6,1.6c-3.2,3.3-6.3,6.5-9.5,9.8c-0.9,1-1.9,1.2-3.1,0.7
      c-2.1-0.8-4.3-1.5-6.5-2.3c-1.4-0.5-2-1.4-1.6-2.5c0.4-1.2,1.4-1.5,2.9-1c1.7,0.6,3.4,1.2,5.2,1.8c0.3,0.1,0.9,0.1,1.1-0.1
      C57,82.7,60.1,79.4,63.5,76z M70.3,76c3.2,3.3,6.2,6.4,9.2,9.5c0.6,0.6,1.1,0.7,1.9,0.4c10.2-3.7,20.4-7.3,30.7-11
      c0.4-0.1,0.8-0.3,1.2-0.5c-0.3-0.4-0.5-0.6-0.8-0.9c-2.7-2.8-5.5-5.6-8.1-8.5c-0.7-0.7-1.2-0.9-2.2-0.6c-6.5,2.4-13,4.7-19.5,7
      C78.6,73,74.5,74.4,70.3,76z"
    />
    <path
      d="M52.5,41.1c-1.7,0-3.1-0.9-3.6-2.5c-0.5-1.6-0.8-3.2-1.1-4.9c-0.9-4.4-3.6-7-8-7.9c-1.3-0.3-2.5-0.5-3.8-0.8
      c-2.2-0.5-3.5-1.9-3.5-3.9c0-2,1.2-3.4,3.4-3.9c1.3-0.3,2.7-0.6,4-0.9c4.4-0.9,7-3.6,7.9-8c0.3-1.6,0.7-3.3,1.2-4.8
      C49.4,2,50.9,1,52.5,1c1.6,0,3,0.9,3.6,2.4c0.3,0.8,0.5,1.7,0.7,2.5c0.2,0.9,0.3,1.8,0.5,2.7c1,4.1,3.5,6.6,7.6,7.6
      c1.7,0.4,3.4,0.6,5.1,1.2c2.5,0.8,3.4,3.7,1.9,5.8C71.1,24,70,24.6,69,24.9c-1.2,0.4-2.6,0.5-3.9,0.8c-4.3,1-7,3.5-7.9,7.9
      c-0.3,1.3-0.5,2.6-0.8,3.9C55.9,39.8,54.5,41,52.5,41.1z M36.4,21.2c0.5,0.1,1.1,0.2,1.6,0.3c2.3,0.7,4.8,1.1,7,2.2
      c4.1,2.1,6,5.9,6.8,10.3c0.2,1,0.4,2,0.6,3c0.1,0,0.3,0.1,0.4,0.1c0.6-10,6-15.3,15.9-16.1c-4.2-1-8.3-1.6-11.4-4.7
      c-3.2-3.1-3.8-7.3-4.8-11.4c-0.9,4.1-1.6,8.2-4.7,11.3C44.6,19.5,40.5,20.1,36.4,21.2z"
    />
    <path
      d="M78.1,25.7c0.1-1.6,1.1-2.8,2.7-3.2c1.2-0.3,2.4-0.5,3.5-0.8c3.1-0.7,5-2.6,5.6-5.7c0.2-1.1,0.4-2.1,0.7-3.2
      c0.5-2,1.7-3.1,3.4-3.1c1.7,0,3,1.1,3.5,3.1c0.3,1.1,0.4,2.1,0.7,3.2c0.7,3,2.6,4.9,5.6,5.6c1.2,0.3,2.4,0.5,3.5,0.8
      c1.7,0.5,2.8,1.8,2.8,3.4c0,1.6-1.1,2.9-2.8,3.4c-1.1,0.3-2.3,0.5-3.4,0.7c-3.1,0.7-5,2.6-5.7,5.7c-0.3,1.1-0.4,2.3-0.7,3.4
      c-0.5,1.7-1.8,2.8-3.4,2.8c-1.6,0-2.9-1.1-3.4-2.8c-0.3-1.1-0.5-2.3-0.7-3.4c-0.7-3.1-2.6-5-5.7-5.7c-1.3-0.3-2.6-0.5-3.9-0.9
      C78.9,28.6,78,27.2,78.1,25.7z M94.1,15.3c-0.6,2.7-1.4,5.2-3.4,7.2c-1.9,1.9-4.4,2.8-7,3.4c6,1,9.4,4.5,10.5,10.5
      c0.5-2.7,1.5-5.2,3.4-7.1c1.9-1.9,4.4-2.8,7-3.4C98.6,24.8,95.2,21.3,94.1,15.3z"
    />
    <path
      d="M105.8,100.3c0,4.3,0,8.6,0,12.9c0,1.4-0.5,2.3-1.8,2.7c-3,1-5.9,2.1-8.8,3.1c-1.4,0.5-2.5,0.1-2.9-0.9
      c-0.4-1.2,0.1-2.1,1.6-2.6c2.3-0.8,4.6-1.7,6.9-2.5c1-0.3,1.3-0.7,1.3-1.7c-0.1-7.8,0-15.7,0-23.5c0-0.4,0-0.8,0-1.2
      c0.2-1,0.8-1.7,1.9-1.6c1.1,0,1.7,0.6,1.8,1.7c0.1,1,0,2,0,3C105.8,93.2,105.8,96.8,105.8,100.3z"
    />
    <path
      d="M68.8,102.7c0,5.2,0,10.3,0,15.5c0,0.6-0.2,1.4-0.5,1.8c-0.4,0.4-1.3,0.7-1.7,0.5c-0.6-0.2-1-0.9-1.4-1.4
      c-0.2-0.3-0.1-0.8-0.1-1.2c0-10.1,0-20.2,0-30.4c0-0.2,0-0.5,0-0.7c0.1-1.2,0.8-2.1,1.9-2c1.1,0,1.8,0.8,1.8,2.1c0,4.3,0,8.7,0,13
      C68.8,100.8,68.8,101.8,68.8,102.7z"
    />
    <path
      d="M35.7,36.5c0.7,0.4,1.2,0.6,1.6,1c6.6,6.7,12.3,14.1,16.2,22.8c0.2,0.4,0.5,0.8,0.4,1.2c-0.2,0.7-0.5,1.5-1,1.9
      c-0.7,0.5-1.6,0.2-2.2-0.5c-0.2-0.2-0.3-0.5-0.4-0.8c-3.5-7.9-8.7-14.6-14.5-20.9c-0.5-0.5-1.1-1-1.4-1.6c-0.2-0.5-0.3-1.3-0.1-1.8
      C34.4,37.2,35.1,36.9,35.7,36.5z"
    />
    <path
      d="M71.7,56.2c0.5-4.1,1.1-8.2,1.6-12.4c0.4-3.4,0.9-6.8,1.4-10.3c0.2-1.6,1-2.3,2.2-2.1c1.2,0.2,1.7,1.1,1.5,2.7
      c-1,7.4-1.9,14.8-2.9,22.1c0,0.1,0,0.2,0,0.4c-0.2,1.3-1.1,2.1-2.1,1.9C72.3,58.5,71.7,57.6,71.7,56.2z"
    />
    <path
      d="M82.7,63.5c-2,0-2.8-1.4-2.1-2.8c1.2-2.4,2.3-4.9,3.7-7.2c1.9-3.1,4.1-6,6.2-8.9c0.7-1,1.9-1.2,2.7-0.5
      c0.9,0.7,1,1.7,0.3,2.8c-0.2,0.2-0.4,0.5-0.5,0.7c-2.1,3.1-4.3,6.2-6.4,9.4c-1,1.6-1.7,3.4-2.6,5.1C83.6,62.7,83,63.2,82.7,63.5z"
    />
    <path
      d="M58.7,48c0-2.7,0-5.4,0-8.1c0-1.5,0.7-2.4,1.9-2.4c1.2,0,1.9,0.9,1.9,2.4c0,5.4,0,10.9,0,16.3c0,1.6-0.8,2.5-2.1,2.3
      c-1-0.1-1.7-0.9-1.7-2.1C58.7,53.7,58.7,50.8,58.7,48z"
    />
    <path
      d="M24.3,23.8c0,0.9,0.1,1.7,0,2.6c-0.1,1.1-0.8,1.7-1.8,1.7c-1,0.1-1.8-0.7-1.9-1.8c-0.1-1.7-0.1-3.5,0-5.2
      c0-1,0.7-1.7,1.8-1.7c1.1,0,1.7,0.6,1.9,1.6C24.4,22,24.3,22.9,24.3,23.8C24.3,23.8,24.3,23.8,24.3,23.8z"
    />
    <path
      d="M20.7,37.3c0-0.9-0.1-1.8,0-2.7c0.1-1,0.7-1.6,1.7-1.6c1.1,0,1.8,0.5,1.9,1.6c0.1,1.9,0.1,3.7,0,5.6
      c-0.1,1-0.8,1.5-1.8,1.5c-1,0-1.7-0.6-1.8-1.6C20.6,39.2,20.7,38.3,20.7,37.3C20.7,37.3,20.7,37.3,20.7,37.3z"
    />
    <path
      d="M15.8,28.7c0.9,0,1.7,0,2.6,0c1,0.1,1.6,0.7,1.7,1.7c0.1,1.1-0.5,1.9-1.5,2c-1.9,0.1-3.8,0.1-5.7,0c-1-0.1-1.6-0.9-1.4-2
      c0.1-1,0.7-1.6,1.7-1.6C14,28.7,14.9,28.7,15.8,28.7C15.8,28.7,15.8,28.7,15.8,28.7z"
    />
    <path
      d="M29.3,28.7c0.8,0,1.7,0,2.5,0c1.1,0.1,1.7,0.7,1.7,1.8c0.1,1.1-0.5,1.8-1.6,1.9c-1.8,0.1-3.7,0.1-5.5,0
      c-1.1-0.1-1.7-1-1.6-2c0.1-1.1,0.8-1.6,1.8-1.7C27.6,28.7,28.5,28.7,29.3,28.7C29.3,28.7,29.3,28.7,29.3,28.7z"
    />
  </svg>