<svg
	width="0.5em"
	height="0.5em"
	fill="currentColor"
	viewBox="0 0 130 130"
	xmlns="http://www.w3.org/2000/svg"
>
	<path
	d="M112,106.5c0.4,0.4,0.8,0.7,1.1,1c2.7,2.4,4.2,5.5,4.4,9.1c0.1,1.6-0.5,2.3-2.1,2.3c-7.3,0-14.6,0-21.8,0
	c-1.5,0-2.2-0.7-2.1-2.3c0.2-3.6,1.7-6.7,4.4-9.1c0.3-0.3,0.7-0.6,1.1-1c-1.5-0.7-3.1-1.2-4.5-2c-3.4-1.9-6.2-4.4-8.3-7.6
	c-1-1.5-1-2.5,0-3.1c0.9-0.6,1.8-0.2,2.8,1.2c9.2,13.5,29.5,12,36.5-2.7c1.1-2.2,1.7-4.5,2-6.9c0.1-0.8,0-1.2-1-1.2
	c-13.4,0-26.8,0-40.2,0c-0.9,0-1.1,0.3-1.1,1.1c0,4.2-1.7,7.6-5.1,10.1c-0.4,0.3-1.2,0.5-0.2,1.1c5.9,3.9,7.4,12.7,2,18.5
	c-0.1,0.1-0.1,0.2-0.3,0.5c2.2,0,4.2,0,6.3,0c1.5,0,2.3,0.6,2.3,1.6c0,1.1-0.8,1.7-2.3,1.7c-18.7,0-37.5,0-56.2,0
	c-0.4,0-0.8,0-1.1-0.1c-0.8-0.2-1.3-0.8-1.3-1.6c0-0.9,0.5-1.4,1.3-1.6c0.4-0.1,0.9-0.1,1.4-0.1c13.6,0,27.2,0,40.8,0
	c5,0,8.9-3.7,9.1-8.4c0.2-5.1-3.7-9.3-8.9-9.3c-7.1,0-14.3,0-21.4,0c-12.1,0-24.2,0-36.3,0c-3.8,0-6.6,1.8-8.2,5.2
	c-1.5,3.3-1,6.5,1.3,9.4c1.7,2.1,4,3.1,6.7,3.2c2.9,0,5.7,0,8.6,0c1.5,0,2.3,0.6,2.3,1.6c0,1.1-0.8,1.7-2.4,1.7
	c-3.5-0.1-7.1,0.4-10.5-0.2c-5.1-0.9-8.5-4-9.8-9.1c-1.3-5.1,0.4-9.4,4.5-12.7c1-0.8,0.8-1,0-1.7C1.7,92.1,0,86.8,1.6,81.8
	c1.6-5,6.2-8.4,11.6-8.5c4.2,0,8.4,0,12.6,0c0.2-0.3,0-0.5-0.2-0.6c-3.6-3.4-6-7.6-7.7-12.2c-0.6-1.7-0.2-2.5,1.6-2.8
	c4.4-0.8,8.9-0.9,13.2,0.2c0.9,0.2,1.1,0,1.3-0.8c1.2-4.4,3.6-8.2,6.5-11.7c1.1-1.3,2.1-1.3,3.1,0c2.9,3.5,5.3,7.3,6.5,11.7
	c0.3,0.9,0.6,1,1.4,0.8c4.4-1.1,8.8-1,13.2-0.2c1.7,0.3,2.2,1.1,1.6,2.8c-1.8,4.8-4.2,9.1-8.1,12.7c0.4,0.4,0.8,0.2,1.2,0.2
	c2.6,0,5.3,0,7.9,0c1.1,0,1.4-0.3,1.4-1.4c0-11.1,0-22.3,0-33.4c0-3.3,1.9-5.7,5-6.3c0.6-0.1,1.2-0.1,1.8-0.1c2.7,0,2.7,0,2.7-2.8
	c0-2.3,0-4.6,0-7c0-0.9,0-1.8,0.4-2.6c0.1-0.3,0.2-0.5,0.1-0.8c-0.9-1.7-0.5-3.5-0.5-5.2c0-1.7,1.1-2.8,2.8-2.8c3.7,0,7.4,0,11.1,0
	c1.5,0,2.7,1.1,2.7,2.6c0,1.8,0.4,3.6-0.4,5.3c-0.1,0.2-0.1,0.4-0.1,0.5c1.2,3.6,0.4,7.3,0.5,10.9c0,1.5,0.4,1.9,1.9,1.8
	c1-0.1,2-0.1,3,0.2c2.7,0.7,4.5,3,4.6,5.8c0.1,1.9,0,3.9,0,5.8c0,1.1-0.5,1.9-1.6,2c-1,0.1-1.7-0.7-1.7-2.1c0-1.8,0-3.5,0-5.3
	c0-2-1.1-3.1-3.1-3.1c-7.6,0-15.1,0-22.7,0c-2,0-3.1,1.1-3.1,3.1c0,11.2,0,22.4,0,33.7c0,0.9,0.3,1.2,1.1,1.3
	c3.9,0.7,6.8,2.9,8.6,6.4c0.4,0.7,0.8,1,1.6,1c5.5,0,10.9,0,16.4,0c1,0,1.2-0.3,1.2-1.3c0-9.2,0-18.5,0-27.7c0-0.4,0-0.8,0-1.2
	c0.2-0.9,0.7-1.4,1.6-1.4c0.9,0,1.5,0.5,1.6,1.4c0.1,0.4,0,0.8,0,1.2c0,9.2,0,18.4,0,27.5c0,1.1,0.3,1.4,1.4,1.4
	c3.4,0,3.4,0,4.3-3.3c0.7-2.4,1.3-4.8,1.9-7.2c1.1-4,4.6-6.1,8.3-5.1c3.7,1,5.6,4.6,4.6,8.5c-0.5,2-1,3.9-1.6,5.9
	c-0.3,1,0,1.3,1,1.2c0.8-0.1,1.6,0,2.4,0c1.6,0,2.1,0.6,2.2,2.2c0.1,10-6.4,19.4-15.9,23C112.7,106.2,112.4,106.4,112,106.5z
	M42.2,94.4c9.5,0,19,0,28.5,0c5.3,0,9.3-3.8,9.3-8.8c0-5.1-4-8.9-9.3-9c-5.3,0-10.6,0-15.9,0c-13.7,0-27.4,0-41.2,0
	c-2.8,0-5.2,0.9-7,3c-2.4,2.8-3,6-1.5,9.5c1.5,3.5,4.3,5.3,8.1,5.3C22.9,94.5,32.6,94.4,42.2,94.4z M25.6,60.4
	c-0.8,0-1.9,0.1-3.1,0.1c-0.6,0-1,0.1-0.6,0.9c1.8,3.9,3.9,7.5,7.5,10c3.3,2.3,6.8,2.3,10.4,0.5c0.5-0.3,0.8-0.6,0.7-1.2
	c-0.4-4.1-2.1-7.1-5.9-8.9C31.8,60.7,29,60.4,25.6,60.4z M58.7,60.4c-1.9,0-3.6,0.1-5.2,0.4c-5.7,1-8.9,4.3-9.6,9.6
	c-0.1,0.9,0.1,1.3,0.9,1.7c4.1,1.9,7.9,1.4,11.3-1.6c2.9-2.5,4.7-5.7,6.3-9c0.3-0.7,0.1-0.9-0.6-0.9C60.8,60.5,59.6,60.4,58.7,60.4
	z M81.7,26.7c0,1.5,0,3,0,4.4c0,0.8,0.2,1.1,1,1c2.7,0,5.4,0,8.1,0c0.8,0,1-0.3,1-1c0-2.9,0-5.8,0-8.7c0-0.8-0.1-1.3-1-1.5
	c-0.7-0.1-1.2-0.7-1.2-1.5c0-0.7,0.2-1.3,0.9-1.5c2-0.4,1.2-1.9,1.3-3.1c0.1-0.6-0.4-0.5-0.7-0.5c-2.8,0-5.6,0-8.5,0
	c-0.6,0-0.8,0.2-0.8,0.8c0,0.4,0,0.8,0,1.2c-0.1,1,0.3,1.4,1.3,1.3c0.4,0,0.7,0,1.1,0c1.8,0,2.7,0.5,2.6,1.7c0,1.2-0.8,1.6-2.7,1.6
	c-0.4,0-0.7,0-1.1,0c-0.9-0.1-1.2,0.3-1.2,1.2C81.7,23.7,81.7,25.2,81.7,26.7z M104.5,115.6c2.8,0,5.7,0,8.5,0c0.9,0,1-0.2,0.8-1
	c-1.1-4-5-6.9-9.2-7c-4.2,0-8.1,2.9-9.3,6.9c-0.3,1,0.1,1.1,0.9,1.1C99,115.6,101.8,115.6,104.5,115.6z M42.1,64.4
	c0.1-0.1,0.3-0.1,0.4-0.2c1.1-1.8,2.5-3.3,4.4-4.4c0.6-0.3,0.5-0.8,0.4-1.3c-0.9-3.4-2.5-6.3-4.5-9.1c-0.3-0.4-0.6-0.5-0.9,0
	c-2,2.8-3.7,5.8-4.6,9.3c-0.1,0.6-0.1,0.9,0.5,1.2C39.6,60.9,41,62.5,42.1,64.4z M116,80.9c0.9,0,1.7-0.1,2.4,0
	c1,0.1,1.4-0.3,1.7-1.3c0.5-2.2,1.2-4.5,1.8-6.7c0.6-2.2-0.4-3.9-2.3-4.4c-1.9-0.5-3.5,0.6-4.1,2.7c-0.6,2.1-1.2,4.3-1.7,6.4
	c-0.3,1-1,2.4-0.6,3C113.6,81.4,115.1,80.7,116,80.9z"
	/>
	<path
	d="M39.6,104.4c7.8,0,15.7,0,23.5,0c3,0,5.9,0.4,8.8,1.3c1.1,0.4,1.8,1,1.5,2.2c-0.2,1-1.2,1.4-2.5,1
	c-2.9-0.9-5.8-1.2-8.8-1.1c-15.9,0-31.8,0-47.7,0c-0.3,0-0.6,0-1,0c-1.6,0-2.4-0.6-2.4-1.7c0-1.1,0.8-1.7,2.4-1.7
	C22.2,104.4,30.9,104.4,39.6,104.4z"
	/>
	<path
	d="M86.6,56c-2.1,0-4.3,0-6.4,0c-1.9,0-2.4-0.5-2.4-2.4c0-2.9,0-5.8,0-8.8c0-1.7,0.5-2.2,2.2-2.2c4.4,0,8.9,0,13.3,0
	c1.7,0,2.2,0.5,2.2,2.2c0,3,0,5.9,0,8.9c0,1.6-0.6,2.2-2.2,2.2C91.2,56,88.9,56,86.6,56z M86.7,46c-1.5,0-3.1,0-4.6,0
	c-0.7,0-1,0.1-1,0.9c0.1,1.6,0,3.2,0,4.9c0,0.8,0.3,0.9,1,0.9c3.1,0,6.1,0,9.2,0c0.8,0,1-0.3,1-1.1c0-1.5-0.1-3.1,0-4.6
	c0-0.9-0.3-1.1-1.1-1.1C89.7,46,88.2,46,86.7,46z"
	/>
	<path
	d="M44.9,83.3c8.5,0,17.1,0,25.6,0c0.5,0,0.9,0,1.4,0c0.8,0.1,1.3,0.6,1.4,1.5c0.1,0.9-0.4,1.5-1.3,1.8
	c-0.5,0.1-1.1,0.1-1.7,0.1c-16.3,0-32.5,0-48.8,0c-2.7,0-5.4,0.3-7.9,1.1c-1.4,0.5-2.3,0.1-2.6-0.9c-0.3-1.1,0.2-1.8,1.6-2.3
	c2.4-0.8,4.8-1.2,7.4-1.2C28.3,83.3,36.6,83.3,44.9,83.3C44.9,83.3,44.9,83.3,44.9,83.3z"
	/>
</svg>