
  <svg
    width="0.5em"
    height="0.5em"
    fill="currentColor"
    viewBox="0 0 130 130"
    xmlns="http://www.w3.org/2000/svg"
  >
    <path
      d="M26.6,16.2c0,10.8,0,21.4,0,32.3c0.6-0.5,1-0.9,1.4-1.3c4.7-4.7,9.4-9.4,14.1-14.1c1.9-1.9,3-1.9,4.8,0
      c8.9,8.9,17.8,17.8,26.7,26.7c0.4,0.4,0.9,0.8,1.4,1.3c2.9-3.8,5.7-7.5,8.5-11.3c1.6-2.1,3.1-4.2,4.8-6.3c1.6-2.1,3.2-2.1,4.8,0
      c3,3.9,5.9,7.9,8.9,11.9c0.4,0.6,0.8,1.1,1.5,2c0-13.9,0-27.4,0-41.2c-0.7,0-1.3,0-2,0c-16.6,0-33.2,0-49.8,0c-0.5,0-1.1,0-1.6,0
      c-1.4-0.2-2.2-1-2.2-2.4c0-1.4,0.8-2.2,2.1-2.5c0.4-0.1,0.9,0,1.3,0c17.9,0,35.7,0,53.6,0c2.9,0,3.6,0.7,3.6,3.6
      c0,19.7,0,39.4,0,59.2c0,3-0.7,3.7-3.7,3.7c-26.5,0-53,0-79.4,0c-3.1,0-3.8-0.7-3.8-3.8c0-19.6,0-39.2,0-58.8c0-3.1,0.7-3.8,3.8-3.8
      c4.4,0,8.9,0,13.3,0c2.1,0,3.2,0.9,3.3,2.4c0,1.6-1.2,2.5-3.3,2.5C34.6,16.2,30.7,16.2,26.6,16.2z M26.5,72.5c17.6,0,35.1,0,52.3,0
      c-11.5-11.5-23-23-34.5-34.5c-3.9,3.9-7.9,7.9-11.9,12c-1.9,1.9-4.5,3.5-5.4,5.8c-1,2.4-0.3,5.4-0.3,8.1
      C26.5,66.8,26.5,69.6,26.5,72.5z M90.6,48.6c-4.1,5.5-8.1,10.8-12.1,16.2c2.4,2.4,4.6,4.7,7,6.9c0.6,0.6,1.6,1,2.4,1
      c3.8,0.1,7.6,0,11.3,0c1.4,0,2.7,0,4.3,0c0-2.3,0-4.4,0-6.6c0-0.3-0.1-0.5-0.3-0.7C99.1,59.8,94.9,54.3,90.6,48.6z"
    />
    <path
      d="M75.2,36.6c-4.2,0-7.5-3.4-7.5-7.6c0-4.2,3.5-7.7,7.7-7.6c4.2,0.1,7.6,3.5,7.5,7.8C82.7,33.4,79.3,36.7,75.2,36.6z M77.9,29
      c0-1.4-1.2-2.6-2.6-2.6c-1.4,0-2.6,1.2-2.6,2.6c0,1.5,1.2,2.7,2.7,2.6C76.8,31.6,77.9,30.5,77.9,29z"
    />

    <path
      d="M67.5,94.2c2.9-0.4,4.4,0.3,5.9,2.7c2.4-0.7,4.3-0.1,5.9,1.9c1.1-0.5,2.2-0.7,3.3-0.4c2.2,0.5,3.7,2.4,3.8,4.7
      c0,5,0.1,10,0,15.1c-0.1,5.6-4.6,10.4-10.2,10.7c-2.7,0.2-5.4,0.1-8.1,0c-2.5-0.1-4.5-1.3-6.3-2.9c-1.9-1.6-3.4-3.6-5-5.6
      c-2.3-2.8-4.7-5.7-6.9-8.6c-2.2-2.7-1-6.6,2.2-7.7c2-0.6,3.7-0.2,5.2,1.3c0.2,0.2,0.3,0.4,0.6,0.7c0-0.4,0-0.7,0-0.9
      c0-6.7,0-13.5,0-20.2c0-1.9,0.6-3.4,2.2-4.5c1.6-1.1,3.3-1.2,5-0.3c1.7,0.9,2.6,2.3,2.6,4.2c0,3,0,6,0,8.9
      C67.5,93.7,67.5,93.9,67.5,94.2z M67.3,100.3c-0.3,0-0.6,0-0.9,0c-1.8-0.1-2.3-0.6-2.3-2.5c0-3.3,0-6.5,0-9.8c0-1.1,0-2.3,0-3.4
      c0-0.8-0.5-1.3-1.3-1.4c-0.7-0.1-1.4,0.4-1.5,1.1c-0.1,0.3,0,0.6,0,0.9c0,8.1,0,16.2,0,24.4c0,0.8,0,1.5,0,2.3
      c0,0.2-0.1,0.4-0.2,0.5c-1.1,0.8-2.2,0.6-3.1-0.5c-0.1-0.2-0.3-0.3-0.4-0.5c-0.9-1.2-1.9-2.3-2.8-3.5c-0.5-0.6-1.2-0.7-1.9-0.4
      c-0.6,0.4-0.9,1-0.6,1.7c0.1,0.3,0.3,0.5,0.5,0.7c2.1,2.6,4.2,5.3,6.4,7.9c1.5,1.8,3.1,3.6,4.7,5.3c1.3,1.3,2.8,2.3,4.8,2.3
      c2.4,0,4.7,0.1,7.1,0c3.9-0.1,7-3.1,7.3-7c0.2-2.4,0.1-4.9,0.1-7.3c0-2.6,0-5.2,0-7.7c0-1-0.6-1.6-1.4-1.6c-0.8,0-1.4,0.6-1.5,1.5
      c-0.1,0.4-0.1,0.8-0.2,1.3c-0.5,0-0.9,0-1.3-0.1c-1.4-0.1-1.9-0.7-1.9-2.1c0-0.2,0-0.5,0-0.7c0-0.9-0.6-1.6-1.4-1.6
      c-0.8-0.1-1.3,0.5-1.5,1.4c-0.1,0.4-0.2,0.9-0.2,1.3c-0.6,0-1.1-0.1-1.5-0.1c-1-0.1-1.6-0.8-1.6-1.8c0-0.6,0-1.3,0-1.9
      c0-0.8-0.6-1.4-1.3-1.4c-0.7-0.1-1.4,0.5-1.5,1.3C67.4,99.3,67.4,99.7,67.3,100.3z"
    />

    <path
      d="M57.2,85.1c0-0.8,0.1-1.6,0.4-2.3c-13.8,0-27.5,0-41.2,0c0-25.7,0-51.2,0-76.8c32.4,0,64.8,0,97.4,0c0,0.7,0,1.3,0,1.9
      c0,10.1,0,20.2,0,30.3c0,0.5-0.2,1.3,0.1,1.6c0.6,0.8,1.3,1.7,2.2,1.9c0.7,0.1,1.7-0.7,2.3-1.3c0.4-0.4,0.3-1.3,0.3-2
      c0-11.3,0-22.5,0-33.8c0-2.9-0.7-3.6-3.6-3.6C81.7,1,48.3,1,14.9,1c-2.8,0-3.6,0.7-3.6,3.6c0,26.5,0,53.1,0,79.6
      c0,2.9,0.7,3.7,3.6,3.7c14.1,0,28.2,0,42.3,0C57.2,87,57.2,86,57.2,85.1z"
    />
    <path
      d="M118.7,51.3c0-0.7,0-1.4-0.3-2.1c-0.4-1.1-1.4-1.8-2.5-1.4c-0.8,0.3-1.5,1.2-2.1,1.9c-0.3,0.4-0.1,1.1-0.1,1.6
      c0,9.8,0,19.7,0,29.5c0,0.6,0,1.3,0,1.9c-15.3,0-30.6,0-45.8,0c0.2,0.5,0.3,1.1,0.3,1.7c0,1.1,0,2.2,0,3.4c15.6,0,31.2,0,46.8,0
      c2.9,0,3.6-0.8,3.6-3.6C118.7,73.3,118.7,62.3,118.7,51.3z"
    />
  </svg>
