    <svg
      width="0.5em"
      height="0.5em"
      fill="currentColor"
      viewBox="0 0 130 130"
      xmlns="http://www.w3.org/2000/svg"
    >
      <path
        d="M112.4,121.9c0.7-0.2,1.4-0.4,2.1-0.5c1.7-0.4,3.3-0.9,5-1.3c1.3-0.3,2.4,0.4,2.6,1.6c0.2,1-0.4,2-1.5,2.4
		c-1.6,0.5-3.2,0.9-4.7,1.3c-4.4,1.2-8.9,2.4-13.3,3.6c-1.3,0.3-2.3-0.1-2.7-1.2c-0.4-1.2,0.2-2.4,1.5-2.8c1.8-0.5,3.7-1,5.5-1.5
		c0.5-0.1,1-0.3,1.5-0.4c0-0.2-0.1-0.4-0.1-0.6c-2.5-9.3-5-18.5-7.4-27.8c-0.1-0.4-0.3-0.7-0.7-0.9c-2.2-1.3-4.4-2.5-6.6-3.8
		c-9-5.7-14.4-13.9-16.2-24.4c-1.1-6.3-2.3-12.6-3.4-18.8c-0.1-0.5-0.3-1.1-0.5-1.6c-0.7-1.7-1.5-3.4-2.2-5.1
		c-0.9-2.1-2.3-3.7-4.3-4.8c-1.4-0.7-2.8-1.5-4.2-2.3c-0.8-0.4-1.3-1-1.3-1.9c0-0.9,0.5-1.5,1.3-1.9c1.4-0.8,2.8-1.6,4.3-2.3
		c1.9-1,3.3-2.6,4.2-4.6c0.9-2,1.8-4,2.7-6c0.4-0.8,1-1.3,1.9-1.3c0.9,0,1.6,0.5,1.9,1.3c0.9,2,1.8,4.1,2.7,6.1
		c0.9,2.1,2.5,3.6,4.6,4.6c0.2,0.1,0.5,0.1,0.8,0c3.6-0.9,7.2-1.9,10.8-2.9c0.9-0.2,1.7-0.1,2.3,0.6c0.2,0.2,0.3,0.4,0.4,0.6
		c3.9,11,8,21.9,11.8,32.9c3.3,9.8,2.2,19.4-2.8,28.5c-1.1,2-2.2,3.9-3.3,5.9c-0.1,0.2-0.2,0.6-0.1,0.9c2.5,9.3,5,18.7,7.5,28
		C112.2,121.6,112.3,121.7,112.4,121.9z M90,30.1c0.5,1.6-0.4,2.4-1.7,3.1c-1.3,0.6-2.5,1.4-3.8,2.1c-1.8,1-3.2,2.4-4,4.3
		c-0.8,1.9-1.6,3.8-2.4,5.6c-0.1,0.3-0.2,0.7-0.1,1c1.1,6.3,2.3,12.6,3.4,19c0.1,0.4,0.2,0.5,0.6,0.5c0.7-0.1,1.3-0.1,2-0.1
		c1.2,0,2.3,0.2,3.5,0.2c2.4-0.1,4.6-0.9,6.5-2.5c2.1-1.8,4.6-2.8,7.4-3.1c1.7-0.2,3.3,0,5,0c0.3,0,0.6,0,0.9,0
		c-0.1-0.4-0.2-0.7-0.3-1c-2.8-7.9-5.6-15.7-8.5-23.6c-0.8-2.2-1.5-4.3-2.3-6.5c-0.1-0.2-0.3-0.4-0.5-0.4C93.8,29,91.9,29.5,90,30.1
		z M82.5,69.5c0.1,0.3,0.1,0.4,0.2,0.6c1.9,5.3,5,9.8,9.2,13.5c2.9,2.5,6.3,4.2,9.6,6.1c0,0,0.1,0,0,0c5.3-7.8,8.4-16.1,6.7-25.8
		c-1,0-2,0.1-2.9,0c-3.4-0.4-6.4,0.3-9.1,2.5c-2.7,2.2-5.9,3.2-9.4,3.1c-1,0-2-0.1-3-0.2C83.4,69.4,83,69.5,82.5,69.5z M75.7,21.9
		c-1.5,4.1-4,7.2-8.1,9.1c4.1,1.9,6.6,5.1,8.1,9.3c1.4-4.2,4-7.4,8.1-9.3C79.8,29.1,77.2,26,75.7,21.9z"
      />
      <path
        d="M17.6,121.9c0.4-1.6,0.8-3,1.2-4.5c2.1-7.9,4.2-15.8,6.4-23.7c0.1-0.5,0.1-0.9-0.2-1.4c-1.6-2.9-3.4-5.7-4.8-8.8
		c-3.9-8.8-4.1-17.8-0.8-26.9c3.7-10.3,7.5-20.7,11.2-31c0.5-1.5,1.4-2,3-1.6c7.8,2.1,15.5,4.2,23.3,6.2c1.4,0.4,2,1.3,1.7,2.7
		c-1.1,6.1-2.2,12.2-3.3,18.2c-0.9,5-1.8,10.1-2.7,15.1c-1.2,6.7-4.2,12.6-8.8,17.6c-2.5,2.7-5.3,4.9-8.4,6.7
		c-1.8,1.1-3.6,2.1-5.5,3.2c-0.3,0.2-0.5,0.5-0.6,0.7c-2.5,9.3-5,18.6-7.5,27.9c-0.1,0.5,0,0.7,0.5,0.8c2.1,0.5,4.3,1.1,6.4,1.7
		c0.8,0.2,1.4,0.7,1.6,1.6c0.2,0.8-0.1,1.5-0.7,2c-0.6,0.5-1.3,0.5-2.1,0.3c-2.7-0.7-5.4-1.4-8-2.2c-3.3-0.9-6.5-1.7-9.8-2.6
		c-1.1-0.3-1.7-0.9-1.8-1.9c-0.1-1.5,1.1-2.6,2.6-2.2c2.1,0.5,4.2,1.1,6.4,1.7C17.1,121.8,17.4,121.9,17.6,121.9z M48.2,67.2
		c2-11.2,4-22.3,6-33.3c-0.2-0.1-0.4-0.1-0.6-0.2c-6.3-1.7-12.7-3.4-19-5.1c-0.5-0.1-0.6,0-0.8,0.4c-1,2.8-2,5.6-3,8.4
		c-2.5,6.9-4.9,13.7-7.4,20.6c-0.2,0.5-0.1,0.6,0.4,0.9c1,0.5,2,1.1,2.9,1.8c1.8,1.4,3.8,2.2,6.1,2.3c1.2,0.1,2.4-0.2,3.7-0.2
		c3.7-0.1,7,0.9,9.9,3.2C46.9,66.4,47.5,66.7,48.2,67.2z M22.1,62.5C22,62.8,22,63,21.9,63.1c-1,5.2-0.7,10.4,0.9,15.5
		c1.2,4,3.5,7.5,5.5,11.1c0,0,0.1,0,0.1,0.1c1.6-1,3.3-1.9,4.9-2.9c6.1-3.6,10.5-8.6,13.3-15.2c0.1-0.2,0.2-0.4,0.2-0.6
		c-1.2-0.9-2.4-1.7-3.6-2.5c-2.1-1.4-4.4-2.1-6.9-1.9c-0.9,0.1-1.9,0.2-2.8,0.2c-3.5,0-6.6-1-9.3-3.2C23.6,63.4,22.9,63,22.1,62.5z"
      />
      <path
        d="M45.9,12.1c0-0.9,0.4-1.4,1.1-1.8c0.9-0.5,1.9-1,2.8-1.5c1.2-0.6,2-1.5,2.5-2.7c0.5-1.2,1.1-2.5,1.7-3.7
		C54.4,1.5,55,1,55.9,1c0.9,0,1.5,0.5,1.9,1.3c0.6,1.3,1.1,2.5,1.7,3.8c0.5,1.1,1.3,2,2.3,2.6c0.9,0.5,1.9,1,2.8,1.5
		c0.8,0.4,1.2,1,1.2,1.9c0,0.9-0.5,1.5-1.2,1.9c-0.9,0.5-1.8,1-2.7,1.5c-1.1,0.6-1.9,1.5-2.4,2.7c-0.6,1.3-1.1,2.6-1.7,4
		c-0.4,0.9-1,1.3-1.9,1.3c-0.9,0-1.6-0.5-1.9-1.4c-0.6-1.3-1.1-2.6-1.7-4c-0.5-1.2-1.3-2.1-2.4-2.7c-0.9-0.5-1.9-1-2.8-1.5
		C46.3,13.5,45.9,12.9,45.9,12.1z M59.7,12.1c-1.7-1-2.9-2.4-3.8-4.1c-0.9,1.7-2.1,3.1-3.7,4.1c1.7,1,2.8,2.4,3.8,4.1
		C56.8,14.5,58,13.1,59.7,12.1z"
      />
    </svg>