
  <svg
    width="0.5em"
    height="0.5em"
    fill="currentColor"
    viewBox="0 0 130 130"
    xmlns="http://www.w3.org/2000/svg"
  >
    <path
      d="M65,129c-19.9,0-39.7,0-59.6,0c-0.5,0-0.9,0-1.4,0c-1.8-0.1-3-1.3-3-2.9c0-1.6,1.2-2.9,3.1-3c0.4,0,0.8-0.1,1.2,0
      c1.1,0.2,1.7-0.2,1.5-1.5c-0.1-0.8,0-1.7,0-2.6c0-12.9,0-25.7,0-38.6c0-3,0.9-3.9,3.9-3.9c9,0,18.1,0,27.1,0c3,0,3.9,0.9,3.9,3.9
      c0,13.6,0,27.2,0,40.7c0,2-0.2,1.8,1.8,1.8c1,0,2,0,3,0c0.7,0,1-0.2,0.9-0.9c0-0.3,0-0.6,0-1c0-19.4,0-38.8,0-58.2
      c0-3,0.9-3.9,3.9-3.9c9,0,18,0,27,0c3.2,0,4,0.8,4,4.1c0,19.4,0,38.9,0,58.3c0,1.3,0.4,1.7,1.6,1.5c0.9-0.1,1.9-0.1,2.9,0
      c1.2,0.1,1.5-0.4,1.4-1.5c-0.1-0.4,0-0.7,0-1.1c0-24.8,0-49.7,0-74.5c0-0.5,0-1,0-1.5c0.2-1.7,1.2-2.8,3-2.8c9.7,0,19.4,0,29,0
      c1.8,0,2.8,1.1,2.9,2.9c0,0.5,0,1,0,1.5c0,25.1,0,50.2,0,75.2c0,1.4,0.4,1.9,1.7,1.7c0.4-0.1,0.8,0,1.2,0c1.7,0.2,2.9,1.3,2.9,2.9
      c0,1.6-1.2,2.8-2.9,3c-0.5,0-0.9,0-1.4,0C104.8,129,84.9,129,65,129z M94.1,85.4c0,12.1,0,24.3,0,36.4c0,1,0.2,1.4,1.3,1.4
      c6.9-0.1,13.8-0.1,20.7,0c1.1,0,1.2-0.4,1.2-1.3c0-24.3,0-48.7,0-73c0-1.1-0.3-1.3-1.3-1.3c-6.9,0-13.7,0.1-20.6,0
      c-1.2,0-1.4,0.3-1.4,1.4C94.1,61.1,94.1,73.2,94.1,85.4z M53.4,93.9c0,9.2,0,18.4,0,27.6c0,1.4,0.4,1.6,1.7,1.6
      c6.7-0.1,13.4-0.1,20.2,0c1.2,0,1.5-0.3,1.5-1.5c0-18.4,0-36.9,0-55.3c0-1.2-0.4-1.4-1.5-1.4c-6.8,0-13.6,0.1-20.4,0
      c-1.3,0-1.5,0.4-1.5,1.5C53.4,75.6,53.4,84.8,53.4,93.9z M35.9,102.9c0-6.4,0-12.8,0-19.2c0-0.9-0.2-1.3-1.2-1.3c-7,0-14,0-21,0
      c-0.9,0-1.1,0.3-1.1,1.2c0,12.8,0,25.6,0,38.4c0,0.9,0.3,1.1,1.2,1.1c6.9,0,13.9,0,20.8,0c1.1,0,1.3-0.3,1.3-1.3
      C35.9,115.5,35.9,109.2,35.9,102.9z"
    />
    <path
      d="M118.1,7.1c-0.5-0.3-1-0.2-1.4-0.2c-4.3,0-8.6,0-12.9,0c-0.6,0-1.2,0-1.7-0.2c-1.2-0.3-2-1.5-2.1-2.7c0-1.3,0.8-2.4,2-2.7
      c0.6-0.2,1.2-0.2,1.7-0.2c7.1,0,14.3,0,21.4,0c3.2,0,4.3,1.5,3.6,4.6c-1.8,7.1-3.6,14.3-5.3,21.4c-0.1,0.3-0.1,0.5-0.2,0.8
      c-0.5,1.7-2,2.6-3.5,2.3c-1.6-0.4-2.6-1.9-2.1-3.7c0.8-3.3,1.6-6.6,2.5-9.9c0.3-1.2,0.6-2.5,0.9-3.7c-0.5,0-0.7,0.3-1,0.5
      C97.3,32.5,72,46.7,43.8,55.9c-12.7,4.2-25.8,7.1-39.1,9c-1.9,0.3-3.4-0.7-3.7-2.4c-0.3-1.7,0.8-3.1,2.7-3.4
      c8.9-1.3,17.8-3,26.5-5.3C63,45.1,92,29.7,117.6,7.6C117.7,7.4,117.9,7.3,118.1,7.1z"
    />
  </svg>