<svg
	width="0.5em"
	height="0.5em"
	fill="currentColor"
	viewBox="0 0 130 130"
	xmlns="http://www.w3.org/2000/svg"
>
	<path
	d="M52,30.1c2.5,1,3.5,3.1,4.3,5.4c0.6,1.7,1.2,3.4,1.9,5.1c1.6,4.3,1,6.5-2.8,9.3c1,1.5,2,3,3,4.5c1,1.6,0.9,2.5-0.5,3.7
	c-0.1,0.1-0.2,0.2-0.3,0.2c-2.6,1.6-3.9,3.7-4.2,7c-0.5,5.1-3.7,8.8-8.4,11c-0.8,0.4-1.7,0.7-2.6,1c-1,0.4-1.2,1.3-0.3,2
	c1.3,1,2.7,1.9,4,2.9c5.4,4.1,9,9.5,10.5,16.2c0.3,1.5-0.3,2.6-1.5,2.9c-1.2,0.3-2.2-0.5-2.6-2c-1.5-6.1-4.8-11-10-14.5
	c-0.2-0.1-0.4-0.3-0.7-0.4c-1,4.5-3.5,6.7-7.3,6.3c-3.4-0.3-6.1-1.9-8-4.7c-0.2-0.4-0.5-0.7-0.8-1.2c-2.4,2.5-4.3,5.1-5.6,8.2
	c-1.1,2.7-1.8,5.6-1.8,8.5c0,7.5,0,15,0,22.5c0,0.2,0,0.4,0,0.8c0.5,0,1.1,0,1.6,0c11.8,0,23.7,0,35.5,0c0.4,0,0.9,0,1.3,0
	c1.2,0.1,2,1,2,2.1c0,1.1-0.8,2-2,2.1c-0.4,0-0.7,0-1.1,0c-12.9,0-25.7,0-38.6,0c-2.4,0-3.1-0.6-3.1-3.1c0-7.9,0-15.7,0-23.6
	c0-6.8,2.1-12.9,6.5-18.1c1.1-1.4,2.3-2.7,3.4-4.1c0.4-0.6,0.6-1.4,0.8-2.1c0.7-3.7-0.7-6.5-3.5-8.9c-2.6-2.2-4.8-4.8-7.2-7.3
	c-0.5-0.5-0.9-0.7-1.7-0.5c-2.6,0.7-4.9,0-6.6-2.1c-1.7-2.1-2-4.5-0.8-7c0.4-0.8,0.3-1.3-0.1-2c-1.3-2.2-3-4.3-3.3-7
	c-0.5-3.5,0.2-6.6,2.2-9.6c4.8-6.8,11.4-10.6,19.2-13c5.5-1.7,10.8-3.6,16.2-5.6c1.4-0.5,2.7-1.4,3.9-2.4c1.6-1.4,2.9-3.1,4.4-4.6
	c1.5-1.5,3.2-1.2,3.9,0.8c1.2,3.2,2.4,6.4,3.5,9.6c1.2,3.3,0.8,6.5-1.1,9.6C53,28.6,52.5,29.3,52,30.1z M48.1,13
	c-0.6,0.7-1.2,1.2-1.6,1.7c-1.9,2.3-4.2,3.7-7,4.6c-5.9,2-11.8,4.2-17.7,6.1C15.6,27.3,10.6,30.8,6.9,36c-1.9,2.7-2.3,5.9-0.6,8.7
	c0.6,1.1,1.3,2.1,1.9,3.2c0.3,0.7,0.7,0.7,1.4,0.5c6.9-2.6,13.9-5.1,20.8-7.7c0.4-0.2,0.9-0.7,1-1.2c0.4-2.6,1.8-4.3,4.2-5.2
	c2.1-0.8,4.2-1.6,6.4-2.3c5.2-1.9,5.2-1.8,8-6.5c0.1-0.2,0.2-0.3,0.3-0.5c0.8-1.5,1-3.1,0.5-4.6C49.9,18,49,15.6,48.1,13z
	M49.7,62.9c-1.4-4.2,2.2-5.3,4.3-7.3c-1-1.4-1.9-2.8-2.8-4.2c-2.8,1-5.5,2-8.2,3c-2,0.7-4.2,0.8-5.8-0.6c-1.4-1.2-2.5-1-3.9-0.4
	c-0.4,0.2-0.8,0.4-1.2,0.5c-1,0.2-1.3,0.8-1.2,1.8c0.1,5.1,0.2,10.1-1.8,14.9c-0.1,0.2-0.1,0.6,0.1,0.7c1.8,1.9,3.7,4,6.5,3.5
	c3.6-0.6,7.2-1.7,10.1-4.1c1.1-0.9,1.8-2.1,2.7-3.2c-1-0.3-1.7-0.3-2.4-0.3c-1.5,0-2.4-0.9-2.4-2.1c0-1.3,0.9-2.1,2.4-2.1
	C47.1,62.9,48.2,62.9,49.7,62.9z M32.3,44.6c-3.2,1.2-6.1,2.3-9.1,3.4c-4.4,1.6-8.8,3.2-13.2,4.8c-1.7,0.6-2.2,2-1.5,3.3
	c0.6,1,1.6,1.3,3,0.8c5-1.9,10-3.8,15-5.6c2.4-0.9,4.8-1.8,7.2-2.7C33.3,47.2,32.8,46,32.3,44.6z M49.9,33.7
	c-1.8,0.6-3.3,1.2-4.8,1.7c-1.5,0.6-1.9,1.6-1.4,3.1c0.9,2.5,1.8,5,2.7,7.5c0.5,1.4,1.5,1.9,2.9,1.5c1.3-0.4,2.5-0.9,3.7-1.4
	c1.3-0.5,1.8-1.5,1.4-2.8c-0.9-2.7-1.9-5.4-2.9-8C51.3,34.6,50.5,34.2,49.9,33.7z M28.8,76.8c0,1.4-0.1,2.7,0,4
	c0.4,3,3,5.4,5.9,5.5c1.4,0.1,2.4-0.6,2.5-1.9c0.1-1.8,0-3.6,0-5.5C34.1,79.4,31.3,78.6,28.8,76.8z M25.6,67
	c0.8-2.1,1.3-7.6,0.8-11.1c-3,1.1-5.9,2.2-9.2,3.4C20.2,62,23,64.6,25.6,67z M43.3,49.6c-1.5-4-2.9-7.9-4.3-11.9
	c-0.3,0.1-0.8,0.3-1.2,0.4c-2.2,0.8-2.6,1.6-1.8,3.8c0.7,1.8,1.4,3.6,2,5.5C39.1,51.4,40.5,50.7,43.3,49.6
	C43.3,49.6,43.3,49.6,43.3,49.6z"
	/>
	<path
	d="M64.9,43.8c0-16.6,13.4-29.9,30-29.9c16.2,0,29.6,13.5,29.6,29.6c0,16.9-13.3,30.1-30.2,30.1C78.2,73.5,64.9,60,64.9,43.8z
	M81.8,41.5c0.3-2.8,0.6-5.5,0.9-8.2c0-0.3-0.2-0.7-0.5-0.8c-2.5-1.5-5-3-7.6-4.6c-3.1,3.9-5,8.4-5.4,13.6
	C73.6,41.5,77.7,41.5,81.8,41.5z M114.7,27.8c-2,1.3-3.7,2.7-5.7,3.7c-1.8,0.9-2.5,1.7-2,3.8c0.5,2,0.4,4.2,0.6,6.2
	c4.3,0,8.4,0,12.6,0C119.7,36.3,117.8,31.7,114.7,27.8z M120,45.9c-4.1,0-8.3,0-12.4,0c-0.3,2.8-0.6,5.4-0.9,8.1
	c0,0.3,0.1,0.7,0.4,0.9c2.5,1.6,5,3.1,7.6,4.6C117.6,56.3,120.1,50.1,120,45.9z M69.3,45.9c0.4,5.2,2.3,9.8,5.5,13.7
	c1.9-1.3,3.7-2.7,5.6-3.6c1.9-0.9,2.6-1.9,2.1-4c-0.5-2-0.4-4.1-0.6-6.1C77.7,45.9,73.5,45.9,69.3,45.9z M101.8,57.5
	c-4.8-1.3-9.4-1.4-14.1,0c0.2,1,0.4,1.8,0.7,2.6c0.9,2.8,1.9,5.5,3.9,7.8c1.6,1.8,3.2,1.8,4.8,0.1C99.7,65.1,100.8,61.4,101.8,57.5
	z M102,29.8c-1-2.6-1.9-5.1-3-7.5c-0.5-1.1-1.3-2.2-2.2-3.1c-1.4-1.4-2.8-1.4-4.2,0c-2.9,3-3.9,6.8-4.9,10.7
	C92.4,31.3,97,31.2,102,29.8z M86.2,41.5c5.8,0,11.4,0,17.1,0c-0.2-2.5-0.4-4.9-0.7-7.4c-5.3,1.4-10.5,1.4-15.8,0
	C86.6,36.7,86.4,39,86.2,41.5z M103.3,45.9c-5.7,0-11.3,0-17.1,0c0.2,2.5,0.4,4.9,0.7,7.4c5.4-1.4,10.5-1.4,15.8,0
	C102.8,50.7,103,48.4,103.3,45.9z M106,59c-1.2,3.2-2.3,6-3.4,9c3.3-1.1,6.3-2.8,9.1-5.2C109.7,61.4,107.8,60.2,106,59z M86.8,68
	c-1.1-3-2.2-5.8-3.4-9c-1.8,1.2-3.7,2.4-5.7,3.7C80.6,65.3,83.5,66.9,86.8,68z M86.8,19.4c-3.3,1.1-6.3,2.7-9.1,5.2
	c2,1.3,3.9,2.6,5.7,3.7C84.6,25.3,85.7,22.4,86.8,19.4z M102.6,19.4c1.1,3,2.2,5.9,3.4,9c1.8-1.2,3.7-2.4,5.6-3.8
	C108.9,22.2,105.9,20.5,102.6,19.4z"
	/>
	<path
	d="M83.2,98.6c-1.3-1.7-2.5-3.4-3.8-5.1c-2.4,1.7-4.7,3.3-7,4.9c-2.9,2-5.7,4-8.6,6c-5.9,4.1-12.8,4.2-18.8,0.2
	c-2.8-1.9-5.6-3.7-8.4-5.6c-1.4-1-1.8-2.1-1-3.2c0.7-1.1,2-1.3,3.4-0.3c2.8,1.8,5.5,3.7,8.3,5.5c4.7,3.1,9.6,3.1,14.1,0
	c5.3-3.7,10.5-7.4,15.8-11.1c0.4-0.3,0.8-0.9,0.9-1.5c0.5-2.6,0.9-5.1,1.3-7.7c0.4-2.7,1.8-4.4,4.2-4.9c2.2-0.5,4.5,0.3,5.7,2.7
	c1.5,3,3.6,3.9,6.9,3.6c3.1-0.3,6.3-0.1,9.4-0.1c3.2,0,5.5,1.8,6.2,4.8c0.6,2.8-0.8,5.5-3.7,6.8c-6.5,2.8-13,5.9-20,7.3
	c-0.6,0.1-1.1,0.5-1.6,0.8c-6.2,4.6-12.3,9.3-18.5,13.9c-8.2,6.1-18,6.4-26.5,0.8c-4.5-2.9-8.9-5.9-13.4-8.9
	c-1.6-1.1-1.7-2.9-0.2-3.8c1-0.6,1.9-0.2,2.7,0.3c4.2,2.8,8.3,5.5,12.5,8.3c7.9,5.3,15.4,5.1,23-0.6c5.4-4,10.8-8.1,16.2-12.1
	C82.4,99.3,82.7,99,83.2,98.6z M82.1,89.7c0.1,0.2,0.3,0.7,0.6,1.1c1.1,1.6,2.4,3.1,3.5,4.7c0.6,0.9,1.3,1,2.3,0.8
	c6.2-1.3,11.7-4.2,17.5-6.5c1-0.4,1.8-1,1.5-2.2c-0.3-1.2-1.2-1.3-2.3-1.3c-4.6,0-9.1,0-13.7,0c-1.5,0-2.5-0.4-3.3-1.7
	c-0.8-1.4-1.7-2.7-2.7-4c-0.2-0.3-0.7-0.6-1.1-0.6c-0.3,0-0.8,0.5-0.8,0.9C83.1,83.7,82.6,86.6,82.1,89.7z"
	/>
	<path
	d="M69.2,5.2c0.6,0.4,1.2,0.6,1.6,1c2,2,4,4,6,6c1.1,1.2,1.2,2.2,0,3.4c-2,2-4,4-6,6c-1.2,1.2-2.3,1.1-3.5,0
	c-2-1.9-3.9-3.9-5.8-5.8c-1.3-1.3-1.3-2.3,0-3.6c2-2,3.9-4,5.9-5.9C67.9,5.8,68.5,5.5,69.2,5.2z M72.1,14.1c-1-1.1-2-2.2-2.9-3.1
	c-1.1,1-2.2,2-3.2,2.9c1.1,1.1,2.1,2.2,3.2,3.3C70.2,16,71.2,15,72.1,14.1z"
	/>
	<path
	d="M129,73.6c-0.4,0.6-0.6,1.3-1.1,1.7c-1.9,2-3.9,4-5.9,5.9c-1.2,1.2-2.3,1.2-3.5,0c-2-2-4-3.9-5.9-5.9
	c-1.2-1.2-1.2-2.3,0-3.5c2-2,3.9-4,5.9-5.9c1.2-1.2,2.3-1.2,3.5,0c2,2,4,3.9,5.9,5.9C128.4,72.3,128.6,72.9,129,73.6z M120.1,76.6
	c1.2-1.1,2.3-2.2,3.2-3.1c-1-1-2-2.1-2.8-3c-1.1,1.1-2.2,2.1-3.3,3.2C118.1,74.6,119.1,75.7,120.1,76.6z"
	/>
	<path
	d="M129,9.6c-0.4,0.6-0.6,1.3-1.1,1.7c-1.9,2-3.9,4-5.9,5.9c-1.2,1.2-2.3,1.2-3.5,0c-2-2-4-3.9-5.9-5.9
	c-1.2-1.2-1.2-2.3,0-3.5c2-2,3.9-4,5.9-5.9c1.2-1.2,2.3-1.2,3.5,0c2,2,4,3.9,5.9,5.9C128.4,8.3,128.6,9,129,9.6z M120.4,6.5
	c-1.1,1.1-2.2,2.2-3.1,3.1c1,1,2,2.1,2.9,3c1.1-1,2.2-2.1,3.2-3.1C122.4,8.5,121.4,7.5,120.4,6.5z"
	/>
	<path
	d="M69.1,69.1c0.6,0.4,1.3,0.6,1.7,1c2,2,4,4,6,6c1.1,1.2,1.1,2.2,0,3.4c-2,2-4,4-6,6c-1.2,1.1-2.2,1.1-3.4,0c-2-2-4-4-6-6
	c-1.1-1.2-1.1-2.2,0-3.4c2-2,4-4,6-6C67.9,69.7,68.5,69.4,69.1,69.1z M66.1,77.5c1.1,1.2,2.2,2.3,3.1,3.2c1-0.9,2.1-2,3-2.8
	c-1.1-1.1-2.1-2.2-3.2-3.3C68,75.6,67,76.6,66.1,77.5z"
	/>
</svg>