<svg
  width="0.5em"
  height="0.5em"
  fill="currentColor"
  viewBox="0 0 130 130"
  xmlns="http://www.w3.org/2000/svg"
    >
    <path
      d="M68.6,18.2c2.2-6,6-10.6,11.7-13.6C94.4-2.8,111.6,5.3,115,21c0.2,0.9,0.5,1.2,1.4,1.2c3.3-0.1,6.6,0,9.9,0
      c0.9,0,1.2,0.2,1.1,1.1c-0.1,1.8-0.1,3.6,0,5.3c0,0.8-0.2,1.1-1,1.1c-3.2,0-6.4,0-9.5,0c-1.1,0-1.3,0.3-1.3,1.4
      c0,4.3,0.2,8.6-0.4,12.9c-0.8,5.6-2.7,10.8-5.7,15.6c-0.5,0.8-0.4,1.1,0.4,1.6c11.8,7.6,17.9,18.4,17.6,32.5
      c-0.4,18.1-14.9,33.5-32.9,35.1c-19.9,1.8-37.3-12-39.9-31.8c-0.8-5.7-0.1-11.3,1.8-16.7c0.4-1.1,0.2-1.3-0.9-1.3
      c-10.3,0-20.6,0-30.9,0c-0.9,0-1.5,0.2-2.1,0.9C17.3,85,12,90.3,6.7,95.6c-0.7,0.7-1.1,0.9-1.9,0c-1.1-1.3-2.3-2.4-3.5-3.5
      c-0.7-0.6-0.7-1,0-1.7C9.5,82.3,17.6,74.1,25.8,66c3.4-3.4,6.8-6.8,10.2-10.2c0.7-0.7,0.9-1-0.2-1.4c-15.1-6.1-25.3-20.9-25.6-37.2
      c0-2.3,0-4.5,0-6.8c0-0.7,0.1-1.1,1-1.1c12.9,0,25.8-0.1,38.7,0.1c7,0.1,12.9,3,17.7,8c0.3,0.3,0.5,0.5,0.8,0.8
      C68.4,18.2,68.4,18.2,68.6,18.2z M31.2,71.3c0.3,0,0.4,0.1,0.6,0.1c9.4,0,18.8,0,28.3,0c0.7,0,1.1-0.3,1.4-0.8
      c1.1-1.6,2.4-3.1,3.9-4.5c10.2-9.4,22.1-12.4,35.5-9c0.6,0.2,1,0.2,1.4-0.4c3-4.6,5-9.5,5.5-15c0.5-5.6,0.4-11.2,0.2-16.7
      c-0.3-8.6-7.7-15.6-16.2-15.8c-9.5-0.2-17,7.2-17.1,16.7c0,4.4,0,8.8,0,13.3c0,0.8-0.2,1.1-1,1.1c-1.8-0.1-3.6-0.1-5.5,0
      c-0.7,0-1-0.2-1-1c0.1-1.4,0-2.7,0-4.1c-0.2-10-7.9-18.3-17.6-18.5c-10.4-0.2-20.8-0.1-31.2-0.1c-0.7,0-1,0.2-0.9,0.9
      c0.1,1.6,0.2,3.3,0.6,4.9C21.4,38.8,34.9,49.9,51.6,50c2.6,0,5.3,0,7.9,0c0.7,0,1,0.1,1,0.9c-0.1,1.9,0,3.8,0,5.7
      c0,0.6-0.2,0.9-0.8,0.8c-4.5-0.1-8.9,0.2-13.4-0.3c-0.8-0.1-1.3,0.1-1.8,0.7C40.3,62,36.2,66.1,32,70.3
      C31.8,70.5,31.4,70.8,31.2,71.3z M90.9,121.4c16,0,29.1-13.1,29.1-29.1c0-16-13.2-29.1-29.2-29.1c-16,0-29.1,13.1-29.1,29.2
      C61.8,108.3,74.9,121.4,90.9,121.4z"
    />
    <path
      d="M99,21.9c0,0.9,0,1.9,0,2.8c0,0.6-0.1,0.9-0.8,0.9c-1.9,0-3.9,0-5.8,0c-0.7,0-0.8-0.3-0.8-0.9c0-1.9,0-3.8,0-5.7
      c0-0.6,0.2-0.9,0.8-0.9c1.9,0,3.9,0,5.8,0c0.7,0,0.8,0.3,0.8,0.9C98.9,20,99,20.9,99,21.9z"
    />
    <path
      d="M94.6,82.4c0,3.5,0,7,0,10.5c0,0.6-0.1,1.1-0.6,1.5c-3.2,3.2-6.4,6.3-9.6,9.6c-0.6,0.6-0.9,0.5-1.5-0.1
      c-1.2-1.3-2.5-2.6-3.8-3.8c-0.6-0.6-0.7-0.9,0-1.5c2.4-2.3,4.7-4.7,7-7c0.6-0.6,0.9-1.3,0.9-2.2c0-5.9,0-11.7,0-17.6
      c0-1,0.3-1.4,1.3-1.3c1.7,0.1,3.4,0.1,5.1,0c0.9,0,1.1,0.3,1.1,1.1C94.6,75.3,94.6,78.8,94.6,82.4z"
    />
</svg>