
    <svg
      width="0.5em"
      height="0.5em"
      fill="currentColor"
      viewBox="0 0 130 130"
      xmlns="http://www.w3.org/2000/svg"
    >
      <g>
        <path
          d="M121.5,86c0-0.5,0-0.7,0-1c0-9.5,0-19.1,0-28.6c0-0.8,0-1.2-1-0.9c-14.5,4.1-29,8.2-43.6,12.3C76,68.1,76,68.5,76,69.3
          c0,14.9,0,29.8,0,44.7c0,7.4-5.4,13.7-12.7,14.8c-6.4,1-12.8-2.3-15.7-8c-3-6-1.8-13,3-17.6c4.5-4.3,11.1-5.4,16.8-2.8
          c0.3,0.1,0.6,0.3,1.1,0.5c0-0.6,0-1.1,0-1.5c0-16.1,0-32.2,0-48.2c0-2.9,0.8-3.9,3.6-4.7c17.1-4.9,34.2-9.7,51.4-14.6
          c3.5-1,5.6,0.6,5.6,4.2c0,21,0,41.9,0,62.9c0,8.6-6.9,15.3-15.4,15.1c-7.5-0.1-14-6.3-14.5-13.8c-0.5-7.7,4.9-14.7,12.4-15.9
          C114.9,83.6,118.2,84.3,121.5,86z M121.5,40.2c-0.4,0.1-0.6,0.2-0.8,0.2c-9.4,2.6-18.7,5.3-28.1,7.9c-5.2,1.5-10.4,2.9-15.6,4.4
          c-0.5,0.1-1.1,0-1.1,0.9c0,2.2,0,4.3,0,6.5c0.4-0.1,0.7-0.1,0.9-0.2c8.4-2.4,16.9-4.8,25.3-7.2c6.1-1.7,12.2-3.4,18.2-5.2
          c0.5-0.1,1.1-0.1,1-1C121.5,44.6,121.5,42.5,121.5,40.2z M114,106.5c4.1,0,7.5-3.4,7.5-7.5c0-4.1-3.3-7.5-7.4-7.5
          c-4.2,0-7.6,3.4-7.5,7.5C106.5,103.1,109.9,106.5,114,106.5z M68.5,114c0-4.1-3.4-7.5-7.5-7.5c-4.2,0-7.5,3.4-7.5,7.6
          c0,4.1,3.4,7.4,7.5,7.4C65.1,121.5,68.5,118.1,68.5,114z"
        />
        <path
          d="M23.5,63.3c0-0.4,0-0.9,0-1.3c0-18.6,0-37.2,0-55.9c0-0.4,0-0.7,0-1.1c0-1.9,1-3.3,2.7-3.8c1.6-0.5,3.2,0.1,4.3,1.7
          c1,1.4,1.9,2.8,2.8,4.3C38,14.6,44.2,20.7,51.2,26c2.4,1.8,4.8,3.5,6.4,6c4.1,6.2,4.7,12.7,1.3,19.3c-3.3,6.5-8.9,9.8-16.2,10.2
          c-2.4,0.1-4.1-1.5-4.2-3.7c0-2.1,1.6-3.7,3.9-3.8c5-0.2,9.1-3.3,10.5-7.8c1.5-4.6-0.1-9.5-4.1-12.5c-6.4-4.8-12.4-10-17.4-16.2
          c-0.1-0.1-0.2-0.1-0.3-0.2c-0.2,0.5-0.1,0.9-0.1,1.4c0,19.3,0,38.6,0,57.9c0,8.6-6.9,15.2-15.5,15.1C8,91.3,1.5,85.1,1,77.6
          C0.5,69.9,5.9,63,13.3,61.7c3.2-0.6,6.3-0.1,9.2,1.3C22.8,63.1,23.1,63.4,23.5,63.3z M23.5,76.5c0-4.1-3.4-7.4-7.5-7.4
          c-4.2,0-7.5,3.4-7.5,7.6c0,4.1,3.5,7.4,7.6,7.4C20.2,84,23.5,80.6,23.5,76.5z"
        />
      </g>
    </svg>
