    <svg
      width="0.5em"
      height="0.5em"
      fill="currentColor"
      viewBox="0 0 130 130"
      xmlns="http://www.w3.org/2000/svg"
    >
      <path
        d="M12.3,50.3c0.9,1,1.8,1.9,2.6,2.8c0.2,0.2,0.7,0.4,1.1,0.3c7.2-1.5,14.6-2.2,21.9-2.4c0.4,0,0.9-0.3,1.2-0.7
		c1.9-2.8,4.5-4,7.8-3.6c0.7,0.1,1.1-0.1,1.5-0.7c3.5-4.7,7.5-9,11.9-12.9c0.5-0.5,0.5-0.8,0.4-1.5c-0.3-1.3-0.3-2.6-0.4-3.9
		c0-0.4-0.2-0.9-0.4-1.1c-5.8-3.5-12-6.1-18.5-8c-3.5,4.4-6.7,5.2-11.5,2.7c-1.7,1.7-3.4,3.5-5.2,5.3c-1.1,1.1-2.8,0.9-3.2-0.6
		c-0.2-0.6,0.1-1.5,0.5-2c1.5-1.7,3.2-3.3,4.8-4.9c0.6-0.5,0.7-0.9,0.4-1.7c-1.1-3.4,0.1-6.7,3-8.6c2.9-1.9,6.4-1.8,9.1,0.6
		c0.5,0.5,0.9,0.5,1.5,0.2c8.7-4.3,17.9-6.3,27.5-6.2c8.9,0.1,17.3,2,25.3,5.8c0.7,0.3,1.2,0.5,1.9-0.1c2.6-2,5.9-2.1,8.6-0.3
		c2.7,1.8,4,4.9,3.3,8c-0.2,0.9-0.1,1.4,0.6,1.9c0.2,0.1,0.4,0.3,0.6,0.5c1.4,1.7,2.9,2.5,5.4,1.9c3-0.7,5.4,1,7,3.5
		c1.6,2.6,1.6,5.4-0.1,8c-0.5,0.7-0.4,1.2,0,1.9c6.6,11.7,9,24.3,7.5,37.6c-1.8,15.1-8.4,27.7-19.5,38.1c-0.5,0.5-0.6,0.8-0.4,1.5
		c1,3.4-0.1,6.6-2.9,8.6c-2.8,1.9-6.3,1.8-9-0.4c-0.7-0.5-1.1-0.3-1.7,0c-8.8,4.5-18.2,6.5-28.1,6.4c-9.3-0.1-18.1-2.2-26.4-6.4
		c-0.6-0.3-1-0.3-1.7,0.1c-2.7,1.9-6,1.9-8.6,0c-2.6-1.8-3.8-4.8-3-8c0.2-0.7,0.1-1.1-0.5-1.6C15.5,100,9,87.2,7.1,72
		c-0.3-2.1-0.3-4.3-0.4-6.5c0-0.6-0.2-0.9-0.8-1.2c-3.5-1.5-5.3-4.5-4.9-8c0.4-3.6,2.9-6.1,6.6-6.6c0.9-0.1,1.1-0.6,1.3-1.3
		c1.5-5.5,3.8-10.7,6.7-15.5c0.9-1.4,2.1-1.7,3.1-0.7c0.9,0.9,0.7,1.8,0.1,2.7c-2.6,4.2-4.5,8.6-5.9,13.3
		C12.7,48.9,12.5,49.7,12.3,50.3z M43.5,61.6c0,0-0.1,0.1-0.1,0.2c-6.7,13.8-9.3,28.5-8,43.8c0,0.3,0.5,0.8,0.9,0.9
		c1.7,0.5,3.1,1.3,4.1,2.6c0.5,0.6,0.9,0.7,1.6,0.4c5.5-2.6,11.2-4.9,16.6-7.8c12.6-7,23.3-16.3,32.3-27.5c0.4-0.5,0.5-0.9,0.1-1.5
		c-0.9-1.4-1.2-3-0.9-4.7c0.1-0.8-0.2-1.1-0.9-1.5c-9.6-4.7-19.6-8-30.1-9.9c-2-0.3-3.9-0.6-5.8-0.9C51.5,60.5,48.6,62.3,43.5,61.6z
		M41.8,116.4c0.2,0.1,0.4,0.2,0.5,0.3c17,8.1,34,8.1,51,0.1c0.6-0.3,0.8-0.6,0.7-1.3c-0.4-4.1,1.6-7.2,5.5-8.6
		c0.4-0.1,0.8-0.7,0.8-1.1c0.2-3,0.3-6,0.4-9c0.1-1.3,0.8-2,1.9-2c1.1,0,1.9,0.8,1.9,2c-0.1,3-0.1,6.1-0.4,9.1
		c-0.1,1.3,0.7,1.4,1.3,1.9c0.7,0.5,1,0,1.4-0.4c5.4-5,9.6-10.8,12.8-17.4c0.4-0.8,0.3-1.2-0.3-1.8c-4.8-4.8-10-9.2-15.6-13
		c-0.4-0.3-0.8-0.8-1.5-0.3c-0.7,0.5-0.6,1-0.5,1.7c0.6,2.9,1.2,5.8,1.8,8.7c0.2,1.3-0.3,2-1.4,2.2c-1.3,0.3-2-0.5-2.3-2.1
		c-0.5-2.9-1.1-5.8-1.7-8.7c-1-0.2-1.9-0.1-2.6-0.5c-1-0.4-1.4-0.1-2,0.6C80.3,93,64.1,104.9,44.6,112.4c-1.6,0.6-2.9,1.1-2.7,3.1
		C42,115.8,41.8,116,41.8,116.4z M37.7,54.8C37.9,54.9,37.7,54.8,37.7,54.8c-7,0.8-13.9,1.5-20.8,2.3c-0.3,0-0.8,0.6-0.8,0.9
		c-0.3,2.9-1.8,4.9-4.5,6c-1,0.4-1.2,1-1.2,1.9c0.6,12.2,4.6,23.2,11.4,33.2c2.2,3.2,4.8,6.2,7.7,8.8c2.1-1.2,2-1.2,1.9-3.5
		c-0.6-8-0.2-15.9,1.4-23.7c1.4-7,3.7-13.8,6.8-20.3c0.2-0.4,0.4-0.9,0.2-1.2C39.3,57.8,38.5,56.4,37.7,54.8z M105.2,21.2
		c-4.5,2.8-8.1,2.2-11.3-1.7c-0.2-0.2-0.8-0.3-1.1-0.2C86.9,21,81.3,23.5,76,26.6c-0.3,0.2-0.6,0.8-0.6,1.3c-0.2,1.2,0,2.4-0.4,3.6
		c-0.2,0.9-0.1,1.4,0.6,2C83.6,40.6,90.2,49,95,58.7c0.9,1.7,1.7,3.1,3.8,2.7c0.4-0.1,1-0.2,1.1-0.5c4.6-7.7,8.2-15.9,10.9-24.6
		c0.2-0.6,0.1-1-0.5-1.3c-1.5-1.1-2.5-2.5-2.9-4.3c-0.6-2.2-0.1-4.3,1.1-6.3C107.5,23.3,106.4,22.3,105.2,21.2z M121.8,84.8
		c1.8-4.9,2.9-10.1,3.3-15.4c0.8-11.5-1.5-22.3-7.1-32.4c-0.2-0.4-0.8-0.9-1-0.8c-0.8,0.4-2.1-0.3-2.6,1.2c-0.6,2.3-1.5,4.6-2.3,6.8
		c-2.4,6.4-5.3,12.5-8.7,18.3c-0.2,0.4-0.4,1.1-0.1,1.4c1.7,2.2,2.1,4.6,1.6,7C110.6,75.6,116.2,80.1,121.8,84.8z M51.2,48.8
		c0.5,0.8,1,1.3,1.3,2c0.3,0.8,0.8,1,1.7,1.2c4.7,0.8,9.4,1.6,14,2.7c8,1.9,15.6,4.8,23,8.5c0.4,0.2,1,0.1,1.4,0
		c0.1,0,0.2-0.7,0.1-1C87.7,52,81.1,43.3,72.7,35.9c-0.3-0.2-0.9-0.3-1.3-0.1c-2.4,1.2-4.8,1.1-7.2,0c-0.3-0.1-0.9-0.1-1.2,0.1
		C58.6,39.8,54.6,44.1,51.2,48.8z M62.4,23.7c3.9-3,6.8-3,11,0c0.4-0.2,0.9-0.5,1.4-0.8c5.1-2.9,10.5-5.3,16.2-7.1
		c1.9-0.6,1.9-0.6,2-2.7c-0.1-0.1-0.2-0.1-0.3-0.2c-0.3-0.2-0.7-0.3-1-0.5c-10-4.5-20.5-6-31.4-4.6c-6.1,0.8-11.9,2.5-17.3,5.3
		c-0.3,0.2-0.8,0.7-0.7,1c0.1,0.4,0.5,1,0.9,1.1C49.7,17.3,56.2,20.1,62.4,23.7z M4.8,57.1c0,2.1,1.7,3.9,3.7,3.9
		c2.2,0,3.8-1.6,3.8-3.7c0-2.2-1.6-3.9-3.7-4C6.6,53.3,4.8,55.1,4.8,57.1z M45.6,58c2.2,0,3.9-1.7,3.8-3.9c0-2.1-1.8-3.8-3.9-3.8
		c-2.1,0-3.8,1.8-3.8,3.8C41.9,56.4,43.5,58,45.6,58z M93.7,68.8c0,2.1,1.7,3.9,3.7,3.9c2.1,0,3.8-1.6,3.8-3.8
		c0-2.2-1.6-3.9-3.8-3.9C95.5,65,93.7,66.7,93.7,68.8z M30.8,15.3c0,2.1,1.7,3.8,3.8,3.9c2.1,0,3.8-1.7,3.8-3.8
		c0-2.2-1.6-3.8-3.7-3.9C32.4,11.5,30.8,13.1,30.8,15.3z M67.8,25.2c-2.1,0-3.8,1.7-3.8,3.8c0,2.1,1.8,3.9,3.8,3.8
		c2.1,0,3.8-1.6,3.8-3.8C71.7,26.9,70,25.2,67.8,25.2z M100.4,11.5c-2.1,0-3.8,1.7-3.9,3.7c0,2.2,1.6,3.9,3.8,3.9
		c2.2,0,3.8-1.6,3.8-3.8C104.1,13.3,102.5,11.5,100.4,11.5z M105.3,114.2c0-2.2-1.6-3.8-3.8-3.8c-2.2,0-3.8,1.6-3.8,3.9
		c0,2.1,1.7,3.8,3.8,3.7C103.6,118,105.3,116.3,105.3,114.2z M30.8,113.8c0,2.1,1.7,3.8,3.7,3.9c2.1,0,3.9-1.7,3.9-3.9
		c0-2.1-1.8-3.8-3.8-3.8C32.5,110,30.8,111.8,30.8,113.8z M118.6,28.7c0-2.1-1.7-3.8-3.8-3.8c-2.2,0-3.8,1.6-3.8,3.8
		c0,2.2,1.6,3.9,3.8,3.9C116.9,32.6,118.6,30.9,118.6,28.7z"
      />
    </svg>