<svg
  width="0.5em"
  height="0.5em"
  fill="currentColor"
  viewBox="0 0 130 130"
  xmlns="http://www.w3.org/2000/svg"
    >
      <path
        d="M81.1,105.4c-0.7-0.2-1.5-0.2-2.1-0.6c-1.2-0.9-0.8-2.6,0.7-3.1c1-0.4,2.1-0.6,3.3-0.9c-0.2-2-0.4-4-0.5-6.1
		c-5.4,2.7-10.7,2.8-16,0.1c-0.9,4.5-1,6.8,2,9.6c0.6,0.6,1.2,0.8,2,0.4c0.4-0.2,0.8-0.3,1.3-0.5c1.1-0.3,2.1,0.1,2.4,1.1
		c0.3,1-0.1,2-1.2,2.4c-1,0.4-2.1,0.8-3.1,1.1c-10.6,3.9-20.7,8.6-29.7,15.4c-1.6,1.2-3,2.5-4.5,3.7c-1.1,0.9-2.2,1-2.9,0.1
		c-0.8-0.9-0.6-1.9,0.5-2.9c7.2-6.5,15.6-11.3,24.4-15.3c2.5-1.1,5.1-2.2,7.7-3.3c-1.6-1.7-2.6-3.7-3.1-6c0-0.2-0.2-0.4-0.4-0.4
		c-3.7-1.8-7.3-3.6-11.3-5.5c0.5,1.5,0.8,2.6,1.2,3.8c0.4,1.1,0.2,1.9-0.6,2.7c-4.2,4.2-8.4,8.4-12.6,12.6c-1,1-2.1,1.1-2.9,0.2
		c-0.8-0.8-0.7-1.9,0.4-2.9c3.7-3.7,7.5-7.5,11.2-11.2c0.7-0.6,0.8-1.2,0.5-2c-1.1-3-2-6.1-3-9.2c-0.2-0.5-0.5-1-0.9-1.2
		c-1.8-1-3.6-1.8-5.5-2.7c-2.4,3.1-4.9,6.1-7.3,9.1c-2.8,3.5-5.7,7.1-8.5,10.7c-2.3,2.9-2.6,3-6.2,2.9c-0.8,2.9,2,3.8,3.2,5.8
		c0.8-0.8,1.4-1.5,2.1-2.2c2.8-3,5.6-6.1,8.4-9.1c1-1.1,2.1-1.3,2.9-0.5c0.9,0.8,0.8,1.9-0.2,3c-5,5.5-10,11-15.1,16.4
		c-0.8,0.8-0.9,1.5-0.2,2.4c0.6,0.8,1,1.7,1.4,2.6c0.6,1.1,0.3,2.1-0.7,2.7c-1,0.5-2,0.2-2.6-0.9c-0.7-1.1-1.3-2.3-1.9-3.5
		c-0.9-1.8-0.7-3.5,0.6-5c0.9-1.1,1.8-2.1,2.9-3.3c-0.9-1-1.7-1.9-2.6-2.8c-1.4-1.3-2.1-2.9-1.9-4.9c0.2-1.3-0.3-1.9-1.6-1.9
		c-0.2,0-0.5-0.1-0.7-0.1c-3.1-0.5-4.5-2.1-4.5-5.2c0-6.5,0-13,0-19.5c0-1.5,0.4-2.8,1.5-4c2.8-3.2,5.6-6.5,8.3-9.7
		c0.5-0.6,0.8-1.4,0.8-2.1c0.2-3.9,0.3-7.8,0.4-11.8c0-1.5,0.8-2.4,1.9-2.3c1.2,0.1,1.8,1,1.8,2.5c-0.2,9.2-0.5,18.3-0.7,27.5
		c0,0.4,0,0.9,0,1.6c0.4-0.5,0.6-0.7,0.8-1c2.4-3.2,4.8-6.3,7.2-9.5c1.7-2.3,2.6-4.8,2.5-7.7c-0.5-13.9-0.9-27.8-1.4-41.8
		c-0.1-3.1-0.3-6.2,1-9.3c0.7-1.6,0.2-2.1-1.6-1.8c0,0.9,0,1.8-0.2,2.7c-0.2,1-0.5,2.1-1,3c-0.6,0.9-0.8,1.8-0.8,2.9
		c-0.1,4.2-0.3,8.3-0.5,12.5c-0.1,3.5-1.3,4.8-5,5.2c0,1.5,0,3,0,4.5c0,0.8,0,1.6-0.1,2.3c-0.1,1-0.8,1.6-1.9,1.6
		c-1,0-1.7-0.8-1.8-1.9c0-2,0-4,0.1-6c0-0.7-0.1-1.1-0.7-1.5c-1.2-0.7-1.8-1.9-1.8-3.3c-0.1-3.4-0.3-6.9-0.4-10.3
		c0-0.7-0.1-1.1-1-1.4c-1.7-0.5-2.6-1.9-2.6-3.7c0-2,0-4.1,0-6.1c0-0.7-0.2-1-0.8-1.3C5.7,10.2,5,7,5.4,4c0.2-1.3,1.5-2.3,2.9-2.3
		c7.8,0,15.6,0,23.4,0c1.7,0,2.8,1.2,3,2.9c0.2,2-0.1,3.8-1.4,5.4c-0.2,0.2-0.1,0.7-0.1,1.1c0,1.5,0.2,3-0.2,4.4
		c-0.5,1.9-0.8,3.8-0.8,5.8c0.3,7.3,0.5,14.5,0.7,21.8c0,0.8,0.4,1.1,1.1,1.4c4.8,2.1,9.7,4.2,14.5,6.5c1,0.5,1.8,1.5,2.7,2.3
		c0.3,0.2,0.5,0.5,0.8,0.6c1.2,0.4,2.5,0.6,4,1c0.1-0.1,0.3-0.4,0.7-0.8c-1.5-1.3-2.2-3-2.3-4.9c0-0.3-0.4-0.5-0.7-0.8
		c-0.6-0.7-1.5-1.3-1.9-2.1c-3.3-6.6-6.4-13.2-8.5-20.3c-0.3-1-0.5-2.1-0.4-3.2c0.1-2,1.8-2.9,3.5-2c0.8,0.4,1.5,1,2.2,1.6
		C53.7,27.8,58,34,62.1,40.3c0.6,0.9,0.4,2.4,0.9,3.4c0.6,1,1.7,1.6,2.5,2.5c0.4,0.4,0.5,1,0.8,1.7c0.7-0.2,1.5-0.3,2-0.5
		c0.1-1.5,0-3,0.4-4.3c0.3-1.1,0.4-2,0-3.1c-0.4-0.8-0.4-1.9-0.3-2.8c0.5-7,1.1-14,2.7-20.9c0.2-0.8,0.4-1.5,0.7-2.2
		c0.5-1.1,1.2-2,2.5-2c1.3,0,2,0.9,2.4,2c0.5,1.3,1,2.6,1.1,3.9c0.8,6.5,1.6,13.1,2.3,19.7c0.1,1.1-0.4,2.2-0.7,3.3
		c-0.1,0.3-0.2,0.7-0.1,0.9c0.9,1.7,1.1,3.4,0.4,5.4c0.9,0.2,1.6,0.4,2.5,0.6c0.5-1.7,1.4-3.1,2.9-3.9c0.2-0.1,0.3-0.6,0.4-0.9
		c0.3-1,0.4-2.3,1-3.1c4-5.4,8-10.8,12.1-16.2c0.9-1.1,2-2.1,3.2-2.9c1.9-1.2,3.9-0.1,3.7,2.2c-0.1,1.7-0.5,3.5-1.1,5.2
		c-2.4,5.9-5,11.8-7.6,17.6c-0.3,0.8-0.9,1.5-1.6,2c-1,0.6-1.1,1.4-1.4,2.4c-0.3,1.3-1.1,2.5-1.7,3.8c-0.1,0-0.2,0-0.3-0.1
		c0.3,0.3,0.5,0.7,0.6,0.8c1.5-0.4,2.7-0.6,4-1c0.3-0.1,0.6-0.4,0.8-0.6c0.7-0.7,1.3-1.6,2.1-2c6.7-3.3,13.4-6.5,20.6-8.6
		c0.9-0.3,1.9-0.4,2.8-0.4c2,0.1,2.9,1.8,2,3.6c-0.4,0.8-1,1.6-1.7,2.2c-5.4,5.2-11.6,9.5-17.8,13.6c-0.9,0.6-2.4,0.4-3.4,1
		c-1,0.6-1.6,1.9-2.5,2.4c-1.2,0.6-2.6,0.8-4.2,1.2c-0.4,1.5-1.7,3.2-1.3,5.4c0.1,0.6,0.2,1.3,0.4,1.9c1.1,3,2.3,5.9,3.5,8.9
		c1,2.6,0.5,4.2-1.6,6c-0.3,0.2-0.4,0.8-0.3,1.1c0.6,2,1.2,4,1.9,6c0.1,0.4,0.6,0.8,1,1c1.7,0.9,3.1,2,3.9,3.8
		c0.6,1.5,0.6,2.9,0,4.5c-0.2,0.4-0.1,1,0.1,1.4c0.5,1.2,1.1,2.4,1.5,3.7c1.4,5.3,2.8,10.7,4.2,16.1c0.4,1.4-0.1,2.4-1.2,2.7
		c-1.1,0.3-2-0.3-2.4-1.7c-1.4-5.3-2.8-10.6-4.2-15.9c-0.8-3.1-1-3.2-4.4-2.5c0,0.4,0,0.8,0,1.3c0,5.4,0,10.8,0,16.2
		c0,0.4,0.1,0.9-0.1,1.2c-0.4,0.6-1,1.4-1.6,1.4c-0.6,0.1-1.4-0.6-1.8-1.1c-0.3-0.3-0.2-1-0.2-1.5c0-5.7,0-11.5,0-17.2
		c0-0.9-0.1-1.6-1-2c-0.2-0.1-0.5-0.2-0.6-0.4c-1-1.5-2.1-1-3.3-0.3c-10.1,5.2-18.6,12.6-26,21.1c-0.2,0.3-0.4,0.5-0.6,0.8
		c-0.9,0.9-1.9,1.1-2.7,0.4c-0.8-0.7-1-1.8-0.1-2.7c2.8-3,5.5-6.1,8.5-9c4.2-4.1,8.9-7.7,13.9-10.8
		C80.9,105.5,81.1,105.4,81.1,105.4z M90.2,72.5c0.4-2.6,0.2-4-0.5-5.6c-2.1-4.6-9.7-8.5-14.7-7.6c0.6,2.5,1.8,4.8,3.4,6.8
		c1,1.3,0.9,2.3-0.1,3c-1,0.7-2,0.4-2.9-0.8c-0.3-0.4-0.6-0.8-1-1.3c-3.3,5-7.9,7.7-13.6,8.7c0.4,2.2,0.7,4.2,1,6.3
		c1,5.8,5.2,9.9,11.1,10.8c5.1,0.8,10.5-2.1,12.9-6.9c1.6-3.2,1.5-6.7,2.2-10c-1.6-0.5-3.1-0.8-4.5-1.4c-0.6-0.3-1.3-1-1.4-1.6
		c-0.3-1.4,1-2.3,2.6-1.8C86.5,71.5,88.3,72,90.2,72.5z M34,66c-0.4,3.8-1.9,6.9-4.1,9.8c-3.4,4.3-6.7,8.7-9.9,13.1
		c-0.4,0.5-0.6,1.2-0.6,1.8c-0.1,1.7,0,3.4,0,5.1c0,1.4-0.8,2.3-1.9,2.3c-1.1,0-1.8-0.9-1.8-2.2c0-0.2,0-0.5,0-0.7
		c0.1-6.9,0.3-13.9,0.4-20.8c0-0.4,0-0.8,0-1.6c-2.3,2.7-4.3,5.1-6.3,7.5c-0.2,0.3-0.3,0.8-0.3,1.1c0,6.5,0,13.1,0,19.6
		c0,0.9,0.3,1.3,1.3,1.5c2.1,0.3,4.2,0.6,6.3,1.1c1,0.2,1.5-0.1,2.1-0.8c4.8-6,9.6-12.1,14.5-18.1c2-2.4,3.4-4.9,3.9-8
		c0.1-1,0.5-2,0.7-3c0.1-0.3,0.1-0.8,0-1.1C36.7,70.3,35.3,68.2,34,66z M33.4,54.9c-0.1,1.8,0,3.4,1,4.9c2.3,3.4,4.3,6.9,6.5,10.4
		c0.8,1.3,1.1,2.7,0.7,4.3c-0.5,2-0.9,3.9-1.4,5.9c-0.2,0.7,0,1,0.6,1.3c1.4,0.6,2.6,1.4,4,1.9c1.8,0.7,3,1.9,3.4,3.8
		c0.4,2.3,2.1,2.9,4,3.6c0.3-0.8,0.5-1.6,0.7-2.4c-2.8-2.1-3.2-3.7-2-6.8c1.1-2.8,2.2-5.5,3.2-8.3c0.2-0.6,0.3-1.4,0.4-2
		c0.4-2.1-0.8-3.9-1.3-5.8c-3.5,0-4.1-0.2-6.5-3c-0.2-0.2-0.5-0.3-0.8-0.4c-1.2-0.4-2.6-0.7-3.6-1.4C39.3,59.1,36.5,57,33.4,54.9z
		M92,63.4c-0.1-0.9-0.1-1.5-0.2-2.1c-0.7-3.2-2.6-5.6-5.3-7.3c-7.3-4.5-14.9-4.6-22.5-1c-2.8,1.3-5.1,3.3-6.3,6.2
		c-0.5,1.2-0.7,2.6-1.1,3.9c0.1,0,0.2,0.1,0.3,0.1C64.7,52.9,83.9,52.8,92,63.4z M71,59.4c-0.6,0.1-1.3,0.2-1.8,0.3
		c-3.4,0.9-6.4,2.3-8.7,5.1c-1.8,2.2-2.5,4.6-2,7.4c5.7-0.3,10.7-3.3,13.4-8.3c0.2-0.4,0.3-0.9,0.2-1.4C71.8,61.6,71.4,60.6,71,59.4
		z M91.9,76.9c-0.1,0-0.2,0-0.3,0c-0.2,1.2-0.5,2.5-0.6,3.7c-0.5,4.1-1.7,7.8-4.6,10.8C86.1,91.7,86,92,86,92.2
		c0.2,2.5,0.4,4.9,0.6,7.5c1.2-0.2,2.2-0.2,2.9-1.4c0.4-0.7,1.2-1.3,1.9-1.7c0.8-0.5,1.6-0.7,2.6-1c-0.7-2.4-1.5-4.7-2.2-7.1
		c-0.4-1.3-0.1-2,1.1-2.7c0.3-0.2,0.7-0.4,1-0.5c0.7-0.3,0.9-0.8,0.6-1.5C93.7,81.5,92.8,79.2,91.9,76.9z M57.1,77
		c-0.1,0-0.2,0-0.3,0c-0.8,2-1.6,4-2.4,6c-0.7,1.8-0.7,1.8,1,2.7c1.5,0.8,1.8,1.4,1.3,3c-0.4,1.4-0.8,2.7-1.2,4.1
		c2.3,1.1,4.5,2.2,6.7,3.3c0.1-1,0.2-1.8,0.3-2.7c0.2-1-0.1-1.8-0.8-2.6c-1.9-2.2-3.2-4.7-3.7-7.6C57.8,81.2,57.4,79.1,57.1,77z
		M9.2,5.4C9,7.2,9.9,8.3,11.6,8.3c1.3,0.1,2.6,0,4,0c4.3,0,8.5,0,12.8,0c1.9,0,2.8-1.1,2.5-2.9C23.6,5.4,16.4,5.4,9.2,5.4z
		M14,19.1c2.7,0,5.2-0.2,7.5-1.3c2.3-1.2,3.1-3.2,2.4-5.7c-3.3,0-6.6,0-9.9,0C14,14.5,14,16.7,14,19.1z M103,58.8
		c5.5-3.6,10.9-7.5,16.1-11.9c-0.3,0-0.4,0-0.5,0c-5.7,2.4-11.3,4.9-17,7.4c-0.4,0.2-0.6,0.5-0.9,0.7
		C101.5,56.3,102.1,57.3,103,58.8z M72.1,39.1c1.7,0,2.9,0,4.5,0c-0.2-6.6-1-13.1-2.3-19.6C73.1,26,72.2,32.5,72.1,39.1z M93,45
		c1.3-1,8-16,8-18c-3,2.9-11.3,14.6-11.4,16C90.7,43.7,91.8,44.4,93,45z M59.4,42.9c-3.4-5.6-7.4-10.8-11.8-16.1
		c0,0.4-0.1,0.5,0,0.5c2.4,5.6,4.9,11.3,7.3,16.9c0.2,0.4,0.6,0.6,0.7,0.8C56.9,44.3,58,43.7,59.4,42.9z M33.4,48.1
		c-0.1,0.1-0.3,0.2-0.4,0.3c0.3,0.7,0.4,1.5,0.9,1.9c3.5,2.6,7,5.1,10.5,7.6c0.4,0.3,1,0.5,1.4,0.7c0.7-1.3,1.4-2.4,2.2-3.8
		C43.3,52.3,38.3,50.2,33.4,48.1z M17.9,22.7c0,3.2-0.1,6.4,0,9.6c0.1,2.7-0.4,2.3,2.6,2.4c1,0,1.2-0.4,1.3-1.3c0.1-3,0.2-6,0.3-9
		c0-0.9,0-1.7,0-2.6C20.5,22.1,19.1,22.5,17.9,22.7z M95.1,99.4c-0.3,0-0.7,0-0.9,0.1c-0.7,0.4-1.6,0.8-1.8,1.4
		c-0.2,0.6,0.3,1.6,0.8,2.1c1.3,1.3,3,1.7,4.8,1.3c1.7-0.5,2.1-2,0.9-3.3C97.9,99.9,96.6,99.4,95.1,99.4z M74.3,46.8
		c1.7,0,2.3-0.4,2.3-1.7c0-1.3-0.9-2.3-2.2-2.3c-1.3,0-2.3,0.9-2.3,2.2C72,46.3,72.6,46.8,74.3,46.8z M52.4,62
		c0.2-0.2,0.6-0.6,0.8-1c0.2-0.5,0.2-1,0.4-1.6c0.3-1.2-0.1-1.8-1.4-1.9c-1.2-0.1-2.3,0.9-2.4,2.1C49.6,60.9,50.6,62,52.4,62z
		M98.9,59.4c-0.2-0.3-0.4-0.9-0.8-1.3c-0.7-0.7-1.7-0.8-2.6-0.3c-1,0.5-0.4,1.3-0.3,1.9c0.1,0.4,0.2,0.7,0.2,1.1
		c0.2,1.2,0.8,1.5,1.9,1.1C98.4,61.6,98.9,60.8,98.9,59.4z M57.7,49.1c0.6,0.8,0.9,1.5,1.5,1.9c0.2,0.2,0.9-0.2,1.4-0.5
		c0.4-0.2,0.8-0.5,1.2-0.7c1.1-0.6,1.2-1.3,0.4-2.2c-0.7-0.8-1.7-1.1-2.6-0.6C58.8,47.5,58.4,48.4,57.7,49.1z M90.6,49.6
		c0-1.5-0.5-2.2-1.5-2.6c-1-0.4-2-0.1-2.6,0.8c-0.5,0.8-0.8,1.5,0.4,1.9c0.5,0.2,0.8,0.5,1.3,0.7c0.4,0.2,1.1,0.6,1.3,0.5
		C90,50.6,90.3,50,90.6,49.6z"
      />
      <path
        d="M77.6,128.6c-1.8,0.1-2.7-1.3-2.1-2.8c1.4-3.6,3.5-6.9,5.8-10c0.4-0.5,0.8-1,1.2-1.4c0.9-0.9,1.9-1.1,2.7-0.4
		c0.8,0.7,0.8,1.7,0.1,2.8c-1.8,2.6-3.5,5.3-5.2,7.9c-0.5,0.8-0.8,1.8-1.3,2.7C78.5,127.9,77.9,128.4,77.6,128.6z"
      />
    </svg>