<svg
  width="0.5em"
  height="0.5em"
  fill="currentColor"
  viewBox="0 0 130 130"
  xmlns="http://www.w3.org/2000/svg"
    >
      <path
        d="M1,65c0-8.7,0-17.5,0-26.2c0-3,1.5-4.6,4.4-4.4c2.6,0.2,3.9-0.7,5.3-3C20.8,15.3,35.3,5.5,53.9,2.1
		c26.5-4.8,53.1,7.7,66.4,31.1c0.5,0.8,1,1.2,1.9,1.1c0.8-0.1,1.7,0,2.5,0c2.7,0,4.2,1.5,4.2,4.2c0,13.5,0,27.1,0,40.6
		c0,4.1,0,8.2,0,12.4c0,2.8-1.5,4.5-4.2,4.2c-2.8-0.3-4.1,0.8-5.6,3.1C108,116.3,92,126.3,71.4,128.5c-25.3,2.7-49.2-9.8-61.9-31.9
		c-0.4-0.7-0.8-1-1.7-1c-0.9,0.1-1.8,0-2.7,0c-2.6,0-4.1-1.5-4.1-4.1C1,82.7,1,73.9,1,65z M47.9,91.6c0.1,0.1,0.1,0.2,0.2,0.4
		c2.3,0,4.7,0,7,0c0.7,0,1.2,0.1,1.7,0.6c0.5,0.6,0.7,1.2,0.3,2c-0.4,0.9-1.1,1.2-2,1.2c-3.3,0-6.7,0-10,0c-0.8,0-1.4,0.3-2,0.8
		c-2.4,2.5-4.8,4.9-7.3,7.3c-0.8,0.8-0.9,1.2,0.1,1.9c14.3,9.8,29.7,11.8,46.1,6.3c2.1-0.7,4.2-1.7,6.2-2.7c0.9-0.4,1.7-0.3,2.4,0.4
		c0.6,0.7,0.6,1.4,0.1,2.2c-0.3,0.5-0.9,0.8-1.4,1c-19.3,9.1-37.9,7.7-55.6-4.3c-3.2-2.2-3.4-4.8-0.6-7.5
		c22.8-22.8,45.6-45.6,68.4-68.4c2.5-2.5,5.1-2.3,7.2,0.6c0.2,0.3,0.4,0.8,0.9,0.8c2.3,0,4.6,0,7,0c-9.4-16.5-30-31.2-56.3-29.2
		C37.7,6.8,20.6,21,13.5,34.3c0.5,0,0.9,0,1.3,0c1.8,0,3.7,0,5.5,0c0.6,0,0.8-0.4,1-0.8c9.5-12.7,22.1-20.3,37.9-22
		c13.8-1.5,26.4,2,37.7,10.2c2.3,1.7,2.6,4.5,0.6,6.5C85.7,40,73.9,51.8,62.1,63.6c-0.9,0.9-2.1,1-2.9,0.2c-0.8-0.8-0.7-1.9,0.2-2.9
		c1.5-1.5,2.9-3,4.4-4.4c3-3,6.1-6.1,9.1-9.1c-6.1-3.2-15.8-2.4-22.1,4.3c-6,6.4-6.4,15.8-3.3,21.3c0.3-0.4,0.6-0.8,0.9-1.1
		c1.7-1.7,3.3-3.4,5-5c0.9-0.8,1.9-0.9,2.7-0.1c0.8,0.8,0.8,1.8,0,2.8c-0.2,0.2-0.4,0.4-0.5,0.5c-9,9-18,18-27,27
		c-2.5,2.5-5.1,2.3-7.2-0.6c-0.3-0.4-0.4-0.8-1-0.8c-2.3,0-4.5,0-6.9,0c8.5,15.3,27.6,29.5,51.8,29.4c25-0.1,43.4-15.3,51.2-29.4
		c-2.1,0-4.2,0-6.3,0c-0.8,0-1.2,0.2-1.6,0.8c-1.8,2.6-3.9,5-6.2,7.2c-1.6,1.6-3.4,3.1-5.2,4.4c-0.9,0.7-2,0.6-2.7-0.3
		c-0.7-0.8-0.6-1.8,0.3-2.7c0.3-0.3,0.6-0.5,0.9-0.7c3-2.3,5.7-4.9,8-7.8c0.2-0.3,0.6-0.5,0.5-1c-0.5,0-0.9,0-1.4,0
		c-12.8,0-25.7,0-38.5,0c-2,0-2.9-0.6-2.9-2c0-1.3,0.9-1.8,2.9-1.8c19.8,0,39.7,0,59.5,0c0.9,0,1.4,0,1.4-1.2c0-17.2,0-34.4,0-51.6
		c0-0.8-0.2-1.1-1.1-1.1c-7.2,0-14.4,0-21.6,0c-0.3,0-0.8-0.1-1,0.1c-1.2,1.1-2.3,2.3-3.7,3.6c4.3,0,8.2,0,12.1,0
		c1.7,0,2.3,0.6,2.5,2.3c0.3,3.7,2.9,6.4,6.5,6.7c2.1,0.2,2.5,0.7,2.5,2.8c0,7.5,0,15.1,0,22.6c0,2.4-0.3,2.8-2.8,3
		c-3.2,0.3-5.8,3-6.2,6.1c-0.3,2.7-0.6,2.9-3.4,2.9c-18.8,0-37.7,0-56.5,0c-0.5,0-1.1-0.1-1.5,0.3C50,89.6,49,90.6,47.9,91.6z
		M52.3,45.6c-10.3,0-20.3,0-30.2,0c-0.7,0-0.9,0.3-1.1,0.9c-1.2,4-3.8,6.7-7.8,7.8c-0.7,0.2-0.9,0.5-0.9,1.2c0,6.4,0,12.7,0,19.1
		c0,0.8,0.3,1,1,1.2c3.9,1.1,6.5,3.7,7.7,7.6c0.2,0.8,0.5,1.1,1.3,1.1c4.2,0,8.5,0,12.7,0c0.7,0,1.2-0.3,1.6-0.7
		c2.3-2.4,4.7-4.7,7.1-7.1c0.6-0.6,0.7-1.1,0.3-1.9c-3.9-9-2.7-17.4,3.5-25C48.8,48.3,50.4,47,52.3,45.6z M77.8,84.4
		c0.3,0.1,0.4,0.1,0.5,0.1c9.9,0,19.7,0,29.6,0c0.8,0,0.9-0.3,1.1-1c1.2-4,3.8-6.6,7.8-7.7c0.8-0.2,0.9-0.5,0.9-1.3
		c0-6.3,0-12.7,0-19c0-0.7-0.2-1.1-0.9-1.3c-4-1.1-6.6-3.7-7.7-7.7c-0.2-0.8-0.5-1-1.3-1c-4.2,0-8.5,0-12.7,0
		c-0.7,0-1.2,0.2-1.6,0.7c-2.4,2.4-4.7,4.8-7.2,7.1c-0.6,0.6-0.6,1-0.3,1.8c3.4,7.6,2.9,15-1.3,22.1C83,80.1,80.7,82.4,77.8,84.4z
		M25.5,34.2c0.4,0,0.5,0.1,0.7,0.1c19.7,0,39.4,0,59.1,0c0.6,0,1-0.3,1.4-0.6c2.5-2.5,5-5.1,7.6-7.6c0.9-0.8,0.7-1.2-0.2-1.9
		C77,12,53.8,11.8,36.5,23.8C32.4,26.7,28.8,30.1,25.5,34.2z M32.2,88.3c-0.8,0-1.2-0.1-1.6-0.1c-3.5,0-7,0-10.5,0
		c-1.8,0-2.4-0.6-2.6-2.3c-0.3-3.7-2.9-6.3-6.5-6.7c-2-0.2-2.5-0.7-2.5-2.8c0-7.5,0-15,0-22.5c0-2.5,0.3-2.9,2.8-3.1
		c3.2-0.3,6-3,6.2-6.1c0.1-2.4,1-2.9,3.3-2.9c18.8,0,37.7,0,56.5,0c0.5,0,1.1,0.2,1.5-0.2c1.2-1.1,2.3-2.2,3.5-3.5
		c-0.4-0.1-0.5-0.1-0.6-0.1c-25.3,0-50.6,0-75.9,0c-0.9,0-1,0.4-1,1.1c0,17.2,0,34.5,0,51.7C4.7,91.8,5,92,5.9,92
		c7.2,0,14.4,0,21.6,0c0.4,0,0.8,0.1,1.1-0.2C29.7,90.7,30.8,89.6,32.2,88.3z M82.8,57.3c-8.5,8.5-17,17-25.5,25.5
		c6.3,3.4,15.6,1.7,21.3-3.9C84.4,73.2,86.1,64,82.8,57.3z"
      />
    </svg>