<svg
  width="0.5em"
  height="0.5em"
  fill="currentColor"
  viewBox="0 0 130 130"
  xmlns="http://www.w3.org/2000/svg"
    >
      <path
        d="M17.2,58.6C9.9,53.4,7,45.9,5.8,37.6c-0.4-2.8-0.3-5.6-0.5-8.5c0-0.4-0.3-0.9-0.6-1c-2.5-1.4-3.7-3.4-3.7-6.3
		c0-0.9,0-1.8,0.1-2.6c0.5-3.2,3.1-5.4,6.4-5.4c0.9,0,1.4-0.3,1.8-1.1c2.2-4.6,5.2-8.5,10-10.5c1.6-0.7,3.5-1.1,5.2-1.1
		C50.1,1,75.7,1,101.3,1c5.2,0,9.1,2.7,12.1,6.7c1.2,1.5,2.2,3.3,3.1,5c0.5,0.9,1,1.2,1.9,1.1c1.3-0.1,2.6,0,3.9,0
		c4,0,6.7,2.7,6.7,6.7c0,1,0.1,1.9-0.1,2.9c-0.5,3.1-3.1,5.3-6.3,5.4c-0.7,0-1.4,0-2.1,0c-0.1,11.6-2.1,22.3-11.9,29.9
		c3.2,2.2,5.9,5,7.5,8.6c0.7,1.6,1.6,2.2,3.2,2c1.1-0.1,2.2-0.1,3.4,0c3.4,0.1,6.1,2.8,6.2,6.3c0,0.7,0,1.5,0,2.2
		c-0.1,3.6-2.7,6.3-6.3,6.4c-0.7,0-1.4,0-2.2,0c0,0.9,0,1.7,0,2.5c0,11.8,0,23.6,0,35.4c0,4.3-2.7,6.9-6.9,6.9
		c-19.6,0-39.2,0-58.7,0c-4.2,0-6.8-2.6-6.9-6.9c0-1.9,0-3.8,0-5.9c-0.6,0-1.1,0-1.6,0c-6.8,0-13.6-0.1-20.4,0
		c-6,0.1-10.4-2.4-13.9-6.9c-3.6-4.7-5.5-10.2-6.3-16.1c-0.4-2.8-0.3-5.6-0.5-8.5c0-0.4-0.3-1-0.7-1.2C2.2,82.2,1,80.2,1,77.4
		c0-0.9-0.1-1.8,0.1-2.7c0.5-3.2,3.1-5.4,6.4-5.4c0.9,0,1.4-0.3,1.8-1.1C10.9,64.3,13.6,61.2,17.2,58.6z M34.6,56.4
		c0.4,0,0.7,0,0.9,0c21.8,0,43.6,0,65.5,0c2.3,0,4.2-0.7,6-2.1c2.7-2,4.6-4.7,5.9-7.8c3.7-8.5,4.2-17.2,1.9-26.1
		c-1.2-4.5-3-8.6-6.4-11.9c-2.1-2-4.5-3.3-7.4-3.3c-21.8,0-43.6,0-65.3,0c-0.3,0-0.6,0.1-1,0.1C46.6,17.2,46.7,44.6,34.6,56.4z
		M41,60.7c5.4,4.1,8.6,9.6,9.9,16c0.8,4,1.2,8.2,1.3,12.2c0.2,10.9,0.1,21.7,0.1,32.6c0,2.5,0.6,3.1,3.1,3.1c19.3,0,38.6,0,57.8,0
		c2.4,0,3.1-0.6,3.1-3.1c0-11.2,0-22.5,0-33.7c0-2.5-0.1-5.1-0.5-7.6c-0.7-5.2-2.3-10.1-5.6-14.4c-2.6-3.4-5.9-5.2-10.5-5.2
		c-19.1,0.1-38.2,0.1-57.3,0.1C41.9,60.7,41.4,60.7,41,60.7z M9.7,28.8c0,0.6-0.1,1.1-0.1,1.6c0,4.7,0.6,9.3,2.3,13.7
		c1.3,3.5,3,6.7,5.7,9.2c4.3,4,9.5,4.1,13.8,0c2-1.9,3.5-4.1,4.6-6.6c3.7-8.1,4.2-16.5,2.3-25.1c-1.1-4.8-2.9-9.3-6.4-12.9
		c-2.6-2.7-5.8-4.3-9.7-3.2c-4.2,1.2-6.7,4.4-8.8,8.2c3.5,0,6.8,0.1,10.1,0c2.6-0.1,4.5,1,5.9,3.1c0.7,1.1,1.4,2.3,1.8,3.5
		c1.6,4.4,2,9,1.6,13.6c-0.3,3.7-1.1,7.2-3,10.4c-0.9,1.5-2.1,2.8-3.9,3.3c-2.5,0.7-4.8-0.4-6.6-2.9c-1.9-2.8-2.7-6-3.1-9.3
		c-0.2-2.2-0.3-4.5-0.4-6.7C13.8,28.8,11.8,28.8,9.7,28.8z M9.8,84.3c-0.1,0.2-0.1,0.4-0.1,0.5c0,0.4-0.1,0.8-0.1,1.2
		c0,4.7,0.7,9.2,2.2,13.6c1.3,3.5,3,6.7,5.7,9.3c4.3,4,9.4,4.1,13.8,0.2c2.4-2.1,4-4.8,5.2-7.7c2.9-6.9,3.6-14.2,2.4-21.6
		c-0.8-5.2-2.5-10-5.8-14.2c-1.5-1.9-3.3-3.5-5.7-4.3c-5.1-1.8-12.1,2.2-13.7,8c3.3,0,6.7,0.1,10,0c2.5-0.1,4.4,1,5.7,2.9
		c0.8,1.1,1.4,2.4,1.9,3.6c2.1,6.1,2.2,12.2,0.8,18.5c-0.6,2.7-1.6,5.2-3.5,7.2c-2.4,2.5-5.7,2.6-8.1,0.1c-1.1-1.1-1.9-2.5-2.5-3.9
		c-1.7-3.8-2.1-7.8-2-11.8c0-0.5,0-1,0-1.6C13.8,84.3,11.8,84.3,9.8,84.3z M37.5,64.1c4.7,7.5,6.6,15.6,6.1,24.3
		c-0.5,8.7-2.7,16.8-9,23.5c4.5,0,8.8,0,13.2,0c0-0.3,0.1-0.5,0.1-0.7c0-8.2,0.1-16.4-0.1-24.6c-0.1-5.1-0.9-10.2-3.2-14.9
		C43,68.5,40.8,65.9,37.5,64.1z M28,79.9c-0.4-2.1-1-4-2.3-5.5c-0.4-0.4-1-0.8-1.5-0.8c-5.5-0.1-11.1-0.1-16.6,0
		c-1.4,0-2.2,0.9-2.3,2.3c0,0.4,0,0.8,0,1.2c0,2.2,0.7,2.9,2.9,2.9c5,0,10.1,0,15.1,0C24.8,79.9,26.4,79.9,28,79.9z M28.3,24.5
		c-0.9-2-1.6-3.7-2.5-5.3c-0.4-0.8-1.2-1.1-2.2-1.1c-5.2,0-10.4,0-15.6,0c-2.1,0-2.8,0.7-2.8,2.9c0,0.4,0,0.8,0,1.2
		c0.1,1.4,0.8,2.3,2.2,2.3C14.3,24.5,21.1,24.5,28.3,24.5z M20.3,28.8c0,1.5-0.1,3,0,4.4c0.2,3.2,0.8,6.3,2.5,9
		c1.1,1.8,2.2,1.8,3.3,0c2.5-4.2,2.8-8.8,2.6-13.5C25.8,28.8,23.1,28.8,20.3,28.8z M20.3,84.3c0,1.5-0.1,2.9,0,4.3
		c0.2,3.2,0.8,6.4,2.5,9.1c1.1,1.8,2.2,1.9,3.3,0.1c2.5-4.2,2.8-8.8,2.6-13.5C25.8,84.3,23.2,84.3,20.3,84.3z M118.8,18.1
		c0.5,2.2,0.9,4.2,1.3,6.3c0.2,0,0.3,0.1,0.5,0.1c0.6,0,1.2,0,1.9,0c1.3-0.1,2.1-0.8,2.2-1.9c0.4-2.4-0.1-3.9-1.5-4.3
		c-0.1,0-0.2-0.1-0.4-0.1C121.5,18.1,120.2,18.1,118.8,18.1z M120.1,79.9c0.9,0,1.7,0.1,2.5,0c1.3-0.1,2-0.9,2.1-2.2
		c0.2-2.6-0.3-3.7-1.6-4.1c-0.1,0-0.2-0.1-0.2-0.1c-1.3,0-2.7,0-4.1,0C119.2,75.7,119.6,77.7,120.1,79.9z"
      />
      <path
        d="M84.2,120.5c-7.6,0-15.2,0-22.7,0c-3.4,0-5-1.6-5-5c0-9,0-18,0-27c0-5.9-0.9-11.7-2.7-17.3c-1.3-3.7,0.6-6.2,4.6-6.2
		c13.9,0,27.9,0,41.8,0c2.5,0,4.4,0.9,6,2.7c2.8,3.3,4.3,7.2,5,11.4c0.5,2.6,0.7,5.2,0.7,7.8c0.1,9.5,0,19,0,28.5
		c0,3.5-1.6,5.1-5.1,5.1C99.3,120.5,91.7,120.5,84.2,120.5z M60.8,101.2c0.6-0.5,1.1-0.8,1.5-1.1c4.1-3.4,8.3-6.7,12.4-10.1
		c2.6-2.1,4.4-2.1,7,0c2,1.6,4,3.2,6,4.9c2.2-1.8,4.3-3.5,6.4-5.2c2.1-1.7,4.1-1.7,6.2,0c1.2,1,2.5,2,3.7,3c1.1,0.9,2.2,1.8,3.6,2.9
		c-0.1-5.8,0.4-11.4-0.9-16.8c-0.7-2.9-1.8-5.5-3.6-7.9c-0.8-1.1-1.8-1.7-3.3-1.6c-7.8,0.1-15.7,0-23.5,0c-0.4,0-0.9,0-1.4,0
		c1.4,4.7,0.7,8.9-2.3,12.6c-3.1,3.7-7.2,4.9-11.9,4.4C60.8,91.2,60.8,96.1,60.8,101.2z M107.6,109.9c-15.7,0-31.2,0-46.8,0
		c0,2.2,0,4.2,0,6.2c15.6,0,31.2,0,46.8,0C107.6,114,107.6,112,107.6,109.9z M97.3,92.7c-5.2,4.2-10.4,8.4-15.8,12.8
		c8.9,0,17.5,0,26.2,0c0-1.3,0-2.6,0-3.9c0-0.3-0.3-0.7-0.5-0.9C103.9,98,100.6,95.4,97.3,92.7z M57.6,69.3c0.2,0.6,0.4,1.1,0.5,1.5
		c0.7,3.3,1.5,6.5,2.1,9.9c0.2,0.9,0.5,1.2,1.3,1.3c3.3,0.4,6.1-0.5,8.2-3.2c2-2.7,2.2-5.7,0.9-8.7c-0.1-0.3-0.6-0.7-1-0.7
		C65.7,69.2,61.7,69.3,57.6,69.3z M62.5,105.4c0.3,0.1,0.4,0.1,0.5,0.1c3.7,0,7.3,0,11,0c0.4,0,0.9-0.3,1.3-0.6c2.5-2,4.9-4,7.4-6
		c0.5-0.4,1-0.9,1.6-1.3c-2.1-1.7-4.1-3.3-6.2-4.9C72.9,96.9,67.8,101.1,62.5,105.4z"
      />
      <path
        d="M86.2,77.8c-0.7,0-1.4,0-2.1,0c-1.1-0.1-2-0.9-2-2c0-1,0.7-2.1,1.8-2.2c1.6-0.1,3.3-0.1,4.9,0c1.1,0.1,1.8,1.1,1.8,2.2
		c0,1.1-0.8,1.9-2,2C87.8,77.8,87,77.8,86.2,77.8z"
      />
      <path
        d="M99.1,82c-0.7,0-1.4,0-2.1,0c-1.2-0.1-2.1-0.9-2.1-2c0-1.1,0.7-2.1,1.8-2.1c1.6-0.1,3.2-0.1,4.9,0c1.1,0.1,1.9,1.1,1.8,2.2
		c-0.1,1.1-0.9,1.9-2,2C100.6,82.1,99.8,82,99.1,82z"
      />
    </svg>
