<svg
  width="0.5em"
  height="0.5em"
  fill="currentColor"
  viewBox="0 0 130 130"
  xmlns="http://www.w3.org/2000/svg"
    >
      <path
        d="M86.1,1c-0.6,5.6-1.3,11-1.8,16.3c-1.1,12.6,2.8,23.4,12.3,32c5.1,4.6,9.8,9.4,12.8,15.6c3.8,7.9,5.1,16.2,3.9,24.8
        c-2.4,16.6-11.5,28.4-26.7,35.4c-5.3,2.5-11,3.6-16.8,3.7c-4.9,0.1-9.8,0.4-14.6-0.4c-18.7-3.2-31.1-13.9-37-31.9
        C15.7,88.8,16,80.9,17.2,73c1.4-8.8,4.3-17.2,7.9-25.3c0.3-0.7,0.6-0.9,1.4-0.6c5,1.5,10,2.9,15,4.4c0.8,0.2,1,0.1,1.2-0.8
        c2.6-18.7,12.2-32.6,28.6-41.8c4.7-2.6,9.4-5.1,14.1-7.6C85.5,1.2,85.7,1.2,86.1,1z M88.7,115.5c0.4-0.2,0.6-0.3,0.7-0.4
        c15.5-10.3,20.3-29.2,14.1-45c-2.3-5.9-6.5-10.4-11.2-14.5c-11-9.6-16.2-21.8-15.7-36.4c0-1.5,0.2-3,0.3-4.6c-0.2,0-0.4,0-0.5,0.1
        c-12.1,6.1-20.4,15.6-24.5,28.6c-1.8,5.6-2.2,11.3-2.1,17.1c0,1.1-0.2,1.3-1.3,1C42.6,59.6,36.8,58,31,56.2
        c-0.9-0.3-1.3-0.1-1.6,0.8c-2.8,7.5-4.8,15.1-5.4,23.1c-0.8,11.3,2.4,21.1,10.1,29.4c2.1,2.2,4.3,4.2,7.2,5.9
        c-0.3-0.6-0.4-1-0.5-1.3c-1.3-3.1-1.9-6.3-1.9-9.6c0-7.2,2.2-13.8,5.1-20.2c0.3-0.6,0.7-0.6,1.2-0.4c2,0.6,4.1,1.2,6.1,1.8
        c0.8,0.3,1.1,0.1,1.2-0.7c1-4.9,3.2-9.3,6.5-13c2.2-2.5,4.7-4.6,7.6-6.2c3.7-2,7.4-4,11-6c0.3,0.3,0.2,0.5,0.2,0.7
        c-0.4,3.6-0.9,7.3-1.2,10.9C76,77,77.7,81.8,81.9,85.7c0.5,0.5,1.1,1,1.7,1.5c6.2,5.7,8.4,12.8,7.4,21
        C90.6,110.7,89.8,113,88.7,115.5z M68.8,73.2c-4.4,3.1-7.2,7.1-8.7,12c-0.9,3-0.8,6.2-0.9,9.3c0,1.5,0,1.5-1.5,1
        c-2.8-0.8-5.5-1.6-8.3-2.4c-0.8-0.2-1,0-1.2,0.7c-0.8,2.6-1.4,5.2-1.8,7.9c-1.2,8.9,3.9,16.8,12.3,19.1c2.8,0.8,5.7,0.6,8.6,0.6
        c6.8-0.1,13-4.5,15.3-10.9c2-5.5,1.5-13.1-4.5-18c-3-2.5-5.4-5.4-7-9C69.6,80.3,69,76.9,68.8,73.2z"
      />
    </svg>