<svg
  width="0.5em"
  height="0.5em"
  fill="currentColor"
  viewBox="0 0 130 130"
  xmlns="http://www.w3.org/2000/svg"
    >
      <path
        d="M129,116c-0.2,4.9-2.8,9.2-8,11.6c-5.2,2.4-10.3,1.8-14.6-2c-4-3.5-7.7-7.4-11.4-11.2c-2-2-2.1-5-0.6-7.4
		c0.5-0.7,0.3-1.1-0.2-1.6c-2-1.9-4-3.9-5.9-5.9c-0.6-0.6-1-0.6-1.7-0.2c-15.9,9.2-35.5,4.9-46.2-10c-3.5-5-5.6-10.5-6.2-16.6
		c-0.1-0.8-0.5-1.3-1-1.9C22.9,58.5,12.5,46.1,2,33.8c-1.3-1.6-1.3-2.1-0.2-3.7c4.5-6.5,9.1-12.9,13.6-19.4c0.6-0.8,1.3-1.3,2.2-1.6
		c9.9-2.6,19.8-5.3,29.7-7.9c0.7-0.2,1.4-0.2,2.1,0c9.9,2.7,19.9,5.3,29.8,7.9c0.9,0.2,1.6,0.7,2.1,1.5c4.5,6.5,9.1,13,13.7,19.5
		c1.1,1.6,1,2.1-0.2,3.6c-1.6,1.9-3.3,3.9-4.9,5.8c-0.5,0.6-0.6,0.9,0.1,1.5c7.7,5.8,12.3,13.6,13.7,23.1c1.1,7.9-0.4,15.4-4.4,22.3
		c-0.5,0.8-0.5,1.3,0.2,1.9c2,1.9,4,3.9,5.9,5.9c0.5,0.5,0.8,0.5,1.4,0.1c2.6-1.7,5.6-1.4,7.8,0.8c3.5,3.4,7,6.9,10.4,10.4
		C127.7,108.3,129,111.5,129,116z M100,69c0-17.1-13.8-30.9-30.9-30.9c-17.1,0-31,13.8-31,30.9c0,17.2,13.9,31,31.1,31
		C86.2,99.9,100,86,100,69z M124.8,115.4c-0.1-2.8-0.8-5-2.5-6.7c-3.4-3.5-6.9-7-10.4-10.4c-1-1-2.1-1-3.1,0c-3.5,3.5-7,7-10.5,10.5
		c-1,1-1,2.1,0,3.1c3.5,3.5,6.9,7.1,10.5,10.4c3,2.8,6.6,3.2,10.3,1.6C122.8,122.1,124.6,119.1,124.8,115.4z M71.7,11.6
		c0-0.1,0-0.2,0-0.3c-0.4-0.1-0.7-0.2-1.1-0.3c-6.9-1.8-13.8-3.7-20.7-5.5c-0.9-0.3-1.8-0.3-2.8,0c-2.7,0.8-5.4,1.4-8.1,2.2
		c-4.6,1.2-9.2,2.5-13.8,3.7c0.1,0.4,0.3,0.4,0.5,0.4c7.4,2.5,14.7,4.9,22.1,7.4c0.6,0.2,1.1,0.1,1.6-0.1c2.7-0.9,5.4-1.8,8.2-2.7
		C62.3,14.8,67,13.2,71.7,11.6z M9.5,35.8c0,0.1-0.1,0.1-0.1,0.2c8.2,9.7,16.5,19.5,24.9,29.4c0.3-2.7,0.8-5.1,1.7-7.4
		c0.2-0.6,0-1.1-0.2-1.6c-1.6-4.5-3.3-8.9-4.8-13.4c-0.3-0.9-0.8-1.3-1.6-1.5c-3.8-1-7.5-2.1-11.3-3.2C15.1,37.5,12.3,36.7,9.5,35.8
		z M21.7,14.8c0.1,0.3,0.2,0.5,0.2,0.6c3.4,6.7,6.7,13.4,10,20.1c0.5,1,0.8,0.5,1.2,0c3.6-4.1,7.2-8.2,10.9-12.2
		c0.7-0.8,0.4-1-0.4-1.3c-4-1.3-7.9-2.6-11.8-3.9C28.5,17.1,25.2,16,21.7,14.8z M75.3,14.8c-7.7,2.6-15,5-22.4,7.5
		c-1.2,0.4-0.3,0.8-0.1,1.1c2.9,3.3,5.8,6.5,8.6,9.8c0.9,1,1.7,1.5,3.1,1.2c0.9-0.2,1.3-0.5,1.7-1.3c0.7-1.4,1.4-2.8,2.1-4.3
		C70.6,24.2,72.9,19.6,75.3,14.8z M17.2,15.3c-3.5,5-7,9.9-10.4,14.8C6.3,31,7.2,30.9,7.6,31c4.3,1.3,8.7,2.5,13,3.7
		c2.4,0.7,4.8,1.4,7.5,2.1C24.4,29.5,20.8,22.5,17.2,15.3z M70.4,33.9c1.7,0.2,3.4,0.3,5,0.6c0.8,0.1,1.4,0.1,2.1-0.1
		c3.9-1.1,7.8-2.3,11.7-3.3c1-0.3,1.2-0.5,0.5-1.5c-2.7-3.7-5.3-7.5-7.9-11.3c-0.7-1-1.4-1.9-2.2-3.1C76.6,21.6,73.5,27.7,70.4,33.9
		z M58.2,35.7c-3-3.4-6-6.7-8.9-10c-0.7-0.8-1-0.8-1.7,0c-3.4,3.9-6.8,7.7-10.2,11.6c-0.2,0.2-0.6,0.4-0.5,0.9c5.1,0,10.2,0,15.3,0
		c0.2,0,0.5-0.1,0.7-0.2C54.6,37.1,56.3,36.3,58.2,35.7z M103.2,97.9c-0.2-0.2-0.3-0.4-0.4-0.5c-1.9-1.9-3.9-3.9-5.8-5.8
		c-0.4-0.4-0.7-0.5-1.1,0c-1.3,1.5-2.6,2.9-4.2,4.2c-0.5,0.4-0.5,0.7-0.1,1.1c1.9,1.9,3.8,3.8,5.7,5.7c0.5,0.5,0.8,0.5,1.2,0
		c1.3-1.4,2.7-2.7,4.1-4.1C102.9,98.3,103,98.1,103.2,97.9z M46.5,42.2c-3.3,0-6.2,0-9.1,0c-2.5,0-2.5,0-1.6,2.3
		c0.9,2.4,1.7,4.8,2.7,7.4C40.7,48.2,43.2,45.1,46.5,42.2z M87.7,35.8c-1.5,0.4-2.7,0.8-4,1.1C85.7,38.4,85.8,38.4,87.7,35.8z"
      />
      <path
        d="M69.2,95.8c-15,0-27-12-26.9-27.1c0-14.6,12.1-26.6,26.9-26.6c14.6,0,26.7,12.1,26.7,26.7C95.9,83.7,84,95.8,69.2,95.8z
		M69.1,91.7c1.6,0,3.1-0.2,4.6-0.5C83,89,89,83.2,91.2,74c2.2-9-1.6-18.3-9-23.5c-0.7-0.5-1.1-0.4-1.6,0.2
		C71.4,61.6,62.2,72.5,53,83.3c-0.7,0.8-0.5,1.2,0.1,1.8C57.6,89.4,62.9,91.6,69.1,91.7z M54.6,74.8c0.3-0.2,0.4-0.2,0.5-0.3
		c7.3-8.6,14.6-17.3,22-25.9c0.6-0.7,0.1-0.8-0.4-1c-3.6-1.3-7.3-1.6-11-1c-0.7,0.1-1,0.6-1.2,1.2c-2,5.4-3.9,10.9-5.9,16.3
		C57.2,67.6,55.9,71.1,54.6,74.8z M59.7,48.5c-11.5,4.8-16.6,19.4-11,30.1C52.4,68.6,56,58.7,59.7,48.5z"
      />
    </svg>