
    <svg
      width="0.5em"
      height="0.5em"
      fill="currentColor"
      viewBox="0 0 130 130"
      xmlns="http://www.w3.org/2000/svg"
    >
      <path
        d="M111,82.8c3,1,5.5,2.3,7.6,4.3c5.9,5.5,7.7,13.9,4.5,21.3c-3.2,7.2-10.6,11.7-18.4,11c-8.2-0.7-14.8-6.2-16.7-14
		c-0.3-1.2-0.5-1-1.4-0.5c-15.8,11-32.7,13.3-50.7,6c-0.8-0.3-1.2-0.4-1.9,0.3c-5.5,5.7-12.2,7.5-19.6,4.9
		c-7.2-2.5-11.5-7.7-12.4-15.3c-0.9-8,2.4-14.2,9.2-18.4c0.2-0.1,0.4-0.2,0.7-0.4c0.2-0.1,0.4-0.2,0.6-0.4c-1.2-1.3-2.5-2.6-3.6-4
		C-8.3,55.9,4.1,23.7,31.5,19.3c9.5-1.5,18.3,0.5,26.2,6c0.8,0.6,1.2,0.5,1.9-0.2C70,13.1,83,8.2,98.4,11.7
		c15.4,3.5,25.3,13.5,29.4,28.9c4.1,15.4-2.4,32.1-15.5,41.3C111.9,82.1,111.6,82.4,111,82.8z M70.4,87.6c0-7,0-14.1,0-21.1
		c0-1-0.3-1.3-1.2-1.6c-10-2.9-20-2.5-29.8,1c-0.9,0.3-1.2,0.7-1.2,1.7c0,8.1,0,16.2,0,24.3c0,0.6,0.1,1.1,0.2,1.7
		c1.1,4.6,0.8,9-1.4,13.2c-0.4,0.8-0.2,1.1,0.6,1.4c10.3,4.3,20.8,4.9,31.5,2c1.1-0.3,1.3-0.8,1.3-1.8
		C70.4,101.5,70.4,94.6,70.4,87.6z M91,13.6c-1.6,0-1.3,0-1.1,1.5c0,0.2,0,0.5,0.1,0.7c0.6,9.3-1.7,17.8-7,25.5
		c-0.4,0.6-0.4,0.9,0.2,1.4c1.9,1.4,3.7,2.9,5.6,4.4c0.7,0.6,1,0.6,1.6-0.2c6.7-8.5,13.5-16.9,20.2-25.4c0.6-0.7,0.6-1-0.2-1.6
		C104.6,16.1,98.2,14,91,13.6z M124.9,40.9c0-0.2-0.1-0.3-0.1-0.5c-1.8-6.8-5.3-12.5-10.5-17.3c-0.6-0.5-0.9-0.6-1.4,0.1
		c-6.8,8.6-13.6,17.1-20.5,25.7c-0.4,0.5-0.5,0.8,0.1,1.3c1.7,1.3,3.4,2.6,5,4c0.7,0.6,1.1,0.5,1.7-0.1c4.8-5.3,10.7-9,17.6-11.1
		c2.4-0.7,4.8-1.2,7.2-1.5C124.3,41.4,124.9,41.6,124.9,40.9z M126,49.1c0-0.7-0.2-2.1-0.2-3.5c0-1.2-0.6-1.4-1.6-1.3
		c-9,1.1-16.6,4.9-22.8,11.5c-0.6,0.7-0.5,1,0.2,1.5c5.5,4.4,11,8.8,16.5,13.2c0.8,0.6,1.1,0.6,1.7-0.3
		C123.9,64.1,126,57.3,126,49.1z M45.2,28.5c-3.3,0.2-6.1,0.4-9,0.5c-0.6,0-0.9,0.3-1.1,0.8c-1.1,3-2.2,6-3.4,9
		c-0.2,0.5-0.2,0.9,0.2,1.3c2.8,3,5.6,5.9,8.4,8.9c0.3,0.4,0.7,0.5,1.2,0.5c3.5-0.4,7.1-0.9,10.6-1.3c0.7-0.1,1-0.4,1.2-1
		c1-2.7,2-5.5,3-8.2c0.3-0.7,0.2-1.1-0.3-1.6c-2.2-2.3-4.5-4.6-6.6-7C48.2,29,47,27.7,45.2,28.5z M87.1,18.9c0-0.5,0-0.9,0-1.4
		c0-0.8-0.2-1.7-0.2-2.5c0-1.1-0.5-1.3-1.5-1.2c-8.8,1.2-16.2,5-22.3,11.4c-0.7,0.7-0.6,1,0.1,1.6C68.7,31,74,35.2,79.2,39.5
		c0.7,0.6,1.1,0.6,1.6-0.2C85,33.1,87.1,26.3,87.1,18.9z M96.9,88.2c-5.3,3.3-7.8,11.1-5.7,17.4c2.2,6.7,9,11.3,15.9,10.7
		c7.5-0.6,13.4-6,14.5-13.2c0.9-5.8-2.2-13.2-6.5-14.9c0,0.6,0,1.2,0,1.8c0.1,2.7,0.7,5.3,1.2,7.9c0.9,4.5-0.8,7.9-4.9,9.8
		c-3.7,1.6-7.4,1.6-11-0.2c-2.8-1.4-4.6-3.7-4.8-6.9c-0.1-1.4,0.3-2.8,0.5-4.2C96.5,93.7,97,91.1,96.9,88.2z M92.3,74.9
		c-0.2,0.6,0.2,0.8,0.5,1.1c1.9,2.2,3.6,4.6,4.6,7.4c0.3,0.7,0.6,0.6,1.1,0.4c2.2-1,4.5-1.6,6.9-1.6c0.6,0,1.2-0.2,1.8-0.5
		c3.1-1.7,5.9-3.8,8.4-6.3c1.8-1.8,1.8-1.8-0.2-3.4c-5.2-4.1-10.3-8.3-15.5-12.4c-0.4-0.3-0.7-1-1.3-0.1
		C95.2,64.2,93.2,69.3,92.3,74.9z M73.3,87.5c0,6.7,0,13.4,0,20.1c0,0.9,0.1,1.3,1.1,0.8c2.2-1,4.3-2,6.4-3.2
		c0.6-0.3,0.8-0.7,0.8-1.4c0-10.9,0-21.7,0-32.6c0-0.7-0.2-1-0.8-1.4c-2-1.2-4.1-2.2-6.2-3.1c-1-0.5-1.3-0.3-1.2,0.8
		C73.3,74.3,73.3,80.9,73.3,87.5z M16.9,48.1c0.5,4,0.9,7.8,1.4,11.7c0.1,0.5,0.4,0.6,0.8,0.6c4.1,0.7,8.2,1.4,12.3,2.1
		c0.5,0.1,0.8,0,1.1-0.5c1.9-3.4,3.8-6.7,5.7-10.1c0.2-0.4,0.2-0.7-0.1-1.1c-2.7-2.9-5.4-5.8-8.1-8.6c-0.3-0.3-0.6-0.5-1.1-0.2
		c-3.8,1.8-7.6,3.6-11.4,5.4C17.1,47.5,16.8,47.7,16.9,48.1z M24.5,24.3c-0.2,0.1-0.4,0.2-0.6,0.2C16.6,27.8,11.1,33,7.4,40.2
		c-0.3,0.6-0.1,0.8,0.4,1.1c2.3,1.1,4.5,2.3,6.8,3.5c0.5,0.3,1,0.2,1.5,0c3.9-1.9,7.8-3.7,11.7-5.5c0.6-0.3,0.9-0.6,1.1-1.2
		c1.1-2.9,2.2-5.8,3.3-8.7c0.3-0.7,0.2-1-0.5-1.3c-2.2-1.1-4.4-2.2-6.5-3.4C25,24.5,24.8,24.4,24.5,24.3z M20.7,82.8
		c-2.5,0-4.8,0.5-6.9,1.5c-2.1,1-2.1,1-0.5,2.8c0.3,0.4,0.6,0.6,1,0.2c1.2-1.2,1.7-0.4,2.4,0.6c0.5,0.7,0.6,1.1-0.3,1.5
		c-1,0.4-1.3,1.1-0.6,2c0.2,0.2,0.3,0.5,0.3,0.8c0.1,0.9,0.7,1.2,1.5,0.8c1-0.5,1.3,0.1,1.5,1c0.2,0.9,0.6,1.8-0.9,1.9
		c-0.9,0-1.2,0.5-1,1.4c0.1,0.3,0.1,0.6,0,0.9c-0.2,1.1,0.3,1.6,1.4,1.7c0.6,0,1,0.4,0.7,1.1c-0.2,0.4-0.3,0.9-0.3,1.3
		c-0.1,0.5-0.4,0.7-0.8,0.5c-1.3-0.6-1.6,0.2-1.8,1.2c-0.1,0.4-0.2,0.7-0.3,1.1c-0.5,0.9-0.5,1.6,0.6,2.1c0.6,0.3,0.6,0.7,0.2,1.2
		c-0.3,0.4-0.5,0.7-0.8,1.1c-0.3,0.5-0.6,0.5-1,0.2c-0.8-0.7-1.3-0.5-1.7,0.3c-0.2,0.3-0.4,0.6-0.7,0.9c-0.7,0.6-0.5,1,0.3,1.4
		c4.6,2.5,9.4,2.7,14.2,0.6c2.4-1,2.4-1.2,0.6-3.1c-0.2-0.3-0.4-0.5-0.8-0.2c-1.4,0.8-1.2-0.8-1.8-1.3c-0.6-0.5-0.2-0.9,0.3-1.2
		c0.4-0.2,0.4-0.6,0.2-0.9c-0.2-0.4-0.3-0.8-0.5-1.1c-0.5-0.8,0-2.5-1.8-2.1c-0.1,0-0.2-0.3-0.3-0.5c-0.1-0.5-0.2-1-0.3-1.5
		c-0.2-0.5-0.1-0.8,0.5-0.9c0.9-0.1,0.9-0.6,0.9-1.3c0-0.5,0-1,0.1-1.5c0.2-0.8,0.1-1.3-0.9-1.4c-0.2,0-0.6-0.1-0.6-0.4
		c0.1-0.8,0.2-1.6,0.5-2.3c0.3-0.7,0.8,0,1.2-0.1c0.2,0,0.4,0,0.5-0.1c0.4-0.9,0.9-1.9,1.2-2.9c0.2-0.6-0.6-0.6-0.9-1
		c-0.1-0.1-0.3-0.3-0.3-0.4c0.4-0.7,0.8-1.4,1.4-2c0.4-0.4,0.7,0.2,1.1,0.4c1.2,0.4,1.2-0.8,1.8-1.3c0.6-0.5-0.2-0.7-0.5-0.8
		C25.9,83.5,23.3,82.8,20.7,82.8z M106.3,105.7c0.2,0,0.6,0,1,0c2.7-0.3,5-1.3,6.1-4c0.6-1.3,0.1-2.6-0.1-3.9
		c-0.7-3.6-1.6-7.2-1-10.9c0.1-0.6-0.3-0.7-0.7-0.8c-3.8-1.4-7.6-1.4-11.3,0.1c-0.4,0.2-0.8,0.3-0.7,0.9c0.5,4.1-0.4,8-1.1,12
		c-0.4,2.2,0.4,3.8,2.1,5.1C102.2,105.4,104.1,105.8,106.3,105.7z M4,55.2c-0.1,2.8,0.4,5.7,1.1,8.5c0.2,0.7,0.6,1.1,1.2,1.4
		c1.5,0.6,3,1.3,4.4,2.1c1.1,0.6,1.5,0.3,2-0.8c0.7-1.6,1.5-3.2,2.4-4.8c0.2-0.5,0.4-0.9,0.3-1.4c-0.5-3.9-0.9-7.8-1.3-11.7
		c-0.1-0.7-0.3-1-0.9-1.3c-2.1-1-4.2-2.1-6.2-3.2c-0.9-0.5-1.1-0.2-1.3,0.6C4.5,48.1,3.9,51.5,4,55.2z M70.4,54.4
		c-0.1-3.3-0.6-6.6-1.7-9.8c-0.2-0.7-0.6-1.1-1.3-1.4c-2.5-1-4.9-2-7.3-3.1c-0.7-0.3-1-0.2-1.2,0.5c-0.9,2.6-1.9,5.2-2.9,7.8
		c-0.2,0.5-0.2,1,0.2,1.5c2,3,3.9,6.1,5.9,9.1c0.4,0.6,0.7,0.7,1.3,0.4c1.7-0.7,3.4-1.4,5.2-2.1C70.5,56.5,70.5,56.5,70.4,54.4z
		M59.3,60.2c-2-3.1-3.8-5.9-5.6-8.7c-0.3-0.5-0.7-0.5-1.2-0.4c-3.5,0.4-7,0.9-10.5,1.3c-0.6,0.1-1,0.3-1.4,0.9
		c-1.9,3.4-3.8,6.8-5.7,10.2c-0.2,0.3-0.6,0.6-0.2,1c0.3,0.3,0.7,0,1-0.2c4.1-1.7,8.3-2.9,12.7-3.6C52,60.2,55.5,60,59.3,60.2z
		M84.6,102.8c0.5-0.4,0.8-0.6,1.1-0.8c1.3-0.8,1.9-1.9,2.1-3.5c0.4-4.6,2.6-8.5,6-11.6c1.5-1.3,1.5-1.3,0.7-3.2
		c-1.8-4.1-4.8-7.2-8.1-9.9c-0.5-0.4-1-0.8-1.7-1.3C84.6,82.7,84.6,92.6,84.6,102.8z M89.5,72.7c0.1-0.1,0.2-0.2,0.2-0.2
		c1.2-5.4,3.3-10.4,6.5-14.8c0.4-0.5,0.1-0.8-0.3-1.1c-1.7-1.4-3.5-2.7-5.2-4.1c-0.6-0.5-0.9-0.4-1.4,0.2c-1,1.4-2.1,2.7-3.2,4
		c-2.2,2.8-4.4,5.5-6.6,8.3c-0.3,0.4-0.8,0.7,0,1.1C83.2,67.9,86.5,70.1,89.5,72.7z M73.4,54.7c-0.1,2-0.1,3.7-0.4,5.3
		c-0.2,1-0.7,2.2-0.3,2.9c0.5,0.7,1.8,0.8,2.7,1.3c0.6,0.3,1,0.2,1.4-0.3c3.5-4.4,6.9-8.7,10.4-13.1c0.4-0.5,0.4-0.7-0.1-1.1
		c-2-1.6-4-3.1-5.9-4.8c-0.5-0.4-0.8-0.4-1.2,0.1c-1.1,1.3-2.2,2.6-3.7,3.6C73.9,50.1,72.3,51.9,73.4,54.7z M4.8,98.5
		c0.1,3.9,1.4,7.4,4,10.4c0.2,0.3,0.5,0.8,0.8,0.6c0.7-0.5,1.3-1.2,1.7-1.9c0.3-0.6-0.5-0.6-0.7-0.9c-0.1-0.1-0.3-0.3-0.2-0.4
		c0.4-0.7,0.8-1.3,1.3-2c0.4-0.5,0.7,0,0.9,0.2c0.3,0.2,0.5,0,0.5-0.3c0.2-0.5,0.3-1,0.5-1.5c0.2-0.5,0.1-0.9-0.5-1
		c-0.5-0.1-0.9-0.3-0.6-0.8c0.3-0.7-0.1-1.8,1-2.1c0.3-0.1,0.7,0,0.6-0.5c0-0.4,0.1-1.2-0.3-1.2c-1.7,0-0.9-1.4-1.4-2.1
		c-0.2-0.4-0.1-0.7,0.4-0.8c0.3-0.1,0.6-0.1,0.4-0.6c-0.2-0.5-0.4-1.6-0.7-1.5c-1.6,0.6-1.4-1-2.1-1.5c-0.3-0.2-0.4-0.5,0-0.8
		c1.1-1-0.3-1.3-0.6-1.9C9.4,87,9,87.8,8.7,88.1C6.1,91.1,4.9,94.6,4.8,98.5z M17.1,78.2c0.2-0.1,0.2,0,0.2-0.1
		c3.8-5,8.6-8.7,14.1-11.7c0.2-0.1,0.6-0.2,0.5-0.6c-0.1-0.3-0.4-0.2-0.6-0.3c-4.3-0.7-8.6-1.5-12.9-2.2c-0.7-0.1-1,0.1-1.2,0.7
		c-0.8,1.7-1.7,3.4-2.5,5.1c-0.2,0.5-0.3,0.9-0.1,1.4C15.4,73.1,16.2,75.6,17.1,78.2z M36.2,98.5c-0.1-4-1.4-7.6-4.1-10.6
		c-0.7-0.8-1-0.2-1.4,0.2c-0.4,0.4-0.9,0.9,0,1.3c0.8,0.4,0.7,0.8,0.2,1.4c-0.2,0.2-0.3,0.4-0.4,0.6c-0.4,0.7-0.8,1-1.5,0.4
		c-0.9-0.7-0.9,0.3-1,0.7c-0.2,0.4-1,1.2,0.2,1.4c1.5,0.2,0.9,1.1,0.7,1.8c-0.1,0.7-0.1,1.6-1.3,1.1c-0.2-0.1-0.7-0.2-0.7,0.2
		c-0.1,0.6-0.1,1.2,0,1.7c0.1,0.4,0.5,0.1,0.7,0.1c1.6-0.5,1.2,0.9,1.5,1.6c0.5,1-0.2,1.2-0.9,1.3c-0.4,0.1-1,0.1-0.8,0.8
		c0.2,0.7,0.5,1.3,0.7,2c0.1,0.4,0.5,0.4,0.7,0.2c1.2-1.2,1.6-0.2,2.2,0.6c0.5,0.7,0.7,1.2-0.3,1.6c-0.3,0.2-0.9,0.3-0.7,0.7
		c0.3,0.7,0.8,1.4,1.5,1.8c0.4,0.2,0.7-0.4,0.9-0.7C34.9,105.8,36.1,102.4,36.2,98.5z M35.3,67.7c-2.9,1.2-5.4,2.8-7.9,4.6
		c-0.4,0.3-0.3,0.7-0.3,1.1c0,2.2,0,4.3,0,6.5c0,0.9,0.3,1.2,1.1,1.6c1.7,0.7,3.3,1.8,4.7,3c0.8,0.7,1.6,1.5,2.5,2.3
		C35.3,80.5,35.3,74.2,35.3,67.7z M66.6,39.6c-0.2-0.5-0.3-0.8-0.5-1c-3.3-5.8-8-10.2-14-13.3c-0.6-0.3-1-0.4-1.4,0.3
		c-0.3,0.6-1,1-0.1,1.9c2.8,2.8,5.5,5.7,8.2,8.6c0.3,0.3,0.5,0.6,0.9,0.7C61.9,37.7,64.1,38.6,66.6,39.6z M28.4,22.9
		c2.2,1.1,4.1,2.1,5.9,3.1c0.3,0.2,0.6,0.2,1,0.2c2.7-0.2,5.3-0.3,8-0.5c1.2-0.1,2.3-0.1,3.5-0.2c1-0.1,1.2-0.9,1.6-1.6
		c0.2-0.4-0.4-0.4-0.6-0.4C41.4,21.4,35.1,21.2,28.4,22.9z M65.7,32.5c0.1,0.4,0.2,0.5,0.2,0.6c3.2,4.2,5.3,8.8,6.5,13.9
		c0.2,0.8,0.4,0.6,0.9,0.3c1.6-1.3,3.1-2.7,4.5-4.2c0.4-0.5,0.4-0.7-0.1-1.1c-1.2-0.9-2.4-1.9-3.6-2.9C71.4,37,68.7,34.8,65.7,32.5z
		M6.9,68.7c1.9,4,4.2,7.3,7.2,10.1c-0.7-2.5-1.6-5-2.4-7.6c-0.1-0.3-0.3-0.5-0.6-0.6C9.8,70,8.5,69.4,6.9,68.7z M20,79.8
		c1.2,0.1,2.4,0.2,3.6,0.4c0.5,0.1,0.6-0.1,0.6-0.5c0-1.4,0-2.9,0-4.4C22.7,76.1,20.6,78.5,20,79.8z M69.9,60c-1,0.4-1.9,0.8-3,1.2
		C69.9,62.2,69.9,62.4,69.9,60z"
      />
      <path
        d="M46.1,83.4c1.3-0.4,1.5,0.3,1.4,1.4c0,0.4-0.3,1.1,0.3,1.3c0.6,0.2,1.3,0.1,2,0c0.5-0.1,0.2-0.8,0.3-1.2
		c0.1-0.5-0.3-1.3,0.4-1.4c0.7-0.2,1.6-0.2,2.3,0c0.5,0.1,0.1,0.9,0.2,1.4c0.1,0.4-0.3,1.1,0.3,1.2c0.7,0.2,1.4,0.3,2.1,0
		c0.5-0.2,0.2-0.9,0.3-1.4c0.1-0.4-0.3-1.1,0.4-1.3c0.8-0.1,1.6-0.3,2.3,0.1c0.5,0.3,0.2,1,0.2,1.5c0,0.7,0.1,1.2,1,1.2
		c0.8,0,1.1-0.3,1-1.1c0-0.6-0.3-1.3,0.2-1.6c0.7-0.4,1.5-0.2,2.3-0.1c0.6,0.1,0.4,0.7,0.4,1c-0.1,1.2,0.1,2,1.6,1.8
		c0.7-0.1,0.9,0.3,0.8,0.9c0,0.2,0,0.5,0,0.7c0.1,0.9-0.2,1.4-1.2,1.3c-1-0.2-1.3,0.3-1.2,1.2c0,0.5,0.3,1.2-0.3,1.3
		c-0.8,0.2-1.7,0.2-2.4,0c-0.5-0.2-0.2-1-0.2-1.5c0-0.8-0.1-1.1-1-1.1c-0.9,0-1,0.4-1,1.1c0,0.5,0.3,1.3-0.2,1.5
		c-0.7,0.2-1.6,0.2-2.3,0c-0.6-0.1-0.3-0.9-0.3-1.3c0.1-1.1-0.3-1.3-1.3-1.3c-1,0-1.4,0.3-1.3,1.3c0,0.4,0.3,1.2-0.3,1.3
		c-0.8,0.2-1.7,0.2-2.4-0.1c-0.3-0.1-0.2-0.7-0.2-1c0.1-1,0-1.6-1.3-1.6c-1.3,0-1.3,0.6-1.3,1.5c0,0.4,0.3,1.1-0.3,1.2
		c-0.8,0.1-1.7,0.3-2.4-0.1c-0.4-0.2-0.2-0.9-0.2-1.4c0.1-0.9-0.2-1.3-1.1-1.1c-1.1,0.2-1.1-0.5-1-1.3c0.1-0.7-0.5-1.8,0.9-1.6
		c1.1,0.1,1.3-0.4,1.2-1.3C44.4,83.6,44.8,83,46.1,83.4z"
      />
    </svg>