
    <svg
      width="0.5em"
      height="0.5em"
      fill="currentColor"
      viewBox="0 0 130 130"
      xmlns="http://www.w3.org/2000/svg"
    >
      <path
        d="M1,85.4C1,74,1.1,62.5,1,51.1c-0.1-5.1,2.1-7.4,6.2-9.1c1-0.4,1.4-0.8,1.3-1.9c-0.1-1.1,0-2.2,0-3.4c0.1-3,1.8-5.5,4.6-6.5
        c2.8-1,5.6-1.8,8.4-2.7c1.3-0.4,2.3,0.1,2.6,1.2c0.3,1-0.3,2-1.5,2.4c-2.5,0.8-5,1.6-7.5,2.4c-2.2,0.7-2.9,1.7-2.9,4
        c0,21.1,0,42.1,0,63.2c0,1.4,0,1.4,1.4,0.9c6.6-2.2,13.2-4.3,20.1-5.3c10-1.5,19.5-0.4,28.4,4.5c1.4,0.8,1-0.4,1-0.9
        c0-15.8,0-31.6,0-47.4c0-5.7,0-11.5,0-17.2c0-0.9-0.3-1.3-1-1.8c-8.1-4.9-17-6.4-26.3-5.2c-1.7,0.2-3.5,0.5-5.2,0.8
        c-1.5,0.2-2.4-0.2-2.7-1.4c-0.2-1.2,0.4-2,2-2.3c8.1-1.6,16.1-1.8,24.1,0.5c3.5,1,6.8,2.5,9.9,4.4c0.8,0.5,1.3,0.4,2.1,0
        c8.9-5.3,18.5-7,28.7-5.7c7.6,0.9,14.8,3.1,22,5.6c3,1,4.7,3.5,4.8,6.6c0,1.1,0.1,2.3,0,3.4c-0.1,1,0.3,1.5,1.3,1.7
        c3.3,0.9,5.4,3,6.1,6.4c0.1,0.6,0.1,1.2,0.1,1.7c0,23.6,0,47.1,0,70.7c0,4.3-2.7,7.4-6.8,8c-1.2,0.2-2.4-0.1-3.6-0.5
        c-3.7-1.2-7.4-2.4-11-3.6c-1.5-0.5-2.1-1.4-1.7-2.5c0.4-1.1,1.4-1.5,2.9-1c3.7,1.2,7.4,2.4,11,3.6c3.1,1,5.5-0.7,5.5-3.9
        c0-23.6,0-47.2,0-70.8c0-2-0.9-3.3-2.7-4.1c-0.8-0.4-1.1-0.4-1.1,0.6c0.1,2.5,0,4.9,0,7.4c0,18.6,0,37.2,0,55.8
        c0,3.9-2.2,6.7-5.8,7.4c-1.4,0.3-2.7-0.1-4-0.5c-5.2-1.7-10.5-3.2-15.9-4c-9.5-1.5-18.6-0.4-27,4.6c-2.5,1.4-5,1.5-7.5,0
        c-8.9-5.2-18.4-6.1-28.4-4.4c-5.2,0.9-10.3,2.4-15.3,4c-4,1.3-8-1-9-4.9c-0.2-0.9-0.2-1.7-0.2-2.6c0-20.8,0-41.6,0-62.3
        c0-1.6-0.1-1.6-1.4-0.9c-1.5,0.9-2.3,2.1-2.3,3.9c0,23.7,0,47.3,0,71c0,3.2,2.4,4.9,5.4,3.9c6.8-2.3,13.5-4.7,20.5-6.2
        c6.3-1.4,12.6-2.2,18.9-0.9c4.2,0.8,8,2.5,10.9,5.6c2.3,2.4,6.7,2.3,9,0c3.5-3.6,8.1-5,13-5.6c5.9-0.7,11.8,0,17.6,1.2
        c1.4,0.3,2,1.2,1.8,2.4c-0.3,1.1-1.3,1.6-2.6,1.3c-4.6-1-9.2-1.7-13.9-1.4c-5.3,0.3-10.2,1.7-14.2,5.5c-3.2,3-9.3,3.1-12.5-0.1
        c-5.4-5.3-12-6.4-19.2-5.8c-8.5,0.7-16.4,3.5-24.4,6.2c-1.4,0.5-2.8,1-4.3,1.4c-5.1,1.6-10-2-10-7.3C1,109.2,1,97.3,1,85.4z
        M66.9,67.6c0,10.8,0,21.6,0,32.3c0,0.6-0.4,1.6,1,0.9c9.4-5.2,19.5-6.1,29.9-4.3c6.5,1.1,12.7,3.1,18.8,5.2
        c0.8,0.3,1.2,0.3,1.2-0.7c0-21.3,0-42.5,0-63.8c0-1.9-0.7-3-2.5-3.6c-6.8-2.3-13.7-4.4-20.9-5.3c-9.3-1.1-18.1,0.3-26.2,5.1
        c-0.9,0.5-1.3,1.1-1.3,2.2C66.9,46.3,66.9,56.9,66.9,67.6z M41.9,99.5c-2.6,0-5.2,0.2-7.7,0.6c-6.4,1-12.6,2.9-18.8,4.9
        c-3.2,1.1-3,1.1-3.2,4.4c-0.2,3.1,2.3,4.5,4.9,3.6c5.5-2,11.1-3.4,16.9-4.3c10.2-1.5,20-0.2,29,5c1.4,0.8,2.6,0.8,4,0
        c3.4-2,7-3.4,10.8-4.4c7.9-2,15.8-1.4,23.6,0.4c4.1,0.9,8.1,2.2,12.1,3.4c2.3,0.7,4.1-0.6,4.2-3c0-1.1,0-2.2,0-3.2
        c0-0.7-0.2-0.9-0.8-1.2c-7.5-2.5-15.1-5-23-6c-9.7-1.2-18.8,0.5-27,6c-1.4,0.9-2.4,0.9-3.8,0C56.7,101.5,49.6,99.5,41.9,99.5z"
      />
      <path
        d="M47.4,77.5c0,1-0.4,1.9-1.3,2.4c-0.1,0.1-0.2,0.2-0.3,0.2c-2.7,1-4.3,2.9-5.6,5.5c-1.1,2.2-3.9,2.1-5.1,0
        c0-0.1-0.1-0.1-0.1-0.2c-1-2.5-2.7-4.3-5.3-5.3c-1.1-0.4-1.7-1.4-1.7-2.7c0-1.3,0.6-2.1,1.7-2.7c0.1,0,0.1-0.1,0.2-0.1
        c2.4-0.9,4-2.5,5-4.9c0.5-1.3,1.5-2,2.9-2c1.3,0,2.3,0.8,2.8,2c0.9,2.5,2.7,4,5,5C46.7,75.2,47.4,76.2,47.4,77.5z M32.7,77.5
        c2.5,0.9,4,2.6,5,5.3c0.9-2.7,2.5-4.3,4.9-5.3c-2.5-0.9-4-2.6-5-5.4C36.8,74.9,35.1,76.5,32.7,77.5z"
      />
      <path
        d="M74.7,10.8c0,0.8-0.4,1.5-1.1,2.1c-0.1,0.1-0.3,0.2-0.4,0.3c-2.7,1-4.4,3-5.7,5.6c-1,2.2-3.9,2.1-5.1,0
        c0-0.1-0.1-0.1-0.1-0.2c-0.9-2.6-2.8-4.1-5.3-5.3c-2.4-1.1-2.3-4,0-5.3c0.1,0,0.1-0.1,0.2-0.1c2.4-0.9,4-2.6,5-5
        C62.7,1.7,63.6,1,64.9,1c1.3,0,2.4,0.7,2.9,1.9c1,2.5,2.7,4,5.1,5.1C74.2,8.6,74.8,9.5,74.7,10.8z M64.9,5.6
        c-0.9,2.5-2.4,4.1-4.9,5c2.4,1,4,2.6,5,5c0.9-2.5,2.7-3.9,5-4.9C67,8.8,67,8.8,64.9,5.6z"
      />
      <path
        d="M56.9,48.3c0,1.2-1.4,2-2.8,1.4c-2.3-1-4.7-1.8-7.3-2.2c-6-1-11.9-0.1-17.8,1.4c-2.6,0.7-5.1,1.5-7.7,2.2
        c-1.3,0.4-2.5,0-2.8-1.1c-0.4-1.1,0.2-2,1.6-2.5c6.2-2,12.4-3.7,19-4.1c5.6-0.4,11,0.5,16.2,2.8C56.2,46.5,56.9,47,56.9,48.3z"
      />
      <path
        d="M40.9,34.2c5.5,0,10.2,0.9,14.6,2.9c1.4,0.6,1.8,2,1,3c-0.6,0.7-1.4,0.9-2.1,0.6c-8.8-4.1-17.8-3-26.7-0.5
        c-2.2,0.6-4.4,1.3-6.6,1.9c-1.1,0.3-2.1-0.2-2.4-1.2c-0.3-1,0.2-2,1.3-2.4C26.9,36.3,34,34.3,40.9,34.2z"
      />
      <path
        d="M56.9,57.1c0,1.4-1.3,2.2-2.8,1.6c-2-0.9-4.1-1.6-6.3-2c-5.5-1.1-10.9-0.6-16.3,0.6c-3.2,0.7-6.3,1.6-9.4,2.6
        c-0.4,0.1-0.7,0.2-1.1,0.3c-1.1,0.2-2.2-0.3-2.4-1.2c-0.3-1,0.2-2,1.4-2.4c4.5-1.5,9.1-2.8,13.9-3.6c5.9-1,11.8-1.1,17.5,0.7
        c1.4,0.4,2.8,1,4.2,1.6C56.4,55.6,56.9,56.2,56.9,57.1z"
      />
      <path
        d="M102,49.1c0,1-0.4,1.8-1.2,2.4c-0.1,0.1-0.3,0.2-0.4,0.3c-2.7,1-4.3,3-5.5,5.5c-1.1,2.2-3.9,2.1-5.1,0
        c0-0.1-0.1-0.1-0.1-0.2c-1-2.6-2.8-4.1-5.3-5.3c-2.4-1.2-2.4-4,0-5.3c0.1,0,0.1-0.1,0.2-0.1c2.4-0.9,4-2.5,4.9-4.9
        c0.5-1.2,1.4-2,2.8-2c1.4,0,2.4,0.7,2.9,2c0.9,2.4,2.6,3.9,4.9,4.9C101.3,46.7,102.1,47.7,102,49.1z M92.4,54
        c0.9-2.5,2.6-3.9,4.9-5c-2.5-0.9-4-2.6-5-4.9c-0.9,2.5-2.6,4-4.9,5C89.8,50,91.4,51.6,92.4,54z"
      />
      <path
        d="M88.5,66.7c7,0,13.7,1.8,20.4,3.9c0.2,0.1,0.4,0.1,0.6,0.2c1.7,0.5,2.4,1.4,2,2.6c-0.3,1.2-1.5,1.5-3.1,1
        c-2.6-0.8-5.3-1.6-7.9-2.3c-5.3-1.3-10.7-2.1-16.2-1.4c-2.5,0.3-4.9,1-7.2,1.9c-0.3,0.1-0.7,0.3-1,0.4c-1.2,0.5-2.2,0.1-2.7-0.8
        c-0.5-1,0-2,1.2-2.6C79,67.6,83.6,66.6,88.5,66.7z"
      />
      <path
        d="M90.2,84.8c5.8,0.1,12.9,2,19.9,4.3c1.2,0.4,1.7,1.4,1.4,2.4c-0.3,1-1.4,1.5-2.7,1.1c-3.6-1.1-7.2-2.2-10.9-3
        c-7.4-1.5-14.8-1.7-21.9,1.6c-1.1,0.5-2.2,0.1-2.6-0.9c-0.4-1,0-2,1.2-2.5C78.3,85.9,84,84.7,90.2,84.8z"
      />
      <path
        d="M87.8,75.7c7.6,0.1,14.2,1.8,20.7,3.8c0.5,0.2,1,0.3,1.5,0.5c1.2,0.4,1.7,1.4,1.3,2.4c-0.3,0.9-1.4,1.4-2.5,1.1
        c-1.7-0.5-3.4-1.1-5.1-1.5c-5.1-1.4-10.2-2.6-15.6-2.6c-4.1,0-8.1,0.8-11.9,2.5c-0.8,0.3-1.5,0.7-2.4,0.2c-0.6-0.4-0.9-1-0.9-1.7
        c0-0.8,0.5-1.4,1.2-1.7c3.2-1.5,6.5-2.4,10-2.8C85.8,75.8,87.1,75.8,87.8,75.7z"
      />
    </svg>