<svg
  width="0.5em"
  height="0.5em"
  fill="currentColor"
  viewBox="0 0 130 130"
  xmlns="http://www.w3.org/2000/svg"
    >
      <path
        d="M97.5,113c-4.3,0-8.6,0-12.9,0c-1,0-1.2,0.3-1.4,1.2C81.5,122.8,73.8,129,65,129c-8.7,0-16.5-6.3-18.2-14.8
        c-0.2-1.1-0.6-1.3-1.6-1.3c-8.5,0-17,0.1-25.5,0c-3.2,0-5.7-1.5-7.1-4.4c-1.4-2.8-1.1-5.7,0.7-8.3c0.5-0.6,1-1.2,1.6-1.7
        c8.6-7.7,12.8-17.3,12.8-28.7c0-5.5-0.1-11.1,0-16.6C28,37.8,38.3,23.9,52.9,19.1c1.1-0.4,1.5-0.8,1.4-2c-0.1-1.7-0.1-3.5,0-5.2
        C54.4,5.7,59.1,1,65,1c5.9,0,10.5,4.6,10.7,10.7c0.1,1.9,0.1,3.8,0,5.6c0,0.9,0.3,1.3,1.1,1.6c12.4,4.4,20.5,13,24.2,25.7
        c1,3.4,1.3,6.9,1.3,10.4c0,6.2-0.3,12.3,0.2,18.5c0.7,9.6,4.8,17.6,11.8,24.2c0.6,0.6,1.3,1.1,1.8,1.7c2.3,2.5,2.9,5.4,1.6,8.6
        c-1.3,3.1-3.8,4.9-7.2,4.9C106.2,113.1,101.9,113,97.5,113C97.5,113,97.5,113,97.5,113z M64.9,107.7
        C64.9,107.7,64.9,107.6,64.9,107.7c5.4-0.1,10.8-0.1,16.2-0.1c9.5,0,19.1,0,28.6,0.1c1.7,0,2.6-0.6,3.1-1.8
        c0.5-1.4-0.2-2.4-1.2-3.3c-9.9-8.8-14.7-19.8-14.6-33c0-4.9,0-9.8,0-14.7c0-1.7-0.1-3.3-0.3-5c-2.9-19.1-21.2-31.2-39.9-26.4
        C43.1,27,33.2,39.6,33,53.7c-0.1,5.7,0,11.5,0,17.2c-0.1,9.8-3.3,18.6-9.4,26.3c-1.6,2.1-3.5,3.9-5.5,5.6c-0.9,0.8-1.4,1.8-0.9,3
        c0.4,1.3,1.4,1.8,2.7,1.8c0.4,0,0.7,0,1.1,0C35.6,107.7,50.2,107.7,64.9,107.7z M52,113.1c0,0.2,0,0.4,0.1,0.5
        c1.4,5.8,6.7,9.9,12.8,10.1c5.8,0.1,11.3-3.9,12.9-9.5c0.3-1,0.1-1.2-0.9-1.2c-7.9,0-15.9,0-23.8,0C52.7,113,52.4,113,52,113.1z
        M70.3,13.8C70.3,13.8,70.3,13.8,70.3,13.8c0-0.8,0-1.7,0-2.5c-0.1-2.8-2.5-5.1-5.3-5c-2.8,0-5.1,2.2-5.2,5c-0.1,1.7,0,3.4,0,5.1
        c0,0.6,0.1,0.9,0.8,0.8c3-0.4,6-0.4,8.9,0c0.7,0.1,0.9-0.2,0.9-0.8C70.3,15.6,70.3,14.7,70.3,13.8z"
      />
      <path
        d="M123.7,51.6c0,0.8,0,1.7,0,2.5c-0.1,1.7-1.2,2.9-2.7,2.9c-1.5,0-2.6-1.1-2.7-2.7c-0.1-2.6-0.2-5.2-0.5-7.7
        c-1.7-12.3-6.7-23-15.1-32.1c-0.5-0.6-1.1-1.1-1.6-1.7c-1-1.2-0.9-2.7,0.2-3.7c1.1-1,2.6-1,3.7,0.1c1.7,1.7,3.3,3.5,4.8,5.4
        C118.4,25.4,122.9,37.8,123.7,51.6z"
      />
      <path
        d="M6.4,51.7c0.9-15.9,6.6-29.6,17.4-41.2c0.4-0.4,0.7-0.8,1.1-1.2c1.3-1.3,2.9-1.4,4-0.2c1.1,1.1,1.1,2.7-0.1,3.9
        c-2.4,2.6-4.8,5.2-6.8,8.2c-6.5,9.5-9.9,19.9-10.2,31.3c0,0.7,0,1.5-0.1,2.2C11.4,56.1,10.3,57,9,57c-1.3,0-2.5-0.9-2.6-2.3
        C6.3,53.6,6.4,52.6,6.4,51.7z"
      />
    </svg>