<svg
  width="0.5em"
  height="0.5em"
  fill="currentColor"
  viewBox="0 0 256 256"
  xmlns="http://www.w3.org/2000/svg"
    >
      <g>
        <path d="M170.2,227.5c0.2-7.1-0.5-15.9,0.3-24.6c0.7-8,3.9-15,9.1-21.1c15.5-18.2,31-36.4,46.5-54.5c3.8-4.4,5.2-9.2,2.8-14.7   c-2.9-6.7-9.8-7.7-14.7-2.3c-12.9,14.6-25.8,29.2-38.7,43.7c-25.9,29.2-70.3,28.9-95.8-0.6c-12.2-14.1-24.7-28-37-42   c-2.7-3.1-5.6-5.3-9.9-3.8c-4.4,1.5-6.1,5.2-6.6,9.5c-0.5,3.9,1,7.2,3.6,10.2c15.4,17.8,30.6,35.7,46,53.6   c6.6,7.6,9.9,16.4,9.8,26.5c0,15.2,0,30.4,0,45.7c0,2-0.5,2.5-2.5,2.5c-6.1-0.1-6.1,0-6.1-6c0-13.7-0.1-27.4,0-41.2   c0.1-8.4-2.6-15.7-8.2-22.1c-15.3-17.7-30.5-35.4-45.7-53.1c-6.3-7.3-7.7-15.4-3.6-24.1c5.6-11.8,19.5-13.8,28.3-4.1   c13.1,14.5,25.9,29.3,39,43.8c11.4,12.5,25.8,18.9,42.7,18.4c15.6-0.5,28.8-6.9,39.2-18.5c12.8-14.3,25.7-28.6,38.2-43.1   c6.9-8.1,15.3-8.5,21.3-5.5c7.2,3.6,11.5,13,9.9,21.4c-0.8,4.2-2.7,7.8-5.4,11c-15.1,17.7-30.1,35.5-45.3,53.1   c-6.1,7.1-9,14.9-8.9,24.2c0.2,14.3,0,28.7,0.1,43c0,2-0.4,2.7-2.6,2.7c-6-0.1-6,0-6-5.9C170.2,242.8,170.2,236,170.2,227.5z" />
        <path d="M153.4,72.5c0,3.6-3.4,5.5-6.8,3.7c-5.3-2.8-10.6-5.7-15.8-8.8c-1.9-1.1-3.3-1.2-5.3-0.1c-5,2.9-10.1,5.5-15.1,8.3   c-1.9,1-3.7,1.7-5.7,0.4c-2-1.4-1.9-3.4-1.6-5.5c1-6.1,2-12.2,3-18.3c0.3-1.8,0-3.1-1.3-4.5c-4.4-4.4-8.7-8.9-13-13.3   c-1.4-1.4-2.4-2.9-1.8-4.9c0.7-2.1,2.3-2.9,4.4-3.2c6-0.9,12.1-1.9,18.1-2.7c1.6-0.2,2.4-0.9,3.1-2.3c2.6-5.9,5.5-11.7,8.2-17.5   c0.9-1.9,2.1-3.3,4.4-3.2c2.1,0,3.3,1.4,4.1,3.2c2.8,5.9,5.6,11.8,8.3,17.8c0.6,1.2,1.2,1.9,2.7,2.1c6.2,0.9,12.4,1.9,18.6,2.9   c2,0.3,3.6,1.1,4.2,3.1c0.6,1.9-0.2,3.4-1.6,4.8c-4.4,4.5-8.7,9-13.2,13.4c-1.4,1.4-1.7,2.7-1.3,4.5c1.1,6.3,2.1,12.6,3.1,18.8   C153.2,71.5,153.3,72,153.4,72.5z M112.6,64.7c4.1-2.3,7.9-4.1,11.5-6.4c2.8-1.8,5.3-1.7,8.1,0c3.6,2.2,7.3,4.1,11.4,6.3   c-0.8-4.9-1.3-9.3-2.2-13.5c-0.7-3.3,0.1-5.6,2.5-7.8c3.2-3,6.1-6.2,9.6-9.7c-4.8-0.7-8.9-1.4-13.1-1.9c-3-0.4-5-1.5-6.2-4.5   c-1.7-4-3.7-7.9-5.8-12.5c-2.1,4.5-4.1,8.4-5.8,12.4c-1.2,2.8-3,4.1-5.9,4.5c-4.3,0.5-8.5,1.3-13.3,2c3.6,3.7,6.8,7.1,10.1,10.3   c1.9,1.8,2.5,3.8,2,6.4C114.2,55,113.5,59.6,112.6,64.7z" />
        <path d="M94.1,119.3c0-18.8,15.4-33.9,34.3-33.9c18.5,0.1,33.7,15.4,33.7,33.9c0,18.9-15.2,34.2-34,34.1   C109.3,153.4,94.1,138.2,94.1,119.3z M102.7,119.5c0,14,11.5,25.5,25.5,25.4c14.1-0.1,25.4-11.5,25.4-25.5   c0-14-11.5-25.5-25.5-25.4C114,94,102.6,105.5,102.7,119.5z" />
        <path d="M65,83.7c-1.7-0.1-3-0.8-3.9-2.1c-1.6-2.3-3.2-4.4-4.7-6.7c-0.8-1.2-1.7-1.6-3.1-1.6c-2.6,0.1-5.1,0.1-7.7,0   c-4-0.1-5.7-3.5-3.6-6.9c1.3-2,2.7-4,4.2-5.8c1-1.3,1.1-2.4,0.5-3.9c-0.9-2.5-1.7-5-2.6-7.5c-0.6-1.8-0.2-3.3,1.1-4.6   c1.3-1.2,2.8-1.4,4.4-0.8c3.1,1.1,6.3,3.3,9.2,2.9c2.8-0.3,5.2-3.4,7.8-5.1c3.1-2.1,6.6-0.3,6.8,3.5c0,0.4,0.1,0.7,0,1.1   c-1.3,6.6,1.3,11.1,7.3,13.9c1.9,0.9,3.3,2.5,2.9,4.9c-0.3,2.4-2.1,3.6-4.2,3.9c-6.5,0.8-9.8,4.4-10.5,10.8   C68.9,81.9,67.4,83.5,65,83.7z M55.5,55.3c2.1,3.8,1.1,6.9-1.6,9.9c4.3-0.8,7.1,0.9,9.3,5.2c0.3-4.9,2.8-6.7,7.1-7.4   c-4.5-1.9-5.6-5-5.5-9.1C62,57,58.9,56.9,55.5,55.3z" />
        <path d="M182.7,49.5c0-1.4-0.1-2.8,0-4.2c0.2-3.8,3.5-5.5,6.8-3.4c1.8,1.1,3.6,2.3,5.2,3.7c1.7,1.4,3.2,1.8,5.2,0.8   c2.1-1,4.3-1.5,6.5-2.2c1.8-0.6,3.5-0.5,4.9,0.9c1.4,1.4,1.5,3.1,0.8,4.9c-0.9,2.3-1.6,4.7-2.6,7c-0.6,1.5-0.4,2.6,0.6,3.8   c1.5,1.8,2.8,3.7,4.1,5.5c1.1,1.5,1.4,3.1,0.6,4.7c-0.8,1.7-2.3,2.4-4.1,2.4c-2.6,0-5.1,0.1-7.7,0c-1.4-0.1-2.3,0.4-3,1.6   c-1.4,2.2-3.1,4.3-4.6,6.5c-1.1,1.6-2.6,2.4-4.5,2.1c-2-0.3-3-1.6-3.5-3.5c-0.2-0.8-0.6-1.5-0.7-2.3c-0.5-5.2-3.3-8-8.5-8.5   c-0.8-0.1-1.5-0.4-2.3-0.6c-1.8-0.5-3-1.6-3.3-3.4c-0.3-1.8,0.4-3.3,1.9-4.3c1.7-1.2,3.4-2.6,5.2-3.6c2.2-1.3,3.4-2.9,2.9-5.6   C182.6,50.9,182.7,50.2,182.7,49.5C182.7,49.5,182.7,49.5,182.7,49.5z M186.5,62.6c4,0.6,5.9,2.9,6.6,7.3c2-4.4,5-5.8,9.2-5.3   c-2.7-2.9-3.3-5.9-1.6-9.6c-3.7,2.2-6.6,0.9-9.8-2C191.6,57.8,190.4,60.8,186.5,62.6z" />
      </g>
    </svg>
