<svg
  width="0.5em"
  height="0.5em"
  fill="currentColor"
  viewBox="0 0 130 130"
  xmlns="http://www.w3.org/2000/svg"
    >
      <path
        d="M95.5,1c1.3,0.4,2.6,0.7,3.9,1.1c7.4,2.8,11.8,10.7,10.2,18.4c-1.6,8-8.6,13.5-16.5,13.3c-8.7-0.3-15.4-6.8-16-15.8
        c-0.5-8,5.6-15.4,13.8-16.8c0.2,0,0.4-0.1,0.6-0.2C92.8,1,94.2,1,95.5,1z M93.5,27.8c5.7,0,10.3-4.6,10.3-10.3
        C103.9,11.8,99.2,7,93.5,7c-5.7,0-10.3,4.7-10.3,10.3C83.1,23.1,87.8,27.8,93.5,27.8z"
      />
      <path
        d="M38.5,1c1.2,0.3,2.5,0.6,3.7,1c7.6,2.7,12,10.6,10.5,18.6C51.2,28.4,44,34.1,36,33.8c-8.3-0.3-15.3-6.9-15.7-14.9
        C19.7,10,25.5,2.6,34,1.2c0.2,0,0.5-0.1,0.7-0.2C36,1,37.3,1,38.5,1z M36.6,27.8c5.7,0,10.3-4.6,10.4-10.3C47,11.8,42.2,7,36.6,7
        c-5.7,0-10.3,4.7-10.3,10.3C26.2,23.1,30.9,27.8,36.6,27.8z"
      />
      <path
        d="M64.9,129c-8.7,0-17.5,0-26.2,0c-4.3,0-6.5-2.1-6.5-6.4c0-6.4,0-12.7,0-19.1c0-13,9.6-22.5,22.5-22.4
        c7.7,0,15.4-0.1,23.1,0.2c9.7,0.4,18.4,8.7,19.6,18.3c0.2,1.3,0.3,2.7,0.3,4c0,6.4,0,12.8,0,19.2c0,4.1-2.2,6.2-6.2,6.2
        C82.7,129,73.8,129,64.9,129z M80.1,122.9c0-0.6,0-1,0-1.5c0-5.7,0-11.5,0-17.2c0-0.6,0-1.2,0.2-1.7c0.2-1.1,1.3-1.9,2.3-1.9
        c1.1,0,2.2,0.9,2.4,2c0.1,0.5,0.1,1,0.1,1.5c0,5.8,0,11.7,0,17.5c0,0.4,0,0.9,0,1.4c2.3,0,4.4,0,6.6,0c0-0.2,0.1-0.3,0.1-0.4
        c0-6.9,0.2-13.8-0.1-20.7c-0.2-7.6-6.9-14.3-14.6-14.5c-7.5-0.2-15-0.2-22.5-0.2c-9.5,0-16.4,6.8-16.4,16.4c0,6,0,12.1,0,18.1
        c0,0.4,0,0.9,0,1.3c2.3,0,4.5,0,6.7,0c0-0.5,0-1,0-1.4c0-5.8,0-11.6,0-17.4c0-0.5,0-0.9,0-1.4c0.2-1.2,1.1-2.2,2.3-2.2
        c1.1,0,2.2,0.8,2.4,1.9c0.1,0.5,0.1,1.1,0.1,1.6c0,5.8,0,11.6,0,17.4c0,0.5,0,1,0.1,1.5C60.1,122.9,70,122.9,80.1,122.9z"
      />
      <path
        d="M9.9,80c2.2,0,4.3,0,6.6,0c0-0.4,0-0.9,0-1.3c0-5.9,0-11.8,0-17.7c0-0.6,0-1.2,0.2-1.7c0.4-1,1.2-1.6,2.3-1.5
        c1.1,0,1.9,0.6,2.2,1.7c0.2,0.7,0.2,1.4,0.2,2.1c0,5.7,0,11.4,0,17.1c0,0.4,0,0.9,0,1.5c3,0,5.9,0,8.8,0c0.9,0,1.8,0,2.7,0.2
        c1.4,0.2,2.3,1.4,2.4,2.8c0,1.4-1,2.7-2.4,3c-0.5,0.1-1.1,0.2-1.6,0.2c-7,0-14.1,0-21.1,0c-4.4,0-6.6-2.2-6.6-6.5
        c0-6.5,0-12.9,0-19.4c0.1-9.7,5.7-17.8,14.8-20.9c2.2-0.8,4.6-1.1,7-1.2c7.9-0.1,15.7,0,23.6,0c1.1,0,2.2,0.2,3.2,0.5
        c1.7,0.4,2.5,1.9,2.2,3.5c-0.3,1.5-1.6,2.4-3.3,2.3c-9-0.1-18-0.4-27-0.3C16.4,44.5,10,51.5,9.8,59.8c-0.2,6.6,0,13.2,0,19.7
        C9.8,79.6,9.8,79.8,9.9,80z"
      />
      <path
        d="M108.5,80.1c0-0.6,0-1,0-1.5c0-5.7,0-11.5,0-17.2c0-0.3,0-0.7,0-1c0.1-1.7,1.1-2.7,2.5-2.7c1.5,0,2.4,1.1,2.4,2.8
        c0,5.1,0,10.2,0,15.4c0,1.4,0,2.7,0,4.2c2.3,0,4.4,0,6.6,0c0-0.3,0.1-0.7,0.1-1c0-6.2,0-12.5,0-18.7c0-8.2-5.5-14.6-13.6-15.9
        c-1-0.2-2-0.1-3-0.2c-6.8,0-13.7,0-20.5,0c-1.4,0-2.7,0.2-4.1,0.3c-1.8,0.2-3.3-0.8-3.6-2.4c-0.3-1.8,0.7-3.2,2.7-3.6
        c1.1-0.2,2.3-0.4,3.5-0.4c8,0,16.1-0.2,24.1,0c10,0.2,19,8.6,20.2,18.5c0.2,1.4,0.3,2.7,0.3,4.1c0,6.3,0,12.7,0,19
        c0,4-2.3,6.3-6.3,6.3c-7.2,0-14.4,0-21.6,0c-2.7,0-4.1-1.5-3.6-3.7c0.3-1.2,1-2,2.2-2.2c0.6-0.1,1.2-0.2,1.7-0.2
        C101.9,80.1,105.1,80.1,108.5,80.1z"
      />
      <path
        d="M65,43.4c8.9-0.1,16.4,7.3,16.5,16.3c0.1,9.1-7.3,16.5-16.3,16.6c-9,0.1-16.4-7.2-16.5-16.3C48.6,50.9,55.9,43.5,65,43.4z
        M65,49.4c-5.7,0-10.4,4.7-10.3,10.5c0.1,5.7,4.8,10.4,10.4,10.3c5.7-0.1,10.3-4.7,10.3-10.4C75.5,54.1,70.7,49.4,65,49.4z"
      />
    </svg>