
    <svg
      width="0.5em"
      height="0.5em"
      fill="currentColor"
      viewBox="0 0 130 130"
      xmlns="http://www.w3.org/2000/svg"
    >
      <path
        d="M45.4,58.7c0-0.7-0.4-1-0.6-1.3c-3.2-4.7-6.4-9.3-9.5-14.1c-2.6-3.9-0.8-8.8,3.7-9.9c2.1-0.5,4,0,5.7,1.4
        c9.5,7.7,19.1,15.3,28.7,23c0.9,0.7,1.7,1,2.8,1c9.9,0,19.8,0,29.7,0c5.7,0,11,1.4,15.4,5.2c4.5,3.8,6.7,8.8,7.5,14.5
        c0.1,1.1,0.2,2.2,0.2,3.2c0,1.8-1,2.8-2.8,2.8c-1.6,0-3.2,0-4.9,0c-15.3,0-30.6,0-45.9,0c-0.9,0-1.4,0.2-2,0.9
        c-7.7,9.1-15.4,18.3-23.2,27.4c-3.7,4.4-10.3,3.5-12.4-1.7c-0.8-2.1-0.7-4.1,0.3-6.2c2.9-6.3,5.9-12.7,8.8-19
        c0.2-0.4,0.4-0.8,0.6-1.4c-2.3,0-4.5,0-6.7,0c-2,0-3.2-1.8-2.5-3.5c0.4-1,1.2-1.6,2.2-1.6c3.7,0,7.5-0.1,11.2,0
        c2,0.1,2.9,1.9,2,3.9c-1.7,3.7-3.4,7.3-5.1,11c-1.9,4-3.7,8-5.6,12c-0.2,0.3-0.3,0.7-0.5,1c-0.4,1.1-0.1,2.2,0.8,2.8
        c1,0.6,2,0.4,2.9-0.6c2.4-2.8,4.8-5.6,7.2-8.5c5.7-6.8,11.5-13.5,17.2-20.3c0.9-1.1,2-1.4,3.3-1.4c16.1,0,32.2,0,48.2,0
        c1.6,0,1.6,0,1.3-1.5c-1.4-8-7-13.1-15-13.9c-1.5-0.1-3-0.2-4.5-0.2c-29.2,0-58.3,0-87.5,0c-2.7,0-3.4-0.6-3.7-3.4
        c-0.3-2.9-0.7-5.8-1.8-8.5c-0.5-1.4-1.2-2.6-2.5-3.5c-0.5-0.4-1-0.7-1.7-0.4c-0.7,0.3-0.8,0.9-0.8,1.6c0,1.6,0,3.2,0,4.7
        c0,6.4,0,12.8,0,19.2c0,3.9,2,5.8,5.8,5.9c1.8,0,3.7,0,5.5,0c1.7,0,2.8,1,2.8,2.5c0,1.5-1.1,2.6-2.9,2.6c-2.7,0-5.3,0.3-8-0.2
        c-4.7-0.8-8.3-4.9-8.4-9.7C1,66.1,1,57.5,1.1,49c0-5,5.3-7.9,9.6-5.4c2.5,1.4,4,3.7,5.1,6.3c0.9,2.3,1.4,4.7,1.8,7.1
        c0.2,1.7,0.2,1.7,2,1.7c8.2,0,16.4,0,24.6,0C44.5,58.7,45,58.7,45.4,58.7z M66,58.6c0.1-0.2-0.1-0.3-0.2-0.4
        c-8.1-6.5-16.1-12.9-24.2-19.4c-0.6-0.5-1.3-0.8-2-0.1c-0.7,0.7-0.4,1.4,0.1,2c3.9,5.7,7.8,11.5,11.7,17.2c0.4,0.6,0.9,0.8,1.6,0.8
        c4.1,0,8.2,0,12.2,0C65.4,58.7,65.7,58.8,66,58.6z"
      />
      <path
        d="M94.1,98.7c2.7,0,5.3,0,8,0c4.6,0.1,7.7,2.3,9.2,6.7c0.3,0.8,0.6,1.1,1.5,1.1c1.5,0,3.1-0.1,4.6,0.3
        c4.8,1.2,8,5.8,7.4,10.7c-0.6,4.8-4.7,8.5-9.5,8.6c-3.5,0.1-6.9,0.1-10.4,0c-4.3-0.1-7.1-2.3-8.2-6.3c-0.3-1.1-0.8-1.4-1.9-1.4
        c-3,0.1-6,0.1-9,0c-5.1-0.1-9.2-3.9-9.7-8.9c-0.5-4.9,2.9-9.4,7.9-10.5c0.8-0.2,1.6-0.2,2.4-0.2C88.9,98.7,91.5,98.7,94.1,98.7z
        M94,103.8c-2.7,0-5.4,0-8.1,0c-2.4,0-4.2,1.6-4.6,3.8c-0.6,3,1.6,5.6,4.7,5.7c4.1,0,8.2,0,12.2,0c1.6,0,2.5,0.8,2.8,2.4
        c0.1,0.7,0.2,1.5,0.4,2.2c0.6,2.2,1.2,2.9,3.4,3c3.5,0.1,7,0.2,10.5,0c2.6-0.1,4.5-2.4,4.4-4.9c-0.1-2.5-2.1-4.5-4.7-4.5
        c-1.1,0-2.2,0-3.4,0c-4.1,0-4.1,0-5.1-4.1c-0.6-2.5-2-3.6-4.6-3.7C99.3,103.8,96.6,103.8,94,103.8z"
      />
      <path
        d="M17.2,4c2.1,0,4.3-0.1,6.4,0c3.6,0.3,6.3,2,8.1,5.1c0.4,0.7,0.8,0.9,1.5,0.9c1.9-0.1,3.8,0.1,5.6,1
        c3.7,1.9,5.6,6.1,4.7,10.2c-0.9,4-4.4,7-8.5,7.1c-3.7,0.1-7.5,0-11.2,0c-2.4,0-4.5-1-6.1-2.7c-0.5-0.6-1.1-0.8-1.9-0.8
        c-1.6,0-3.2,0-4.7,0c-5.6-0.2-10-4.8-9.9-10.5C1.3,8.7,5.7,4.1,11.3,4C13.3,4,15.2,4,17.2,4C17.2,4,17.2,4,17.2,4z M29.5,23.2
        c1.7,0,3.3,0,5,0c2.4,0,4.2-1.8,4.2-4c0-2.2-1.8-4-4.2-4.1c-1.2,0-2.4,0-3.6,0c-1.9,0-2.5-0.5-3.1-2.2c-0.8-2.3-2.6-3.7-5-3.8
        C19,9,15.3,9,11.6,9.1c-3.1,0.1-5.4,2.5-5.3,5.5c0.1,2.9,2.4,5.2,5.5,5.2c2,0,4.1,0,6.1,0c1.3,0,2.2,0.4,2.9,1.5
        c0.8,1.4,2.1,2,3.7,2C26.1,23.2,27.8,23.2,29.5,23.2z"
      />
      <path d="M44.3,70.5c0,1.5-1.1,2.6-2.5,2.7c-1.4,0-2.6-1.1-2.7-2.6c0-1.4,1.1-2.6,2.6-2.7C43.1,67.9,44.3,69,44.3,70.5z" />
      <path d="M54.8,70.5c0,1.5-1.1,2.6-2.6,2.7c-1.4,0-2.6-1.2-2.7-2.6c0-1.4,1.2-2.6,2.6-2.6C53.6,67.9,54.8,69,54.8,70.5z" />
      <path d="M31.8,81.9c0,1.5-1.1,2.6-2.6,2.6c-1.4,0-2.6-1.1-2.7-2.6c0-1.4,1.2-2.6,2.6-2.7C30.6,79.3,31.8,80.5,31.8,81.9z" />
      <path d="M62.9,67.9c1.5,0.1,2.5,1.3,2.4,2.8c-0.1,1.4-1.3,2.6-2.8,2.5c-1.4-0.1-2.6-1.4-2.5-2.8C60.2,68.9,61.4,67.9,62.9,67.9z" />
      <path d="M83.7,67.9c1.5,0,2.6,1.1,2.6,2.6c0,1.5-1.1,2.6-2.6,2.7c-1.4,0-2.6-1.2-2.7-2.6C81.1,69.2,82.2,68,83.7,67.9z" />
      <path d="M73.2,67.9c1.5,0,2.6,1.1,2.6,2.5c0,1.5-1.1,2.6-2.5,2.7c-1.4,0-2.6-1.2-2.7-2.6C70.5,69.2,71.7,68,73.2,67.9z" />
      <path d="M96.8,70.5c0,1.5-1.1,2.6-2.6,2.7c-1.4,0-2.6-1.2-2.7-2.6c0-1.4,1.1-2.6,2.6-2.6C95.7,67.9,96.8,69,96.8,70.5z" />
    </svg>
