<svg
  width="0.5em"
  height="0.5em"
  fill="currentColor"
  viewBox="0 0 130 130"
  xmlns="http://www.w3.org/2000/svg"
    >
      <path
        d="M26.3,36.7c19.2,5.4,55.3,5.9,77.4,0.1c0-0.4,0-0.9,0-1.4c0-7.3,0-14.6,0-21.9c0-3,1.6-4.2,4.5-3.4
        c5.3,1.5,10.5,3.4,15.1,6.7c2.9,2.1,5.2,4.6,5.6,8.3c0.1,0.7,0.1,1.4,0.1,2c0,23.5-0.1,47,0.1,70.5c0,4.4-1.7,7.6-5,10.2
        c-3.9,3.1-8.4,4.9-13.1,6.4c-8.4,2.7-17.1,4.1-25.9,5c-9.5,0.9-19.1,1.2-28.7,0.8c-13.2-0.6-26.2-2.1-38.8-6.3
        c-4.2-1.4-8.2-3.2-11.7-6C2.7,105.2,1,102,1,97.8c0.1-23.3,0.1-46.6,0-69.8c0-5.1,2-8.6,6-11.3c4.8-3.3,10.1-5.2,15.7-6.7
        c2.1-0.6,3.7,0.8,3.7,3.2c0,7.4,0,14.8,0,22.2C26.3,35.8,26.3,36.3,26.3,36.7z M7,35.7c0-0.1,0,0.1,0,0.2c0,18.7,0,37.3,0,56
        c0,0.4,0.1,0.8,0.4,1.1c1.4,1.7,1.5,2.5,0.4,4.3c-1,1.7-1,3,0.3,4.5c1,1,2.1,2,3.3,2.8c5.3,3.2,11.2,4.9,17.2,6.3
        c11.7,2.6,23.6,3.6,35.5,3.6c14.2,0,28.2-0.9,41.9-4.8c4.1-1.1,8.1-2.9,12-4.7c1.6-0.7,3.1-2.1,4.3-3.5c1.4-1.5,1.2-3-0.1-4.5
        c-0.6-0.7-1.4-1.4-2.2-2.1c-1.5-1.4-1.4-3.7,0.4-4.6c0.7-0.4,1.7-0.4,2.7-0.5c0-17.9,0-36.1,0-54.3c-1.9,1-3.6,2-5.5,2.9
        c-1.8,0.8-3.7,1.6-5.7,2.2c-1.6,0.5-2.6,1-2.4,3c0.1,1.4-1.1,2.4-2.5,2.6c-1.3,0.2-2.5-0.6-3-1.9c-0.2-0.4-0.2-0.8-0.3-1.2
        c-25.8,5.1-51.4,5.1-77.2,0c0,1.2,0,2.4,0,3.5c0,2-1.1,3.3-2.9,3.3c-1.8,0-2.9-1.2-2.9-3.2c0-1.7,0-3.4,0-4.9
        C16,39.7,11.5,37.7,7,35.7z M109.6,16.6c0,6.3,0,12.3,0,18.5c3.7-1.2,7.1-2.5,10.1-4.7c0.8-0.6,1.6-1.2,2.2-2
        c1.5-1.8,1.6-3.4,0-5.1C118.6,19.8,114.2,18.3,109.6,16.6z M20.4,16.6c-4.2,1.5-8.3,3-11.5,5.9c-2.7,2.4-2.7,4.7,0.2,6.9
        c2.3,1.7,4.9,2.9,7.4,4.2c1.2,0.6,2.6,1,4,1.5C20.4,28.9,20.4,22.9,20.4,16.6z"
      />
      <path
        d="M48.2,79.5c0-3.2,0-6.4,0-9.7c0.1-7.6,7-11.6,13.6-7.9c5.6,3.2,11.2,6.4,16.7,9.7c6.7,3.9,6.6,11.9,0,15.8
        c-5.7,3.3-11.3,6.6-17.1,9.8c-5.2,2.9-11.3,0.4-12.9-5.1c-0.3-1-0.3-2.1-0.4-3.1C48.2,85.9,48.2,82.7,48.2,79.5z M54.1,79.4
        c0,3.3,0,6.6,0,9.9c0,2.9,2.2,4.2,4.7,2.7c5.7-3.2,11.3-6.5,17-9.8c2.6-1.5,2.6-4,0.1-5.5c-5.7-3.3-11.4-6.6-17.1-9.8
        c-2.4-1.4-4.6-0.1-4.6,2.7C54.1,72.9,54.1,76.1,54.1,79.4z"
      />
      <path
        d="M15.8,91.7c-2,0-3.1-0.8-3.5-2.1c-0.3-1.2,0.1-2.6,1.2-3.2c1.7-0.8,3.4-1.4,5.2-1.9c1.3-0.4,2.5,0.4,3.1,1.7
        c0.5,1.2,0.3,2.7-0.8,3.3C19.2,90.5,17.1,91.2,15.8,91.7z"
      />
      <path
        d="M114.3,87.1c0,2.3-1.6,3.7-3.4,3.2c-1.6-0.4-3.2-0.9-4.8-1.5c-1.4-0.5-2-2.1-1.6-3.5c0.4-1.4,1.8-2.3,3.3-1.9
        c1.6,0.4,3.2,0.9,4.8,1.5C113.7,85.4,114.3,86.3,114.3,87.1z"
      />
      <path
        d="M26.3,76.8c0,0.7,0,1.5,0,2.2c-0.1,1.7-1.3,2.8-2.9,2.9c-1.5,0-2.8-1.2-2.9-2.8c-0.1-1.5-0.1-3,0-4.5
        c0.1-1.7,1.3-2.8,2.9-2.8c1.5,0,2.8,1.2,2.9,2.8C26.4,75.2,26.3,76,26.3,76.8z"
      />
      <path
        d="M109.5,57.1c0,0.8,0.1,1.5,0,2.3c-0.1,1.6-1.3,2.6-2.8,2.6c-1.5,0-2.9-1-3-2.6c-0.1-1.6-0.1-3.3,0-4.9
        c0.1-1.6,1.4-2.7,2.9-2.7c1.5,0,2.7,1.1,2.8,2.7C109.5,55.5,109.5,56.3,109.5,57.1C109.5,57.1,109.5,57.1,109.5,57.1z"
      />
      <path
        d="M103.7,72.9c0-0.7,0-1.5,0-2.2c0.1-1.7,1.3-2.8,2.9-2.8c1.6,0,2.8,1.1,2.9,2.8c0.1,1.5,0.1,3.1,0,4.6
        c-0.1,1.6-1.3,2.7-2.8,2.7c-1.5,0-2.8-1.1-2.9-2.7C103.6,74.6,103.7,73.7,103.7,72.9C103.7,72.9,103.7,72.9,103.7,72.9z"
      />
      <path
        d="M20.5,60.6c0-0.7,0-1.5,0-2.2c0.1-1.6,1.2-2.7,2.8-2.8c1.6,0,2.9,1.1,3,2.7c0.1,1.5,0.1,3.1,0,4.6
        c-0.1,1.6-1.4,2.8-2.9,2.8c-1.5,0-2.7-1.2-2.8-2.8C20.5,62.2,20.5,61.4,20.5,60.6z"
      />
    </svg>