<svg
  width="0.5em"
  height="0.5em"
  fill="currentColor"
  viewBox="0 0 130 130"
  xmlns="http://www.w3.org/2000/svg"
    >
      <path
        d="M64.9,129c-18.5,0-36.9,0-55.4,0c-2.9,0-3.6-0.7-3.6-3.6c0-14,0-27.9,0-41.9c0-1.1-0.2-1.6-1.5-1.5
		c-2.6,0.1-3.4-0.8-3.4-3.3c0-6,0-12,0-18c0-1,0.2-1.9,0.6-2.8c5.5-12.7,11.1-25.3,16.5-38c0.7-1.5,1.6-2.2,3.4-2.2
		c6.3,0.1,12.6,0,18.9,0c1.1,0,1.5-0.2,1.5-1.4c-0.1-3.9,0-7.8,0-11.7C42,2,42.9,1,45.5,1c13,0,26.1,0,39.1,0C87,1,88,2,88,4.4
		c0,3.9,0,7.7,0,11.6c0,1.9-0.2,1.7,1.6,1.7c6.2,0,12.4,0,18.6,0c1.8,0,2.7,0.7,3.4,2.3c5.5,12.7,11,25.3,16.5,38
		c0.4,0.9,0.6,1.7,0.6,2.7c0,6,0,12.1,0,18.1c0,2.5-0.8,3.3-3.3,3.3c-1.2,0-1.5,0.3-1.5,1.5c0,14,0,28.1,0,42.1
		c0,2.7-0.7,3.4-3.4,3.4C102.1,129,83.5,129,64.9,129z M124,57.8c-0.1-0.3-0.1-0.4-0.1-0.6c-5.1-11.7-10.2-23.3-15.2-35
		c-0.2-0.6-0.6-0.7-1.1-0.7c-6.2,0-12.3,0-18.5,0c-0.7,0-0.9,0.2-0.9,0.9c0,3.4,0,6.7,0,10.1c0,0.8,0.3,1,1,1c1.2,0,2.5,0,3.7,0
		c1.8-0.1,2.9,0.7,3.6,2.4c0.6,1.4,1.2,2.8,1.8,4.2c0.3,0.6,0.6,1.2,0.7,1.9c0.5,2.2-1.2,3.9-3.5,3.9c-17.9-0.1-35.8,0-53.7,0
		c-2.5,0-5,0-7.5,0c-2.5,0-3.9-2.1-2.9-4.4c0.8-2,1.7-4.1,2.6-6.1c0.5-1.2,1.5-1.8,2.9-1.8c1.1,0,2.2,0,3.2,0c1.9,0,1.9,0,2-1.9
		c0.1-1.3,0.9-2.1,2-2c1.1,0.1,1.7,0.9,1.7,2.2c0,3,0.1,5.9,0,8.9c0,1.1,0.2,1.4,1.4,1.4c12,0,23.9,0,35.9,0c1.1,0,1.4-0.2,1.4-1.3
		c0-11.5,0-23.1,0-34.6c0-1.1-0.2-1.4-1.4-1.4c-11.9,0-23.8,0.1-35.7,0c-1.3,0-1.5,0.4-1.5,1.6c0.1,5.3,0,10.7,0,16
		c0,1.4-0.7,2.2-1.8,2.2c-1.2,0-1.9-0.7-1.9-2.1c0-1-0.5-1-1.2-1c-6,0-12.1,0-18.1,0c-0.7,0-1.1,0.2-1.4,0.9c-5,11.5-10,23-15,34.4
		c-0.3,0.7-0.4,1.1,0.6,1c0.3,0,0.7,0,1,0c32.8,0,65.6,0,98.4,0c0.5,0,0.9,0,1.4,0c1,0.2,1.7,0.8,1.6,1.9c0,1.1-0.7,1.7-1.7,1.8
		c-0.5,0.1-0.9,0-1.4,0c-33.3,0-66.6,0-99.9,0c-1.1,0-1.4,0.2-1.4,1.4c0.1,4.7,0.1,9.3,0,14c0,1.2,0.4,1.4,1.5,1.4
		c17,0,33.9,0,50.9,0c22.2,0,44.3,0,66.5,0c1.1,0,1.4-0.3,1.4-1.4c-0.1-4.7,0-9.4,0-14.1c0-0.9-0.2-1.3-1.2-1.3
		c-2.5,0.1-5.1,0.1-7.6,0c-1.5,0-2.4-1.4-1.8-2.7c0.4-0.9,1.2-1.1,2.1-1.1C119,57.8,121.5,57.8,124,57.8z M65,82
		c-18,0-35.9,0-53.9,0c-1.1,0-1.5,0.2-1.5,1.4c0,13.5,0,27,0,40.5c0,1.2,0.3,1.4,1.5,1.4c35.9,0,71.8,0,107.7,0
		c1.1,0,1.5-0.2,1.5-1.4c0-13.5,0-27,0-40.5c0-1.2-0.3-1.4-1.5-1.4C100.9,82,83,82,65,82z M38.4,42c0.9,0,1.7,0,2.6,0
		c0.7,0,1-0.1,1-0.9c-0.1-1,0-2.1,0-3.1c0-0.7-0.2-0.8-0.9-0.9c-3.9-0.2-3.9-0.2-5.4,3.3c0,0.1-0.1,0.2-0.2,0.3
		c-0.5,0.9-0.5,1.4,0.7,1.2C37,42,37.7,42,38.4,42z M91.3,42c0.7,0,1.3,0,1.8,0c1.9,0,1.7,0.1,1.2-1.8c-0.7-2.5-2.1-3.5-4.7-3.1
		c-1.1,0.2-1.7,0.3-1.5,1.5c0.1,1.1-0.4,2.5,0.2,3.1C89,42.5,90.4,41.9,91.3,42z"
      />
      <path
        d="M79.3,20c0,1-0.3,1.6-0.9,2.2c-4.8,4.8-9.5,9.5-14.3,14.3c-1.3,1.3-2.8,1.3-4.2,0c-2.8-2.7-5.6-5.5-8.3-8.3
		c-1.3-1.3-1.3-2.9,0-4.2c1.2-1.2,2.3-2.4,3.5-3.5c1.3-1.3,2.7-1.3,4.1-0.1c0.1,0.1,0.2,0.2,0.3,0.3c0.9,0.7,1.6,2.3,2.5,2.2
		c0.9-0.1,1.7-1.4,2.5-2.3c1.9-1.9,3.9-3.9,5.8-5.8c1.7-1.7,3.1-1.7,4.7,0c1.1,1.1,2.2,2.2,3.3,3.3C79,18.6,79.4,19.2,79.3,20z
		M57.1,23.6c-0.5,0.6-1,1.3-1.6,1.8c-0.6,0.5-0.5,0.9,0,1.4c1.9,1.9,3.9,3.8,5.7,5.7c0.6,0.6,0.9,0.7,1.6,0
		c3.6-3.7,7.2-7.3,10.8-10.9c1.6-1.6,1.6-1.6,0-3.2c-0.7-0.7-1-0.6-1.6,0c-2.7,2.8-5.4,5.5-8.2,8.2c-1.2,1.2-2.3,1.2-3.5,0
		c-0.8-0.8-1.6-1.6-2.5-2.5C57.6,24.1,57.4,23.9,57.1,23.6z"
      />
    </svg>