<svg
  width="0.5em"
  height="0.5em"
  fill="currentColor"
  viewBox="0 0 130 130"
  xmlns="http://www.w3.org/2000/svg"
    >
      <path
        d="M1.7,65c0-19.6,0-39.2,0-58.8c0-3.4,1.3-4.7,4.7-4.7c21.2,0,42.4,0,63.6,0c1.8,0,3.1,0.6,4.4,1.8
        c9.3,9.4,18.7,18.8,28.1,28.1c1.1,1.1,1.6,2.4,1.6,4c0,9.8,0,19.6,0,29.4c0,1,0.3,1.3,1.2,1.6c14.2,3.9,23.6,16.6,23.3,31.5
        c-0.3,14-10.4,26.5-24.3,29.8c-2.4,0.6-4.9,0.8-7.4,0.8c-30.3,0-60.7,0-91,0c-2.8,0-4.3-1.5-4.3-4.3C1.7,104.5,1.7,84.7,1.7,65z
        M76.6,121.1c-0.3-0.3-0.4-0.5-0.5-0.6c-7.9-7.3-11.5-16.4-10.4-27.1c1.5-15.2,14.5-27.4,29.9-28c1,0,1.2-0.3,1.2-1.3
        c0-8.1,0-16.2,0-24.3c0-1.1-0.2-1.4-1.4-1.4c-7.9,0.1-15.7,0-23.6,0c-3.1,0-4.5-1.4-4.5-4.5c0-7.9,0-15.7,0-23.6
        c0-1.1-0.2-1.5-1.4-1.4C47.5,9,29,9,10.5,9c-1.1,0-1.4,0.2-1.4,1.4c0,36.4,0,72.9,0,109.3c0,1.1,0.3,1.4,1.4,1.4
        c21.5,0,43.1,0,64.6,0C75.5,121.1,75.9,121.1,76.6,121.1z M97,121.1c13.3,0,24.2-10.8,24.2-24.1c0-13.4-10.8-24.3-24.1-24.3
        c-13.3,0-24.2,10.8-24.2,24.1C72.8,110.1,83.6,121,97,121.1z M74.8,14.7c0,5.2,0,10.3,0,15.5c0,0.9,0.6,0.8,1.2,0.8
        c4.8,0,9.5,0,14.3,0c0.3,0,0.7,0.1,0.8-0.1C85.6,25.5,80.2,20.1,74.8,14.7z"
      />
      <path
        d="M39.5,44.2c6.2,0,12.5,0,18.7,0c2.5,0,4.2,1.5,4.2,3.7c0,2.3-1.7,3.8-4.3,3.8c-12.5,0-25,0-37.6,0c-3,0-4.9-2.6-3.8-5.2
		    c0.7-1.6,2-2.3,3.8-2.3C26.9,44.2,33.2,44.2,39.5,44.2z"
      />
      <path
        d="M39.5,61.6c6.2,0,12.5,0,18.7,0c2.5,0,4.2,1.5,4.2,3.7c0,2.3-1.7,3.8-4.3,3.8c-12.5,0-25,0-37.6,0c-3,0-4.9-2.6-3.7-5.2
		    c0.7-1.6,2-2.3,3.8-2.3C26.9,61.6,33.2,61.6,39.5,61.6z"
      />
      <path
        d="M30.8,86.4c-3.4,0-6.8,0-10.2,0c-2.4,0-4.1-1.5-4.1-3.7c0-2.2,1.7-3.7,4.1-3.7c6.8,0,13.5,0,20.3,0c2.4,0,4.1,1.6,4,3.8
		    c0,2.1-1.7,3.7-4,3.7C37.6,86.4,34.2,86.4,30.8,86.4z"
      />
      <path
        d="M84.4,93.2c1.2,0,2.1,0.4,2.9,1.2c1.5,1.6,3.1,3.1,4.6,4.7c0.7,0.8,1.2,0.9,2,0c3.7-3.8,7.5-7.5,11.2-11.2
        c0.6-0.6,1.2-1.1,2.1-1.3c1.6-0.4,3.2,0.2,4,1.5c0.9,1.4,0.8,3.1-0.2,4.4c-0.2,0.3-0.4,0.5-0.7,0.7c-4.8,4.8-9.6,9.6-14.4,14.4
        c-2,2-4.1,2-6,0c-2.7-2.7-5.3-5.3-8-8c-1.2-1.2-1.5-2.8-0.8-4.2C81.7,94,82.8,93.3,84.4,93.2z"
      />
    </svg>