
    <svg
      width="0.5em"
      height="0.5em"
      fill="currentColor"
      viewBox="0 0 130 130"
      xmlns="http://www.w3.org/2000/svg"
    >
      <path
        d="M88.2,1c-0.6,0.1-1.2,0.4-1.6,0.9L74.9,13.7L65.7,2.2c-0.6-0.7-1.5-1.1-2.4-1c-0.9,0.1-1.7,0.6-2.1,1.4l-7,11.6L37.1,4.3
        c-0.9-0.6-2.1-0.5-3,0.1c-0.9,0.6-1.3,1.7-1.2,2.8l2.2,13l-15.7-2.3c-1.1-0.2-2.1,0.3-2.7,1.2c-0.6,0.9-0.6,2-0.1,3l6.8,11.3
        l-14,7.1c-1.1,0.5-1.7,1.7-1.5,2.9c0.2,1.2,1,2.1,2.2,2.4l10.6,2.1l-4.4,10.9c-0.5,1.1-0.2,2.4,0.7,3.2c0.9,0.8,2.2,0.9,3.3,0.3
        l1.4-0.8v7c0,0.2,0,0.3,0.1,0.5c0.3,1.7,1.4,3.3,3,4.2c-0.5,0.4-1,0.8-1.5,1.5c-1.4,1.9-2.2,5-1.9,8.4c1.1,10,7.5,13.6,9.5,14.5
        c0.8,4.7,3,10.3,7.2,16.2c4.2,6.4,23.7,15.6,27.9,15.6c4.2,0,23.7-9.5,27.9-15.6c3.9-5.9,6.1-11.7,7-16.2c1.9-0.8,8.4-4.4,9.7-14.5
        c0.3-3.3-0.6-6.4-2-8.4c-0.4-0.6-0.8-1-1.2-1.4c1.8-0.8,3-2.4,3.4-4.3c0-0.2,0.1-0.3,0.1-0.5v-5.7c1,0,1.8-0.4,2.4-1.2
        c0.5-0.8,0.6-1.8,0.2-2.7L109,47.3l11.3-4.5c1-0.4,1.8-1.4,1.8-2.5c0-1.1-0.6-2.2-1.6-2.6l-14.2-7.1l6.9-14.2c0.5-1,0.4-2.2-0.4-3.1
        c-0.7-0.8-1.9-1.2-2.9-0.9l-16.2,4.7L91.4,3.5c-0.1-0.8-0.5-1.4-1.1-1.9C89.7,1.1,89,0.9,88.2,1z M63.8,8.7l8.7,10.9
        c0.5,0.6,1.2,1,2,1.1c0.8,0.1,1.6-0.3,2.1-0.8l10-10l1.9,11.2c0.1,0.8,0.6,1.5,1.3,1.9s1.5,0.6,2.3,0.3l13.1-3.8L100,30.5
        c-0.3,0.7-0.4,1.4-0.1,2.1c0.3,0.7,0.8,1.3,1.4,1.6l11.1,5.6l-8.1,3.2c-0.7,0.3-1.3,0.8-1.6,1.5c-0.3,0.7-0.3,1.5,0,2.2l2.6,6.4
        L92.8,46c-0.4-0.2-0.9-0.4-1.4-0.3H38.5c-0.5,0-1,0.1-1.4,0.3l-12.5,7.1l2.6-6.4c0.3-0.8,0.2-1.6-0.2-2.4c-0.4-0.7-1.1-1.2-1.9-1.4
        l-6-1.2l9.5-4.7c0.7-0.3,1.2-1,1.4-1.7c0.2-0.8,0.1-1.5-0.3-2.2l-5.3-8.9l13.7,1.9c0.9,0.2,1.8-0.1,2.4-0.8c0.6-0.6,0.9-1.6,0.8-2.4
        l-1.8-10.9l14.4,8.2c1.3,0.7,3,0.3,3.7-1L63.8,8.7z M39.3,51.3h0.8c-0.9,1.6-1.6,3.5-1.6,5.6v5.6c0,2,0.6,3.9,1.6,5.6H27.4v-9.9
        L39.3,51.3z M49.6,51.3h33.4c3.3,0,5.6,2.3,5.6,5.6v5.6c0,3.3-2.3,5.6-5.6,5.6H49.6c-3.3,0-5.6-2.3-5.6-5.6v-5.6
        C44.1,53.5,46.3,51.3,49.6,51.3z M93.4,52.9l11.9,6.8V68H92.6c0.9-1.6,1.6-3.5,1.6-5.6v-5.6C94.2,55.5,93.9,54.1,93.4,52.9z
        M32,73.5h68.7c0.2,0.6,0.5,1.2,1,1.7c0.6,0.3,1.7,1.2,2.3,2.3c0.8,1.1,1.4,2.5,1.1,4.7c-1.1,8.9-7.2,10.6-7.2,10.6
        c-0.7,0.2-1.2,0.7-1.5,1.2c-1.3-0.7-2.6-1.3-4-1.8c-3-1.1-5.8-1.8-5.8-1.8c-0.4-0.1-0.8-0.1-1.1-0.1c-1.3,0.2-2.4,1.3-2.4,2.6
        c-0.1,1.3,0.8,2.6,2.2,2.9c0,0,2.7,0.7,5.3,1.7c1.3,0.5,2.5,1.1,3.3,1.6c0.3,0.2,0.4,0.3,0.5,0.3c0.1,0.2,0.2,0.4,0.3,0.6
        c-0.6,1.6-1.3,3.2-2.3,5c-1-1.3-2.2-2.4-3.4-3.2c-2.3-1.7-4.6-2.9-4.6-2.9c-0.5-0.2-1-0.3-1.6-0.3c-0.1,0-0.2,0-0.3,0
        c-1.2,0.2-2.2,1.2-2.3,2.4c-0.1,1.2,0.5,2.4,1.7,2.9c0,0,1.9,1,3.7,2.4c0.9,0.7,1.8,1.5,2.4,2.2c0.6,0.7,0.7,1.2,0.7,1.3
        c0,0.4,0.1,0.8,0.3,1.1c-1,1.2-2.4,2.4-4,3.7c-0.7-1.3-1.6-2.4-2.4-3.5c-1.5-1.9-3-3.3-3-3.3c-0.6-0.6-1.4-0.9-2.3-0.9
        c-0.1,0-0.2,0.1-0.3,0.1c-1,0.2-1.8,1-2.1,2c-0.3,1,0.1,2.1,0.8,2.8c0,0,1.3,1.2,2.5,2.8c1,1.2,1.6,2.6,1.9,3.1
        c-5.7,3.4-12,6-13.7,6c-1.6,0-8-2.6-13.8-5.9c0.2-0.4,0.9-1.9,2-3.2c1.3-1.5,2.5-2.8,2.5-2.8c0.9-0.8,1.2-2.1,0.7-3.2
        c-0.5-1.1-1.7-1.8-2.9-1.6c-0.1,0-0.2,0.1-0.3,0.1c-0.5,0.1-1,0.4-1.4,0.8c0,0-1.5,1.4-3,3.3c-0.9,1.1-1.8,2.2-2.5,3.6
        c-1.6-1.2-3-2.4-3.9-3.6c0.2-0.4,0.3-0.9,0.3-1.3c0-0.1,0.1-0.6,0.7-1.3c0.6-0.7,1.4-1.5,2.4-2.2c1.8-1.4,3.7-2.4,3.7-2.4
        c1.5-0.3,2.4-1.8,2.1-3.2c-0.3-1.5-1.7-2.5-3.1-2.2c-0.2,0-0.5,0.1-0.7,0.2c-0.2,0.1-0.5,0.1-0.7,0.3c0,0-2.3,1.1-4.6,2.9
        c-1.2,0.9-2.4,2-3.4,3.2c-0.1,0.1-0.1,0.2-0.2,0.3c-0.9-1.8-1.7-3.4-2.3-5c0.2-0.3,0.3-0.6,0.4-1c0.1-0.1,0.2-0.2,0.5-0.3
        c0.8-0.5,2-1.1,3.3-1.6c2.6-1,5.3-1.7,5.3-1.7c1.5-0.2,2.6-1.6,2.4-3.2c-0.2-1.5-1.6-2.6-3.2-2.4c-0.2,0-0.3,0-0.4,0.1
        c-0.1,0-0.1,0.1-0.2,0.1c0,0-2.9,0.7-5.8,1.8c-1.4,0.5-2.9,1.1-4.2,1.9c-0.3-0.5-0.9-0.9-1.6-1c0,0-6.1-2-7.2-10.9
        c-0.3-2.2,0.3-3.6,1.1-4.7c0.8-1.1,1.6-2,2.2-2.3C31.3,74.9,31.8,74.3,32,73.5z M51,76.3c-2.3,0-4.2,1.9-4.2,4.2
        c0,2.3,1.9,4.2,4.2,4.2s4.2-1.9,4.2-4.2C55.2,78.2,53.3,76.3,51,76.3z M81.7,76.3c-2.3,0-4.2,1.9-4.2,4.2c0,2.3,1.9,4.2,4.2,4.2
        c2.3,0,4.2-1.9,4.2-4.2C85.9,78.2,84,76.3,81.7,76.3z"
      />
    </svg>